<svg width="32" height="23" viewBox="0 0 32 23" fill="none" xmlns="http://www.w3.org/2000/svg">
<rect y="0.5" width="32" height="22" rx="3" fill="#F3F3F3"/>
<path d="M12.4792 8C12.6259 8 12.7628 8.0639 12.857 8.17257L12.9082 8.243L13.9791 10.029L15.0501 8.243C15.1251 8.118 15.2508 8.03258 15.3925 8.00758L15.4791 8H21.9999C22.1063 8 22.2089 8.03393 22.2938 8.09512L22.3539 8.14601L23.4999 9.29201L24.6459 8.14601C24.7211 8.07162 24.8174 8.02281 24.921 8.00626L24.9999 8H27.4998C27.6938 8 27.8698 8.11198 27.9528 8.288C28.0211 8.43382 28.0145 8.60255 27.938 8.74098L27.8838 8.81998L25.6509 11.5L27.8838 14.18C28.0088 14.329 28.0347 14.537 27.9528 14.712C27.8816 14.8629 27.7422 14.9667 27.5816 14.9933L27.4998 15H24.9998C24.8934 15 24.7909 14.9661 24.706 14.9049L24.6458 14.854L23.4999 13.707L22.3539 14.853C22.2787 14.9282 22.1824 14.9772 22.0788 14.9937L21.9999 15H15.5C15.2883 15 15.1072 14.8683 15.0344 14.682L15.01 14.599L14.947 14.724C14.8762 14.8648 14.7443 14.9626 14.5929 14.9913L14.5001 15H13.5001C13.3426 15 13.1962 14.9257 13.1026 14.8031L13.0531 14.724L12.9901 14.599C12.9499 14.7994 12.7902 14.9561 12.5888 14.9922L12.5001 15H8.50023C8.2549 15 8.05064 14.823 8.00828 14.5898L8.00022 14.5V14H7.80823L7.44725 14.724C7.37643 14.8648 7.24448 14.9626 7.09309 14.9913L7.00026 15H4.50033C4.32731 15 4.16635 14.91 4.07433 14.763C4.00155 14.6454 3.98186 14.5034 4.01683 14.3725L4.05333 14.277L7.05327 8.27698C7.12409 8.13534 7.25536 8.03742 7.40709 8.00871L7.50026 8H12.4792ZM17 8.998L15.7621 8.9989L14.4082 11.2559C14.2427 11.5295 13.8178 11.5544 13.6074 11.3305L13.5512 11.2559L12.1962 8.99989H11.0002V12.4999C11.0002 12.7759 10.7762 12.9999 10.5002 12.9999C10.2549 12.9999 10.0506 12.8229 10.0083 12.5897L10.0002 12.4999V8.99989H7.80823L5.30829 13.9999H6.69131L7.05229 13.2759C7.12393 13.1351 7.25533 13.0373 7.40708 13.0086L7.50026 12.9999L8.32738 12.9999C8.21439 12.9968 8.10979 12.9074 8.04955 12.763C7.9889 12.6159 7.98356 12.4309 8.03555 12.2769L8.36881 11.2768C8.43814 11.0687 8.5901 10.9597 8.74406 11.0137C8.89403 11.0657 9 11.2678 9 11.4998V12.4999C9 12.776 8.85069 13 8.66674 13H8.511L8.59002 13.008C8.79404 13.045 8.95506 13.206 8.99212 13.4101L9.00018 13.4999V14H12.0001V12.4999C12.0001 12.268 12.1591 12.066 12.3851 12.013C12.5864 11.9666 12.7868 12.0443 12.9035 12.2031L12.9481 12.276L13.8091 14H14.1921L15.0531 12.276C15.1571 12.0679 15.3861 11.9599 15.6161 12.013C15.8129 12.0593 15.9593 12.2198 15.9928 12.4146L16.0001 12.4999V14L17 13.999V8.998ZM21.792 8.9989L18 8.998V13.999L21.7929 14L23.1469 12.6459C23.3202 12.4726 23.59 12.4534 23.7847 12.5882L23.8539 12.6459L25.2069 14H26.4329L24.617 11.8199C24.4813 11.6572 24.4644 11.4309 24.5661 11.2522L24.617 11.1789L26.4329 8.9989H25.2069L23.853 10.3529C23.6796 10.5262 23.4099 10.5455 23.2152 10.4107L23.146 10.3529L21.792 8.9989ZM20.6 10C20.7398 10 20.863 10.0899 20.9345 10.2259L21.8538 11.146C22.0271 11.3193 22.0463 11.589 21.9115 11.7838L21.8538 11.853L20.9345 12.7741C20.863 12.9101 20.7398 13 20.6 13H19.4C19.1792 13 19 12.776 19 12.5C19 12.224 19.1792 12 19.4 12H20V11H19.4C19.2037 11 19.0403 10.823 19.0064 10.5898L19 10.5C19 10.2547 19.1416 10.0504 19.3281 10.0081L19.4 10H20.6Z" fill="#0079C2"/>
</svg>
