<svg width="32" height="23" viewBox="0 0 32 23" fill="none" xmlns="http://www.w3.org/2000/svg">
<rect y="0.5" width="32" height="22" rx="3" fill="#F3F3F3"/>
<path d="M25.0623 9.58887H26.1605C27.016 9.58887 27.5051 9.99915 27.5051 10.71C27.5051 11.2917 27.1971 11.6729 26.6394 11.7866L27.8354 13.386H26.924L25.8994 11.8603H25.8034V13.386H25.0634H25.0623V9.58887Z" fill="black"/>
<path d="M22.472 9.58887H24.5714V10.2323H23.212V11.0752H24.5223V11.718H23.212V12.7432H24.5714V13.386H22.472V9.58887Z" fill="black"/>
<path d="M19.2971 9.58691L20.3091 12.1372L21.3348 9.58691H22.1365L20.496 13.4812H20.0994L18.488 9.58749H19.2971V9.58691Z" fill="black"/>
<path d="M14.8383 10.7142C15.144 9.98904 15.8629 9.48047 16.6989 9.48047C17.8149 9.48047 18.7189 10.3845 18.7189 11.4993C18.7189 11.6393 18.7051 11.7759 18.6777 11.9073C18.672 11.9365 18.6628 11.9656 18.656 11.9953C18.6463 12.0302 18.6394 12.0656 18.6274 12.1005C18.3737 12.9222 17.6051 13.5193 16.6989 13.5193C15.584 13.5193 14.68 12.6153 14.68 11.5005C14.68 11.2216 14.7354 10.9565 14.8383 10.7142Z" fill="#D67A1B"/>
<path d="M13.5274 9.50391C13.8457 9.50391 14.1137 9.57191 14.4382 9.73705V10.6079C14.1314 10.3068 13.8634 10.1805 13.5097 10.1805C12.8154 10.1805 12.2697 10.7559 12.2697 11.4845C12.2697 12.2531 12.7982 12.7942 13.544 12.7942C13.8794 12.7942 14.1417 12.6742 14.4377 12.3776V13.2485C14.1017 13.4085 13.8285 13.4702 13.5091 13.4702C12.3817 13.4702 11.5057 12.6051 11.5057 11.4896C11.5057 10.3862 12.4051 9.50277 13.5274 9.50391Z" fill="black"/>
<path d="M6.59998 12.9472C6.23484 13.25 5.81998 13.386 5.24627 13.386H4.16455V9.58887H5.25027C6.45084 9.58887 7.28798 10.3694 7.28798 11.49C7.28798 12.0483 7.03255 12.5872 6.59998 12.9472Z" fill="black"/>
<path d="M8.3697 13.385H7.6297V9.58789H8.3697V13.385Z" fill="black"/>
<path d="M9.96282 13.4778C9.39997 13.4778 8.99082 13.2555 8.64911 12.7544L9.12797 12.2932C9.29768 12.6229 9.58339 12.8001 9.93597 12.8001C10.2663 12.8001 10.5108 12.5715 10.5108 12.2641C10.5108 12.1047 10.4371 11.9675 10.2885 11.8709C10.2143 11.8252 10.0668 11.7572 9.77654 11.6549C9.08111 11.4047 8.84339 11.1367 8.84339 10.6138C8.84339 9.99265 9.35425 9.52637 10.0263 9.52637C10.4423 9.52637 10.8228 9.66865 11.1423 9.94694L10.7548 10.4549C10.5617 10.2384 10.3788 10.1469 10.1577 10.1469C9.83825 10.1469 9.60511 10.3287 9.60511 10.5681C9.60511 10.7721 9.73597 10.8818 10.1811 11.0458C11.0223 11.3532 11.2725 11.6264 11.2725 12.2292C11.2725 12.9652 10.7325 13.4761 9.96282 13.4778Z" fill="black"/>
<path d="M6.11485 10.5389C5.87085 10.3177 5.58056 10.2314 5.10285 10.2314H4.90399V12.7423H5.10285C5.57999 12.7423 5.88285 12.6503 6.11485 12.4406C6.37142 12.2126 6.52571 11.8486 6.52571 11.484C6.52571 11.12 6.37142 10.7669 6.11485 10.5389Z" fill="#EFEFEF"/>
<path d="M26.0303 10.1855H25.8034V11.3353H26.0188C26.492 11.3353 26.7423 11.1301 26.7423 10.7478C26.7423 10.3793 26.492 10.1855 26.0303 10.1855Z" fill="#EFEFEF"/>
</svg>
