<?xml version="1.0" encoding="utf-8"?>
<!-- Generator: Adobe Illustrator 26.5.3, SVG Export Plug-In . SVG Version: 6.00 Build 0)  -->
<svg version="1.1" id="Layer_1" xmlns="http://www.w3.org/2000/svg" xmlns:xlink="http://www.w3.org/1999/xlink" x="0px" y="0px"
	 viewBox="0 0 33.4 23.2" style="enable-background:new 0 0 33.4 23.2;" xml:space="preserve">
<g>
	<path fill="currentColor" fill-rule="evenodd" clip-rule="evenodd" d="M31.4,0h-29C1.6,0,1,0.7,1,1.5v20.3c0,0.8,0.7,1.4,1.4,1.4h29c0.8,0,1.4-0.7,1.4-1.4V1.5
		C32.9,0.7,32.2,0,31.4,0z"/>
	<path fill="#000" fill-rule="evenodd" clip-rule="evenodd" d="M30,2.9v2.9H3.9V2.9H30z M3.9,20.3V8.7H30v11.6H3.9z M7.3,13.8h4.8c0.8,0,1.4-0.7,1.4-1.4s-0.7-1.4-1.4-1.4
		H7.3c-0.8,0-1.4,0.7-1.4,1.4S6.5,13.8,7.3,13.8z M7.3,15.2h10.6c0.8,0,1.4,0.7,1.4,1.4c0,0.8-0.7,1.4-1.4,1.4H7.3
		c-0.8,0-1.4-0.7-1.4-1.4C5.8,15.9,6.5,15.2,7.3,15.2z"/>
</g>
</svg>
