<svg width="32" height="23" viewBox="0 0 32 23" fill="none" xmlns="http://www.w3.org/2000/svg">
<rect y="0.5" width="32" height="22" rx="3" fill="#F3F3F3"/>
<path d="M29 0.5H3C1.34315 0.5 0 1.84315 0 3.5V19.5C0 21.1569 1.34315 22.5 3 22.5H29C30.6569 22.5 32 21.1569 32 19.5V3.5C32 1.84315 30.6569 0.5 29 0.5Z" fill="#F3F3F3"/>
<path fill-rule="evenodd" clip-rule="evenodd" d="M8.10143 19.2408V18.0134C8.10143 17.5513 7.80685 17.2404 7.33209 17.2362C7.08244 17.2319 6.82492 17.3096 6.64462 17.5841C6.50984 17.3672 6.29713 17.2362 5.99838 17.2362C5.7896 17.2362 5.58535 17.2975 5.42566 17.5264V17.2853H5V19.2408H5.42948V18.1568C5.42948 17.8173 5.61776 17.637 5.90853 17.637C6.19083 17.637 6.33371 17.8211 6.33371 18.1525V19.2408H6.76355V18.1568C6.76355 17.8173 6.95982 17.637 7.24224 17.637C7.53253 17.637 7.6716 17.821 7.6716 18.1525V19.2408H8.10143ZM14.4593 17.2853H13.7639V16.692H13.334V17.2853H12.9375V17.674H13.334V18.5661C13.334 19.0199 13.51 19.29 14.0131 19.29C14.1975 19.29 14.4101 19.233 14.545 19.1388L14.4223 18.7744C14.2955 18.8479 14.1563 18.885 14.0458 18.885C13.8332 18.885 13.7639 18.7538 13.7639 18.5577V17.674H14.4593V17.2853ZM18.088 17.2362C17.8427 17.2362 17.6829 17.3508 17.5729 17.5227V17.2853H17.1514V19.2408H17.5766V18.1446C17.5766 17.8211 17.7157 17.6411 17.9938 17.6411C18.0801 17.6411 18.1699 17.6534 18.2599 17.6904L18.391 17.2895C18.2969 17.2524 18.1742 17.2362 18.088 17.2362ZM12.6016 17.4408C12.397 17.3059 12.1151 17.2362 11.8042 17.2362C11.3087 17.2362 10.9898 17.4736 10.9898 17.8623C10.9898 18.1811 11.2272 18.3778 11.6646 18.4391L11.8654 18.4678C12.0986 18.5005 12.2087 18.5618 12.2087 18.6723C12.2087 18.8236 12.0532 18.9098 11.7629 18.9098C11.4684 18.9098 11.2558 18.8156 11.1125 18.7052L10.9121 19.0362C11.1453 19.2081 11.4399 19.29 11.7587 19.29C12.3235 19.29 12.6507 19.0241 12.6507 18.6518C12.6507 18.308 12.3932 18.1282 11.9676 18.0668L11.7671 18.0378C11.5831 18.0134 11.4356 17.977 11.4356 17.8459C11.4356 17.7025 11.5747 17.6168 11.8079 17.6168C12.0575 17.6168 12.2991 17.711 12.4176 17.7845L12.6016 17.4408ZM24.0001 17.2362C23.7547 17.2362 23.595 17.3508 23.4844 17.5227V17.2853H23.0629V19.2408H23.4887V18.1446C23.4887 17.8211 23.6278 17.6411 23.9059 17.6411C23.9921 17.6411 24.082 17.6534 24.1719 17.6904L24.3031 17.2895C24.2088 17.2524 24.0862 17.2362 24.0001 17.2362ZM18.5179 18.2631C18.5179 18.8563 18.9308 19.29 19.5612 19.29C19.8558 19.29 20.0521 19.2244 20.2645 19.0568L20.0604 18.713C19.9007 18.8278 19.7331 18.8892 19.5486 18.8892C19.209 18.885 18.9595 18.6395 18.9595 18.2631C18.9595 17.8866 19.209 17.6411 19.5486 17.637C19.7331 17.637 19.9007 17.6983 20.0604 17.8131L20.2645 17.4694C20.0521 17.3018 19.8558 17.2362 19.5612 17.2362C18.9308 17.2362 18.5179 17.6697 18.5179 18.2631ZM22.5025 18.2631V17.2853H22.0773V17.5227C21.9419 17.3466 21.7378 17.2362 21.4595 17.2362C20.9113 17.2362 20.4813 17.666 20.4813 18.2631C20.4813 18.8607 20.9113 19.29 21.4595 19.29C21.7378 19.29 21.9419 19.1795 22.0773 19.0035V19.2408H22.5025V18.2631ZM20.9192 18.2631C20.9192 17.9194 21.1445 17.637 21.5126 17.637C21.8642 17.637 22.1016 17.9072 22.1016 18.2631C22.1016 18.6189 21.8642 18.8892 21.5126 18.8892C21.1445 18.8892 20.9192 18.6069 20.9192 18.2631ZM15.7851 17.2362C15.2117 17.2362 14.811 17.6534 14.811 18.2631C14.811 18.885 15.2282 19.29 15.8135 19.29C16.1081 19.29 16.3779 19.2165 16.6153 19.0161L16.4069 18.7009C16.243 18.8315 16.0341 18.9056 15.8379 18.9056C15.564 18.9056 15.3144 18.7786 15.2531 18.4264H16.7051C16.7094 18.3737 16.7136 18.3202 16.7136 18.2631C16.7094 17.6534 16.3329 17.2362 15.7851 17.2362ZM15.7766 17.6168C16.0506 17.6168 16.2266 17.7887 16.2715 18.0912H15.2568C15.3022 17.8088 15.4736 17.6168 15.7766 17.6168ZM26.4511 18.2631V16.5H26.0254V17.5227C25.8905 17.3466 25.6859 17.2362 25.4076 17.2362C24.8592 17.2362 24.4294 17.666 24.4294 18.2631C24.4294 18.8607 24.8592 19.29 25.4076 19.29C25.6859 19.29 25.8905 19.1795 26.0254 19.0035V19.2408H26.4511V18.2631ZM24.8673 18.2631C24.8673 17.9194 25.0926 17.637 25.4606 17.637C25.8127 17.637 26.0497 17.9072 26.0497 18.2631C26.0497 18.6189 25.8127 18.8892 25.4606 18.8892C25.0926 18.8892 24.8673 18.6069 24.8673 18.2631ZM10.4986 18.2631V17.2853H10.0734V17.5227C9.9385 17.3466 9.7339 17.2362 9.45576 17.2362C8.90736 17.2362 8.47752 17.666 8.47752 18.2631C8.47752 18.8607 8.90736 19.29 9.45576 19.29C9.7339 19.29 9.9385 19.1795 10.0734 19.0035V19.2408H10.4986V18.2631ZM8.91534 18.2631C8.91534 17.9194 9.14056 17.637 9.50867 17.637C9.86033 17.637 10.0977 17.9072 10.0977 18.2631C10.0977 18.6189 9.86033 18.8892 9.50867 18.8892C9.14056 18.8892 8.91534 18.6069 8.91534 18.2631Z" fill="#2D2D2D"/>
<path d="M13 14.5C15.7614 14.5 18 12.2614 18 9.5C18 6.73858 15.7614 4.5 13 4.5C10.2386 4.5 8 6.73858 8 9.5C8 12.2614 10.2386 14.5 13 14.5Z" fill="#EE0005"/>
<path d="M19 14.5C21.7614 14.5 24 12.2614 24 9.5C24 6.73858 21.7614 4.5 19 4.5C16.2386 4.5 14 6.73858 14 9.5C14 12.2614 16.2386 14.5 19 14.5Z" fill="#F9A000"/>
<path d="M14 9.50195C14 11.1227 14.7815 12.5669 16 13.502C17.2184 12.5669 18 11.1227 18 9.50195C18 7.88117 17.2185 6.43698 16 5.50195C14.7816 6.43705 14 7.88121 14 9.50195Z" fill="#FF6300"/>
</svg>
