<svg width="32" height="23" viewBox="0 0 32 23" fill="none" xmlns="http://www.w3.org/2000/svg">
<rect y="0.5" width="32" height="22" rx="3" fill="#F3F3F3"/>
<path d="M15.5349 7.7793L14.102 15.2212H11.8139L13.2468 7.7793H15.5349ZM12.7442 7.7793L9.423 15.2212H7.18839L5.3023 9.00478C6.58041 9.79233 7.66932 11.0055 8.13829 11.9195L8.22369 12.0981L8.43895 12.869L10.4993 7.7793H12.7442ZM20.1046 7.7793C20.8457 7.7793 21.4617 7.90778 21.8934 8.0371L22.0465 8.08539L21.751 9.64454L21.5505 9.55846C21.1494 9.41498 20.6323 9.2715 19.9252 9.28106C19.0809 9.28106 18.6799 9.59672 18.6904 9.89324C18.6799 10.2376 19.1442 10.4576 19.9041 10.7924C21.16 11.3089 21.7404 11.9307 21.7299 12.7533C21.7193 14.2551 20.2313 15.2212 17.9517 15.2212C17.069 15.2125 16.2125 15.0694 15.6834 14.8925L15.5349 14.8385L15.8515 13.2411L16.1259 13.3559C16.8435 13.6237 17.3079 13.729 18.1733 13.729C18.7959 13.729 19.4608 13.4994 19.4714 13.0211C19.4714 12.7055 19.1864 12.4759 18.3421 12.122C17.519 11.7776 16.4319 11.1941 16.4425 10.1611C16.453 8.75496 17.9622 7.7793 20.1046 7.7793ZM26.8842 7.7793L28.5581 15.2212H26.6321C26.6321 15.2212 26.4405 14.3625 26.38 14.1059H23.728C23.6473 14.3033 23.2944 15.2212 23.2944 15.2212H21.1163L24.1918 8.4011C24.4137 7.9076 24.7868 7.7793 25.2809 7.7793H26.8842ZM25.4321 9.78287C25.3313 10.0592 25.1498 10.5132 25.1599 10.4935C25.1599 10.4935 24.5044 12.1516 24.333 12.576H26.0573C26.022 12.4302 25.941 12.0724 25.8551 11.6895L25.7813 11.3596C25.6716 10.8686 25.5733 10.4244 25.5733 10.4244L25.4321 9.78287ZM6.5523 7.7793C6.96897 7.78874 7.30811 7.92096 7.42439 8.35538L8.093 11.5002C7.43408 9.85697 5.84493 8.4876 3.44183 7.92096L3.4709 7.7793H6.5523Z" fill="#2394BC"/>
<path d="M7.42439 8.35538C7.30811 7.92096 6.96897 7.78874 6.5523 7.7793H3.4709L3.44183 7.92096C5.84493 8.4876 7.43408 9.85697 8.093 11.5002L7.42439 8.35538Z" fill="#EFC75E"/>
</svg>
