<?xml version="1.0" encoding="utf-8"?>
<!-- Generator: Adobe Illustrator 26.5.3, SVG Export Plug-In . SVG Version: 6.00 Build 0)  -->
<svg version="1.1" id="Layer_1" xmlns="http://www.w3.org/2000/svg" xmlns:xlink="http://www.w3.org/1999/xlink" x="0px" y="0px"
	 viewBox="0 0 33.4 23.2" style="enable-background:new 0 0 33.4 23.2;" xml:space="preserve">
<g>
	<g>
		<path fill="currentColor" d="M0.6,1c0.5-0.6,1.2-1,2-1H30c0.5,0,1,0,1.5,0.1c1,0.3,1.8,1.3,1.8,2.4v2.6H0V2.7C0,2,0.2,1.4,0.6,1L0.6,1z"/>
		<path fill="currentColor" d="M33.3,9.3l0-4.1H0v4.1H33.3v10.4v1c0,0.7-0.3,1.3-0.8,1.7c-0.5,0.5-1.2,0.7-1.8,0.8H2.7C2,23.2,1.4,23,1,22.6
			c-0.6-0.5-1-1.2-1-2V9.3 M3.6,13.5c-0.2,0-0.5,0.2-0.5,0.4c-0.1,0.2-0.1,0.5,0,0.7c0.1,0.2,0.3,0.3,0.5,0.3h8
			c0.3,0,0.6-0.2,0.6-0.5c0-0.3-0.1-0.6-0.4-0.7c-0.2-0.1-0.3-0.1-0.5-0.1L3.6,13.5 M3.6,16.8c-0.3,0-0.6,0.2-0.6,0.6
			c0,0.3,0.1,0.6,0.4,0.7c0.2,0.1,0.3,0,0.5,0h9.8c0.2,0,0.5-0.1,0.6-0.4c0.1-0.2,0.1-0.5-0.1-0.7c-0.1-0.2-0.3-0.2-0.6-0.2
			C10.4,16.8,7,16.8,3.6,16.8L3.6,16.8z"/>
	</g>
	<path fill="#000" d="M29.8,3.5c-1.1-1.2-2.9-1.2-4.2-0.3c-1,0.7-1.6,1.7-2.1,2.9c-1-0.9-2.1-1.7-3.5-1.9c-1.7-0.2-3.5,0.6-4,2.3
		c-0.5,1.5,0.2,3.6,1.1,4.8c1,1.4,2.3,2.6,3.7,3.5c1.6,1,3.5,1.7,5.4,2c1,0.1,1.4-1.2,0.4-1.6l0,0c0,0-0.1,0-0.1,0
		c1-0.8,1.8-1.9,2.4-2.9c0.8-1.3,1.4-2.7,1.7-4.1C31,6.6,31,4.8,29.8,3.5z M28.6,8c-0.3,1.1-0.8,2.2-1.4,3.2c-0.7,1.1-1.6,2.1-2.5,3
		c-0.1,0.1-0.1,0.2-0.2,0.2c-0.6-0.2-1.3-0.5-1.9-0.8c-1.3-0.7-2.3-1.4-3.2-2.4c-0.9-1-1.5-2.1-1.7-3.3c0-0.2,0-0.3,0-0.5
		c0-0.1,0-0.2,0-0.2c0,0,0,0,0-0.1c0.1-0.2,0.1-0.4,0.3-0.5c0.3-0.3,0.8-0.5,1.3-0.5c0.7,0,1.3,0.2,1.9,0.7c0.7,0.5,1.3,1.2,1.9,1.8
		c0.5,0.5,1.5,0.3,1.6-0.4c0.3-1.1,0.5-2.3,1.3-3.1c0.6-0.6,1.6-0.9,2.2-0.2C29.2,5.7,28.9,7,28.6,8z"/>
</g>
</svg>
