<svg width="34" height="34" viewBox="0 0 34 34" fill="none" xmlns="http://www.w3.org/2000/svg">
<path d="M32.5691 9.03836C32.5691 8.91086 32.5408 8.78336 32.4983 8.65586C32.4841 8.61336 32.47 8.57086 32.4558 8.52836C32.385 8.38669 32.3 8.24502 32.1866 8.13169L27.4691 3.41419C27.2 3.14502 26.8458 3.00336 26.4633 3.00336H7.55079C7.16829 3.00336 6.81412 3.15919 6.54495 3.41419L1.82745 8.13169C1.71412 8.24502 1.62912 8.38669 1.55829 8.52836C1.54412 8.57086 1.52995 8.61336 1.51579 8.65586C1.47329 8.78336 1.44495 8.89669 1.44495 9.03836C1.44495 9.06669 1.43079 9.09502 1.43079 9.12336V28.1775C1.43079 29.7359 2.70579 31.0109 4.26412 31.0109H29.75C31.3083 31.0109 32.5833 29.7359 32.5833 28.1775V9.12336C32.5833 9.12336 32.5691 9.06669 32.5691 9.03836ZM8.14579 5.82252H25.8683L27.7525 7.70669H6.24745L8.13162 5.82252H8.14579ZM4.24995 28.1775V10.54H29.75V28.1775H4.24995Z" fill="currentColor"/>
<path d="M23.29 14.79C22.5108 14.79 21.8733 15.4275 21.8733 16.2066C21.8733 18.8983 19.6917 21.0941 17 21.0941C14.3083 21.0941 12.1267 18.8983 12.1267 16.2066C12.1267 15.4275 11.4892 14.79 10.71 14.79C9.93083 14.79 9.29333 15.4275 9.29333 16.2066C9.29333 20.4566 12.75 23.9275 17 23.9275C21.25 23.9275 24.7067 20.4708 24.7067 16.2066C24.7067 15.4275 24.0692 14.79 23.29 14.79Z" fill="currentColor"/>
</svg>
