<?xml version="1.0" encoding="utf-8"?>
<!-- Generator: Adobe Illustrator 26.5.3, SVG Export Plug-In . SVG Version: 6.00 Build 0)  -->
<svg version="1.1" id="Layer_1" xmlns="http://www.w3.org/2000/svg" xmlns:xlink="http://www.w3.org/1999/xlink" x="0px" y="0px"
	 viewBox="0 0 32 22" style="enable-background:new 0 0 32 22;" xml:space="preserve">
<style type="text/css">
	.st0{fill:#FFC43A;}
	.st1{fill:#263B80;}
	.st2{fill:#139AD6;}
	.st3{fill:#232C65;}
	.st4{clip-path:url(#SVGID_00000021113234518502116170000008138489649504750224_);}
</style>
<rect x="0" class="st0" width="32" height="22"/>
<g>
	<g>
		<path class="st1" d="M18.9,2.1c-0.4-0.5-1.2-0.7-2.2-0.7h-2.9c-0.2,0-0.3,0.2-0.4,0.3l-1.2,7.5c0,0.2,0.1,0.3,0.2,0.3h1.8l0.5-2.8
			v0.1c0.1-0.2,0.2-0.3,0.4-0.3H16c1.7,0,3-0.7,3.4-2.6c0-0.1,0-0.1,0-0.2c-0.1,0-0.1,0,0,0C19.4,3,19.3,2.6,18.9,2.1z"/>
		<path class="st2" d="M19.1,3.8c0,0.1,0,0.1,0,0.2c-0.4,2-1.6,2.7-3.3,2.7H15c-0.2,0-0.3,0.2-0.4,0.4l-0.6,3.7
			c0,0.1,0.1,0.2,0.2,0.2h1.5c0.2,0,0.3-0.1,0.3-0.3v-0.1l0.3-1.9V8.6c0-0.2,0.2-0.3,0.3-0.3H17c1.4,0,2.5-0.6,2.8-2.4
			c0.1-0.7,0.1-1.4-0.3-1.8C19.4,4,19.3,3.9,19.1,3.8z"/>
		<path class="st3" d="M18.8,3.5c-0.1,0-0.1-0.1-0.2-0.1c-0.1,0-0.1,0-0.2-0.1c-0.2-0.1-0.5-0.1-0.8-0.1h-2.3c-0.1,0-0.1,0-0.2,0.1
			C15.1,3.4,15,3.6,15,3.7L14.6,7v0.1C14.6,7,14.8,6.8,15,6.8h0.9c1.7,0,3-0.8,3.4-2.9c0-0.1,0-0.1,0.1-0.2
			c-0.1-0.1-0.2-0.1-0.3-0.1C18.9,3.5,18.9,3.5,18.8,3.5z"/>
	</g>
	<g>
		<defs>
			<rect id="SVGID_1_" x="1.7" y="12.9" width="28.7" height="7.6"/>
		</defs>
		<clipPath id="SVGID_00000090978350003586665270000011233945139025014678_">
			<use xlink:href="#SVGID_1_"  style="overflow:visible;"/>
		</clipPath>
		<g style="clip-path:url(#SVGID_00000090978350003586665270000011233945139025014678_);">
			<path class="st1" d="M5.5,12.9H3.3C3.2,12.9,3,13,3,13.2l-0.9,5.7c0,0.1,0.1,0.2,0.2,0.2h1c0.1,0,0.3-0.1,0.3-0.3l0.2-1.5
				c0-0.2,0.1-0.3,0.3-0.3h0.7c1.4,0,2.2-0.7,2.5-2.1c0.1-0.6,0-1.1-0.3-1.4C6.7,13.1,6.2,12.9,5.5,12.9z M5.7,15
				c-0.1,0.8-0.7,0.8-1.3,0.8H4.1l0.2-1.5c0-0.1,0.1-0.2,0.2-0.2h0.1c0.4,0,0.8,0,0.9,0.2C5.7,14.5,5.8,14.7,5.7,15z"/>
			<path class="st1" d="M11.9,15h-1c-0.1,0-0.2,0.1-0.2,0.2l0,0.3l-0.1-0.1c-0.2-0.3-0.7-0.4-1.2-0.4c-1.1,0-2.1,0.9-2.3,2.1
				c-0.1,0.6,0,1.2,0.4,1.6c0.3,0.4,0.8,0.5,1.3,0.5c0.9,0,1.4-0.6,1.4-0.6l0,0.3c0,0.1,0.1,0.2,0.2,0.2h0.9c0.1,0,0.3-0.1,0.3-0.3
				l0.6-3.7C12.1,15.1,12,15,11.9,15z M10.5,17.1c-0.1,0.6-0.6,1-1.2,1c-0.3,0-0.5-0.1-0.7-0.3c-0.2-0.2-0.2-0.5-0.2-0.8
				c0.1-0.6,0.6-1,1.2-1c0.3,0,0.5,0.1,0.7,0.3C10.5,16.5,10.5,16.8,10.5,17.1z"/>
			<path class="st1" d="M17.4,15h-1c-0.1,0-0.2,0.1-0.2,0.1l-1.4,2.2l-0.6-2.1c0-0.1-0.2-0.2-0.3-0.2h-1c-0.1,0-0.2,0.1-0.2,0.2
				l1.1,3.5l-1.1,1.6c-0.1,0.1,0,0.3,0.1,0.3h1c0.1,0,0.2,0,0.2-0.1l3.4-5.2C17.6,15.2,17.6,15,17.4,15z"/>
			<path class="st2" d="M20.8,12.9h-2.2c-0.1,0-0.3,0.1-0.3,0.3l-0.9,5.7c0,0.1,0.1,0.2,0.2,0.2h1.1c0.1,0,0.2-0.1,0.2-0.2l0.2-1.6
				c0-0.2,0.1-0.3,0.3-0.3h0.7c1.4,0,2.2-0.7,2.5-2.1c0.1-0.6,0-1.1-0.3-1.4C22.1,13.1,21.6,12.9,20.8,12.9z M21.1,15
				c-0.1,0.8-0.7,0.8-1.3,0.8h-0.3l0.2-1.5c0-0.1,0.1-0.2,0.2-0.2H20c0.4,0,0.8,0,0.9,0.2C21.1,14.5,21.1,14.7,21.1,15z"/>
			<path class="st2" d="M27.3,15h-1c-0.1,0-0.2,0.1-0.2,0.2l0,0.3L26,15.3c-0.2-0.3-0.7-0.4-1.2-0.4c-1.1,0-2.1,0.9-2.3,2.1
				c-0.1,0.6,0,1.2,0.4,1.6c0.3,0.4,0.8,0.5,1.3,0.5c0.9,0,1.4-0.6,1.4-0.6l0,0.3c0,0.1,0.1,0.2,0.2,0.2h0.9c0.1,0,0.3-0.1,0.3-0.3
				l0.6-3.7C27.5,15.1,27.4,15,27.3,15z M25.8,17.1c-0.1,0.6-0.6,1-1.2,1c-0.3,0-0.5-0.1-0.7-0.3c-0.2-0.2-0.2-0.5-0.2-0.8
				c0.1-0.6,0.6-1,1.2-1c0.3,0,0.5,0.1,0.7,0.3C25.8,16.5,25.9,16.8,25.8,17.1z"/>
			<path class="st2" d="M28.5,13.1l-0.9,5.8c0,0.1,0.1,0.2,0.2,0.2h0.9c0.1,0,0.3-0.1,0.3-0.3l0.9-5.7c0-0.1-0.1-0.2-0.2-0.2h-1
				C28.6,12.9,28.5,13,28.5,13.1z"/>
		</g>
	</g>
</g>
</svg>
