<svg width="26" height="26" viewBox="0 0 26 26" fill="none" xmlns="http://www.w3.org/2000/svg">
<path d="M12.8241 22.9028C18.3469 22.9028 22.8241 18.4256 22.8241 12.9028C22.8241 7.37992 18.3469 2.90277 12.8241 2.90277C7.30125 2.90277 2.8241 7.37992 2.8241 12.9028C2.8241 18.4256 7.30125 22.9028 12.8241 22.9028Z" stroke="currentColor" stroke-width="2" stroke-linejoin="round"/>
<path d="M10.1127 10.4904C10.1127 9.01278 11.3101 7.81534 12.7878 7.81534C14.2654 7.81534 15.4629 9.01278 15.4629 10.4904C15.4629 11.9681 14.2654 13.1656 12.7878 13.1656V14.8447" stroke="currentColor" stroke-width="2" stroke-linecap="round" stroke-linejoin="round"/>
<path d="M12.8213 18.7557C13.3736 18.7557 13.8213 18.308 13.8213 17.7557C13.8213 17.2035 13.3736 16.7557 12.8213 16.7557C12.269 16.7557 11.8213 17.2035 11.8213 17.7557C11.8213 18.308 12.269 18.7557 12.8213 18.7557Z" fill="currentColor"/>
</svg>
