<svg width="24" height="24" viewBox="0 0 24 24" fill="none" xmlns="http://www.w3.org/2000/svg">
<path d="M11.7735 20.9219C16.8361 20.9219 20.9401 16.8178 20.9401 11.7552C20.9401 6.69259 16.8361 2.58853 11.7735 2.58853C6.71087 2.58853 2.60681 6.69259 2.60681 11.7552C2.60681 16.8178 6.71087 20.9219 11.7735 20.9219Z" stroke="currentColor" stroke-linejoin="round"/>
<path d="M9.33472 9.59253C9.33472 8.22853 10.4401 7.1232 11.8041 7.1232C13.1681 7.1232 14.2734 8.22853 14.2734 9.59253C14.2734 10.9565 13.1681 12.0619 11.8041 12.0619V13.6119" stroke="currentColor" stroke-linecap="round" stroke-linejoin="round"/>
<path d="M11.8042 17.0425C12.2644 17.0425 12.6375 16.6694 12.6375 16.2092C12.6375 15.749 12.2644 15.3759 11.8042 15.3759C11.3439 15.3759 10.9708 15.749 10.9708 16.2092C10.9708 16.6694 11.3439 17.0425 11.8042 17.0425Z" fill="currentColor"/>
</svg>
