<svg width="113" height="225" viewBox="0 0 113 225" fill="none" xmlns="http://www.w3.org/2000/svg">
<g clip-path="url(#clip0_12781_108124)">
<path d="M95.65 82.1702C95.65 82.1702 114.07 93.9602 112.53 104.08C111.21 112.8 101.6 118.32 92.95 116.8C84.3 115.28 86.68 84.5901 86.68 84.5901L95.64 82.1602" fill="#12BAAC"/>
<path d="M19.3 78.8398C19.3 78.8398 -0.629984 94.9998 0.0200162 103.52C0.670016 112.04 8.17002 118.64 17.78 115.11C25.95 112.11 25.08 83.5298 25.08 83.5298L16.11 81.1798" fill="#12BAAC"/>
<path d="M97.8 92.5701C98.59 92.1301 99.52 92.2001 100.37 92.4301C101.33 92.6901 102.22 93.1601 103.02 93.7301C103.82 94.3001 104.53 95.0001 105.07 95.8301C105.69 96.7901 106.11 97.8601 106.43 98.9601C106.77 100.13 107.02 101.33 107.27 102.53C107.54 103.81 107.74 105.13 107.6 106.44C107.48 107.53 107.1 108.65 106.35 109.48C105.6 110.31 104.67 110.74 103.67 111.05C103.08 111.23 102.49 111.36 101.88 111.48C101.21 111.61 100.53 111.74 99.86 111.8C98.68 111.89 97.37 111.59 96.9 110.36C96.76 109.99 96.14 110.01 96.16 110.46C96.22 111.7 97.41 112.51 98.55 112.7C99.88 112.92 101.3 112.57 102.61 112.3C103.79 112.05 104.99 111.7 106 111.02C107.01 110.34 107.79 109.31 108.19 108.12C108.64 106.79 108.65 105.35 108.46 103.97C108.27 102.59 107.93 101.16 107.56 99.7901C106.94 97.4401 106 95.1001 104.03 93.5601C103.05 92.8001 101.93 92.1801 100.74 91.8601C99.69 91.5801 98.49 91.5501 97.54 92.1401C97.27 92.3101 97.51 92.7201 97.79 92.5701H97.8Z" fill="#231F20"/>
<path d="M15.3 93.6599C13.28 93.4799 11.05 93.8199 9.32002 94.9099C8.43002 95.4699 7.75002 96.2299 7.26002 97.1599C6.74002 98.1499 6.42002 99.2399 6.08002 100.31C5.37002 102.6 4.79002 105.04 5.34002 107.43C5.84002 109.57 7.24002 111.32 9.35002 112.03C10.55 112.43 11.84 112.47 13.09 112.29C13.8 112.19 14.49 112.01 15.16 111.78C15.83 111.55 16.54 111.33 17.13 110.95C17.51 110.7 17.27 110.09 16.82 110.21C16.26 110.35 15.73 110.61 15.19 110.8C14.65 110.99 14.09 111.16 13.52 111.28C12.51 111.5 11.44 111.56 10.42 111.36C9.46002 111.17 8.54002 110.78 7.82002 110.11C7.10002 109.44 6.66002 108.63 6.37002 107.74C5.70002 105.63 6.11002 103.42 6.71002 101.35C7.01002 100.33 7.32002 99.2999 7.71002 98.3099C8.07002 97.4099 8.56002 96.5799 9.30002 95.9499C10.91 94.5799 13.22 94.0299 15.29 94.0699C15.56 94.0699 15.55 93.6799 15.29 93.6599H15.3Z" fill="#231F20"/>
<path d="M8.63005 92.7196C10.36 92.4296 12.19 92.4296 13.88 92.9496C14.68 93.1996 15.45 93.5696 16.13 94.0696C16.47 94.3196 16.78 94.5996 17.07 94.9096C17.37 95.2296 17.61 95.6096 17.91 95.9296C18.16 96.1996 18.5 95.8596 18.38 95.5696C18.02 94.7496 17.19 94.0696 16.47 93.5796C15.75 93.0896 14.91 92.7196 14.06 92.4696C12.27 91.9496 10.35 91.9696 8.55005 92.4296C8.36005 92.4796 8.44005 92.7496 8.63005 92.7196Z" fill="#231F20"/>
<path d="M103.02 89.8299C101.16 89.3599 99.23 89.6899 97.5 90.4799C96.61 90.8899 95.78 91.4099 95.02 92.0299C94.64 92.3399 94.29 92.6799 93.97 93.0399C93.65 93.3999 93.33 93.7599 93.13 94.1899C93 94.4699 93.35 94.8199 93.6 94.5499C93.9 94.2199 94.14 93.8399 94.43 93.4899C94.72 93.1399 95.04 92.8099 95.38 92.5099C96.06 91.8999 96.82 91.3799 97.64 90.9699C99.27 90.1699 101.15 89.7999 102.95 90.1099C103.14 90.1399 103.22 89.8699 103.03 89.8199L103.02 89.8299Z" fill="#231F20"/>
<path d="M72.08 193.06C72.08 193.06 72.07 193.22 72.04 193.5C71.83 196.15 71.1 209.08 71.51 210.41C71.96 211.88 84.21 216.08 85.12 219.48C86.16 223.39 75.37 221.52 71.17 220.39C66.97 219.26 65.27 217.11 65.05 218.46C64.94 219.14 64.48 219.93 64.48 219.93H62.44C62.44 219.93 61.65 215.39 62.44 210.86C63.23 206.33 60.97 193.17 60.97 193.17L71.63 188.63" fill="#DD8957"/>
<path d="M30.75 193.06C30.75 193.06 30.2 192.43 30.23 192.72C30.44 195.37 31.48 208.26 30.8 210.98C30.43 212.48 19.46 216.92 18.1 220.17C16.63 223.69 28.31 222.1 32.39 220.62C36.48 219.14 37.57 217.12 37.79 218.46C37.9 219.14 38.06 220.05 38.06 220.05H39.99C39.99 220.05 41.8 215.85 40.4 210.86C39.15 206.43 42.26 190.33 42.26 190.33L31.21 188.63" fill="#DD8957"/>
<mask id="mask0_12781_108124" style="mask-type:luminance" maskUnits="userSpaceOnUse" x="17" y="188" width="26" height="35">
<path d="M30.75 193.06C30.75 193.06 30.2 192.43 30.23 192.72C30.44 195.37 31.48 208.26 30.8 210.98C30.43 212.48 19.46 216.92 18.1 220.17C16.63 223.69 28.31 222.1 32.39 220.62C36.48 219.14 37.57 217.12 37.79 218.46C37.9 219.14 38.06 220.05 38.06 220.05H39.99C39.99 220.05 41.8 215.85 40.4 210.86C39.15 206.43 42.26 190.33 42.26 190.33L31.21 188.63" fill="white"/>
</mask>
<g mask="url(#mask0_12781_108124)">
<path d="M27.62 212.68C27.62 212.68 21.38 215.4 22.29 217.67C23.2 219.94 32.04 219.94 40.78 210.86C49.51 201.79 46.68 222.09 46.34 222.54C46 222.99 24.45 225.04 21.84 224.92C19.23 224.8 13.45 219.25 13.45 219.25C13.45 219.25 17.19 210.29 17.42 210.97C17.65 211.65 27.63 212.67 27.63 212.67L27.62 212.68Z" fill="#231F20"/>
</g>
<mask id="mask1_12781_108124" style="mask-type:luminance" maskUnits="userSpaceOnUse" x="60" y="188" width="26" height="34">
<path d="M72.08 193.06C72.08 193.06 72.07 193.22 72.04 193.5C71.83 196.15 71.1 209.08 71.51 210.41C71.96 211.88 84.21 216.08 85.12 219.48C86.16 223.39 75.37 221.52 71.17 220.39C66.97 219.26 65.27 217.11 65.05 218.46C64.94 219.14 64.48 219.93 64.48 219.93H62.44C62.44 219.93 61.65 215.39 62.44 210.86C63.23 206.33 60.97 193.17 60.97 193.17L71.63 188.63" fill="white"/>
</mask>
<g mask="url(#mask1_12781_108124)">
<path d="M62.1 209.96C62.1 210.41 71.6301 217.67 77.8701 218.01C84.1101 218.35 80.82 215.51 78.78 214.04C76.74 212.57 85.36 215.85 85.7 216.42C86.04 216.99 88.54 223 88.2 223C87.86 223 82.08 225.04 81.17 224.47C80.26 223.9 61.66 223 61.43 222.54C61.2 222.08 59.05 209.61 59.05 209.61L62.1101 209.95L62.1 209.96Z" fill="#231F20"/>
</g>
<path d="M26.87 150.19C26.71 151.09 26.22 160.39 26.22 174.05C26.22 187.71 26.71 198.36 26.71 198.36C26.71 198.36 31.37 198.8 35.78 198.53C40.59 198.24 45.94 197.75 45.94 197.75C45.94 197.75 46.86 188.5 47.44 180.98C48.14 171.86 51.26 154.24 51.26 154.24C51.26 154.24 48.81 147.04 48.31 146.89C47.81 146.74 26.88 150.19 26.88 150.19H26.87Z" fill="#231F20"/>
<path d="M55.32 152.63C55.32 153.08 56.37 174.39 56.67 180.09C56.97 185.79 58.13 197.23 58.13 197.23C58.13 197.23 62.39 197.42 66.47 197.62C73.84 197.99 76.09 197.62 75.98 197.62C75.98 197.62 77.53 179.34 77.83 174.53C78.13 169.72 79.72 146.93 79.72 146.93L75.58 149.47L55.32 152.62V152.63Z" fill="#231F20"/>
<mask id="mask2_12781_108124" style="mask-type:luminance" maskUnits="userSpaceOnUse" x="55" y="146" width="25" height="52">
<path d="M55.32 152.63C55.32 153.08 56.37 174.39 56.67 180.09C56.97 185.79 58.13 197.23 58.13 197.23C58.13 197.23 62.39 197.42 66.47 197.62C73.84 197.99 76.09 197.62 75.98 197.62C75.98 197.62 77.53 179.34 77.83 174.53C78.13 169.72 79.72 146.93 79.72 146.93L75.58 149.47L55.32 152.62V152.63Z" fill="white"/>
</mask>
<g mask="url(#mask2_12781_108124)">
<path d="M52.73 189.37C57.04 189.92 61.36 190.24 65.7 190.44C70.04 190.64 74.37 190.67 78.71 190.58C79.91 190.55 81.1 190.51 82.3 190.46C83.5 190.41 84.79 190.4 86.01 190.25C86.37 190.21 86.39 189.67 86.01 189.67C84.94 189.67 83.86 189.77 82.79 189.82C81.72 189.87 80.6 189.91 79.51 189.94C77.34 190 75.17 190.03 73.01 190.03C68.68 190.03 64.34 189.89 60.01 189.62C57.58 189.47 55.15 189.3 52.73 189.11C52.56 189.1 52.56 189.35 52.73 189.38V189.37Z" fill="#57555F"/>
</g>
<mask id="mask3_12781_108124" style="mask-type:luminance" maskUnits="userSpaceOnUse" x="26" y="146" width="26" height="53">
<path d="M26.87 150.19C26.71 151.09 26.22 160.39 26.22 174.05C26.22 187.71 26.71 198.36 26.71 198.36C26.71 198.36 31.37 198.8 35.78 198.53C40.59 198.24 45.94 197.75 45.94 197.75C45.94 197.75 46.86 188.5 47.44 180.98C48.14 171.86 51.26 154.24 51.26 154.24C51.26 154.24 48.81 147.04 48.31 146.89C47.81 146.74 26.88 150.19 26.88 150.19H26.87Z" fill="white"/>
</mask>
<g mask="url(#mask3_12781_108124)">
<path d="M19.74 191.239C21.56 190.549 23.65 190.839 25.55 190.909C27.65 190.979 29.76 191.019 31.86 191.019C36.05 191.019 40.24 190.909 44.42 190.669C45.59 190.599 46.77 190.529 47.94 190.439C48.54 190.399 49.13 190.349 49.73 190.299C50.33 190.249 50.9 190.239 51.46 190.079C51.76 189.999 51.67 189.599 51.39 189.569C50.86 189.519 50.32 189.589 49.79 189.629C49.26 189.669 48.76 189.709 48.25 189.749C47.18 189.829 46.11 189.899 45.04 189.969C42.94 190.099 40.84 190.199 38.73 190.269C34.5 190.409 30.27 190.429 26.04 190.359C24.89 190.339 23.74 190.279 22.6 190.299C21.56 190.319 20.55 190.469 19.62 190.969C19.48 191.049 19.58 191.289 19.73 191.229L19.74 191.239Z" fill="#57555F"/>
</g>
<path d="M13.45 96.79C13.43 95.89 13.15 37.39 14.05 20.67C14.95 3.94997 21.21 0.969969 32.85 0.369969C44.49 -0.230031 77.03 -0.230031 86.58 1.26997C96.13 2.76997 99.71 5.44997 100.01 21.57C100.31 37.69 99.11 86.94 99.11 104.85C99.11 122.76 99.11 147.54 95.83 154.1C92.55 160.66 78.52 160.97 62.1 161.26C45.68 161.56 24.79 162.45 18.82 157.38C12.85 152.31 14.34 144.54 13.45 96.78V96.79Z" fill="#7B55A3"/>
<path d="M18.52 94.6998C18.52 94.6998 17.92 38.5798 19.12 22.7598C20.32 6.93977 23 5.74977 32.25 4.84977C41.5 3.94977 76.73 3.65977 85.98 5.14977C95.23 6.63977 95.53 13.5098 95.53 27.8398C95.53 42.1698 94.34 115 94.04 127.24C93.74 139.48 92.85 151.72 86.58 154.11C80.31 156.5 49.57 155.6 39.71 155.3C29.86 155 22.1 154.4 20.61 148.73C19.12 143.06 19.12 103.06 18.52 94.6998Z" fill="#F2F1F1"/>
<path d="M37.99 3.00969C37.99 3.29969 39.36 3.23969 39.36 3.23969C39.36 3.23969 40.06 4.96969 40.85 7.27969C41.64 9.58969 41.71 11.0197 45 10.8197C48.3 10.6197 66.96 11.3097 69.84 10.9997C72.72 10.6897 73.36 10.2397 74.63 6.45969C75.9 2.68969 76.02 2.11969 76.02 2.11969C76.02 2.11969 39.96 0.979686 39.64 1.05969C39.32 1.13969 38 3.01969 38 3.01969L37.99 3.00969Z" fill="#7B55A3"/>
<path d="M60.37 6.33961C60.37 7.53961 59.65 8.31961 58.48 8.31961C57.31 8.31961 56.12 7.43961 56.12 6.23961C56.12 5.03961 57.12 4.34961 58.29 4.34961C59.46 4.34961 60.37 5.12961 60.37 6.32961V6.33961Z" fill="#F2F1F1"/>
<path d="M84.95 43.54C84.95 59.86 74.57 73.2 56.44 73.08C38.31 72.96 27.93 59.85 27.93 43.54C27.93 27.23 39.82 13.77 56.44 14C73.98 14.24 84.95 27.23 84.95 43.54Z" fill="white"/>
<mask id="mask4_12781_108124" style="mask-type:luminance" maskUnits="userSpaceOnUse" x="27" y="13" width="58" height="61">
<path d="M84.95 43.54C84.95 59.86 74.57 73.2 56.44 73.08C38.31 72.96 27.93 59.85 27.93 43.54C27.93 27.23 39.82 13.77 56.44 14C73.98 14.24 84.95 27.23 84.95 43.54Z" fill="white"/>
</mask>
<g mask="url(#mask4_12781_108124)">
<path d="M38.94 71.6304C38.5 71.4804 29.67 67.9504 28.05 55.4404C26.43 42.9304 36.59 41.1604 36.59 41.1604C36.59 41.1604 34.68 23.6404 47.48 19.5204C60.28 15.4004 62.05 20.2604 62.05 20.2604C62.05 20.2604 71.03 19.9704 74.56 26.0004C78.09 32.0304 75.3 38.2204 75.3 38.2204C75.3 38.2204 85.61 41.7504 84.13 62.3604C82.66 82.9704 68.97 73.8404 68.97 73.8404L38.94 71.6304Z" fill="#231F20"/>
<path d="M34.92 66.7105C34.92 66.7105 49.42 64.7305 50.85 61.0005C52.28 57.2705 51.51 47.4905 51.51 47.4905C51.51 47.4905 64.14 47.0505 64.03 47.4905C63.92 47.9305 63.04 60.5605 65.9 62.8705C68.76 65.1805 81.5 68.8005 81.5 68.8005C81.5 68.8005 78.97 74.7305 78.64 75.1705C78.31 75.6105 73.37 77.3705 72.49 77.3705C71.61 77.3705 39.54 78.4705 38.99 78.4705C38.44 78.4705 34.93 66.7205 34.93 66.7205L34.92 66.7105Z" fill="#DD8957"/>
<mask id="mask5_12781_108124" style="mask-type:luminance" maskUnits="userSpaceOnUse" x="34" y="47" width="48" height="32">
<path d="M34.92 66.7105C34.92 66.7105 49.42 64.7305 50.85 61.0005C52.28 57.2705 51.51 47.4905 51.51 47.4905C51.51 47.4905 64.14 47.0505 64.03 47.4905C63.92 47.9305 63.04 60.5605 65.9 62.8705C68.76 65.1805 81.5 68.8005 81.5 68.8005C81.5 68.8005 78.97 74.7305 78.64 75.1705C78.31 75.6105 73.37 77.3705 72.49 77.3705C71.61 77.3705 39.54 78.4705 38.99 78.4705C38.44 78.4705 34.93 66.7205 34.93 66.7205L34.92 66.7105Z" fill="white"/>
</mask>
<g mask="url(#mask5_12781_108124)">
<path d="M50.74 53.8602C50.96 54.1902 53.38 58.1402 58.87 57.8102C64.36 57.4802 67.77 49.2402 67.77 49.2402L47.01 49.6802L50.74 53.8502V53.8602Z" fill="#231F20"/>
</g>
<path d="M46.48 35.6306C46.48 35.6306 50.68 34.3306 53.27 29.1506C55.86 23.9706 59.9 24.3306 59.9 24.3306C59.9 24.3306 60.61 30.9206 67.19 33.7406C67.19 33.7406 68.84 45.0306 65.31 51.6206C61.78 58.2106 56.35 57.7006 53.71 55.7206C50.93 53.6406 46.13 47.9206 46.48 35.6206V35.6306Z" fill="#DD8957"/>
<mask id="mask6_12781_108124" style="mask-type:luminance" maskUnits="userSpaceOnUse" x="34" y="47" width="48" height="32">
<path d="M34.92 66.7105C34.92 66.7105 49.42 64.7305 50.85 61.0005C52.28 57.2705 51.51 47.4905 51.51 47.4905C51.51 47.4905 64.14 47.0505 64.03 47.4905C63.92 47.9305 63.04 60.5605 65.9 62.8705C68.76 65.1805 81.5 68.8005 81.5 68.8005C81.5 68.8005 78.97 74.7305 78.64 75.1705C78.31 75.6105 73.37 77.3705 72.49 77.3705C71.61 77.3705 39.54 78.4705 38.99 78.4705C38.44 78.4705 34.93 66.7205 34.93 66.7205L34.92 66.7105Z" fill="white"/>
</mask>
<g mask="url(#mask6_12781_108124)">
<path d="M46.67 62.1002C46.89 62.4302 52.27 68.3602 57.54 68.1402C62.81 67.9202 69.84 60.4502 69.84 60.4502C69.84 60.4502 85.22 63.7502 85.77 65.3902C86.32 67.0302 87.64 77.2502 87.75 77.6902C87.86 78.1302 80.28 82.8502 80.28 82.8502C80.28 82.8502 38.87 82.7402 37.99 82.4102C37.11 82.0802 31.51 63.7402 31.18 63.9602C30.85 64.1802 46.67 62.0902 46.67 62.0902V62.1002Z" fill="#12BAAC"/>
</g>
<path d="M56.3 37.7801C56.42 38.7601 56.38 39.7201 55.83 40.5801C55.33 41.3701 54.43 41.9801 54.45 43.01C54.46 43.96 55.25 44.6401 56.08 44.9501C56.56 45.1301 57.1 45.2001 57.61 45.1801C58.12 45.1601 58.8 45.0901 59.17 44.6901C59.4 44.43 59.23 44.0601 58.9 44.0401C58.43 44.0101 57.98 44.2301 57.5 44.2401C57.07 44.2401 56.63 44.1801 56.24 44.0001C55.93 43.8501 55.6 43.6301 55.46 43.3001C55.32 42.9701 55.44 42.64 55.62 42.35C55.84 42.0001 56.13 41.6901 56.33 41.3301C56.53 40.9701 56.7 40.5501 56.79 40.1301C56.97 39.3301 56.95 38.4501 56.59 37.7101C56.52 37.5801 56.28 37.6401 56.3 37.7901V37.7801Z" fill="#231F20"/>
<path d="M52.42 47.2606C52.45 48.0306 53.11 48.8206 53.64 49.3306C54.26 49.9406 55.01 50.3906 55.83 50.6606C57.5 51.2106 59.38 50.8506 60.78 49.8006C61.17 49.5106 61.53 49.1906 61.82 48.8106C62.11 48.4306 62.45 47.9906 62.45 47.4806C62.45 47.2406 62.18 47.1706 62.01 47.3006C61.64 47.6006 61.42 48.0606 61.1 48.4206C60.78 48.7806 60.4 49.1006 59.99 49.3606C59.18 49.8606 58.23 50.1506 57.27 50.1206C56.31 50.0906 55.41 49.7706 54.61 49.2506C54.2 48.9806 53.84 48.6606 53.52 48.2906C53.2 47.9206 53.01 47.4906 52.68 47.1506C52.59 47.0506 52.4 47.1206 52.41 47.2606H52.42Z" fill="#231F20"/>
<path d="M64.77 38.74C64.72 38.6 64.64 38.46 64.53 38.35C64.39 38.2 64.2 38.11 64 38.05C63.96 38.04 63.93 38.01 63.89 38.01C63.87 38.01 63.86 38.01 63.84 38.01C63.83 38.01 63.81 38 63.8 38C63.73 38 63.66 38 63.6 38C63.54 38 63.48 38 63.43 38C63.28 38.02 63.14 38.07 63.01 38.14C62.79 38.27 62.63 38.47 62.53 38.71C62.33 39.17 62.42 39.71 62.75 40.09C63.06 40.45 63.63 40.55 64.07 40.38C64.33 40.28 64.54 40.12 64.71 39.89C64.85 39.7 64.93 39.43 64.91 39.19C64.89 39.03 64.85 38.88 64.79 38.74H64.77Z" fill="#231F20"/>
<path d="M50.45 39.7108C50.5 39.8508 50.58 39.9908 50.69 40.1008C50.83 40.2508 51.02 40.3408 51.22 40.4008C51.26 40.4108 51.29 40.4408 51.33 40.4408C51.35 40.4408 51.36 40.4408 51.38 40.4408C51.39 40.4408 51.41 40.4508 51.42 40.4508C51.49 40.4508 51.56 40.4508 51.62 40.4508C51.68 40.4508 51.74 40.4508 51.79 40.4508C51.94 40.4308 52.08 40.3808 52.21 40.3108C52.43 40.1808 52.59 39.9808 52.69 39.7408C52.89 39.2808 52.8 38.7408 52.47 38.3608C52.16 38.0008 51.59 37.9008 51.15 38.0708C50.89 38.1708 50.68 38.3308 50.51 38.5608C50.37 38.7508 50.29 39.0208 50.31 39.2608C50.33 39.4208 50.37 39.5708 50.43 39.7108H50.45Z" fill="#231F20"/>
<path d="M66.31 36.6703C65.98 35.8903 65.08 35.3404 64.3 35.0804C63.89 34.9404 63.45 34.8704 63.02 34.8604C62.56 34.8604 62.07 34.9104 61.69 35.1804C61.48 35.3404 61.53 35.7104 61.83 35.7104C62.21 35.7104 62.57 35.6103 62.95 35.6003C63.33 35.5903 63.71 35.6304 64.08 35.7304C64.45 35.8304 64.79 35.9704 65.12 36.1604C65.45 36.3504 65.75 36.6204 66.05 36.8604C66.2 36.9704 66.37 36.8403 66.3 36.6703H66.31Z" fill="#231F20"/>
<path d="M48.67 36.7908C48.98 36.5708 49.26 36.3108 49.59 36.1308C49.92 35.9508 50.29 35.8008 50.68 35.7008C51.07 35.6008 51.42 35.5808 51.8 35.6008C52.18 35.6208 52.57 35.7308 52.96 35.7408C53.19 35.7508 53.36 35.4108 53.16 35.2608C52.96 35.1108 52.79 35.0108 52.55 34.9508C52.33 34.8908 52.09 34.8708 51.86 34.8608C51.41 34.8408 50.95 34.9108 50.52 35.0308C49.73 35.2608 48.8 35.8008 48.44 36.5708C48.38 36.7008 48.52 36.8908 48.66 36.7908H48.67Z" fill="#231F20"/>
</g>
<path d="M84.95 43.54C84.95 59.86 74.57 73.2 56.44 73.08C38.31 72.96 27.93 59.85 27.93 43.54C27.93 27.23 39.82 13.77 56.44 14C73.98 14.24 84.95 27.23 84.95 43.54Z" stroke="#231F20" stroke-miterlimit="10"/>
<path d="M25.77 86.9504C25.77 86.9504 25.41 93.5304 35.22 93.7704C45.03 94.0104 72.18 94.1304 76.36 93.8904C80.54 93.6504 86.77 92.9304 86.77 87.3104C86.77 83.4804 86.05 79.8904 78.28 79.3004C70.51 78.7004 44.31 78.9404 37.86 79.1804C31.41 79.4204 25.42 79.5404 25.78 86.9504H25.77Z" fill="white" stroke="#231F20" stroke-miterlimit="10"/>
<path d="M86.91 111.09C86.91 111.09 87.27 104.51 77.46 104.27C67.65 104.03 40.5 103.91 36.32 104.15C32.14 104.39 25.91 105.11 25.91 110.73C25.91 114.56 26.63 118.15 34.4 118.74C42.17 119.34 68.37 119.1 74.82 118.86C81.28 118.62 87.26 118.5 86.9 111.09H86.91Z" fill="white" stroke="#231F20" stroke-miterlimit="10"/>
<path d="M38.46 86.5594C38.46 87.9294 37.59 89.0294 35.98 89.0394C34.48 89.0494 33.5 87.9294 33.5 86.5594C33.5 85.1894 34.48 84.0994 35.98 84.0794C37.62 84.0594 38.46 85.1894 38.46 86.5594Z" fill="#57555F"/>
<path d="M73.92 89.0401C72.55 89.0401 71.45 88.1701 71.44 86.5601C71.43 85.0601 72.55 84.0801 73.92 84.0801C75.29 84.0801 76.38 85.0601 76.4 86.5601C76.42 88.2001 75.29 89.0401 73.92 89.0401Z" fill="#57555F"/>
<path d="M42.99 86.7994C42.99 85.4294 43.86 84.3294 45.47 84.3194C46.97 84.3094 47.95 85.4294 47.95 86.7994C47.95 88.1694 46.97 89.2594 45.47 89.2794C43.83 89.2994 42.99 88.1694 42.99 86.7994Z" fill="#57555F"/>
<path d="M52.47 86.5398C52.47 87.9098 53.34 89.0098 54.95 89.0198C56.45 89.0298 57.43 87.9098 57.43 86.5398C57.43 85.1698 56.45 84.0798 54.95 84.0598C53.31 84.0398 52.47 85.1698 52.47 86.5398Z" fill="#57555F"/>
<path d="M66.92 86.7096C66.92 85.3396 66.05 84.2396 64.44 84.2296C62.94 84.2196 61.96 85.3396 61.96 86.7096C61.96 88.0796 62.94 89.1696 64.44 89.1896C66.08 89.2096 66.92 88.0796 66.92 86.7096Z" fill="#57555F"/>
<path d="M104.99 107.51C104.99 107.51 100.17 108.43 98.13 105.98C98.13 105.98 95.56 103.15 92.23 103.04C86.84 102.86 86.34 100.63 89.66 100.25C89.66 100.25 86.71 99.7796 86.9 98.3996C86.82 97.5596 88.2 97.2996 90.73 97.2696C90.73 97.2696 87.04 97.1896 87.24 95.4296C87.39 94.1396 91.1 94.4596 91.1 94.4596C91.1 94.4596 88.48 94.0296 88.91 92.7896C89.3 91.6796 93.57 91.7896 97.15 92.7096C100.66 93.6096 101.88 94.6696 103.41 97.0896C104.81 99.3196 105.84 105.25 105 107.49L104.99 107.51Z" fill="#DD8957"/>
<mask id="mask7_12781_108124" style="mask-type:luminance" maskUnits="userSpaceOnUse" x="86" y="91" width="20" height="17">
<path d="M104.99 107.51C104.99 107.51 100.17 108.43 98.13 105.98C98.13 105.98 95.56 103.15 92.23 103.04C86.84 102.86 86.34 100.63 89.66 100.25C89.66 100.25 86.71 99.7796 86.9 98.3996C86.82 97.5596 88.2 97.2996 90.73 97.2696C90.73 97.2696 87.04 97.1896 87.24 95.4296C87.39 94.1396 91.1 94.4596 91.1 94.4596C91.1 94.4596 88.48 94.0296 88.91 92.7896C89.3 91.6796 93.57 91.7896 97.15 92.7096C100.66 93.6096 101.88 94.6696 103.41 97.0896C104.81 99.3196 105.84 105.25 105 107.49L104.99 107.51Z" fill="white"/>
</mask>
<g mask="url(#mask7_12781_108124)">
<path d="M96.11 100.52C92.61 100.05 89.11 99.8696 85.59 100.1C85.01 100.14 84.44 100.18 83.86 100.24C83.28 100.3 82.64 100.29 82.08 100.45C81.89 100.5 81.94 100.77 82.13 100.78C82.66 100.81 83.22 100.68 83.75 100.62C84.24 100.57 84.73 100.52 85.21 100.48C86.15 100.4 87.09 100.34 88.03 100.3C89.73 100.23 91.42 100.25 93.12 100.38C94.11 100.45 95.11 100.55 96.1 100.68C96.19 100.69 96.21 100.53 96.12 100.52H96.11Z" fill="#231F20"/>
<path d="M96.67 97.8387C94.72 97.4787 92.78 97.1388 90.81 96.9088C89.75 96.7888 88.7 96.6887 87.64 96.6287C87.07 96.5887 86.51 96.5588 85.94 96.5388C85.37 96.5188 84.75 96.4688 84.17 96.5488C84.05 96.5688 84.05 96.7688 84.17 96.7888C84.73 96.8888 85.32 96.8687 85.88 96.8887C86.44 96.9087 87.02 96.9288 87.59 96.9688C88.63 97.0288 89.68 97.1088 90.72 97.2188C92.7 97.4188 94.67 97.6888 96.63 98.0088C96.74 98.0288 96.78 97.8687 96.68 97.8487L96.67 97.8387Z" fill="#231F20"/>
<path d="M97.23 95.2692C95.31 94.6092 93.25 94.3192 91.24 94.1092C89.23 93.8992 87.22 93.7592 85.21 93.5892C85.08 93.5792 85.04 93.7992 85.18 93.8292C86.17 93.9992 87.16 94.1092 88.16 94.1992C89.16 94.2892 90.11 94.3592 91.08 94.4492C92.05 94.5392 93.08 94.6592 94.07 94.8092C95.12 94.9692 96.15 95.2092 97.18 95.4392C97.29 95.4592 97.33 95.3092 97.22 95.2792L97.23 95.2692Z" fill="#231F20"/>
</g>
<path d="M8.77003 108.64C8.77003 108.64 13.59 109.56 15.63 107.11C15.63 107.11 18.2 104.28 21.53 104.17C26.92 103.99 27.42 101.76 24.1 101.38C24.1 101.38 27.05 100.91 26.86 99.5304C26.94 98.6904 25.56 98.4304 23.03 98.4004C23.03 98.4004 26.72 98.3204 26.52 96.5604C26.37 95.2704 22.66 95.5904 22.66 95.5904C22.66 95.5904 25.28 95.1604 24.85 93.9204C24.46 92.8104 20.19 92.9204 16.61 93.8404C13.03 94.7604 11.88 95.8004 10.35 98.2204C8.95003 100.45 7.92003 106.38 8.76003 108.62L8.77003 108.64Z" fill="#DD8957"/>
<mask id="mask8_12781_108124" style="mask-type:luminance" maskUnits="userSpaceOnUse" x="8" y="93" width="19" height="16">
<path d="M8.77003 108.64C8.77003 108.64 13.59 109.56 15.63 107.11C15.63 107.11 18.2 104.28 21.53 104.17C26.92 103.99 27.42 101.76 24.1 101.38C24.1 101.38 27.05 100.91 26.86 99.5304C26.94 98.6904 25.56 98.4304 23.03 98.4004C23.03 98.4004 26.72 98.3204 26.52 96.5604C26.37 95.2704 22.66 95.5904 22.66 95.5904C22.66 95.5904 25.28 95.1604 24.85 93.9204C24.46 92.8104 20.19 92.9204 16.61 93.8404C13.03 94.7604 11.88 95.8004 10.35 98.2204C8.95003 100.45 7.92003 106.38 8.76003 108.62L8.77003 108.64Z" fill="white"/>
</mask>
<g mask="url(#mask8_12781_108124)">
<path d="M17.66 101.81C21.14 101.37 24.61 101.3 28.1 101.59C28.66 101.63 29.21 101.69 29.77 101.74C30.37 101.8 31.02 101.95 31.62 101.92C31.81 101.92 31.85 101.64 31.67 101.59C31.18 101.45 30.63 101.45 30.12 101.4C29.61 101.35 29.1 101.31 28.59 101.27C27.65 101.2 26.71 101.15 25.77 101.14C24.04 101.11 22.31 101.17 20.59 101.32C19.6 101.41 18.62 101.53 17.64 101.66C17.55 101.67 17.57 101.83 17.66 101.82V101.81Z" fill="#231F20"/>
<path d="M17.13 99.1299C19.09 98.8099 21.07 98.5399 23.04 98.3399C24.08 98.2299 25.12 98.1499 26.17 98.0899C26.74 98.0599 27.31 98.0299 27.88 98.0099C28.45 97.9899 29.03 98.0099 29.59 97.9099C29.71 97.8899 29.71 97.6899 29.59 97.6699C29.03 97.5899 28.44 97.6299 27.88 97.6499C27.32 97.6699 26.74 97.6999 26.17 97.7399C25.09 97.8099 24.02 97.9099 22.94 98.0299C20.97 98.2499 19.03 98.5899 17.08 98.9599C16.97 98.9799 17.02 99.1399 17.13 99.1199V99.1299Z" fill="#231F20"/>
<path d="M16.57 96.5603C17.61 96.3403 18.63 96.1003 19.68 95.9303C20.67 95.7803 21.67 95.6703 22.67 95.5703C23.67 95.4703 24.61 95.4003 25.59 95.3203C26.57 95.2403 27.58 95.1203 28.57 94.9503C28.7 94.9303 28.67 94.7003 28.54 94.7103C26.53 94.8803 24.52 95.0303 22.51 95.2303C20.5 95.4303 18.44 95.7303 16.52 96.3903C16.42 96.4203 16.46 96.5703 16.56 96.5503L16.57 96.5603Z" fill="#231F20"/>
</g>
<path d="M53.84 108.07C53.81 108.39 53.99 108.68 54.12 108.96C54.24 109.22 54.36 109.47 54.49 109.73L55.26 111.31C55.52 111.84 55.77 112.37 56.03 112.89C56.29 113.41 56.5 114.05 56.9 114.47C57.22 114.8 57.66 114.44 57.6 114.06C57.55 113.74 57.38 113.46 57.24 113.16L56.86 112.4C56.6 111.87 56.34 111.35 56.08 110.82L55.3 109.24C55.17 108.99 55.05 108.73 54.91 108.48C54.76 108.2 54.64 107.92 54.37 107.75C54.12 107.59 53.85 107.8 53.83 108.06L53.84 108.07Z" fill="#57555F"/>
<path d="M52.49 111.89C53.03 112.04 53.72 111.84 54.26 111.76C54.84 111.68 55.41 111.58 55.98 111.47C56.55 111.36 57.12 111.25 57.69 111.12C57.96 111.06 58.24 111 58.51 110.93C58.82 110.86 59.15 110.81 59.42 110.65C59.81 110.41 59.63 109.84 59.2 109.82C58.9 109.8 58.6 109.92 58.31 109.98C58.02 110.04 57.72 110.12 57.43 110.18C56.88 110.3 56.33 110.41 55.78 110.52C55.23 110.63 54.68 110.72 54.12 110.81C53.56 110.9 52.87 110.9 52.39 111.18C52.11 111.34 52.17 111.79 52.48 111.88L52.49 111.89Z" fill="#57555F"/>
<path d="M54.41 114.41C54.89 114.2 55.14 113.4 55.35 112.96C55.59 112.44 55.83 111.92 56.07 111.4C56.57 110.32 57.06 109.24 57.56 108.16C57.67 107.92 57.63 107.64 57.39 107.5C57.18 107.38 56.84 107.44 56.73 107.67C56.23 108.77 55.72 109.87 55.22 110.97C54.97 111.51 54.72 112.05 54.48 112.6C54.28 113.06 53.85 113.74 54.01 114.26C54.07 114.45 54.25 114.5 54.42 114.43L54.41 114.41Z" fill="#57555F"/>
<path d="M64.41 108.17C64.32 108.45 64.44 108.74 64.54 109.01C64.65 109.3 64.77 109.59 64.9 109.88C65.14 110.44 65.39 110.99 65.65 111.54C65.91 112.09 66.18 112.63 66.45 113.17C66.59 113.45 66.73 113.73 66.87 114.01C67.01 114.29 67.11 114.59 67.45 114.67C67.67 114.72 67.85 114.6 67.93 114.4C68.06 114.08 67.84 113.81 67.7 113.53C67.56 113.25 67.42 112.97 67.28 112.69C67.02 112.17 66.76 111.64 66.51 111.11C66.26 110.58 66 110.05 65.76 109.52C65.63 109.24 65.5 108.95 65.35 108.68C65.22 108.43 65.09 108.14 64.83 108.02C64.66 107.94 64.48 108.01 64.42 108.19L64.41 108.17Z" fill="#57555F"/>
<path d="M62.39 111.31C62.65 111.49 63 111.52 63.31 111.58C63.59 111.63 63.87 111.68 64.16 111.74C64.76 111.85 65.37 111.96 65.97 112.07C67.18 112.29 68.39 112.5 69.6 112.72C70.2 112.83 70.47 111.96 69.86 111.79C69.64 111.73 69.43 111.72 69.21 111.78C68.93 111.85 68.9 112.17 69.06 112.36C69.2 112.54 69.39 112.64 69.6 112.73L69.86 111.8C68.63 111.58 67.4 111.36 66.17 111.14C65.56 111.03 64.96 110.93 64.35 110.82C64.05 110.77 63.74 110.71 63.44 110.66C63.14 110.61 62.8 110.53 62.48 110.6C62.13 110.69 62.12 111.14 62.39 111.32V111.31Z" fill="#57555F"/>
<path d="M64.01 114.57C64.52 114.35 64.88 113.83 65.23 113.41C65.61 112.96 65.99 112.5 66.37 112.05L67.48 110.72L68.03 110.06C68.22 109.83 68.51 109.59 68.56 109.28C68.61 108.97 68.37 108.63 68.03 108.75C67.73 108.85 67.58 109.1 67.38 109.33L66.83 110L65.69 111.37C65.32 111.81 64.96 112.26 64.59 112.71C64.4 112.94 64.21 113.16 64.04 113.4C63.87 113.64 63.66 113.87 63.6 114.17C63.55 114.39 63.76 114.68 64.01 114.58V114.57Z" fill="#57555F"/>
<path d="M74.62 109.301C74.78 109.861 75.33 110.281 75.72 110.681C76.15 111.111 76.59 111.53 77.03 111.96C77.47 112.39 77.89 112.781 78.31 113.191C78.76 113.621 79.2 114.08 79.68 114.49C79.88 114.66 80.16 114.68 80.36 114.49C80.53 114.32 80.56 113.98 80.36 113.81C80.26 113.73 80.18 113.68 80.07 113.63C79.68 113.47 79.32 113.8 79.5 114.2C79.55 114.31 79.6 114.39 79.68 114.49L80.36 113.81C79.94 113.37 79.48 112.961 79.04 112.541C78.6 112.121 78.15 111.7 77.71 111.28C77.27 110.86 76.85 110.46 76.41 110.06C75.97 109.66 75.51 109.111 74.94 108.981C74.75 108.931 74.56 109.101 74.62 109.301Z" fill="#57555F"/>
<path d="M77.33 115.21C77.72 114.74 77.82 114.04 77.97 113.46C78.13 112.84 78.27 112.21 78.4 111.58C78.53 110.95 78.65 110.32 78.75 109.68C78.8 109.36 78.85 109.04 78.9 108.73C78.95 108.42 79.05 108.09 78.87 107.8C78.72 107.57 78.43 107.54 78.23 107.72C77.98 107.95 78 108.28 77.95 108.6C77.9 108.92 77.86 109.24 77.8 109.55C77.7 110.17 77.59 110.78 77.46 111.39C77.33 112 77.2 112.61 77.06 113.22C76.92 113.83 76.66 114.46 76.76 115.07C76.8 115.32 77.18 115.41 77.34 115.22L77.33 115.21Z" fill="#57555F"/>
<path d="M73.78 112.63C74.33 112.81 75.04 112.64 75.61 112.6C76.23 112.55 76.85 112.48 77.47 112.41L79.33 112.22L80.2 112.13C80.53 112.1 80.87 112.1 81.16 111.95C81.5 111.78 81.4 111.25 81.06 111.15C80.74 111.06 80.4 111.15 80.07 111.18L79.2 111.27L77.34 111.47C76.72 111.54 76.1 111.6 75.48 111.68C74.91 111.75 74.2 111.73 73.7 112.03C73.44 112.18 73.51 112.55 73.78 112.64V112.63Z" fill="#57555F"/>
<path d="M47.65 114.56C47.72 114.27 47.58 114.01 47.45 113.75C47.32 113.47 47.1599 113.2 47.0099 112.93C46.6999 112.39 46.38 111.86 46.06 111.33C45.74 110.8 45.42 110.31 45.09 109.8C44.92 109.54 44.75 109.28 44.58 109.02C44.39 108.73 44.25 108.42 43.86 108.42C43.68 108.42 43.5399 108.55 43.4799 108.71C43.35 109.04 43.5999 109.3 43.7799 109.56C43.9399 109.8 44.0999 110.05 44.2599 110.29C44.5999 110.81 44.9299 111.33 45.2599 111.86C45.5899 112.39 45.8999 112.88 46.2099 113.4C46.3599 113.65 46.51 113.9 46.68 114.14C46.85 114.38 47.01 114.67 47.31 114.76C47.45 114.8 47.62 114.71 47.65 114.57V114.56Z" fill="#57555F"/>
<path d="M49.36 111.21C48.86 110.95 48.13 111.01 47.57 110.97C46.94 110.93 46.3 110.88 45.67 110.84C44.42 110.76 43.17 110.68 41.93 110.59C41.39 110.55 41.26 111.45 41.8 111.54C42.03 111.58 42.24 111.59 42.46 111.51C42.7 111.42 42.81 111.13 42.61 110.93C42.45 110.77 42.27 110.67 42.05 110.61L41.92 111.56C43.15 111.64 44.37 111.72 45.6 111.8C46.21 111.84 46.83 111.88 47.44 111.91C47.73 111.93 48.01 111.95 48.3 111.96C48.61 111.98 48.96 112.03 49.26 111.93C49.56 111.83 49.68 111.38 49.35 111.21H49.36Z" fill="#57555F"/>
<path d="M47.3 108.16C46.82 108.43 46.51 109.05 46.21 109.5C45.88 109.99 45.56 110.48 45.23 110.97L44.26 112.44L43.78 113.18C43.61 113.44 43.43 113.66 43.4 113.98C43.37 114.32 43.78 114.5 44.05 114.35C44.32 114.2 44.45 113.92 44.61 113.67L45.09 112.93L46.06 111.46C46.38 110.97 46.7 110.48 47.02 109.98C47.32 109.52 47.73 109.01 47.79 108.45C47.82 108.19 47.49 108.05 47.29 108.16H47.3Z" fill="#57555F"/>
<path d="M38.95 110.84C38.42 110.59 37.79 110.67 37.22 110.68C36.61 110.69 35.99 110.72 35.38 110.74C34.16 110.79 32.92 110.79 31.7 110.9C31.01 110.96 31.15 112 31.83 111.84C31.94 111.81 32.03 111.78 32.14 111.73C32.5 111.56 32.34 111.09 32.04 110.97C31.97 110.94 31.91 110.92 31.83 110.92L31.7 111.86C32.92 111.86 34.16 111.75 35.38 111.69C35.99 111.66 36.61 111.63 37.22 111.59C37.79 111.55 38.44 111.58 38.95 111.28C39.11 111.19 39.13 110.92 38.95 110.83V110.84Z" fill="#57555F"/>
<path d="M32.8 108.69C32.83 109.3 33.32 109.89 33.63 110.4C33.97 110.95 34.34 111.49 34.71 112.03C35.08 112.57 35.44 113.06 35.82 113.57C36.02 113.84 36.23 114.11 36.44 114.38C36.53 114.5 36.62 114.62 36.72 114.73C36.87 114.9 36.99 114.94 37.2 114.97C37.43 115 37.59 114.76 37.61 114.56C37.64 114.22 37.36 113.98 37.16 113.74C36.96 113.5 36.78 113.25 36.59 113C36.21 112.5 35.84 111.98 35.48 111.46C35.12 110.94 34.8 110.44 34.46 109.93C34.12 109.42 33.83 108.73 33.32 108.41C33.11 108.28 32.8 108.45 32.81 108.7L32.8 108.69Z" fill="#57555F"/>
<path d="M37.12 107.92C36.85 108.05 36.65 108.32 36.46 108.55C36.27 108.78 36.09 109.01 35.9 109.24C35.51 109.73 35.12 110.23 34.73 110.73L33.6 112.18L33.05 112.88C32.85 113.14 32.58 113.4 32.49 113.72C32.4 114.09 32.79 114.39 33.13 114.21C33.4 114.06 33.58 113.76 33.76 113.52L34.3 112.82L35.46 111.32C35.84 110.83 36.22 110.35 36.58 109.86C36.76 109.62 36.94 109.39 37.11 109.15C37.28 108.91 37.52 108.62 37.59 108.31C37.66 108 37.37 107.8 37.1 107.93L37.12 107.92Z" fill="#57555F"/>
</g>
<defs>
<clipPath id="clip0_12781_108124">
<rect width="112.62" height="224.94" fill="white"/>
</clipPath>
</defs>
</svg>
