<svg width="147" height="154" viewBox="0 0 147 154" fill="none" xmlns="http://www.w3.org/2000/svg">
<g clip-path="url(#clip0_12781_107749)">
<path d="M131.53 124.49C131.53 124.49 111.83 144.19 107.62 147.7C103.65 151 100.93 153.35 87.2 153.06C73.47 152.77 55.6 153.35 49.76 153.06C43.92 152.77 37.59 150.04 33.5 145.67C29.41 141.3 5.24 118.38 3.45 112.17C2.44 108.66 0 103.16 0 92.9597C0 82.7597 0.25 58.5297 0.25 55.0297C0.25 51.5297 2 42.5997 4.44 38.7697C8.42 32.5197 31.3 8.97972 31.53 8.71972C33.59 6.41972 42.92 1.64972 49.26 1.57972C58.33 1.46972 90.22 -0.480277 96.06 0.0997233C101.9 0.679723 108.32 3.89972 111.82 7.97972C115.32 12.0597 137.96 36.4597 140.88 40.2497C143.8 44.0397 145.42 50.2797 146.3 55.5197C147.18 60.7697 144.24 85.1397 144.82 92.7097C145.4 100.29 142.97 110.78 140.63 113.4C138.29 116.02 133.27 122.74 131.52 124.48L131.53 124.49Z" fill="#ED2690"/>
<path d="M28.83 41.2304C28.83 41.2304 42.81 27.1804 45.8 24.6804C48.61 22.3304 50.55 20.6504 60.29 20.8604C70.03 21.0704 82.71 20.6504 86.86 20.8604C91.01 21.0704 95.49 23.0104 98.4 26.1304C101.3 29.2504 118.45 45.5904 119.72 50.0104C120.44 52.5104 122.17 56.4404 122.17 63.7104C122.17 70.9804 122 88.2604 122 90.7604C122 93.2604 120.76 99.6204 119.03 102.35C116.2 106.81 99.97 123.59 99.8 123.78C98.34 125.42 91.72 128.82 87.22 128.87C80.78 128.95 58.16 130.34 54.01 129.92C49.86 129.5 45.31 127.21 42.82 124.3C40.33 121.39 24.27 103.99 22.19 101.29C20.12 98.5904 18.97 94.1404 18.34 90.4004C17.72 86.6604 19.8 69.2804 19.39 63.8804C18.98 58.4804 20.7 51.0004 22.36 49.1304C24.02 47.2604 27.58 42.4704 28.83 41.2304Z" fill="#FAD429"/>
<path d="M72.89 101.32C72.89 101.32 69.8701 101.32 69.3301 96.3796C68.7801 91.4396 66.9901 60.3696 65.2201 46.4696C63.5701 33.5796 70.43 34.6796 72.35 34.6796C74.27 34.6796 78.1101 34.4096 78.1101 43.1796C78.1101 50.5896 76.1901 87.3296 76.1901 93.3596C76.1901 99.3896 76.7401 101.04 72.9001 101.31L72.89 101.32Z" fill="#231F20"/>
<path d="M80.0201 114.849C80.0201 118.329 77.7701 121.039 73.4401 121.159C69.6601 121.269 66.8601 118.339 66.8601 114.849C66.8601 111.359 68.8601 108.289 73.4001 108.209C77.9401 108.129 80.0201 111.359 80.0201 114.849Z" fill="#231F20"/>
</g>
<defs>
<clipPath id="clip0_12781_107749">
<rect width="146.47" height="153.15" fill="white"/>
</clipPath>
</defs>
</svg>
