<svg width="167" height="219" viewBox="0 0 167 219" fill="none" xmlns="http://www.w3.org/2000/svg">
<g clip-path="url(#clip0_14880_113142)">
<path d="M4.70001 136.67C4.70001 136.67 -9.44999 177.93 11.35 197.26C32.15 216.59 57.99 198.98 85.3 202.03C112.61 205.08 135.92 219.27 156.58 190.92C177.24 162.57 158.14 141.36 156.16 102.1C154.18 62.8399 169.06 32.8999 158.83 16.2199C148.6 -0.470078 135.41 -2.13008 111.92 1.74992C83.26 6.47992 79.06 4.31992 49.22 1.99992C19.37 -0.330076 6.89001 11.2999 2.83001 28.5499C-1.22999 45.7999 12.01 75.2999 4.70001 136.66V136.67Z" fill="#FAD429"/>
<path d="M127.155 124.6C127.235 123.65 131.725 61.6104 131.965 43.8104C132.215 26.0104 125.775 22.4004 113.465 20.9304C101.155 19.4604 66.6451 17.1404 56.4051 18.0404C46.1651 18.9404 42.1751 21.5304 40.7051 38.6104C39.2351 55.6904 36.9751 108.02 35.6951 127.02C34.4151 146.02 32.6451 172.3 35.6551 179.5C38.6651 186.7 53.5351 188.02 70.9251 189.51C88.3151 191 110.425 193.45 117.115 188.49C123.815 183.53 122.785 175.19 127.155 124.59V124.6Z" fill="#ED2690"/>
<path d="M121.445 121.69C121.445 121.69 126.005 63.4704 125.855 46.9604C125.705 30.4504 122.955 29.0204 113.245 27.4304C103.545 25.8404 66.3951 23.0204 56.5251 23.9204C46.6551 24.8104 45.8551 31.9204 44.8551 46.7904C43.8551 61.6704 40.0151 137.37 39.4751 150.09C38.9351 162.82 39.0251 175.59 45.4651 178.51C51.9151 181.44 84.4251 182.69 94.8351 183.09C105.255 183.48 113.485 183.41 115.455 177.63C117.425 171.85 120.225 130.32 121.445 121.69Z" fill="#F2F1F1"/>
<path d="M114.375 26.8105C114.355 27.2405 112.505 27.0205 112.505 27.0205C112.505 27.0205 111.395 29.5905 110.115 33.0205C108.835 36.4505 108.595 38.6205 104.195 38.0005C99.785 37.3805 74.665 36.6505 70.835 35.9105C67.005 35.1705 66.175 34.4105 64.845 28.5505C63.515 22.6905 63.405 21.8105 63.405 21.8105C63.405 21.8105 111.935 23.5105 112.355 23.6705C112.775 23.8305 114.375 26.8005 114.375 26.8005V26.8105Z" fill="#ED2690"/>
<path d="M82.2352 27.2501C82.0752 29.6901 83.4252 31.3801 85.8252 31.5401C88.2252 31.7001 90.7752 30.0801 90.9452 27.6401C91.1052 25.2001 89.1552 23.6601 86.7552 23.5001C84.3552 23.3401 82.3952 24.8101 82.2252 27.2501H82.2352Z" fill="#F2F1F1"/>
<path d="M81.4552 110.8C81.4552 110.8 91.8452 110.44 97.9352 115.03C103.405 119.16 101.215 117.56 107.645 107C114.075 96.4396 112.725 95.4296 111.185 96.7696C109.645 98.1096 103.915 106.64 100.935 108.02C97.9552 109.4 97.9152 102.45 98.7652 98.2996C99.9352 92.5596 97.6652 95.4196 96.1952 98.7796C94.7252 102.14 93.0552 104.38 89.8952 104.48C86.7352 104.58 86.1552 98.7796 85.9752 94.0996C85.8052 89.6396 86.0052 82.7896 84.4752 84.6996C82.9452 86.6096 82.2152 98.2396 80.1652 101.62C78.1152 105 74.7652 103.66 73.7052 102.11C72.6452 100.56 70.8252 92.6996 69.7552 93.1196C68.4352 93.6396 69.9352 101.45 67.8752 104.53C65.8152 107.62 60.7252 95.2196 59.8252 94.1996C58.6252 92.8496 57.8552 92.2396 59.3252 97.9496C60.7952 103.66 63.4452 109.33 64.0652 111.33C65.0152 114.43 65.5452 114.43 68.3852 113.39C71.3652 112.3 74.7152 111.28 81.4652 110.78L81.4552 110.8Z" fill="#7B55A3"/>
<path d="M88.085 79.0098C88.135 80.5698 87.065 81.8498 85.505 81.8998C83.945 81.9498 82.655 80.6598 82.605 79.1098C82.555 77.5598 83.775 76.5498 85.335 76.4998C86.895 76.4498 88.035 77.4498 88.085 79.0098Z" fill="#7B55A3"/>
<path d="M98.8852 89.8196C98.9452 88.2596 100.095 87.0496 101.655 87.1096C103.215 87.1696 104.415 88.5396 104.355 90.0896C104.295 91.6396 103.005 92.5596 101.455 92.5096C99.9052 92.4596 98.8252 91.3796 98.8852 89.8196Z" fill="#7B55A3"/>
<path d="M117.235 91.6397C117.085 90.0897 115.855 88.9497 114.305 89.1097C112.755 89.2697 111.635 90.7097 111.795 92.2597C111.955 93.8097 113.295 94.6397 114.845 94.4897C116.395 94.3397 117.395 93.1897 117.245 91.6397H117.235Z" fill="#7B55A3"/>
<path d="M55.4551 91.7198C56.9751 92.0698 58.4451 91.2798 58.7951 89.7598C59.1451 88.2398 58.1451 86.7198 56.6251 86.3698C55.1051 86.0198 53.8851 87.0198 53.5351 88.5398C53.1851 90.0598 53.9351 91.3698 55.4551 91.7298V91.7198Z" fill="#7B55A3"/>
<path d="M66.1651 88.24C66.1251 86.68 67.1951 85.4 68.7551 85.35C70.3151 85.3 71.6052 86.59 71.6452 88.15C71.6852 89.71 70.4651 90.71 68.9051 90.75C67.3451 90.79 66.2051 89.79 66.1651 88.23V88.24Z" fill="#7B55A3"/>
<path d="M82.4251 114.89C63.5651 114.55 65.2351 120.83 65.2351 120.83C65.2351 120.83 64.6751 125.87 78.8551 126.74C96.4251 127.81 97.9451 124.75 98.7651 123.88C99.7651 122.82 101.275 115.23 82.4151 114.89H82.4251ZM82.0751 125.37C65.1151 125.15 66.5651 119.91 67.4751 119.18C68.2251 118.58 69.3951 116.13 85.1851 116.86C97.9351 117.45 97.5851 121.72 97.5851 121.72C97.5851 121.72 99.0351 125.59 82.0851 125.37H82.0751Z" fill="#7B55A3"/>
</g>
<defs>
<clipPath id="clip0_14880_113142">
<rect width="166.11" height="218.09" fill="white"/>
</clipPath>
</defs>
</svg>
