<svg width="204" height="252" viewBox="0 0 204 252" fill="none" xmlns="http://www.w3.org/2000/svg">
<g clip-path="url(#clip0_12781_107911)">
<path d="M1.44012 137.38C1.44012 137.38 -6.40988 183.64 14.6201 202.79C35.6501 221.94 72.2001 203.51 99.8001 206.55C127.39 209.6 139.19 225.16 160.04 197.14C180.88 169.11 168.72 124.92 166.67 86.08C164.63 47.24 173.78 36.6 161.92 21.14C145 -0.920005 120.51 14.55 92.7401 15.02C64.9001 15.49 81.5201 14.53 51.3701 12.2C21.2101 9.86999 8.82012 27.72 4.30012 44.67C-1.34988 65.85 8.76012 76.68 1.43012 137.38H1.44012Z" fill="#AFDFDE"/>
<path d="M108.52 223.91C95.58 223.91 78.64 222.82 71.42 217.62L71.36 217.58L71.31 217.53C70.87 217.11 70.54 216.78 70.38 216.38C69.9 215.37 69.71 214.23 69.52 213.12C69.47 212.83 69.42 212.55 69.37 212.26C67.99 203.56 66.78 192.53 65.61 181.87C64.93 175.68 64.29 169.83 63.64 164.71C63.01 159.38 62.35 154.06 61.69 148.74C60.41 138.39 59.08 127.69 58 117.12C56.33 101.35 54.79 85.5402 53.5 72.1502L53.29 69.9902L55.03 71.1602C58.13 73.2402 61.93 73.8702 65.61 74.4902C66.22 74.5902 66.83 74.6902 67.43 74.8002C72.8 75.5802 78.23 75.9902 82.82 76.2902C93.44 76.8802 104.68 77.1802 116.22 77.1802C125.4 77.1802 134.75 77.0001 144.8 76.6301C145.6 76.5501 146.81 76.4802 148.24 76.4002C154.99 76.0102 167.56 75.2802 172.05 71.6402L174.19 69.9102L173.63 72.7001C171.47 83.5101 169.6 94.5702 167.78 105.26C167.14 109.04 166.5 112.83 165.84 116.61C163.93 127.82 161.78 139.82 159.7 151.43C157.56 163.37 155.34 175.72 153.38 187.3C152.78 190.39 152.22 193.47 151.66 196.56C150.39 203.62 149.07 210.92 147.24 217.93C147.07 218.5 146.89 218.87 146.35 219.28C144.17 220.79 141.64 221.29 139.2 221.77L138.38 221.93C132.62 222.85 121.38 223.91 108.51 223.91H108.52Z" fill="#C1B0D6"/>
<mask id="mask0_12781_107911" style="mask-type:luminance" maskUnits="userSpaceOnUse" x="53" y="69" width="122" height="155">
<path d="M108.52 223.91C95.58 223.91 78.64 222.82 71.42 217.62L71.36 217.58L71.31 217.53C70.87 217.11 70.54 216.78 70.38 216.38C69.9 215.37 69.71 214.23 69.52 213.12C69.47 212.83 69.42 212.55 69.37 212.26C67.99 203.56 66.78 192.53 65.61 181.87C64.93 175.68 64.29 169.83 63.64 164.71C63.01 159.38 62.35 154.06 61.69 148.74C60.41 138.39 59.08 127.69 58 117.12C56.33 101.35 54.79 85.5402 53.5 72.1502L53.29 69.9902L55.03 71.1602C58.13 73.2402 61.93 73.8702 65.61 74.4902C66.22 74.5902 66.83 74.6902 67.43 74.8002C72.8 75.5802 78.23 75.9902 82.82 76.2902C93.44 76.8802 104.68 77.1802 116.22 77.1802C125.4 77.1802 134.75 77.0001 144.8 76.6301C145.6 76.5501 146.81 76.4802 148.24 76.4002C154.99 76.0102 167.56 75.2802 172.05 71.6402L174.19 69.9102L173.63 72.7001C171.47 83.5101 169.6 94.5702 167.78 105.26C167.14 109.04 166.5 112.83 165.84 116.61C163.93 127.82 161.78 139.82 159.7 151.43C157.56 163.37 155.34 175.72 153.38 187.3C152.78 190.39 152.22 193.47 151.66 196.56C150.39 203.62 149.07 210.92 147.24 217.93C147.07 218.5 146.89 218.87 146.35 219.28C144.17 220.79 141.64 221.29 139.2 221.77L138.38 221.93C132.62 222.85 121.38 223.91 108.51 223.91H108.52Z" fill="white"/>
</mask>
<g mask="url(#mask0_12781_107911)">
<path d="M75.9599 64.3301C78.7999 68.9001 82.0599 73.2301 85.1699 77.6301C88.2599 82.0101 91.3499 86.3701 94.4299 90.7501C100.63 99.5401 106.82 108.34 112.97 117.16C119.16 126.02 125.32 134.89 131.47 143.78C137.59 152.63 143.69 161.51 149.76 170.4C155.83 179.29 161.88 188.2 167.89 197.13C168.64 198.24 169.39 199.35 170.14 200.46C170.69 201.28 172.03 200.51 171.47 199.68C165.47 190.69 159.37 181.76 153.28 172.82C147.19 163.88 141.12 155.05 135 146.19C128.88 137.33 122.69 128.42 116.48 119.58C110.3 110.77 104.11 101.97 97.8599 93.2101C91.6099 84.4501 85.3199 75.6101 78.8999 66.9201C78.1299 65.8801 77.3599 64.8701 76.5399 63.8701C76.2699 63.5401 75.7299 63.9701 75.9499 64.3201L75.9599 64.3301Z" fill="#7B55A3"/>
<path d="M105.28 66.6407C109.59 72.8507 114.17 78.8807 118.66 84.9707C123.15 91.0607 127.63 97.1807 132.1 103.301C136.59 109.451 141.06 115.621 145.51 121.801C149.96 127.981 154.35 134.131 158.74 140.321C163.13 146.511 167.49 152.721 171.83 158.951C172.37 159.731 172.91 160.511 173.47 161.281L174.66 160.361C174.02 159.651 173.35 158.971 172.68 158.281C172.23 157.821 171.36 158.441 171.76 158.991C172.36 159.811 172.95 160.641 173.58 161.431C174.11 162.101 175.24 161.231 174.77 160.511C172.7 157.341 170.44 154.271 168.27 151.171C166.1 148.071 163.87 144.911 161.65 141.791C157.27 135.601 152.86 129.421 148.42 123.271C143.98 117.121 139.49 110.931 134.98 104.791C130.47 98.6507 125.97 92.5907 121.41 86.5307C116.85 80.4707 112.29 74.3907 107.57 68.4407C106.98 67.7007 106.38 66.9807 105.78 66.2507C105.54 65.9607 105.04 66.3407 105.25 66.6607L105.28 66.6407Z" fill="#7B55A3"/>
<path d="M131.21 62.4508C132.12 63.8408 133.24 65.0608 134.32 66.3208C135.4 67.5808 136.52 68.8808 137.62 70.1608C139.84 72.7608 142.03 75.3808 144.2 78.0308C148.58 83.4008 152.86 88.8308 157.06 94.3408C161.26 99.8508 165.48 105.571 169.61 111.241C173.74 116.911 177.73 122.471 181.76 128.101C182.76 129.491 183.76 130.891 184.75 132.281C185.06 132.711 185.24 132.911 185.79 132.991C186.16 133.041 186.53 133.101 186.9 133.131C187.35 133.171 187.83 133.211 188.28 133.111C189.12 132.901 189.38 132.021 188.82 131.381C188.46 130.961 187.93 130.661 187.46 130.401C187.27 130.301 187.06 130.201 186.88 130.081C186.18 129.611 185.52 130.751 186.22 131.211C186.29 131.261 186.19 131.181 186.17 131.171C186.23 131.221 186.29 131.261 186.35 131.311C186.41 131.351 186.47 131.391 186.52 131.431C186.65 131.521 186.78 131.621 186.91 131.711C186.96 131.741 187.02 131.781 186.94 131.721C187.01 131.771 187.07 131.821 187.14 131.871C187.17 131.891 187.21 131.921 187.24 131.941C187.4 132.061 187.17 131.891 187.26 131.951C187.39 132.051 187.5 132.161 187.62 132.271C187.74 132.381 187.64 132.331 187.64 132.291C187.66 132.491 187.61 132.161 187.61 132.101C187.61 131.981 187.66 131.851 187.73 131.751C187.77 131.701 187.92 131.621 187.93 131.591C187.95 131.541 187.95 131.541 187.93 131.591C187.93 131.611 187.82 131.611 187.8 131.621C187.98 131.591 187.65 131.621 187.6 131.621C187.46 131.621 187.33 131.621 187.2 131.611C186.74 131.581 186.29 131.521 185.84 131.441L186.3 131.801C179.54 122.351 172.8 112.901 165.88 103.561C158.96 94.2208 151.95 85.0308 144.55 76.1108C142.52 73.6708 140.48 71.2508 138.39 68.8608C137.36 67.6808 136.32 66.5108 135.26 65.3508C134.2 64.1908 133.1 62.9508 131.84 61.9408C131.51 61.6808 130.93 62.0108 131.2 62.4308L131.21 62.4508Z" fill="#7B55A3"/>
<path d="M46.5399 66.5504C53.1899 76.9804 59.9899 87.3004 66.7699 97.6504C73.5499 107.99 80.3499 118.33 87.1599 128.65C93.9999 139.02 100.84 149.39 107.7 159.75C114.56 170.11 121.35 180.39 128.17 190.71C134.99 201.03 141.82 211.35 148.64 221.67C149.49 222.95 150.33 224.23 151.18 225.5C151.73 226.32 153.02 225.59 152.52 224.72C151.99 223.79 151.4 222.92 150.79 222.04C150.35 221.41 149.47 221.95 149.78 222.63C150.22 223.61 150.66 224.57 151.18 225.5L152.52 224.72C145.73 214.38 138.86 204.09 132.04 193.77C125.21 183.45 118.38 173.14 111.55 162.82C104.69 152.46 97.8199 142.1 90.9499 131.75C84.0799 121.4 77.2599 111.13 70.3899 100.84C63.5199 90.5504 56.6499 80.2504 49.7099 70.0104C48.8499 68.7404 47.9799 67.4804 47.1099 66.2104C46.8699 65.8604 46.2999 66.1804 46.5299 66.5504H46.5399Z" fill="#7B55A3"/>
<path d="M39.4701 111.22C42.0501 115.13 44.8201 118.92 47.5601 122.71C50.3001 126.5 53.0001 130.28 55.7001 134.08C61.1301 141.72 66.4801 149.41 71.7401 157.16C77.0101 164.92 82.1901 172.75 87.2801 180.63C92.3701 188.51 97.3801 196.47 102.29 204.48C107.21 212.5 112.03 220.57 116.75 228.7C117.34 229.72 117.93 230.75 118.53 231.76L119.59 230.7C118.93 230.31 118.26 229.95 117.58 229.59C116.81 229.19 116.22 230.24 116.91 230.73C117.53 231.18 118.16 231.61 118.81 232.02C119.46 232.43 120.23 231.62 119.87 230.96C115.24 222.74 110.33 214.66 105.41 206.6C100.49 198.54 95.5301 190.62 90.4601 182.71C85.3901 174.8 80.2201 166.98 74.9601 159.21C69.6801 151.42 64.3101 143.69 58.8401 136.03C56.1001 132.21 53.3401 128.4 50.5401 124.62C47.7901 120.9 45.0601 117.15 42.1301 113.56C41.3901 112.65 40.6501 111.76 39.8901 110.87C39.6901 110.64 39.3001 110.94 39.4701 111.2V111.22Z" fill="#7B55A3"/>
<path d="M52.2399 164.111C53.4699 166.531 54.6599 168.961 55.8299 171.401C57.2999 174.481 58.7399 177.591 60.2199 180.671C62.1699 184.721 64.1699 188.741 66.2499 192.721C68.9899 197.971 71.8499 203.161 74.8099 208.291C78.6599 214.991 82.6999 221.581 86.8299 228.111C87.4299 229.051 88.0199 229.991 88.6199 230.931C89.1499 231.771 90.4699 231.011 89.9599 230.151L90.0399 230.471L89.9299 230.861C89.9299 230.861 89.4899 231.231 89.4199 231.201C89.4599 231.211 89.5199 231.201 89.5599 231.201C89.6799 231.221 89.7999 231.231 89.9099 231.241C90.1899 231.271 90.3599 231.321 90.7299 231.341C91.3699 231.381 92.1199 230.921 91.6899 230.191C91.2599 229.461 90.0799 230.121 90.5199 230.871L90.4799 230.761L90.5499 230.241C91.0699 230.051 91.2199 229.951 91.0099 229.951C90.9899 229.951 90.9799 229.951 90.9599 229.951C90.9299 229.921 91.0699 229.971 90.9499 229.951C90.8299 229.931 90.7099 229.901 90.5899 229.871C90.2999 229.801 90.0199 229.721 89.7299 229.681C89.4399 229.641 89.1499 229.631 88.8999 229.781C88.4899 230.021 88.3899 230.541 88.6199 230.931L89.9599 230.151C85.6299 223.421 81.4099 216.611 77.3499 209.721C74.2399 204.441 71.2199 199.131 68.2999 193.741C66.0899 189.661 63.9499 185.531 61.8799 181.381C60.3099 178.231 58.7599 175.061 57.1899 171.901C55.9599 169.421 54.6799 166.981 53.2799 164.591C53.1199 164.321 52.9499 164.061 52.7799 163.801C52.5599 163.461 52.0699 163.761 52.2499 164.111H52.2399Z" fill="#7B55A3"/>
<path d="M38.4299 153.061C46.8099 146.121 55.1799 139.181 63.6699 132.371C72.2399 125.501 80.9099 118.741 89.6099 112.021C98.3099 105.301 107.09 98.5606 115.82 91.8106C124.55 85.0606 133.26 78.2706 141.88 71.3806C150.5 64.4906 158.8 57.6706 167.06 50.5706C168.07 49.7006 169.06 48.8206 170.05 47.9306C170.75 47.2906 169.73 46.3106 169.02 46.9006C160.69 53.8806 152.44 60.9506 143.98 67.7906C135.52 74.6306 126.79 81.4806 118.12 88.2206C109.45 94.9606 100.67 101.711 91.9599 108.481C83.2499 115.251 74.5699 122.061 65.9799 128.991C57.5099 135.821 49.1099 142.751 40.9799 149.971C39.9899 150.851 39.0099 151.751 38.0299 152.641C37.7399 152.901 38.1599 153.301 38.4499 153.061H38.4299Z" fill="#7B55A3"/>
<path d="M25.05 134.761C31.74 129.541 38.29 124.151 44.87 118.801C51.45 113.451 57.94 108.221 64.49 102.941C71.04 97.6605 77.55 92.4205 84.09 87.1605C90.63 81.9005 97.17 76.6105 103.68 71.3006C110.19 65.9906 116.72 60.6205 123.2 55.2305C124.02 54.5405 124.82 53.8605 125.59 53.1005C126.07 52.6205 125.43 51.7205 124.84 52.1305C123.11 53.3605 121.51 54.7705 119.88 56.1305C118.25 57.4905 116.61 58.8505 114.96 60.2105C111.69 62.9105 108.41 65.6105 105.13 68.2905C98.62 73.6205 92.1 78.9105 85.56 84.2105C79.02 89.5105 72.52 94.7505 66 100.031C59.48 105.311 52.95 110.621 46.46 115.951C39.92 121.311 33.41 126.711 27.02 132.241C26.21 132.941 25.44 133.671 24.65 134.381C24.38 134.621 24.77 134.981 25.04 134.771L25.05 134.761Z" fill="#7B55A3"/>
<path d="M96.4799 251.44C103.45 245.99 110.09 240.11 116.67 234.2C123.25 228.29 130.22 221.9 136.98 215.73C143.64 209.66 150.32 203.61 157.12 197.69C163.48 192.16 169.93 186.73 176.62 181.61C182.47 177.12 188.5 172.84 194.88 169.12C195.59 168.71 196.26 168.21 196.97 167.81C197.68 167.41 197.04 166.36 196.35 166.75C195.61 167.16 194.84 167.48 194.11 167.91C193.38 168.34 192.63 168.79 191.89 169.24C190.37 170.18 188.86 171.14 187.37 172.13C184.24 174.22 181.18 176.41 178.18 178.66C171.52 183.66 165.09 188.98 158.78 194.43C151.98 200.3 145.31 206.33 138.68 212.39C131.9 218.59 125.16 224.83 118.37 231.02C111.58 237.21 105.13 243.01 98.4199 248.92C97.6299 249.61 96.8699 250.34 96.0899 251.03C95.8199 251.27 96.2099 251.63 96.4799 251.42V251.44Z" fill="#7B55A3"/>
<path d="M38.17 191.541C49.17 182.741 60.05 173.791 70.94 164.841C81.83 155.891 92.55 147.011 103.32 138.051C114.09 129.091 124.7 120.191 135.33 111.191C146.02 102.141 156.67 93.0408 167.27 83.8708C177.87 74.7008 188.56 65.4108 199.05 56.0108C200.33 54.8608 201.6 53.7008 202.84 52.5108C203.47 51.9008 202.55 51.0208 201.89 51.5608C196.42 56.0708 191.22 60.9108 185.89 65.5908C180.63 70.2208 175.35 74.8308 170.06 79.4308C159.48 88.6208 148.84 97.7408 138.17 106.831C127.56 115.861 116.91 124.831 106.24 133.781C95.52 142.781 84.76 151.731 74 160.691C63.24 169.651 52.38 178.671 41.62 187.731C40.31 188.841 39 189.951 37.7 191.061C37.37 191.341 37.84 191.801 38.17 191.531V191.541Z" fill="#7B55A3"/>
<path d="M51.0499 218.93C56.3599 215.34 61.3099 211.21 66.2799 207.18C71.2599 203.15 76.1699 199.04 81.0599 194.9C90.9399 186.53 100.67 177.99 110.3 169.33C119.96 160.65 129.5 151.84 138.97 142.95C148.44 134.06 157.84 125.1 167.19 116.08C176.54 107.06 185.84 98.1002 195.05 88.9902C196.17 87.8802 197.29 86.7602 198.38 85.6202C198.98 84.9902 198.07 84.0802 197.43 84.6702C192.65 89.0202 188.11 93.6402 183.48 98.1502C178.84 102.67 174.19 107.19 169.53 111.69C160.2 120.72 150.83 129.72 141.39 138.64C131.95 147.56 122.5 156.34 112.93 165.05C103.36 173.76 93.7299 182.3 83.9599 190.74C74.2099 199.16 64.1999 207.27 54.4099 215.64C53.2199 216.66 52.0399 217.68 50.8899 218.74C50.7899 218.83 50.9199 219.02 51.0399 218.94L51.0499 218.93Z" fill="#7B55A3"/>
<path d="M82.8199 227.871C84.4999 226.811 85.9699 225.451 87.4999 224.181C89.0299 222.911 90.5999 221.551 92.1399 220.231C95.1999 217.611 98.2499 214.971 101.29 212.331C107.39 207.021 113.49 201.711 119.59 196.391C125.69 191.071 131.72 185.791 137.78 180.481C143.84 175.171 149.95 169.821 156.03 164.491C158.92 161.961 161.84 159.441 164.7 156.871C167.56 154.301 170.06 151.861 172.39 149.041C172.97 148.341 173.52 147.621 174.04 146.871C174.52 146.191 173.4 145.311 172.88 145.971C170.61 148.831 168.18 151.501 165.52 154.001C162.86 156.501 159.94 159.021 157.12 161.491C151.07 166.801 145.01 172.111 138.96 177.431C132.91 182.741 126.85 188.051 120.81 193.381C114.77 198.711 108.73 204.031 102.69 209.361C96.6499 214.691 90.6299 220.021 84.7099 225.471C84.3699 225.791 84.0299 226.101 83.6799 226.421C83.2899 226.781 82.9599 227.201 82.6199 227.611C82.4999 227.751 82.6499 227.981 82.8199 227.881V227.871Z" fill="#7B55A3"/>
</g>
<path d="M114.56 77.4102C103.24 77.4102 92.8499 77.1802 82.7999 76.7202C82.2699 76.6802 81.5599 76.6302 80.6899 76.5802C61.8199 75.3602 53.9299 73.3102 53.4499 69.5102L53.4199 69.3002L53.4799 69.0902C54.8399 63.9802 67.9399 62.7102 80.1299 61.9202C81.2699 61.8502 82.2199 61.7902 82.8999 61.7302C87.0899 61.5502 101.94 60.9902 118.65 60.9902C173.91 60.9902 174.04 67.0402 174.08 69.3102V69.4502L174.05 69.5802C172.78 75.0502 159.9 76.1502 147.92 76.7502C146.65 76.8102 145.59 76.8702 144.84 76.9302C133.82 77.2502 123.93 77.4102 114.57 77.4102H114.56Z" fill="#7B55A3"/>
<path d="M145.22 56.4401C146.48 55.4001 152.25 54.1501 152.24 53.3001C152.23 52.4601 149.08 47.7301 149.08 47.7301C149.08 47.7301 149.01 43.5101 149.44 41.7101C149.87 39.9101 151.52 34.5401 150.15 33.4201C148.78 32.3001 140.74 31.1401 140.74 31.1401C140.74 31.1401 140.31 25.4301 140.26 24.3601C140.21 23.2801 132 21.8001 130.45 21.8201C128.91 21.8401 119.5 15.8101 118.81 15.9801C118.12 16.1501 113.35 23.6301 113.35 23.6301C113.35 23.6301 104.95 18.6801 104.24 19.4601C103.8 19.9401 101.85 26.2601 100.65 31.2301C98.01 33.7901 92.28 36.4401 91.74 37.2601C90.68 38.8501 94.08 49.2201 95.28 50.0201C95.8 50.3601 97.37 51.6001 98.98 52.8901C97.8 54.9901 96.54 57.4201 96.86 57.7401C97.43 58.3301 104.31 68.7301 106.05 68.4301C107.79 68.1201 109.18 67.1701 110.33 66.8901C111.48 66.6101 121.63 74.3901 122.61 73.7901C123.59 73.1901 125.65 68.9201 126.2 68.6601C126.75 68.4001 129.19 70.2201 130.52 69.6501C131.86 69.0801 134.06 63.4501 134.06 63.4501C134.06 63.4501 140.47 65.5701 141.43 64.1201C142.39 62.6701 143.95 57.5001 145.22 56.4601V56.4401Z" fill="#F2F1F1"/>
<mask id="mask1_12781_107911" style="mask-type:luminance" maskUnits="userSpaceOnUse" x="94" y="15" width="60" height="59">
<path d="M145.22 56.4399C146.48 55.3999 153.65 56.6699 153.78 54.2299C153.83 53.3899 149.08 47.7399 149.08 47.7399C149.08 47.7399 149.01 43.5199 149.44 41.7199C149.87 39.9199 151.52 34.5499 150.15 33.4299C148.78 32.3099 140.74 31.1499 140.74 31.1499C140.74 31.1499 140.31 25.4399 140.26 24.3699C140.21 23.2899 132 21.8099 130.45 21.8299C128.91 21.8499 119.5 15.8199 118.81 15.9899C118.12 16.1599 113.35 23.6399 113.35 23.6399C113.35 23.6399 104.95 18.6899 104.24 19.4699C103.8 19.9499 101.85 26.2699 100.65 31.2399C98.0101 33.7999 95.1401 36.6599 94.6001 37.4799C93.5401 39.0699 94.0801 49.2299 95.2801 50.0299C95.8001 50.3699 97.3701 51.6099 98.9801 52.8999C97.8001 54.9999 96.5401 57.4299 96.8601 57.7499C97.4301 58.3399 104.31 68.7399 106.05 68.4399C107.79 68.1299 109.18 67.1799 110.33 66.8999C111.48 66.6199 121.63 74.3999 122.61 73.7999C123.59 73.1999 125.65 68.9299 126.2 68.6699C126.75 68.4099 129.19 70.2299 130.52 69.6599C131.86 69.0899 134.06 63.4599 134.06 63.4599C134.06 63.4599 141.7 65.5799 142.66 64.1299C143.62 62.6799 143.95 57.5099 145.21 56.4699L145.22 56.4399Z" fill="white"/>
</mask>
<g mask="url(#mask1_12781_107911)">
<path d="M105.66 41.8801C105.66 41.8801 101.54 35.3901 101.16 34.5101C100.78 33.6301 110.52 30.5001 110.52 30.5001C110.52 30.5001 113.28 22.5501 113.4 21.7901C113.52 21.0301 109.99 11.3701 109.99 11.3701" stroke="#231F20" stroke-linecap="round" stroke-linejoin="round"/>
<path d="M127.57 33.6806C127.57 33.6806 135.01 32.5706 135.54 34.3806C136.07 36.1906 133.14 45.5106 133.14 45.5106" stroke="#231F20" stroke-linecap="round" stroke-linejoin="round"/>
<path d="M134.37 41.3204C134.96 41.3004 139.56 44.7604 139.9 45.4004" stroke="#231F20" stroke-linecap="round" stroke-linejoin="round"/>
<path d="M126.78 52.7598C126.78 52.7598 125.15 61.2798 124.38 62.4298" stroke="#231F20" stroke-linecap="round" stroke-linejoin="round"/>
<path d="M105.42 54.6504C105.4 55.2604 103.76 62.9304 104.4 63.9904C105.04 65.0504 111.17 67.6504 111.17 67.6504" stroke="#231F20" stroke-linecap="round" stroke-linejoin="round"/>
</g>
<path d="M74.8102 99.19C73.6802 103.05 73.1802 107.09 72.4902 111.12C71.8102 115.05 71.1302 118.98 70.4802 122.91C69.1502 130.94 67.8202 138.98 66.4802 147.01C63.8202 163.08 61.1502 179.14 58.4902 195.21C56.9902 204.23 55.4302 213.79 53.9302 222.8C53.7102 224.13 54.3202 224.95 55.8802 225.01C57.1102 225.06 58.5802 224.91 58.8002 223.58C64.1102 191.44 69.4202 159.31 74.7302 127.17C75.4602 122.74 76.1702 118.31 76.8802 113.88C77.6002 109.36 78.3702 104.45 78.9702 99.89C79.1902 98.24 74.9802 97.55 74.8102 99.2V99.19Z" fill="#231F20"/>
<path d="M45.9401 95.8502C44.1501 99.5602 43.5001 103.75 42.6701 107.76C41.8601 111.66 41.0501 115.57 40.2601 119.48C38.6601 127.46 37.0501 135.45 35.4501 143.43C32.2401 159.4 29.0301 175.36 25.8301 191.33C24.0301 200.29 22.0201 210.07 20.2201 219.03C19.9601 220.35 20.5501 221.31 22.1101 221.37C23.3801 221.42 24.8401 221.37 25.2301 219.53C31.9301 187.65 38.0301 155.65 44.4201 123.72C45.3001 119.32 46.1601 114.91 47.0201 110.51C47.8901 106.02 49.2201 101.26 48.9601 96.6702C48.8801 95.1902 46.6901 94.3002 45.9401 95.8502Z" fill="#231F20"/>
<path d="M35.6802 154.77C37.5602 156.38 40.2902 156.89 42.6302 157.52C44.9702 158.15 47.4102 158.77 49.8102 159.37C52.2102 159.97 54.6102 160.58 57.0102 161.17C59.5502 161.79 62.1402 162.58 64.7202 162.96C65.8302 163.12 66.6002 162.81 67.2602 161.92C67.6602 161.39 67.6002 160.8 67.4902 160.18C67.3502 159.4 66.6202 158.83 65.9202 158.61C63.4302 157.81 60.7602 157.37 58.2102 156.8C55.7902 156.27 53.3702 155.75 50.9502 155.23C48.5302 154.71 46.1102 154.2 43.6702 153.71C41.2302 153.22 38.5302 152.43 36.1302 153.05C35.4202 153.23 35.0902 154.26 35.6802 154.76V154.77Z" fill="#231F20"/>
<path d="M39.7202 132.77C41.6602 134.09 44.2002 134.59 46.4502 135.16C48.9302 135.79 51.4102 136.37 53.9002 136.95C58.8002 138.09 63.7202 139.17 68.6502 140.16C69.7102 140.37 70.6302 140 71.2302 139.11C71.6102 138.54 71.5902 137.99 71.4602 137.35C71.3202 136.63 70.5902 135.9 69.8602 135.75C64.8302 134.74 59.7902 133.82 54.7302 132.96C52.2802 132.54 49.8302 132.13 47.3702 131.76C44.9102 131.39 42.3202 130.84 39.8902 131.34C39.1802 131.48 39.1902 132.42 39.7002 132.77H39.7202Z" fill="#231F20"/>
<path d="M45.6 112.15C50.37 113.06 55.18 113.48 59.99 114.06C62.39 114.35 64.79 114.62 67.18 114.95C68.31 115.11 69.43 115.27 70.55 115.44C71.88 115.64 73.26 116.05 74.57 115.64C76.27 115.11 76.48 112.94 75.05 111.98C73.92 111.22 72.45 111.24 71.14 111.08C70.01 110.94 68.88 110.82 67.75 110.7C65.33 110.45 62.9 110.21 60.47 110.05C55.58 109.74 50.73 109.59 45.85 110.18C44.84 110.3 44.38 111.91 45.59 112.14L45.6 112.15Z" fill="#231F20"/>
<path d="M64.0501 179.35C63.7901 177.81 62.0501 177.66 60.8201 177.48C59.4101 177.27 58.0001 177.16 56.5901 177.02C53.6701 176.73 50.7501 176.46 47.8401 176.12C44.9301 175.78 42.2901 175.44 39.5301 175.04C38.1601 174.84 36.8001 174.63 35.4301 174.42C33.7001 174.15 32.0901 173.61 30.6401 174.9C29.9501 175.52 29.8701 176.66 30.3101 177.43C31.1501 178.92 32.5801 178.94 34.1101 179.18C35.4301 179.38 36.7401 179.56 38.0601 179.74C40.8301 180.11 43.6001 180.45 46.3801 180.75C49.1601 181.05 51.7201 181.29 54.4001 181.49C57.0801 181.69 60.1301 182.21 62.7001 181.54C63.3401 181.37 63.8601 180.84 64.0301 180.21C64.1101 179.91 64.1101 179.66 64.0601 179.35H64.0501Z" fill="#231F20"/>
<path d="M27.4402 198.611C29.6502 199.971 32.3402 200.481 34.8402 201.091C37.4002 201.721 39.9802 202.331 42.5602 202.901C47.7202 204.061 52.8702 205.241 58.0402 206.351C60.6102 206.901 61.9902 204.101 60.4602 202.191C59.1602 200.561 56.6602 201.271 56.3002 203.291L59.3602 201.551C54.1902 200.431 49.0002 199.381 43.8202 198.311C41.2302 197.771 38.6302 197.261 36.0302 196.781C33.4902 196.311 30.7502 195.611 28.1702 195.931C26.8202 196.101 26.1302 197.801 27.4502 198.611H27.4402Z" fill="#231F20"/>
<path d="M106.12 48.3899C106.12 48.3899 107.98 47.5099 108.58 46.6999C109.18 45.8899 111.74 41.2199 112.59 41.6399C113.44 42.0599 112.06 46.8399 112.06 46.8399C112.06 46.8399 116.07 45.3999 117.79 45.1199C119.51 44.8399 119.65 45.2599 119.58 45.8199C119.51 46.3799 114.31 49.0199 114.31 49.0199C114.31 49.0199 119.72 48.4599 120.88 48.8399C122.04 49.2199 122.11 51.0499 114.8 51.3699C114.8 51.3699 118.17 52.2099 119.72 52.6399C121.27 53.0699 120.99 53.9399 120.53 54.1499C120.07 54.3599 118.39 54.0099 116.81 53.7999C115.23 53.5899 114.07 53.3799 114.07 53.3799C114.07 53.3799 115.41 53.7999 117.2 54.6099C118.99 55.4199 118.89 55.8399 118.68 56.2299C118.47 56.6199 117.8 56.7199 116.22 56.2999C114.64 55.8799 111.86 55.3499 111.16 55.2499C110.46 55.1499 107.22 55.6399 107.22 55.6399L106.13 48.3999L106.12 48.3899Z" fill="#DD8957"/>
<path d="M57.1 149.08C57.1 149.08 57.01 152.74 59.36 153.43C61.71 154.12 63.54 154.74 63.8 156.48C64.06 158.22 58.58 159.53 53.44 158.74C48.3 157.96 47.43 157.7 47.08 156.65C46.73 155.61 48.91 146.55 48.91 146.55C48.91 146.55 54.22 145.24 54.57 145.42C54.92 145.6 57.1 149.08 57.1 149.08Z" fill="#ED2690"/>
<path d="M18 133.06C17.74 133.15 15.82 134.71 15.47 138.28C15.12 141.85 15.03 146.12 12.34 145.94C9.65 145.76 8.94 138.36 7.9 134.36C6.86 130.36 7.2 127.31 7.64 127.05C8.08 126.79 15.04 125.22 15.56 124.52C16.08 123.82 18 133.05 18 133.05V133.06Z" fill="#ED2690"/>
<mask id="mask2_12781_107911" style="mask-type:luminance" maskUnits="userSpaceOnUse" x="47" y="145" width="17" height="14">
<path d="M57.1 149.08C57.1 149.08 57.01 152.74 59.36 153.43C61.71 154.12 63.54 154.74 63.8 156.48C64.06 158.22 58.58 159.53 53.44 158.74C48.3 157.96 47.43 157.7 47.08 156.65C46.73 155.61 48.91 146.55 48.91 146.55C48.91 146.55 54.22 145.24 54.57 145.42C54.92 145.6 57.1 149.08 57.1 149.08Z" fill="white"/>
</mask>
<g mask="url(#mask2_12781_107911)">
<path d="M44.6401 155.3C45.9301 155.91 47.3701 156.24 48.7701 156.52C50.1701 156.8 51.5901 156.99 53.0201 157.09C55.9001 157.29 58.8001 157.12 61.6301 156.59C62.4101 156.44 63.1801 156.27 63.9501 156.07C64.7201 155.87 65.6101 155.72 66.2101 155.23C66.4201 155.06 66.2301 154.74 66.0001 154.73C65.3201 154.71 64.6001 155.04 63.9401 155.22C63.2801 155.4 62.6201 155.55 61.9601 155.69C60.5901 155.97 59.2101 156.16 57.8201 156.26C55.0301 156.47 52.2301 156.33 49.4701 155.86C47.9001 155.59 46.3901 155.13 44.8401 154.81C44.5601 154.75 44.3401 155.16 44.6301 155.3H44.6401Z" fill="#F48897"/>
<path d="M59.4302 156.35C59.5402 155.52 59.6302 154.68 59.8202 153.86C59.9202 153.47 60.0202 153.07 60.1502 152.69C60.2202 152.5 60.2902 152.31 60.3602 152.12C60.4502 151.88 60.5702 151.67 60.4102 151.43C60.3202 151.29 60.1802 151.24 60.0202 151.27C59.7402 151.33 59.6602 151.57 59.5702 151.81C59.4902 152.03 59.4202 152.25 59.3502 152.47C59.2302 152.89 59.1202 153.31 59.0502 153.74C58.9002 154.63 58.8402 155.52 58.9802 156.41C59.0202 156.68 59.3902 156.57 59.4202 156.35H59.4302Z" fill="#F48897"/>
<path d="M47.1101 152.11C48.1001 152.59 49.0701 153.05 49.8601 153.85C50.2401 154.23 50.5601 154.65 50.8301 155.12C50.9601 155.34 51.0701 155.56 51.1601 155.79C51.2701 156.06 51.3301 156.35 51.4301 156.62L51.8901 156.01C51.7501 155.99 51.6501 156.01 51.5301 156.09C51.3801 156.18 51.3201 156.35 51.3601 156.52C51.3901 156.65 51.4501 156.75 51.5601 156.83C51.9501 157.14 52.4301 156.85 52.3601 156.36C52.2801 155.76 51.9601 155.14 51.6501 154.63C51.3401 154.12 50.9501 153.62 50.5001 153.2C49.6301 152.39 48.4601 151.67 47.2301 151.66C47.0101 151.66 46.8901 152 47.1101 152.1V152.11Z" fill="#F48897"/>
<path d="M59.2301 154.11C58.5201 154.07 57.8901 153.93 57.2701 153.55C56.6501 153.17 56.1801 152.64 55.8401 152.03C55.4601 151.34 55.2501 150.57 55.1201 149.79C55.0501 149.4 55.0201 149 54.9901 148.6C54.9601 148.23 55.0101 147.69 54.7401 147.41C54.6401 147.3 54.4101 147.28 54.3101 147.41C54.0301 147.76 54.1401 148.29 54.1801 148.71C54.2201 149.18 54.2801 149.65 54.3601 150.11C54.5201 150.99 54.8001 151.87 55.2901 152.62C56.0901 153.86 57.7401 155.11 59.3001 154.59C59.5701 154.5 59.5201 154.12 59.2301 154.1V154.11Z" fill="#F48897"/>
<path d="M57.67 153.93C58.07 153.77 58.41 153.51 58.74 153.24C58.9 153.11 59.05 152.97 59.19 152.83C59.26 152.76 59.33 152.69 59.4 152.62C59.51 152.5 59.63 152.38 59.62 152.2C59.61 151.99 59.44 151.88 59.24 151.91C59.16 151.92 59.08 151.97 59.03 152.03C59.01 152.05 59 152.07 58.98 152.09C58.95 152.13 58.94 152.14 58.96 152.11C58.99 152.08 58.94 152.14 58.93 152.15C58.87 152.23 58.81 152.3 58.74 152.38C58.61 152.53 58.48 152.68 58.34 152.82C58.07 153.11 57.77 153.36 57.51 153.65C57.46 153.71 57.45 153.79 57.48 153.85C57.51 153.91 57.6 153.95 57.67 153.93Z" fill="#F48897"/>
<path d="M56.0901 152.711C56.6301 152.561 57.1701 152.361 57.6901 152.151C57.9401 152.041 58.2001 151.941 58.4501 151.831C58.7001 151.721 59.2401 151.551 59.0701 151.171C58.9001 150.791 58.4201 151.061 58.1701 151.171C57.9201 151.281 57.6701 151.411 57.4301 151.541C56.9201 151.791 56.4201 152.071 55.9401 152.381C55.7701 152.491 55.8701 152.761 56.0801 152.711H56.0901Z" fill="#F48897"/>
<path d="M54.8501 150.881C55.6001 150.961 56.3402 150.921 57.0802 150.801C57.4402 150.741 57.8102 150.681 58.1602 150.591C58.3302 150.551 58.5001 150.501 58.6701 150.451C58.8901 150.391 59.0802 150.341 59.1502 150.101C59.1702 150.011 59.1502 149.881 59.0802 149.821C58.8902 149.671 58.7501 149.701 58.5301 149.771C58.3501 149.831 58.1702 149.881 57.9902 149.941C57.6502 150.041 57.3102 150.131 56.9602 150.211C56.2502 150.371 55.5302 150.491 54.8202 150.611C54.6502 150.641 54.7102 150.871 54.8602 150.891L54.8501 150.881Z" fill="#F48897"/>
</g>
<mask id="mask3_12781_107911" style="mask-type:luminance" maskUnits="userSpaceOnUse" x="7" y="124" width="11" height="22">
<path d="M18 133.06C17.74 133.15 15.82 134.71 15.47 138.28C15.12 141.85 15.03 146.12 12.34 145.94C9.65 145.76 8.94 138.36 7.9 134.36C6.86 130.36 7.2 127.31 7.64 127.05C8.08 126.79 15.04 125.22 15.56 124.52C16.08 123.82 18 133.05 18 133.05V133.06Z" fill="white"/>
</mask>
<g mask="url(#mask3_12781_107911)">
<path d="M14.09 147.43C14.15 147.31 14.2 147.24 14.19 147.1C14.18 146.91 14.12 146.71 14.07 146.53C13.95 146.12 13.81 145.71 13.67 145.3C13.41 144.52 13.14 143.74 12.89 142.96C12.4 141.43 11.94 139.89 11.52 138.34C10.68 135.2 10.02 132.01 9.53995 128.8C9.26995 126.98 9.10995 125.15 8.82995 123.34C8.75995 122.91 8.07995 123.02 8.08995 123.44C8.10995 125.09 8.31995 126.72 8.54995 128.35C8.77995 129.98 9.04995 131.6 9.36995 133.21C10.01 136.43 10.84 139.63 11.88 142.75C12.16 143.6 12.45 144.46 12.78 145.3C12.95 145.73 13.13 146.16 13.31 146.59C13.4 146.81 13.5 147.01 13.63 147.21C13.74 147.37 13.81 147.41 13.99 147.47C14.02 147.48 14.07 147.47 14.08 147.43H14.09Z" fill="#F48897"/>
<path d="M11.8198 140.62C12.6498 140.32 13.4998 140.05 14.3598 139.86C14.7698 139.77 15.1898 139.7 15.6098 139.66C15.8198 139.64 16.0398 139.62 16.2498 139.61C16.4998 139.6 16.7698 139.62 17.0098 139.56C17.3098 139.48 17.4198 139.11 17.2398 138.87C17.0698 138.65 16.6498 138.63 16.5198 138.91C16.4698 139.03 16.4398 139.12 16.4798 139.25L17.0198 138.71C16.5898 138.6 16.0598 138.71 15.6198 138.77C15.1398 138.83 14.6698 138.93 14.1998 139.05C13.2898 139.3 12.4298 139.67 11.6598 140.21C11.4698 140.34 11.5798 140.7 11.8298 140.61L11.8198 140.62Z" fill="#F48897"/>
<path d="M9.53001 131.44C9.88001 131.51 10.18 131.31 10.46 131.12C10.75 130.92 11.02 130.69 11.27 130.43C11.78 129.91 12.2 129.3 12.51 128.64C12.85 127.9 13.04 127.11 13.1 126.3C13.16 125.49 13.12 124.49 12.74 123.75C12.55 123.37 11.83 123.53 11.89 123.98C11.94 124.35 12.05 124.71 12.1 125.09C12.15 125.47 12.16 125.82 12.14 126.19C12.11 126.9 11.94 127.6 11.65 128.25C11.4 128.82 11.06 129.35 10.65 129.82C10.44 130.06 10.21 130.29 9.97001 130.5C9.74001 130.7 9.46001 130.88 9.38001 131.19C9.35001 131.29 9.41001 131.42 9.52001 131.44H9.53001Z" fill="#F48897"/>
<path d="M13.8401 139.66C13.9001 139.22 13.8301 138.75 13.8301 138.3C13.8301 137.85 13.8501 137.42 13.8901 136.98C13.9801 136.07 14.1601 135.16 14.4401 134.28C14.7201 133.4 15.0701 132.56 15.5101 131.76C15.7201 131.38 15.9601 131 16.2101 130.64C16.4601 130.28 16.8301 129.91 16.9501 129.48C17.0201 129.22 16.7401 129.05 16.5301 129.16C16.1101 129.36 15.8201 129.85 15.5601 130.21C15.2801 130.61 15.0301 131.03 14.8001 131.47C14.3601 132.31 14.0001 133.19 13.7501 134.1C13.5001 135.01 13.3501 135.94 13.3001 136.88C13.2801 137.35 13.2801 137.83 13.3101 138.3C13.3401 138.77 13.3601 139.27 13.5401 139.69C13.5901 139.81 13.8201 139.79 13.8401 139.65V139.66Z" fill="#F48897"/>
<path d="M13.6298 137.8C14.1198 137.87 14.6098 137.96 15.0998 138.04C15.3398 138.08 15.5898 138.12 15.8398 138.15C16.0898 138.18 16.3598 138.25 16.6198 138.26C16.9898 138.26 17.1198 137.75 16.8098 137.56L16.7698 137.53C16.5198 137.38 16.1498 137.63 16.2498 137.93L16.2698 137.98L16.7298 137.52C16.4698 137.47 16.1998 137.47 15.9398 137.46C15.6798 137.45 15.4398 137.43 15.1898 137.42C14.6898 137.4 14.1998 137.39 13.6998 137.36C13.4598 137.35 13.3998 137.75 13.6398 137.79L13.6298 137.8Z" fill="#F48897"/>
<path d="M14.0099 135.76C14.5299 136.04 15.0699 136.22 15.6499 136.35C15.9199 136.41 16.1999 136.47 16.4799 136.51C16.7799 136.55 17.2699 136.71 17.4899 136.44C17.5899 136.32 17.6299 136.16 17.5499 136.01C17.3699 135.71 16.9499 135.76 16.6499 135.72C16.3799 135.69 16.0999 135.66 15.8299 135.61C15.2599 135.52 14.6999 135.43 14.1299 135.36C13.9199 135.33 13.8499 135.66 14.0199 135.75L14.0099 135.76Z" fill="#F48897"/>
<path d="M14.4998 133.91C14.7398 134.2 15.1798 134.38 15.5098 134.54C15.8398 134.7 16.1998 134.88 16.5498 135.04C16.8998 135.2 17.2498 135.37 17.5998 135.52C17.7798 135.6 17.9498 135.68 18.1298 135.76C18.3398 135.86 18.5498 135.98 18.7998 135.96C19.1298 135.94 19.2598 135.58 19.0598 135.33C18.9198 135.16 18.7198 135.1 18.5198 135.01C18.3198 134.92 18.1398 134.85 17.9498 134.77C17.5898 134.62 17.2198 134.47 16.8598 134.32C16.4998 134.17 16.1498 134.04 15.7898 133.9C15.4298 133.76 15.0098 133.57 14.6398 133.59C14.4798 133.59 14.4198 133.77 14.5198 133.89L14.4998 133.91Z" fill="#F48897"/>
</g>
<path d="M53.55 37.0395L51.65 35.2595C51.65 35.2595 46.83 33.3495 45.43 25.7595C44.02 18.1695 48.46 9.71952 54.53 7.43952C60.6 5.15952 65.8 6.56952 68.94 7.97952C72.08 9.38952 78.91 8.51952 81.08 12.0995C83.25 15.6795 82.92 18.1695 79.73 21.0995L76.64 28.2495C76.64 28.2495 66.24 37.8995 65.8 38.1095C65.36 38.3195 57.35 39.6295 56.91 39.6295C56.47 39.6295 53.55 37.0295 53.55 37.0295V37.0395Z" fill="#231F20"/>
<path d="M78.5701 28.9904C80.4301 25.0504 79.7201 21.1104 79.7201 21.1104C76.7001 24.1304 71.3701 22.9704 71.3701 22.9704C69.5101 27.1504 64.5401 28.0204 64.5401 28.0204C64.5401 26.4004 61.9101 25.4404 61.1601 27.3404C60.1101 30.0404 63.3401 30.1904 63.3401 30.1904C62.1801 37.1504 51.6401 35.2603 51.6401 35.2603C52.3401 38.9703 49.8701 49.8804 49.8701 49.8804C49.8701 49.8804 67.6401 62.2804 67.7901 52.9904C67.8701 47.8604 67.8901 44.5704 68.0901 42.3604C69.4001 43.0504 72.3001 43.9503 73.2401 43.4604C74.9001 42.6003 76.2001 40.1004 76.9501 37.2004C77.7501 37.2204 78.7001 37.1404 79.1701 36.7104C80.4701 35.5203 76.7101 32.9304 78.5701 28.9804V28.9904Z" fill="#DD8957"/>
<path d="M50.1899 15.5796C50.1899 15.5796 47.6999 13.0896 42.5999 14.9296C37.5099 16.7696 38.3699 23.0596 38.9199 26.8496C39.4599 30.6396 41.7399 40.7196 38.2699 47.4396C34.7999 54.1596 23.8599 56.3296 18.3299 52.8596C12.7999 49.3896 10.3099 40.3996 13.8899 35.6296C17.4699 30.8596 22.6699 31.7296 21.6899 23.4896C20.7099 15.2496 22.4899 5.95962 29.9299 2.02962C39.5799 -3.06038 53.5599 1.69962 55.2899 12.8696C57.0199 24.0296 53.4499 20.7796 53.2299 20.4596C53.0099 20.1396 50.1999 15.5796 50.1999 15.5796H50.1899Z" fill="#231F20"/>
<path d="M76.2701 30.6896C76.2701 31.3296 75.7001 31.8796 75.1801 31.8796C74.6601 31.8796 74.1101 31.4196 74.1101 30.7796C74.1101 30.1396 74.6501 29.5596 75.1801 29.5596C75.7101 29.5596 76.2701 30.0496 76.2701 30.6896Z" fill="#231F20"/>
<path d="M62.2699 31.9201C61.6599 31.7301 61.3099 31.0201 61.4599 30.5201C61.6099 30.0201 62.2199 29.6401 62.8299 29.8301C63.4399 30.0201 63.8299 30.7201 63.6699 31.2201C63.5099 31.7201 62.8799 32.1201 62.2599 31.9201H62.2699Z" fill="white"/>
<path d="M72.52 27.9999C72.87 27.8699 73.26 27.8299 73.62 27.7699C73.96 27.7099 74.28 27.6499 74.63 27.6399C74.98 27.6299 75.33 27.6399 75.68 27.6799C76.05 27.7299 76.42 27.8699 76.79 27.8399C77.24 27.8099 77.38 27.2699 77.01 27.0199C76.64 26.7699 76.17 26.7499 75.75 26.7299C75.36 26.6999 74.97 26.7199 74.58 26.7699C74.19 26.8199 73.77 26.8799 73.4 27.0199C73.03 27.1599 72.69 27.3899 72.34 27.6099C72.13 27.7299 72.27 28.1099 72.51 28.0199L72.52 27.9999Z" fill="#231F20"/>
<path d="M69.5 101.3C68.34 88.4 67.6 80.36 67.6 80.36C67.6 80.36 66.72 79.8 62.54 78.84C58.36 77.88 44.67 73.82 44.67 73.82C44.62 73.98 44.58 74.15 44.53 74.32C41.21 73.41 37.66 73.25 36.17 73.25C36.17 73.25 28.43 79.08 27.27 91.26C26.11 103.44 29.36 106.31 26.11 111.57C22.86 116.83 12.77 124 12.77 124C12.77 124 13.11 126.14 14.04 129.01C14.97 131.88 17.29 134.27 17.29 134.27C17.29 134.27 31.68 131.64 39.33 125.91C41.83 124.03 44.11 121.16 46.05 118.15C46.35 119.15 46.66 120.14 46.99 121.14C52.09 136.67 47.22 149.57 47.22 149.57C47.22 149.57 46.99 150.05 51.16 150.05C55.33 150.05 58.12 150.29 58.12 150.29C70.19 136.91 70.65 114.22 69.49 101.31L69.5 101.3Z" fill="#12BAAC"/>
<path d="M38.59 76.59C38.94 75.46 39.1 74.27 39.32 73.11C39.43 72.54 39.53 71.96 39.64 71.39L39.8 70.53C39.85 70.26 39.93 70 39.87 69.73C39.83 69.55 39.59 69.54 39.5 69.68C39.35 69.91 39.3401 70.19 39.2901 70.45L39.14 71.31C39.03 71.9 38.93 72.5 38.82 73.1C38.62 74.24 38.36 75.39 38.3 76.55C38.3 76.72 38.55 76.75 38.6 76.59H38.59Z" fill="#231F20"/>
<path d="M40.56 77.0298C41.04 75.8798 41.41 74.6898 41.8 73.5098C42 72.9198 42.2 72.3298 42.39 71.7398L42.66 70.9098C42.76 70.6098 42.88 70.3198 42.86 69.9898C42.84 69.7898 42.57 69.6198 42.41 69.7998C42.05 70.2398 41.95 70.8998 41.78 71.4298C41.59 72.0398 41.4 72.6498 41.22 73.2698C40.85 74.4698 40.45 75.6798 40.17 76.8998C40.11 77.1598 40.47 77.2498 40.57 77.0098L40.56 77.0298Z" fill="#231F20"/>
<path d="M56.9601 80.5196C57.2101 79.4696 57.3301 78.3796 57.5001 77.3096L57.7501 75.7296C57.7901 75.4696 57.8301 75.1996 57.8701 74.9396C57.9101 74.6796 57.9801 74.3896 57.9501 74.1196C57.9201 73.8796 57.5601 73.6896 57.4301 73.9796C57.2101 74.4696 57.2001 75.0896 57.1301 75.6196L56.9001 77.2096C56.7401 78.2896 56.5301 79.3696 56.4601 80.4596C56.4401 80.7496 56.9001 80.8096 56.9601 80.5296V80.5196Z" fill="#231F20"/>
<path d="M59.09 81.0999C59.52 79.9399 59.78 78.6999 60.08 77.4999C60.23 76.8999 60.38 76.2899 60.52 75.6799C60.66 75.0699 60.84 74.4899 60.92 73.8899C60.97 73.4899 60.36 73.4499 60.24 73.7999C60.04 74.3899 59.95 75.0199 59.82 75.6199C59.69 76.2199 59.55 76.8399 59.42 77.4499C59.17 78.6399 58.87 79.8499 58.75 81.0599C58.73 81.2699 59.02 81.2699 59.09 81.1099V81.0999Z" fill="#231F20"/>
<path d="M49.6 83.2602C49.84 83.4202 50.16 83.4602 50.44 83.5102C50.76 83.5702 51.08 83.6302 51.4 83.6902C52.02 83.8002 52.64 83.9101 53.26 84.0301C53.88 84.1501 54.5 84.2701 55.12 84.3901C55.44 84.4501 55.76 84.5201 56.08 84.5901C56.4 84.6601 56.7 84.7601 57.02 84.7801C57.47 84.8101 57.5 84.1801 57.12 84.0401C56.82 83.9301 56.48 83.9001 56.16 83.8401C55.84 83.7801 55.52 83.7202 55.2 83.6602C54.58 83.5502 53.95 83.4501 53.33 83.3501C52.71 83.2501 52.1 83.1701 51.49 83.1001C51.17 83.0601 50.85 83.0301 50.52 83.0001C50.23 82.9701 49.92 82.9301 49.64 83.0201C49.54 83.0501 49.52 83.1901 49.61 83.2501L49.6 83.2602Z" fill="#231F20"/>
<path d="M49.7 83.0896C49.44 83.4796 49.29 83.9496 49.14 84.3996C48.98 84.8696 48.85 85.3396 48.73 85.8196C48.5 86.7596 48.31 87.7096 48.24 88.6796C48.11 90.4296 48.31 92.3996 49.26 93.9296C49.71 94.6496 50.37 95.1696 51.23 95.2796C52.09 95.3896 52.97 95.1096 53.7 94.6596C55.09 93.7896 56.03 92.3796 56.58 90.8596C56.94 89.8696 57.11 88.8296 57.21 87.7896C57.26 87.2396 57.29 86.6796 57.29 86.1196C57.29 85.5596 57.34 84.9596 57.22 84.4096C57.14 84.0596 56.58 84.0496 56.5 84.4096C56.41 84.8396 56.43 85.2696 56.42 85.6996C56.42 86.1796 56.4 86.6596 56.37 87.1296C56.32 87.9996 56.21 88.8696 56 89.7196C55.65 91.1096 54.97 92.4596 53.88 93.4196C52.79 94.3796 51.09 94.9896 50.11 93.6496C49.13 92.3096 48.97 90.5496 49.04 89.0096C49.08 88.0396 49.24 87.0796 49.45 86.1396C49.56 85.6396 49.69 85.1396 49.81 84.6396C49.93 84.1396 50.06 83.6696 50.06 83.1896C50.06 82.9996 49.82 82.9496 49.71 83.0996L49.7 83.0896Z" fill="#231F20"/>
<path d="M67.44 62.6602C67.44 62.6602 87.72 66.3702 95.55 63.9202C104.3 61.1702 109.5 55.9602 109.5 55.9602C109.5 55.9602 108.85 53.6602 108.1 51.2802C107.27 48.6602 106.23 47.9102 106.23 47.9102C106.23 47.9102 100.17 50.8302 91.81 51.5302C83.45 52.2302 70.43 45.4402 64.63 44.9802C58.83 44.5202 56.54 54.5502 56.54 54.5502L67.45 62.6702L67.44 62.6602Z" fill="#ED2690"/>
<mask id="mask4_12781_107911" style="mask-type:luminance" maskUnits="userSpaceOnUse" x="49" y="21" width="31" height="36">
<path d="M78.5701 28.9904C80.4301 25.0504 79.7201 21.1104 79.7201 21.1104C76.7001 24.1304 71.3701 22.9704 71.3701 22.9704C69.5101 27.1504 64.5401 28.0204 64.5401 28.0204C64.5401 26.4004 61.9101 25.4404 61.1601 27.3404C60.1101 30.0404 63.3401 30.1904 63.3401 30.1904C62.1801 37.1504 51.6401 35.2603 51.6401 35.2603C52.3401 38.9703 49.8701 49.8804 49.8701 49.8804C49.8701 49.8804 67.6401 62.2804 67.7901 52.9904C67.8701 47.8604 67.8901 44.5704 68.0901 42.3604C69.4001 43.0504 72.3001 43.9503 73.2401 43.4604C74.9001 42.6003 76.2001 40.1004 76.9501 37.2004C77.7501 37.2204 78.7001 37.1404 79.1701 36.7104C80.4701 35.5203 76.7101 32.9304 78.5701 28.9804V28.9904Z" fill="white"/>
</mask>
<g mask="url(#mask4_12781_107911)">
<path d="M72.7801 38.2701C73.0101 38.9301 73.3201 39.5401 73.7801 40.0801C74.0301 40.3701 74.3301 40.6201 74.6401 40.8401C74.8101 40.9501 74.9801 41.0501 75.1701 41.1401C75.2801 41.1901 75.3801 41.2401 75.4901 41.2801C75.6801 41.3601 75.8501 41.3601 76.0301 41.2601C76.2101 41.1601 76.2701 40.9101 76.1701 40.7401C76.0101 40.4701 75.7501 40.4701 75.4801 40.3801C75.2801 40.3201 75.1701 40.2701 74.9901 40.1801C74.6901 40.0301 74.4301 39.8501 74.1901 39.6201C73.7401 39.1901 73.4001 38.6601 73.0901 38.1301C72.9901 37.9601 72.7101 38.0701 72.7701 38.2601L72.7801 38.2701Z" fill="#231F20"/>
</g>
<mask id="mask5_12781_107911" style="mask-type:luminance" maskUnits="userSpaceOnUse" x="12" y="73" width="58" height="78">
<path d="M69.5 101.3C68.34 88.4 67.6 80.36 67.6 80.36C67.6 80.36 66.72 79.8 62.54 78.84C58.36 77.88 44.67 73.82 44.67 73.82C44.62 73.98 44.58 74.15 44.53 74.32C41.21 73.41 37.66 73.25 36.17 73.25C36.17 73.25 28.43 79.08 27.27 91.26C26.11 103.44 29.36 106.31 26.11 111.57C22.86 116.83 12.77 124 12.77 124C12.77 124 13.11 126.14 14.04 129.01C14.97 131.88 17.29 134.27 17.29 134.27C17.29 134.27 31.68 131.64 39.33 125.91C41.83 124.03 44.11 121.16 46.05 118.15C46.35 119.15 46.66 120.14 46.99 121.14C52.09 136.67 47.22 149.57 47.22 149.57C47.22 149.57 46.99 150.05 51.16 150.05C55.33 150.05 58.12 150.29 58.12 150.29C70.19 136.91 70.65 114.22 69.49 101.31L69.5 101.3Z" fill="white"/>
</mask>
<g mask="url(#mask5_12781_107911)">
<path d="M13.4801 115.18C15.2601 118.78 17.2001 122.3 19.1201 125.83C21.0401 129.36 22.9401 132.8 24.8901 136.27C25.9901 138.23 27.0601 140.23 28.2401 142.15C28.4901 142.55 29.1001 142.2 28.8701 141.78C27.9101 140.02 26.8601 138.3 25.8601 136.56C24.8601 134.82 23.8701 133.07 22.8801 131.33C20.9201 127.87 18.9901 124.39 17.0901 120.91C16.0101 118.93 14.9501 116.94 13.8401 114.98C13.7101 114.75 13.3801 114.95 13.4901 115.18H13.4801Z" fill="#231F20"/>
<path d="M42.43 142.83C43.3 143.03 44.19 143.1 45.08 143.21C45.97 143.32 46.9 143.41 47.81 143.49C49.61 143.66 51.41 143.84 53.21 144.01C56.83 144.34 60.45 144.68 64.07 145.01L67.05 145.28C68.08 145.37 69.12 145.53 70.15 145.48C70.49 145.46 70.6 144.94 70.23 144.85C69.35 144.65 68.44 144.61 67.54 144.53L64.81 144.29C63.01 144.13 61.21 143.97 59.41 143.82C55.79 143.51 52.17 143.19 48.55 142.89C47.56 142.81 46.56 142.73 45.57 142.66C44.58 142.59 43.5 142.49 42.47 142.53C42.31 142.53 42.26 142.79 42.43 142.83Z" fill="#231F20"/>
<path d="M40.8801 101.26C40.9801 102.85 41.2801 104.43 41.6201 105.98C41.9601 107.53 42.3801 109.12 42.8201 110.67C43.7001 113.74 44.6901 116.78 45.5501 119.86C45.7901 120.71 46.0101 121.57 46.2201 122.43C46.3301 122.88 46.4301 123.33 46.5301 123.78C46.6301 124.23 46.7101 124.68 46.8901 125.11C47.0501 125.49 47.6501 125.48 47.6501 125.01C47.6501 124.21 47.4001 123.41 47.2101 122.64C47.0201 121.87 46.8101 121.07 46.6001 120.3C46.1701 118.74 45.6901 117.19 45.2101 115.65C44.2501 112.61 43.2401 109.57 42.4301 106.48C41.9701 104.74 41.6301 102.97 41.2501 101.21C41.2101 101 40.8601 101.04 40.8701 101.26H40.8801Z" fill="#231F20"/>
<path d="M28.5101 73.9C34.3901 75.73 40.3201 77.35 46.3001 78.83C52.2801 80.31 58.2901 81.62 64.3201 82.8C66.0301 83.13 67.7401 83.46 69.4501 83.77C71.1601 84.08 72.8601 84.44 74.5801 84.63C74.9901 84.68 75.0801 84 74.6801 83.91C73.1801 83.59 71.6501 83.38 70.1401 83.11C68.6301 82.84 67.1101 82.57 65.6001 82.29C62.5801 81.72 59.5601 81.11 56.5501 80.47C50.5501 79.18 44.5901 77.76 38.6501 76.2C35.3001 75.32 31.9601 74.41 28.6301 73.47C28.3601 73.39 28.2401 73.81 28.5101 73.9Z" fill="#231F20"/>
<path d="M30.5502 77.2102C32.1102 78.0402 33.7501 78.7102 35.3502 79.4602L35.1802 79.0402C34.6902 80.9302 33.9402 82.7202 32.8002 84.3102C32.2702 85.0502 31.6602 85.8102 30.9302 86.3702C30.2002 86.9302 29.3102 87.1002 28.4302 86.7102C27.3802 86.2502 26.7702 85.3002 25.9102 84.6002C25.6602 84.4002 25.3302 84.6402 25.4702 84.9402C26.3402 86.8402 28.6302 88.5202 30.7302 87.5502C31.6802 87.1102 32.4002 86.2702 33.0302 85.4702C33.7002 84.6102 34.2802 83.6902 34.7502 82.7102C35.2802 81.6002 35.6902 80.4402 35.9002 79.2302C35.9402 79.0202 35.8402 78.8502 35.6402 78.7802C33.9902 78.1502 32.3702 77.4402 30.7002 76.8802C30.5102 76.8202 30.3802 77.1102 30.5602 77.2002L30.5502 77.2102Z" fill="#231F20"/>
</g>
<path d="M36.51 73.3003C36.51 73.3003 61.14 78.8803 67.19 80.3003C67.19 80.3003 74.66 70.6803 75.4 62.0003C76.14 53.3203 69.68 46.1203 69.68 46.1203C69.68 46.1203 65.01 44.7603 58.38 43.8303C51.35 42.8403 49.41 43.1803 47.79 45.0003C46.18 46.8203 44.11 49.6203 41.96 58.5003C39.81 67.3803 36.51 73.3003 36.51 73.3003Z" fill="#ED2690"/>
<mask id="mask6_12781_107911" style="mask-type:luminance" maskUnits="userSpaceOnUse" x="36" y="43" width="40" height="38">
<path d="M36.51 73.2999C36.51 73.2999 61.14 78.8799 67.19 80.2999C67.19 80.2999 74.66 70.6799 75.4 61.9999C76.14 53.3199 69.68 46.1199 69.68 46.1199C69.68 46.1199 64.96 45.0299 58.38 43.8299C51.44 42.5599 49.13 43.4599 47.51 45.2799C45.9 47.0999 44.11 49.6199 41.96 58.4999C39.81 67.3799 36.51 73.2999 36.51 73.2999Z" fill="white"/>
</mask>
<g mask="url(#mask6_12781_107911)">
<path d="M64.8999 61.4402C66.4999 62.4302 68.2999 63.1602 70.0999 63.7302C71.8999 64.3002 73.7999 64.6902 75.6999 64.8902C76.2199 64.9402 76.7499 64.9802 77.2699 65.0102C77.7899 65.0402 78.4499 65.1502 78.9599 64.9902C79.3499 64.8602 79.3799 64.2802 78.9599 64.1702C78.6699 64.0902 78.3599 64.1302 78.0599 64.1302C77.7599 64.1302 77.4599 64.1302 77.1599 64.1302C76.5599 64.1202 75.9599 64.0902 75.3699 64.0302C74.1899 63.9302 73.0199 63.7402 71.8699 63.4902C69.5099 62.9702 67.3099 62.0902 65.1299 61.0802C64.8899 60.9702 64.6899 61.2902 64.9199 61.4402H64.8999Z" fill="#231F20"/>
</g>
</g>
<defs>
<clipPath id="clip0_12781_107911">
<rect width="203.04" height="251.63" fill="white"/>
</clipPath>
</defs>
</svg>
