<svg width="167" height="219" viewBox="0 0 167 219" fill="none" xmlns="http://www.w3.org/2000/svg">
<g clip-path="url(#clip0_12781_107361)">
<path d="M4.69999 136.67C4.69999 136.67 -9.45001 177.93 11.35 197.26C32.15 216.59 57.99 198.98 85.3 202.03C112.61 205.08 135.92 219.27 156.58 190.92C177.24 162.57 158.14 141.36 156.16 102.1C154.18 62.8399 169.06 32.8999 158.83 16.2199C148.6 -0.470078 135.41 -2.13008 111.92 1.74992C83.26 6.47992 79.06 4.31992 49.22 1.99992C19.37 -0.330076 6.88999 11.2999 2.82999 28.5499C-1.23001 45.7999 12.01 75.2999 4.69999 136.66V136.67Z" fill="#FAD429"/>
<path d="M160.92 124.6C161 123.65 165.49 61.6104 165.73 43.8104C165.98 26.0104 159.54 22.4004 147.23 20.9304C134.92 19.4604 100.41 17.1404 90.17 18.0404C79.93 18.9404 75.94 21.5304 74.47 38.6104C73 55.6904 70.74 108.02 69.46 127.02C68.18 146.02 66.41 172.3 69.42 179.5C72.43 186.7 87.3 188.02 104.69 189.51C122.08 191 144.19 193.45 150.88 188.49C157.58 183.53 156.55 175.19 160.92 124.59V124.6Z" fill="#ED2690"/>
<path d="M155.21 121.69C155.21 121.69 159.77 63.4704 159.62 46.9604C159.47 30.4504 156.72 29.0204 147.01 27.4304C137.31 25.8404 100.16 23.0204 90.29 23.9204C80.42 24.8104 79.62 31.9204 78.62 46.7904C77.62 61.6704 73.78 137.37 73.24 150.09C72.7 162.82 72.79 175.59 79.23 178.51C85.68 181.44 118.19 182.69 128.6 183.09C139.02 183.48 147.25 183.41 149.22 177.63C151.19 171.85 153.99 130.32 155.21 121.69Z" fill="#F2F1F1"/>
<path d="M148.14 26.8105C148.12 27.2405 146.27 27.0205 146.27 27.0205C146.27 27.0205 145.16 29.5905 143.88 33.0205C142.6 36.4505 142.36 38.6205 137.96 38.0005C133.55 37.3805 108.43 36.6505 104.6 35.9105C100.77 35.1705 99.94 34.4105 98.61 28.5505C97.28 22.6905 97.17 21.8105 97.17 21.8105C97.17 21.8105 145.7 23.5105 146.12 23.6705C146.54 23.8305 148.14 26.8005 148.14 26.8005V26.8105Z" fill="#ED2690"/>
<path d="M116 27.2501C115.84 29.6901 117.19 31.3801 119.59 31.5401C121.99 31.7001 124.54 30.0801 124.71 27.6401C124.87 25.2001 122.92 23.6601 120.52 23.5001C118.12 23.3401 116.16 24.8101 115.99 27.2501H116Z" fill="#F2F1F1"/>
<path d="M22.23 111.56C22.23 111.56 8.80001 109.62 4.92001 101.49C1.03 93.3597 8.28001 81.1697 11.63 76.2197C14.98 71.2697 23.94 64.2297 31.19 66.1697C38.44 68.1097 24.46 89.9597 24.46 89.9597C24.46 89.9597 17.04 94.6597 18.1 95.7197C19.16 96.7797 25.68 99.6597 25.68 99.6597L22.24 111.56H22.23Z" fill="#DD8957"/>
<path d="M115.22 110.8C115.22 110.8 125.61 110.44 131.7 115.03C137.17 119.16 134.98 117.56 141.41 107C147.84 96.4396 146.49 95.4296 144.95 96.7696C143.41 98.1096 137.68 106.64 134.7 108.02C131.72 109.4 131.68 102.45 132.53 98.2996C133.7 92.5596 131.43 95.4196 129.96 98.7796C128.49 102.14 126.82 104.38 123.66 104.48C120.5 104.58 119.92 98.7796 119.74 94.0996C119.57 89.6396 119.77 82.7896 118.24 84.6996C116.71 86.6096 115.98 98.2396 113.93 101.62C111.88 105 108.53 103.66 107.47 102.11C106.41 100.56 104.59 92.6996 103.52 93.1196C102.2 93.6396 103.7 101.45 101.64 104.53C99.58 107.62 94.49 95.2196 93.59 94.1996C92.39 92.8496 91.62 92.2396 93.09 97.9496C94.56 103.66 97.21 109.33 97.83 111.33C98.78 114.43 99.31 114.43 102.15 113.39C105.13 112.3 108.48 111.28 115.23 110.78L115.22 110.8Z" fill="#7B55A3"/>
<path d="M121.85 79.0098C121.9 80.5698 120.83 81.8498 119.27 81.8998C117.71 81.9498 116.42 80.6598 116.37 79.1098C116.32 77.5598 117.54 76.5498 119.1 76.4998C120.66 76.4498 121.8 77.4498 121.85 79.0098Z" fill="#7B55A3"/>
<path d="M132.65 89.8196C132.71 88.2596 133.86 87.0496 135.42 87.1096C136.98 87.1696 138.18 88.5396 138.12 90.0896C138.06 91.6396 136.77 92.5596 135.22 92.5096C133.67 92.4596 132.59 91.3796 132.65 89.8196Z" fill="#7B55A3"/>
<path d="M151 91.6397C150.85 90.0897 149.62 88.9497 148.07 89.1097C146.52 89.2697 145.4 90.7097 145.56 92.2597C145.72 93.8097 147.06 94.6397 148.61 94.4897C150.16 94.3397 151.16 93.1897 151.01 91.6397H151Z" fill="#7B55A3"/>
<path d="M89.22 91.7198C90.74 92.0698 92.21 91.2798 92.56 89.7598C92.91 88.2398 91.91 86.7198 90.39 86.3698C88.87 86.0198 87.65 87.0198 87.3 88.5398C86.95 90.0598 87.7 91.3698 89.22 91.7298V91.7198Z" fill="#7B55A3"/>
<path d="M99.93 88.24C99.89 86.68 100.96 85.4 102.52 85.35C104.08 85.3 105.37 86.59 105.41 88.15C105.45 89.71 104.23 90.71 102.67 90.75C101.11 90.79 99.97 89.79 99.93 88.23V88.24Z" fill="#7B55A3"/>
<path d="M116.19 114.89C97.33 114.55 99 120.83 99 120.83C99 120.83 98.44 125.87 112.62 126.74C130.19 127.81 131.71 124.75 132.53 123.88C133.53 122.82 135.04 115.23 116.18 114.89H116.19ZM115.84 125.37C98.88 125.15 100.33 119.91 101.24 119.18C101.99 118.58 103.16 116.13 118.95 116.86C131.7 117.45 131.35 121.72 131.35 121.72C131.35 121.72 132.8 125.59 115.85 125.37H115.84Z" fill="#7B55A3"/>
<path d="M67.28 152.36C67.28 153.09 73.29 182.95 71.47 202.07C69.65 221.19 62 201.52 62 201.52C62 201.52 54.9 165.29 49.44 155.09C43.98 144.89 67.28 152.36 67.28 152.36Z" fill="#DD8957"/>
<path d="M40.7 157.37C40.43 158.05 34.85 187.99 26.02 205.04C17.19 222.09 17.44 201 17.44 201C17.44 201 24.38 164.74 23.13 153.24C21.88 141.74 40.7 157.37 40.7 157.37Z" fill="#DD8957"/>
<path d="M101.27 63.9298C101.27 63.9298 101.88 60.0498 104.36 55.9898C106.84 51.9298 108.38 48.5898 109.62 49.2998C110.86 50.0098 108.69 55.4598 109.22 55.9898C109.22 55.9898 109.66 56.4598 112.49 53.7198C115.31 50.9798 117.5 49.1098 118.23 49.9198C118.96 50.7298 117.55 52.9298 115.32 55.2498C115.32 55.2498 116.5 55.8498 116.26 57.6998C116.26 57.6998 117.23 59.0698 116.74 60.3698C116.74 60.3698 117.31 60.8598 116.78 62.5498C115.82 65.6098 108.7 67.7598 105.14 68.1598C101.58 68.5598 101.27 63.9398 101.27 63.9398V63.9298Z" fill="#DD8957"/>
<mask id="mask0_12781_107361" style="mask-type:luminance" maskUnits="userSpaceOnUse" x="101" y="49" width="18" height="20">
<path d="M101.27 63.9298C101.27 63.9298 102.51 60.7498 104.98 56.6898C107.45 52.6298 108.51 48.9198 109.75 49.6198C110.99 50.3198 108.69 55.4498 109.22 55.9798C109.22 55.9798 109.66 56.4498 112.49 53.7098C115.31 50.9698 117.17 48.7098 117.9 49.5098C118.63 50.3098 117.34 52.5798 115.32 55.2398C115.32 55.2398 116.5 55.8398 116.26 57.6898C116.26 57.6898 117.23 59.0598 116.74 60.3598C116.74 60.3598 117.31 60.8498 116.78 62.5398C115.82 65.5998 108.7 67.7498 105.14 68.1498C101.58 68.5498 101.27 63.9298 101.27 63.9298Z" fill="white"/>
</mask>
<g mask="url(#mask0_12781_107361)">
<path d="M113.05 57.9598C113.84 57.2698 114.62 56.5698 115.34 55.8098C115.69 55.4298 116.04 55.0498 116.39 54.6698C116.56 54.4798 116.72 54.2898 116.89 54.0998C117.06 53.9098 117.27 53.7298 117.34 53.4898C117.38 53.3498 117.22 53.2498 117.1 53.3098C116.9 53.4098 116.75 53.6498 116.61 53.8198C116.44 54.0198 116.26 54.2198 116.09 54.4198C115.75 54.8098 115.4 55.1898 115.05 55.5698C114.35 56.3298 113.67 57.1198 112.96 57.8698C112.9 57.9298 112.99 58.0098 113.05 57.9598Z" fill="#231F20"/>
<path d="M113.92 60.4593C114.18 60.3393 114.42 60.2393 114.65 60.0593C114.84 59.9093 115.04 59.7593 115.22 59.5993C115.62 59.2393 115.98 58.8293 116.3 58.3993C116.62 57.9693 116.91 57.5193 117.15 57.0493C117.39 56.5793 117.65 56.0793 117.7 55.5593C117.72 55.3793 117.46 55.3293 117.38 55.4693C117.13 55.8993 116.99 56.4093 116.77 56.8593C116.55 57.3093 116.28 57.7493 115.97 58.1593C115.66 58.5693 115.34 58.9493 114.98 59.2993C114.8 59.4793 114.61 59.6493 114.42 59.8193C114.23 59.9893 114.04 60.1893 113.85 60.3693C113.8 60.4093 113.86 60.4793 113.91 60.4493L113.92 60.4593Z" fill="#231F20"/>
<path d="M114.49 62.9196C114.97 62.7996 115.42 62.3796 115.78 62.0496C116.18 61.6796 116.54 61.2696 116.87 60.8396C117.2 60.4096 117.49 59.9496 117.73 59.4696C117.97 58.9896 118.23 58.4796 118.3 57.9396C118.32 57.7696 118.06 57.7196 117.99 57.8596C117.75 58.3096 117.6 58.8096 117.37 59.2596C117.14 59.7096 116.85 60.1796 116.54 60.5996C116.23 61.0196 115.88 61.4096 115.51 61.7796C115.16 62.1196 114.7 62.4196 114.41 62.8196C114.37 62.8696 114.43 62.9396 114.49 62.9296V62.9196Z" fill="#231F20"/>
</g>
<path d="M29.31 68.2504C29.07 67.5404 31.9 59.7804 29.78 53.1904C27.66 46.6004 34.02 31.0704 34.02 31.0704C34.02 31.0704 51.43 25.8904 50.73 25.4204C50.03 24.9504 56.14 26.3604 57.55 32.9504C58.96 39.5404 56.84 41.6604 59.2 42.8304C61.56 44.0004 62.26 47.0704 57.79 47.5404L57.08 50.3604C57.08 50.3604 53.08 51.3004 49.79 49.4204C49.79 49.4204 51.44 53.4204 55.44 54.3604C55.44 54.3604 56.15 57.4204 51.91 57.8904C47.67 58.3604 46.03 58.3604 47.2 66.6004C48.38 74.8404 29.32 68.2504 29.32 68.2504H29.31Z" fill="#DD8957"/>
<path d="M56.69 33.3199C56.69 33.3199 54.41 32.0499 51.24 34.3299C48.07 36.6099 47.35 41.2499 44.4 42.5599C42.12 43.5699 42.37 41.1699 39.97 42.0499C36.69 43.2599 37.94 46.4799 41.62 46.4799C45.3 46.4799 46.18 54.9699 39.72 58.5099C33.26 62.0599 19.33 63.5799 13.37 57.8799C7.41 52.1799 8.3 44.1999 11.98 42.1699C15.66 40.1399 17.55 38.6199 17.43 33.5599C17.3 28.4899 19.2 24.5699 23.13 23.4299C27.06 22.2899 25.54 17.9799 30.35 13.5499C35.16 9.11986 50.36 8.73986 53.53 16.5899C53.53 16.5899 62.27 15.6999 64.17 24.5699C66.07 33.4399 56.7 33.3099 56.7 33.3099L56.69 33.3199Z" fill="#231F20"/>
<path d="M51.66 38.3003C52.19 37.7803 52.85 37.4003 53.56 37.1703C53.89 37.0603 54.24 36.9903 54.59 36.9603C54.98 36.9303 55.41 37.0403 55.78 36.9203C56.08 36.8303 56.14 36.4103 55.87 36.2503C55.49 36.0203 54.97 36.1103 54.55 36.1703C54.13 36.2303 53.73 36.3403 53.34 36.5003C52.56 36.8203 51.88 37.3303 51.36 38.0003C51.2 38.2103 51.46 38.4903 51.66 38.3003Z" fill="#231F20"/>
<path d="M55.58 41.4703C55.58 42.3103 55.04 42.8303 54.3 42.8303C53.56 42.8303 52.92 42.3103 52.92 41.4703C52.92 40.6303 53.57 40.0703 54.3 40.0703C55.03 40.0703 55.58 40.6303 55.58 41.4703Z" fill="#231F20"/>
<path d="M22.55 117.4C22.55 117.4 22.2 107.68 21.31 92.66C20.43 77.64 18.84 70.4 22.9 66.86C26.96 63.32 45.16 64.21 54.35 65.98C63.54 67.75 62.48 77.82 62.65 87.18C62.82 96.54 58.41 117.39 58.41 117.39H22.55V117.4Z" fill="#7B55A3"/>
<path d="M21.9 107.03C21.9 107.03 59.57 106.98 60.11 107.41C60.65 107.84 62.36 119.74 64.91 132.21C67.46 144.69 70.74 160.82 70.74 160.82C70.74 160.82 62.36 161.47 47.62 163.19C32.87 164.91 15.57 162.11 15.57 162.11C15.57 162.11 17.57 147.48 18.48 139.09" fill="#231F20"/>
<path d="M64.55 218.09C64.55 218.09 62.91 209.53 61.82 204.62C60.73 199.7 56.36 180.22 56.36 180.22C56.36 180.22 62.37 179.31 65.83 178.58C69.29 177.85 71.84 177.31 71.84 177.31C71.84 177.31 72.75 193.51 72.57 198.43C72.39 203.35 72.93 207.72 73.3 208.44C73.67 209.16 78.22 210.44 80.95 210.99C83.68 211.54 86.05 211.72 85.87 213.17C85.69 214.62 80.59 216.45 75.31 215.9C70.03 215.35 66.93 213.35 66.93 214.08C66.93 214.81 67.29 217.54 67.29 217.54L64.56 218.09H64.55Z" fill="#231F20"/>
<path d="M14.77 214.29C14.77 214.29 16.37 205.72 17.14 200.75C17.91 195.78 20.96 176.04 20.96 176.04C20.96 176.04 26.89 177.38 30.37 177.97C33.85 178.56 36.43 178.98 36.43 178.98C36.43 178.98 31.36 194.4 29.4 198.91C27.44 203.42 26.42 207.09 26.49 207.9C26.56 208.71 30.2 210.21 32.54 211.72C34.88 213.23 37.02 214.26 36.32 215.55C35.62 216.84 29.78 217.02 25.03 214.64C20.28 212.26 18.92 211.41 18.66 212.09C18.4 212.77 17.51 214.79 17.51 214.79L14.77 214.3V214.29Z" fill="#231F20"/>
<path d="M104.87 58.8098C104.87 58.8098 88.27 67.9598 82.53 68.8198C76.79 69.6798 65.93 68.3298 62.27 67.7198C58.61 67.1098 54.82 65.3998 50.43 66.8698C46.04 68.3398 39.57 82.9798 61.66 85.7898C83.75 88.5998 92.39 83.5398 106.95 67.5998C119.77 53.5598 104.87 58.8098 104.87 58.8098Z" fill="#DD8957"/>
</g>
<defs>
<clipPath id="clip0_12781_107361">
<rect width="166.11" height="218.09" fill="white"/>
</clipPath>
</defs>
</svg>
