<svg width="181" height="212" viewBox="0 0 181 212" fill="none" xmlns="http://www.w3.org/2000/svg">
<g clip-path="url(#clip0_12781_107381)">
<path d="M2.57999 71.8303C2.57999 71.8303 -7.87001 31.1703 13.3 11.6003C34.47 -7.96968 60.77 9.85032 88.56 6.75032C116.35 3.65032 141.52 -11.4897 162.54 17.1903C183.56 45.8703 167.24 68.1003 165.21 107.83C163.18 147.55 179.53 180.07 169.11 196.95C158.69 213.83 139.4 213.78 115.59 209.36C91.78 204.94 84.97 203.84 54.59 206.21C24.21 208.58 10.5 194.86 6.36999 177.41C2.23999 159.96 9.99999 133.91 2.57999 71.8203V71.8303Z" fill="#12BAAC"/>
<path d="M159.54 23.9502C159.54 23.9502 143.06 72.9702 137.44 92.2602C131.81 111.55 118.55 142.89 117.35 146.11C117.35 146.11 94.85 133.65 85.61 128.43C76.37 123.21 73.15 120.8 73.15 120.8C73.15 120.8 58.68 130.85 53.06 134.46C47.43 138.08 48.64 136.87 48.64 136.87C48.64 136.87 48.24 128.43 46.63 120.8C45.02 113.17 45.42 108.34 45.42 108.34C45.42 108.34 35.78 95.0802 25.33 84.2302C14.88 73.3802 11.27 66.5502 11.27 66.5502C11.27 66.5502 35.38 58.9202 54.67 52.8902C73.96 46.8602 98.87 40.4302 116.95 35.6102C135.03 30.7902 158.34 24.3602 159.54 23.9602V23.9502Z" fill="#FAD429"/>
<mask id="mask0_12781_107381" style="mask-type:luminance" maskUnits="userSpaceOnUse" x="11" y="23" width="149" height="124">
<path d="M159.54 23.9502C159.54 23.9502 143.06 72.9702 137.44 92.2602C131.81 111.55 118.55 142.89 117.35 146.11C117.35 146.11 94.85 133.65 85.61 128.43C76.37 123.21 73.15 120.8 73.15 120.8C73.15 120.8 58.68 130.85 53.06 134.46C47.43 138.08 48.64 136.87 48.64 136.87C48.64 136.87 48.24 128.43 46.63 120.8C45.02 113.17 45.42 108.34 45.42 108.34C45.42 108.34 35.78 95.0802 25.33 84.2302C14.88 73.3802 11.27 66.5502 11.27 66.5502C11.27 66.5502 35.38 58.9202 54.67 52.8902C73.96 46.8602 98.87 40.4302 116.95 35.6102C135.03 30.7902 158.34 24.3602 159.54 23.9602V23.9502Z" fill="white"/>
</mask>
<g mask="url(#mask0_12781_107381)">
<path d="M42.67 144.51C50.61 135.77 58.39 126.88 66.41 118.21C73.89 110.11 81.49 102.12 89.17 94.2201C96.85 86.3201 104.01 79.1301 111.52 71.6701C119.03 64.2101 126.08 57.2901 133.38 50.1101C140.68 42.9301 147.81 35.9401 154.98 28.8001C155.86 27.9201 156.74 27.0401 157.63 26.1601C158.01 25.7801 157.42 25.1801 157.04 25.5701C149.86 32.7401 142.64 39.8701 135.42 46.9901C128.2 54.1101 120.92 61.2701 113.7 68.4401C106.48 75.6101 98.8 83.3301 91.44 90.8701C84.08 98.4101 76.17 106.67 68.69 114.73C60.74 123.29 52.91 131.95 45.3 140.81C44.33 141.94 43.36 143.09 42.41 144.24C42.26 144.42 42.51 144.69 42.68 144.51H42.67Z" fill="#231F20"/>
<path d="M179.72 8.69021C168.8 16.8002 157.85 24.8602 146.89 32.9202C134.73 41.8602 122.55 50.7702 110.36 59.6702C98.17 68.5702 85.32 77.9402 72.81 87.0802C60.3 96.2202 48.9 104.59 36.99 113.39C31.54 117.42 26.1 121.45 20.68 125.51C18.09 127.45 15.49 129.37 12.91 131.33C9.90001 133.62 7.58001 136.5 5.27001 139.46C4.10001 140.97 2.91001 142.46 1.68001 143.92C1.35001 144.31 1.88001 144.86 2.24001 144.48C4.90001 141.74 6.98001 138.53 9.54001 135.7C11.93 133.06 14.84 131.04 17.67 128.91C23.03 124.89 28.41 120.89 33.79 116.9C45.5 108.22 57.26 99.5802 69.02 90.9602C81.5 81.8102 93.99 72.6802 106.48 63.5402C118.97 54.4002 130.85 45.7002 143.01 36.7402C154.16 28.5202 165.3 20.3002 176.32 11.9102C177.54 10.9802 178.75 10.0402 179.97 9.11021C180.22 8.92021 179.97 8.49021 179.72 8.68021V8.69021Z" fill="#231F20"/>
<path d="M66.57 117.46C66.76 117.86 67.13 118.05 67.49 118.28C67.9 118.55 68.32 118.82 68.73 119.09C69.5 119.59 70.28 120.08 71.04 120.58C72.59 121.6 74.14 122.64 75.67 123.68C78.8 125.81 81.9 127.99 85.03 130.12C85.92 130.72 86.82 131.32 87.71 131.92C88.18 132.23 88.65 132.53 89.12 132.84C89.59 133.15 90.05 133.48 90.56 133.71C90.96 133.89 91.47 133.39 91.07 133.04C90.33 132.4 89.41 131.91 88.59 131.38C87.77 130.85 86.99 130.33 86.19 129.79C84.61 128.73 83.03 127.66 81.46 126.59C78.33 124.45 75.22 122.3 72.04 120.25C71.17 119.69 70.3 119.13 69.42 118.59C68.97 118.31 68.51 118.04 68.05 117.78C67.62 117.54 67.21 117.22 66.7 117.25C66.58 117.25 66.53 117.37 66.57 117.47V117.46Z" fill="#231F20"/>
</g>
<path d="M44.93 143.16C43.52 144.9 42.55 147.08 41.69 149.13C41.25 150.17 40.85 151.22 40.48 152.29C40.3 152.81 40.13 153.33 39.97 153.85C39.8 154.41 39.52 155.04 39.56 155.63C39.6 156.31 40.43 156.53 40.82 155.97C41.12 155.53 41.21 154.93 41.36 154.42C41.51 153.91 41.69 153.37 41.86 152.85C42.22 151.78 42.62 150.73 43.05 149.68C43.48 148.63 43.92 147.67 44.39 146.68C44.86 145.69 45.4 144.68 45.8 143.65C45.99 143.17 45.25 142.74 44.93 143.14V143.16Z" fill="#231F20"/>
<path d="M40.02 165.02C39.81 166.06 39.98 167.11 40.12 168.16C40.26 169.21 40.47 170.3 40.73 171.35C40.99 172.4 41.27 173.39 41.6 174.39C41.78 174.92 41.97 175.44 42.17 175.96C42.37 176.48 42.53 176.89 43.1 177.12C43.38 177.23 43.64 176.99 43.73 176.76C43.93 176.25 43.71 175.86 43.51 175.4C43.31 174.94 43.12 174.42 42.94 173.92C42.59 172.96 42.29 171.98 42.02 170.99C41.75 170 41.56 169.06 41.37 168.09C41.17 167.07 41.11 165.99 40.74 165.02C40.62 164.71 40.1 164.63 40.02 165.02Z" fill="#231F20"/>
<path d="M47.5 184.68C48.23 185.45 49.18 186.08 50.05 186.67C50.92 187.26 51.87 187.83 52.82 188.35C53.77 188.87 54.69 189.31 55.66 189.73C56.18 189.95 56.7 190.16 57.22 190.36C57.77 190.57 58.22 190.77 58.81 190.63C59.27 190.52 59.33 189.98 59.07 189.66C58.71 189.23 58.21 189.12 57.71 188.93C57.25 188.76 56.79 188.58 56.33 188.39C55.36 187.98 54.42 187.53 53.5 187.03C52.58 186.53 51.72 186.02 50.87 185.46C50.02 184.9 49.17 184.23 48.27 183.69C47.65 183.32 47.03 184.16 47.51 184.67L47.5 184.68Z" fill="#231F20"/>
<path d="M67.94 189.5C68.92 189.84 70.23 189.53 71.22 189.35C72.32 189.15 73.41 188.88 74.48 188.53C75.55 188.18 76.54 187.78 77.53 187.32C78.04 187.08 78.54 186.83 79.03 186.56C79.52 186.29 80.16 186.03 80.44 185.53C80.67 185.11 80.39 184.52 79.87 184.54C79.32 184.56 78.89 184.91 78.42 185.17C77.95 185.43 77.49 185.68 77.01 185.91C76.03 186.38 75.03 186.79 74 187.13C72.97 187.47 71.97 187.75 70.93 187.97C70.41 188.08 69.89 188.18 69.37 188.28C68.85 188.38 68.3 188.45 67.83 188.7C67.48 188.89 67.6 189.38 67.93 189.49L67.94 189.5Z" fill="#231F20"/>
<path d="M87.28 182.44C88.26 182.43 89.28 181.99 90.23 181.76C91.26 181.51 92.3 181.28 93.35 181.11C94.4 180.94 95.38 180.81 96.4 180.73C97.42 180.65 98.56 180.77 99.56 180.46C100.14 180.28 100.14 179.47 99.56 179.28C98.55 178.96 97.35 179.16 96.31 179.25C95.22 179.34 94.13 179.48 93.05 179.68C91.97 179.88 90.97 180.1 89.95 180.4C88.93 180.7 87.76 180.98 86.95 181.64C86.62 181.9 86.9 182.45 87.28 182.45V182.44Z" fill="#231F20"/>
<path d="M107.23 180.17C108.1 180.57 109.21 180.5 110.15 180.59C111.2 180.69 112.25 180.8 113.3 180.95C115.39 181.25 117.42 181.75 119.47 182.29L119.87 180.85C119.4 180.75 118.95 180.66 118.49 180.81C118.12 180.93 117.97 181.4 118.26 181.69C118.6 182.03 119.02 182.17 119.48 182.29C120.41 182.55 120.79 181.14 119.88 180.85C117.82 180.2 115.65 179.81 113.51 179.56C112.47 179.44 111.41 179.36 110.37 179.35C109.39 179.33 108.16 179.23 107.26 179.68C107.08 179.77 107.07 180.09 107.26 180.18L107.23 180.17Z" fill="#231F20"/>
<path d="M138.88 192.33C138.56 191.4 137.63 190.64 136.94 189.99C136.16 189.25 135.32 188.55 134.47 187.9C132.77 186.59 130.94 185.36 129.01 184.41C128.15 183.99 127.4 185.24 128.25 185.7C128.67 185.93 129.07 186.13 129.55 186.12C129.96 186.12 130.19 185.68 130 185.33C129.77 184.91 129.4 184.66 129 184.4L128.24 185.69C130.08 186.73 131.88 187.78 133.6 189.01C134.43 189.61 135.24 190.23 136.04 190.87C136.8 191.48 137.59 192.36 138.52 192.68C138.72 192.75 138.94 192.53 138.87 192.33H138.88Z" fill="#231F20"/>
<path d="M128.36 185.52C128.36 185.52 128.38 185.49 128.36 185.49C128.34 185.49 128.34 185.52 128.36 185.52Z" fill="#231F20"/>
</g>
<defs>
<clipPath id="clip0_12781_107381">
<rect width="180.14" height="211.87" fill="white"/>
</clipPath>
</defs>
</svg>
