<svg width="165" height="232" viewBox="0 0 165 232" fill="none" xmlns="http://www.w3.org/2000/svg">
<g clip-path="url(#clip0_12781_107735)">
<path d="M72.66 228.83C72.66 228.83 71.54 222.55 77.41 221.85C83.27 221.15 84.95 219.2 85.65 216.96C86.35 214.72 103.66 216.96 103.66 216.96L105.2 228.27C105.2 228.27 97.38 228.69 95.99 228.83V227.15C95.99 227.15 94.31 227.29 88.59 228.41C82.87 229.53 75.05 229.39 72.68 228.83H72.66Z" fill="#231F20"/>
<mask id="mask0_12781_107735" style="mask-type:luminance" maskUnits="userSpaceOnUse" x="72" y="215" width="34" height="15">
<path d="M72.66 228.83C72.66 228.83 71.54 222.55 77.41 221.85C83.27 221.15 84.95 219.2 85.65 216.96C86.35 214.72 103.66 216.96 103.66 216.96L105.2 228.27C105.2 228.27 97.38 228.69 95.99 228.83V227.15C95.99 227.15 94.31 227.29 88.59 228.41C82.87 229.53 75.05 229.39 72.68 228.83H72.66Z" fill="white"/>
</mask>
<g mask="url(#mask0_12781_107735)">
<path d="M64.96 226.89C71.32 227.42 77.73 227.43 84.1 227.05C90.47 226.67 96.8 225.86 103.05 224.66C104.81 224.32 106.57 223.95 108.32 223.54C110.07 223.13 111.82 222.73 113.52 222.15C113.79 222.06 113.68 221.67 113.4 221.73C111.83 222.05 110.29 222.46 108.74 222.83C107.19 223.2 105.63 223.54 104.06 223.86C100.97 224.48 97.86 225.01 94.73 225.44C88.41 226.3 82.03 226.76 75.65 226.81C72.08 226.84 68.51 226.74 64.94 226.56C64.72 226.55 64.72 226.89 64.94 226.9L64.96 226.89Z" fill="#57555F"/>
<path d="M77.33 219.43C77.06 220.43 77.65 221.62 78.27 222.37C78.98 223.24 79.98 223.78 81.08 223.94C82.38 224.13 83.68 223.86 84.96 223.62C86.24 223.38 87.58 223.17 88.83 223.63C89.36 223.83 89.86 224.15 90.26 224.55C90.66 224.95 90.93 225.55 91.39 225.93C91.43 225.96 91.5 225.96 91.51 225.9C91.7 224.93 90.7 223.98 89.98 223.51C89.05 222.9 87.94 222.69 86.83 222.75C84.41 222.88 81.5 224.33 79.3 222.67C78.81 222.3 78.42 221.8 78.14 221.26C78 220.97 77.88 220.67 77.8 220.36C77.72 220.05 77.7 219.73 77.62 219.42C77.58 219.28 77.37 219.28 77.33 219.42V219.43Z" fill="#57555F"/>
<path d="M95.19 225.34C95.25 225.26 95.35 225.23 95.41 225.15C95.47 225.06 95.49 224.94 95.52 224.84C95.59 224.6 95.67 224.37 95.76 224.14C95.93 223.67 96.14 223.22 96.37 222.78C96.81 221.92 97.37 221.11 98 220.38C98.63 219.65 99.35 218.99 100.15 218.43C100.95 217.87 101.84 217.46 102.74 217.05C103.11 216.88 102.85 216.29 102.47 216.4C100.96 216.86 99.54 217.88 98.41 218.96C97.28 220.04 96.31 221.41 95.68 222.88C95.5 223.3 95.34 223.74 95.22 224.18C95.16 224.39 95.11 224.6 95.07 224.81C95.05 224.9 95.02 225.01 95.05 225.1C95.07 225.18 95.14 225.24 95.16 225.32C95.16 225.34 95.19 225.35 95.2 225.33L95.19 225.34Z" fill="#57555F"/>
</g>
<path d="M127.95 231.17C127.81 230.75 127.25 224.69 131.9 224.26C136.55 223.84 138.66 221.44 138.66 218.48C138.66 215.52 154.73 211.43 154.73 211.43L160.79 220.17L152.9 226.93L151.63 225.38C151.63 225.38 146.84 230.03 144.02 231.02C141.2 232.01 127.95 231.16 127.95 231.16V231.17Z" fill="#231F20"/>
<mask id="mask1_12781_107735" style="mask-type:luminance" maskUnits="userSpaceOnUse" x="127" y="211" width="34" height="21">
<path d="M127.95 231.17C127.81 230.75 127.25 224.69 131.9 224.26C136.55 223.84 138.66 221.44 138.66 218.48C138.66 215.52 154.73 211.43 154.73 211.43L160.79 220.17L152.9 226.93L151.63 225.38C151.63 225.38 146.84 230.03 144.02 231.02C141.2 232.01 127.95 231.16 127.95 231.16V231.17Z" fill="white"/>
</mask>
<g mask="url(#mask1_12781_107735)">
<path d="M159.51 214.62C158.74 215.34 158.06 216.15 157.37 216.94C156.68 217.73 155.98 218.5 155.26 219.25C153.82 220.76 152.31 222.22 150.7 223.56C149.09 224.9 147.4 226.06 145.56 227.01C144.24 227.7 142.85 228.35 141.36 228.57C140.08 228.77 138.76 228.8 137.47 228.82C135.87 228.85 134.27 228.82 132.67 228.78C131.07 228.74 129.59 228.69 128.05 228.65C126.92 228.62 125.78 228.58 124.65 228.64C123.26 228.71 121.87 228.86 120.51 229.14C120.12 229.22 119.78 229.29 119.45 229.32C118.81 229.37 118.17 229.36 117.54 229.34C117.01 229.33 116.49 229.34 115.97 229.34C115.68 229.34 115.59 229.82 115.9 229.87C117.29 230.08 118.72 230.24 120.11 230.02C120.51 229.96 120.89 229.86 121.29 229.79C122.01 229.66 122.74 229.58 123.47 229.52C126.18 229.29 128.92 229.47 131.64 229.55C134.68 229.63 137.76 229.76 140.79 229.43C141.33 229.37 141.88 229.3 142.4 229.16C143.17 228.97 143.9 228.62 144.62 228.28C146.49 227.4 148.24 226.27 149.87 225.01C153.21 222.42 156.1 219.24 158.81 216.01C159.14 215.62 159.45 215.22 159.74 214.8C159.84 214.66 159.63 214.52 159.51 214.62Z" fill="#57555F"/>
<path d="M134.63 222.91C134.41 224.43 135.82 225.62 137.18 225.95C138.98 226.39 140.86 225.75 142.65 226.25C143.04 226.36 143.42 226.52 143.75 226.77C143.9 226.89 144.04 227.02 144.16 227.17C144.3 227.34 144.4 227.51 144.62 227.57C144.78 227.61 144.95 227.52 145 227.35C145.13 226.91 144.65 226.47 144.34 226.22C144 225.94 143.61 225.74 143.19 225.59C142.2 225.23 141.15 225.27 140.12 225.35C138.98 225.44 137.72 225.61 136.65 225.12C135.79 224.73 135.08 223.98 135.09 222.98C135.09 222.72 134.67 222.65 134.63 222.92V222.91Z" fill="#57555F"/>
<path d="M152.18 222.679C151.68 220.689 151.39 218.699 151.51 216.649C151.63 214.599 152.08 212.609 152.88 210.739C153.33 209.689 153.87 208.659 154.44 207.669C154.57 207.439 154.24 207.169 154.07 207.379C151.44 210.639 150.47 215.219 150.93 219.329C151.06 220.509 151.29 221.699 151.72 222.809C151.83 223.089 152.26 222.989 152.18 222.679Z" fill="#57555F"/>
</g>
<path d="M139.76 117.52C139.76 117.52 143.24 123.28 141.85 136.61C140.46 149.94 139.06 166 143.24 179.03C147.42 192.06 158.91 211.45 158.91 211.45C158.91 211.45 143.24 221.15 133.49 222.06C133.49 222.06 120.96 198.12 116.43 181.15C111.9 164.18 107.03 113.57 107.03 113.57L139.76 117.51" fill="#DAC3AB"/>
<path d="M105.49 218.73C105.49 218.73 103.74 184.18 104.79 171.76C105.84 159.34 115.27 135.7 115.27 135.7C115.27 135.7 120.51 116 119.11 115.4C117.71 114.8 90.47 113.88 90.47 113.88C90.47 113.88 81.39 141.15 76.85 162.06C72.31 182.97 77.2 219.64 77.2 219.64C77.2 219.64 86.28 219.64 93.62 219.34C100.96 219.04 105.5 218.73 105.5 218.73H105.49Z" fill="#DAC3AB"/>
<mask id="mask2_12781_107735" style="mask-type:luminance" maskUnits="userSpaceOnUse" x="74" y="113" width="46" height="107">
<path d="M105.49 218.73C105.49 218.73 103.74 184.18 104.79 171.76C105.84 159.34 115.27 135.7 115.27 135.7C115.27 135.7 120.51 116 119.11 115.4C117.71 114.8 90.47 113.88 90.47 113.88C90.47 113.88 81.39 141.15 76.85 162.06C72.31 182.97 77.2 219.64 77.2 219.64C77.2 219.64 86.28 219.64 93.62 219.34C100.96 219.04 105.5 218.73 105.5 218.73H105.49Z" fill="white"/>
</mask>
<g mask="url(#mask2_12781_107735)">
<path d="M60.88 202.8C61.7 203.08 62.58 203.22 63.43 203.38C64.28 203.54 65.11 203.69 65.95 203.83C67.65 204.12 69.36 204.4 71.07 204.64C74.44 205.12 77.83 205.52 81.22 205.83C88.07 206.44 94.95 206.72 101.83 206.63C103.74 206.61 105.65 206.56 107.56 206.48C108.54 206.44 109.51 206.39 110.49 206.34C111.47 206.29 112.42 206.25 113.38 206.1C113.74 206.04 113.64 205.48 113.3 205.47C112.45 205.45 111.59 205.52 110.74 205.57C109.89 205.62 109.03 205.66 108.18 205.7C106.47 205.77 104.76 205.83 103.06 205.86C99.64 205.92 96.22 205.91 92.81 205.8C85.98 205.59 79.16 205.05 72.38 204.18C70.45 203.93 68.52 203.67 66.6 203.37C65.65 203.22 64.71 203.07 63.77 202.92C62.83 202.77 61.89 202.56 60.94 202.51C60.77 202.51 60.75 202.75 60.9 202.8H60.88Z" fill="#231F20"/>
</g>
<mask id="mask3_12781_107735" style="mask-type:luminance" maskUnits="userSpaceOnUse" x="107" y="113" width="52" height="110">
<path d="M139.76 117.52C139.76 117.52 143.24 123.28 141.85 136.61C140.46 149.94 139.06 166 143.24 179.03C147.42 192.06 158.91 211.45 158.91 211.45C158.91 211.45 143.24 221.15 133.49 222.06C133.49 222.06 120.96 198.12 116.43 181.15C111.9 164.18 107.03 113.57 107.03 113.57L139.76 117.51" fill="white"/>
</mask>
<g mask="url(#mask3_12781_107735)">
<path d="M121.21 209.61C124.08 209.07 126.93 208.41 129.76 207.72C132.59 207.03 135.42 206.32 138.24 205.54C143.83 204 149.37 202.3 154.85 200.42C156.4 199.89 157.95 199.34 159.49 198.79C161.03 198.24 162.58 197.72 164.05 197.03C164.4 196.87 164.15 196.3 163.79 196.41C162.4 196.83 161.04 197.39 159.67 197.89C158.3 198.39 156.92 198.88 155.55 199.36C152.83 200.31 150.1 201.21 147.35 202.08C141.82 203.83 136.25 205.42 130.63 206.85C127.45 207.66 124.26 208.38 121.07 209.15C120.77 209.22 120.9 209.67 121.2 209.61H121.21Z" fill="#231F20"/>
</g>
<path d="M124.61 66.8397C125.09 66.6797 127.87 67.7397 127.87 67.7397C127.87 67.7397 142.52 68.4297 145.79 75.1497C149.71 83.1897 136.49 121.12 136.49 121.12L93.61 119.35L83.81 97.5097C83.81 97.5097 85.9 79.5197 90.88 73.7397C95.86 67.9597 114.17 67.4797 114.17 67.4797L124.61 66.8397Z" fill="#12BAAC"/>
<path d="M115.17 69.1098C114.89 72.9598 114.78 76.8298 114.6 80.6798C114.45 83.9798 114.3 87.2798 114.16 90.5798C114.03 93.6598 113.9 96.7298 113.77 99.8098C113.63 103.05 113.5 106.28 113.38 109.52C113.24 113.28 113.1 117.05 112.96 120.81C112.94 121.34 112.92 121.88 112.9 122.41C112.9 122.69 113.2 122.95 113.48 122.85C113.24 122.86 113.09 122.78 113.03 122.61V122.64C113.03 122.64 113.06 122.76 113.05 122.67C113.06 122.77 113.05 122.87 113.06 122.97C113.07 123.21 113.1 123.46 113.13 123.68C113.16 123.84 113.19 124.02 113.29 124.16C113.36 124.26 113.45 124.33 113.57 124.35C113.61 124.36 113.66 124.35 113.7 124.35C113.54 124.35 113.51 124.35 113.6 124.35C113.66 124.35 113.71 124.35 113.77 124.34C114.16 124.19 113.99 123.56 113.6 123.71H113.72C113.8 123.79 113.87 123.87 113.95 123.94C113.95 123.92 113.89 123.85 113.9 123.83C113.9 123.83 113.9 123.97 113.92 123.86C113.94 123.78 113.92 123.68 113.93 123.6C113.95 123.37 113.98 123.14 113.98 122.92C113.98 122.53 113.84 121.76 113.25 121.98L113.83 122.42C113.96 118.56 114.09 114.7 114.23 110.85C114.35 107.55 114.47 104.25 114.59 100.95C114.7 97.8698 114.82 94.7998 114.93 91.7198C115.05 88.4798 115.16 85.2498 115.25 82.0098C115.36 78.2498 115.48 74.4798 115.54 70.7198C115.54 70.1898 115.54 69.6498 115.54 69.1198C115.54 68.8898 115.2 68.8898 115.18 69.1198L115.17 69.1098Z" fill="#AFDFDE"/>
<mask id="mask4_12781_107735" style="mask-type:luminance" maskUnits="userSpaceOnUse" x="87" y="66" width="60" height="56">
<path d="M128.75 66.8397C129.23 66.6797 132.01 67.7397 132.01 67.7397C132.01 67.7397 142.08 68.9297 145.29 77.2797C148.5 85.6297 140.63 121.12 140.63 121.12L97.75 119.35L87.95 97.5097C87.95 97.5097 90.04 79.5197 95.02 73.7397C100 67.9597 118.31 67.4797 118.31 67.4797L128.75 66.8397Z" fill="white"/>
</mask>
<g mask="url(#mask4_12781_107735)">
<path d="M112.16 120.709C112.16 120.709 126.66 113.459 128.79 109.689C130.92 105.919 131.21 104.279 131.3 98.6693C131.39 93.0593 130.04 85.5193 132.27 86.4893C134.5 87.4593 135.94 93.5493 135.94 93.9293C135.94 94.3093 135.55 113.649 135.55 113.649L121.82 124.279L113.8 124.379L112.16 120.709Z" fill="#231F20"/>
</g>
<path d="M99.88 84.8C99.12 89.71 98.38 94.62 97.68 99.54C97.33 102 96.98 104.46 96.64 106.92C96.3 109.38 96.01 111.63 95.59 113.97C95.36 115.28 95.09 116.58 94.76 117.87C94.6 118.49 94.43 119.12 94.24 119.73C94.04 120.38 93.78 121.02 93.61 121.68L94.48 121.92C94.51 121.74 94.54 121.56 94.56 121.38C94.59 121.19 94.53 121 94.34 120.92C94.18 120.85 93.93 120.9 93.86 121.08C93.77 121.28 93.69 121.48 93.61 121.68C93.43 122.16 94.22 122.49 94.44 122.03C94.95 120.97 95.24 119.76 95.53 118.63C95.82 117.5 96.08 116.35 96.29 115.19C96.73 112.85 97.04 110.5 97.35 108.14C98.01 103.17 98.66 98.2 99.26 93.22C99.6 90.43 99.93 87.63 100.25 84.84C100.27 84.63 99.91 84.58 99.87 84.79L99.88 84.8Z" fill="#231F20"/>
<path d="M73.25 105.25C73.25 105.25 72.04 117.07 76.58 121.31C81.12 125.55 90.82 126.46 92.34 114.34C93.86 102.22 80.22 107.37 79.31 107.07C78.4 106.77 73.25 105.25 73.25 105.25Z" fill="#12BAAC"/>
<mask id="mask5_12781_107735" style="mask-type:luminance" maskUnits="userSpaceOnUse" x="83" y="66" width="64" height="56">
<path d="M124.61 66.8397C125.09 66.6797 127.87 67.7397 127.87 67.7397C127.87 67.7397 142.52 68.4297 145.79 75.1497C149.71 83.1897 136.49 121.12 136.49 121.12L93.61 119.35L83.81 97.5097C83.81 97.5097 85.9 79.5197 90.88 73.7397C95.86 67.9597 114.17 67.4797 114.17 67.4797L124.61 66.8397Z" fill="white"/>
</mask>
<g mask="url(#mask5_12781_107735)">
<path d="M116.33 70.0494C118.82 72.7094 121.38 75.3093 123.92 77.9193C124.05 78.0593 124.28 78.0493 124.41 77.9193C128.4 74.0893 132.18 70.0393 135.77 65.8393C136.28 65.2393 136.79 64.6393 137.29 64.0293C137.79 63.4193 138.39 62.8593 138.71 62.1693C138.82 61.9293 138.57 61.5593 138.3 61.7593C137.75 62.1693 137.35 62.7794 136.91 63.3094C136.47 63.8394 136.03 64.3694 135.58 64.8994C134.69 65.9494 133.79 66.9893 132.87 68.0193C131.04 70.0893 129.15 72.1194 127.23 74.1094C126.14 75.2294 125.03 76.3394 123.92 77.4394H124.41C121.83 74.8594 119.26 72.2794 116.63 69.7594C116.43 69.5694 116.14 69.8593 116.33 70.0593V70.0494Z" fill="#AFDFDE"/>
<path d="M100.05 64.7789C101.16 66.9889 102.54 69.0889 103.92 71.1389C105.3 73.1889 106.74 75.1589 108.26 77.0989C108.38 77.2489 108.63 77.2089 108.75 77.0989C110.1 75.8889 111.29 74.5389 112.4 73.0989C112.87 72.4789 113.34 71.8589 113.82 71.2489C114.34 70.5989 114.91 70.0089 115.45 69.3689C115.75 69.0189 115.29 68.5589 114.94 68.8589C114.33 69.3889 113.82 70.0489 113.32 70.6689C112.82 71.2889 112.35 71.9289 111.87 72.5589C110.77 73.9989 109.61 75.3689 108.27 76.5989H108.76C107.23 74.6989 105.78 72.7389 104.38 70.7389C102.98 68.7389 101.72 66.6389 100.35 64.6089C100.23 64.4289 99.97 64.5889 100.06 64.7789H100.05Z" fill="#AFDFDE"/>
</g>
<mask id="mask6_12781_107735" style="mask-type:luminance" maskUnits="userSpaceOnUse" x="73" y="105" width="20" height="20">
<path d="M73.25 105.25C73.25 105.25 72.04 117.07 76.58 121.31C81.12 125.55 90.82 126.46 92.34 114.34C93.86 102.22 80.22 107.37 79.31 107.07C78.4 106.77 73.25 105.25 73.25 105.25Z" fill="white"/>
</mask>
<g mask="url(#mask6_12781_107735)">
<path d="M90.08 115.75C87.03 116.36 83.96 116.58 80.89 115.99C77.82 115.4 75.04 114.21 72.56 112.45C71.86 111.95 71.2 111.41 70.57 110.82C69.94 110.23 69.37 109.59 68.79 108.96C68.52 108.66 67.97 109.07 68.22 109.4C69.16 110.65 70.39 111.73 71.64 112.66C72.89 113.59 74.29 114.4 75.73 115.03C78.62 116.3 81.78 116.93 84.93 116.87C86.71 116.83 88.46 116.58 90.13 115.95C90.25 115.91 90.2 115.74 90.08 115.76V115.75Z" fill="#AFDFDE"/>
</g>
<path d="M81.11 102.101L67.36 84.9107L75.32 77.7207L90.51 98.1007L81.11 102.101Z" fill="#C1B0D6"/>
<path d="M110.28 144.57C109.59 143.79 72.02 98.1103 70.91 95.0203C69.8 91.9303 72.25 90.0103 76.81 86.8603C81.37 83.7103 82.19 83.0703 85.14 85.1503C88.09 87.2303 108.5 112.09 115.5 121.55C122.49 131.01 130.84 139.4 130.61 141.34C130.38 143.28 120.86 150.76 118.59 151.23C116.32 151.7 118.08 153.39 110.28 144.57Z" fill="#231F20"/>
<path d="M91.52 44.9804C92.23 72.3704 71.09 90.6304 46.11 90.6304C21.13 90.6304 0 70.1604 0 45.3304C0 20.5004 17.38 1.08041 46.29 0.0304121C71.25 -0.879588 90.88 20.1604 91.52 44.9804Z" fill="#7B55A3"/>
<path d="M84.91 44.8101C85.52 68.4501 67.46 84.2001 46.12 84.2001C24.78 84.2001 6.72 66.5401 6.72 45.1201C6.72 23.7001 21.57 6.9301 46.27 6.0301C67.59 5.2501 84.36 23.4001 84.91 44.8201V44.8101Z" fill="#AFDFDE"/>
<path d="M58.97 32.5503C58.97 32.5503 55.19 29.9403 49.1 28.0503C43.01 26.1603 42.28 18.0303 46.63 16.1403C50.98 14.2503 57.09 13.6703 64.78 19.7703C72.47 25.8703 70.88 28.9203 69.57 31.9703C68.26 35.0203 62.45 34.0003 58.97 32.5503Z" fill="white"/>
<path d="M116.71 133.16C116.71 133.16 111.36 138.39 107.19 140.36C103.02 142.33 102.08 141.42 101.84 139.77C101.84 139.77 99.87 138.87 99.99 136.74C99.99 136.74 98.22 136.39 98.18 133.55C98.18 133.55 97 133.51 96.29 132.02C95.58 130.53 97.59 129.35 98.96 128.44C100.33 127.53 102.58 126.79 102.46 126.28C102.34 125.77 98.92 125.18 97.86 123.88C96.8 122.58 97.39 121.64 99 121.6C100.61 121.56 104.78 122.7 106.51 122.82C108.24 122.94 113.27 123.13 114.26 122.82C115.25 122.51 116.7 123.1 117.8 125.18C118.9 127.26 120.44 129.19 116.7 133.16H116.71Z" fill="#C78163"/>
<path d="M84.8 113.39C84.7 113.66 77.15 111.47 72.97 106.68C68.79 101.89 74.71 95.4001 75.81 94.2101C76.91 93.0201 78.35 91.9301 79.11 92.9001C79.87 93.8701 79.15 95.3601 79.15 95.3601C79.15 95.3601 80.59 92.6601 81.98 93.0601C83.37 93.4601 82.57 96.2501 82.57 96.2501C82.57 96.2501 83.21 95.0201 84.3 95.1501C85.39 95.2801 85.3 97.2301 85.11 98.2101C85.11 98.2101 85.88 96.8501 86.99 97.2401C88.53 97.7801 87.98 100.35 87.15 103.23C86.32 106.1 86.84 107.57 84.79 113.39H84.8Z" fill="#C78163"/>
<mask id="mask7_12781_107735" style="mask-type:luminance" maskUnits="userSpaceOnUse" x="71" y="92" width="17" height="22">
<path d="M84.8 113.39C84.7 113.66 77.15 111.47 72.97 106.68C68.79 101.89 74.71 95.4001 75.81 94.2101C76.91 93.0201 78.35 91.9301 79.11 92.9001C79.87 93.8701 79.15 95.3601 79.15 95.3601C79.15 95.3601 80.59 92.6601 81.98 93.0601C83.37 93.4601 82.57 96.2501 82.57 96.2501C82.57 96.2501 83.21 95.0201 84.3 95.1501C85.39 95.2801 85.3 97.2301 85.11 98.2101C85.11 98.2101 85.88 96.8501 86.99 97.2401C88.53 97.7801 87.98 100.35 87.15 103.23C86.32 106.1 86.84 107.57 84.79 113.39H84.8Z" fill="white"/>
</mask>
<g mask="url(#mask7_12781_107735)">
<path d="M82.64 104.94C82.78 104.47 82.97 104 83.13 103.53C83.28 103.1 83.41 102.66 83.55 102.22C83.85 101.32 84.18 100.42 84.54 99.5404C84.9 98.6604 85.3 97.7604 85.72 96.9004C86.12 96.0804 86.68 95.2604 86.93 94.3804C86.98 94.2104 86.75 94.0704 86.63 94.2004C85.99 94.8704 85.6 95.8304 85.2 96.6604C84.8 97.4904 84.4 98.4004 84.04 99.2904C83.68 100.18 83.37 101.07 83.09 101.98C82.94 102.45 82.79 102.93 82.68 103.41C82.57 103.89 82.5 104.39 82.41 104.88C82.38 105.03 82.59 105.09 82.64 104.94Z" fill="#231F20"/>
<path d="M79.38 103.63C80.18 101.72 80.92 99.7899 81.75 97.8899C82.58 95.9899 83.54 94.1999 84.41 92.3399C84.54 92.0599 84.16 91.8299 83.99 92.0999C82.88 93.8599 82.02 95.7899 81.2 97.7099C80.38 99.6299 79.66 101.56 79.17 103.58C79.14 103.72 79.33 103.76 79.38 103.64V103.63Z" fill="#231F20"/>
<path d="M75.6 102.48C76.46 100.71 77.15 98.86 78.07 97.11C78.99 95.36 80.06 93.7 81.12 92.03C81.27 91.8 80.9 91.5 80.73 91.73C79.5 93.3 78.5 95.06 77.6 96.84C76.7 98.62 75.81 100.46 75.38 102.39C75.35 102.52 75.55 102.62 75.61 102.49L75.6 102.48Z" fill="#231F20"/>
</g>
<path d="M118.19 134.45L110.19 122.19C110.19 122.19 128.43 114.39 131 108.44C133.57 102.49 131.96 86.6001 131.96 86.6001L137.74 69.5801C137.74 69.5801 147.02 70.8101 149.3 83.7101C151.55 96.4001 150.75 107.96 148.02 115.83C144.8 125.11 118.19 134.45 118.19 134.45Z" fill="#12BAAC"/>
<path d="M121.78 129.23C121.78 129.23 121.78 129.29 121.77 129.32L121.73 129.41C121.56 129.45 121.38 129.5 121.21 129.54C121.23 129.55 121.25 129.56 121.27 129.57C121.32 129.6 121.38 129.61 121.44 129.61C121.48 129.61 121.53 129.6 121.57 129.59L121.45 129.61C121.45 129.61 121.46 129.61 121.47 129.61L121.35 129.59C121.35 129.59 121.36 129.59 121.37 129.59L121.26 129.54L121.17 129.47L121.1 129.38L121.05 129.27C121.05 129.27 121.05 129.27 121.05 129.28L121.03 129.16C121.03 129.16 121.03 129.17 121.03 129.18L121.05 129.06C121.05 129.06 121.05 129.07 121.05 129.08L121.1 128.97C121.1 128.97 121.1 128.98 121.09 128.99L121.16 128.9C121.16 128.9 121.16 128.9 121.15 128.91L121.24 128.84C121.24 128.84 121.24 128.84 121.23 128.84L121.34 128.79C121.34 128.79 121.33 128.79 121.32 128.79L121.44 128.77C121.44 128.77 121.44 128.77 121.43 128.77L121.55 128.79C121.55 128.79 121.54 128.79 121.53 128.79L121.81 129C121.81 129 121.81 128.99 121.81 128.98L121.86 129.09C121.86 129.09 121.86 129.06 121.85 129.05L121.87 129.17C121.87 129.17 121.87 129.14 121.87 129.13L121.85 129.25C121.85 129.25 121.85 129.22 121.86 129.21L121.81 129.32C121.81 129.32 121.83 129.29 121.84 129.27L121.77 129.36C121.77 129.36 121.8 129.32 121.82 129.31L121.73 129.38C121.73 129.38 121.77 129.35 121.79 129.34L121.68 129.39C121.68 129.39 121.72 129.38 121.74 129.37L121.62 129.39C121.62 129.39 121.66 129.39 121.68 129.39L121.56 129.37C121.56 129.37 121.59 129.37 121.6 129.38L121.49 129.33C121.49 129.33 121.51 129.34 121.53 129.35L121.44 129.28C121.44 129.28 121.47 129.3 121.48 129.32L121.41 129.23C121.41 129.23 121.43 129.26 121.44 129.27L121.39 129.16C121.39 129.16 121.4 129.2 121.41 129.22L121.39 129.1C121.39 129.1 121.39 129.15 121.39 129.18L121.41 129.06C121.41 129.06 121.4 129.12 121.39 129.15L121.44 129.04C121.44 129.04 121.42 129.09 121.4 129.11L121.47 129.01C121.47 129.01 121.44 129.05 121.42 129.06L121.52 128.99C121.52 128.99 121.49 129.01 121.47 129.02L121.58 128.97C121.58 128.97 121.54 128.98 121.51 128.99L121.64 128.97C121.64 128.97 121.59 128.97 121.56 128.97L121.69 128.99C121.69 128.99 121.63 128.98 121.61 128.97L121.72 129.02C121.72 129.02 121.66 128.99 121.64 128.97L121.74 129.04C121.74 129.04 121.69 128.99 121.67 128.97L121.74 129.07C121.74 129.07 121.7 129.02 121.69 128.99L121.74 129.1C121.74 129.1 121.72 129.05 121.72 129.02L121.74 129.15C121.74 129.15 121.74 129.15 121.74 129.14L121.72 129.27C121.72 129.27 121.72 129.24 121.73 129.22L121.68 129.33C121.68 129.33 121.69 129.3 121.7 129.29L121.63 129.39C121.63 129.39 121.65 129.36 121.67 129.35L121.57 129.42C121.57 129.42 121.61 129.4 121.63 129.39L121.52 129.44C121.52 129.44 121.57 129.42 121.59 129.42L121.46 129.44C121.46 129.44 121.51 129.44 121.53 129.44L121.4 129.42C121.4 129.42 121.44 129.42 121.46 129.44L121.35 129.39C121.35 129.39 121.38 129.4 121.39 129.41L121.29 129.34C121.29 129.34 121.31 129.36 121.32 129.37L121.25 129.27C121.25 129.27 121.27 129.29 121.27 129.31L121.22 129.2C121.22 129.2 121.23 129.23 121.23 129.25L121.21 129.12C121.21 129.12 121.21 129.15 121.21 129.17L121.23 129.04C121.23 129.04 121.23 129.07 121.22 129.09L121.27 128.98C121.27 128.98 121.25 129.02 121.24 129.04L121.31 128.94C121.31 128.94 121.28 128.97 121.26 128.99L121.36 128.92C121.36 128.92 121.31 128.95 121.29 128.96L121.4 128.91C121.4 128.91 121.36 128.92 121.34 128.93L121.47 128.91C121.47 128.91 121.42 128.91 121.4 128.91L121.52 128.93C121.52 128.93 121.42 128.91 121.39 128.91L121.27 128.93L121.16 128.98L121.07 129.05C121.07 129.05 120.99 129.14 120.98 129.2C120.96 129.24 120.95 129.27 120.95 129.31C120.94 129.35 120.94 129.39 120.95 129.43C120.95 129.47 120.96 129.51 120.98 129.54C121 129.6 121.03 129.64 121.07 129.69C121.1 129.72 121.15 129.76 121.19 129.78C121.23 129.8 121.27 129.82 121.31 129.83C121.31 129.83 121.31 129.83 121.32 129.83C121.35 129.83 121.42 129.85 121.45 129.85C121.46 129.85 121.48 129.85 121.49 129.85C121.54 129.85 121.58 129.84 121.63 129.83H121.65C121.71 129.81 121.78 129.79 121.83 129.75C121.88 129.71 121.94 129.67 121.98 129.62C122.01 129.59 122.05 129.54 122.08 129.49C122.11 129.44 122.13 129.39 122.14 129.34C122.14 129.33 122.14 129.32 122.15 129.3C122.15 129.25 122.16 129.21 122.17 129.16V129.14C122.17 129.14 122.17 129.13 122.17 129.12C122.17 129.07 122.17 129.03 122.15 128.98C122.15 128.93 122.11 128.86 122.09 128.83C122.09 128.82 122.08 128.81 122.07 128.8C122.05 128.77 122.02 128.73 121.99 128.69C121.99 128.69 121.99 128.69 121.98 128.68C121.89 128.6 121.83 128.57 121.72 128.52C121.66 128.5 121.59 128.49 121.53 128.49C121.47 128.49 121.4 128.49 121.33 128.51C121.26 128.53 121.21 128.55 121.15 128.58C121.09 128.61 121.04 128.65 120.99 128.69C120.94 128.73 120.91 128.78 120.87 128.83C120.83 128.88 120.81 128.94 120.8 129.01C120.8 129.06 120.78 129.1 120.78 129.15C120.78 129.19 120.78 129.25 120.8 129.29C120.8 129.31 120.8 129.33 120.82 129.34C120.87 129.48 120.94 129.61 121.05 129.71C121.1 129.76 121.16 129.8 121.22 129.84C121.27 129.87 121.32 129.89 121.37 129.91C121.39 129.91 121.4 129.92 121.42 129.92C121.48 129.93 121.53 129.94 121.59 129.94C121.61 129.94 121.62 129.94 121.64 129.94C121.69 129.94 121.75 129.94 121.81 129.92C121.87 129.9 121.91 129.88 121.96 129.86C121.97 129.86 121.98 129.85 121.99 129.84C122.03 129.81 122.08 129.78 122.12 129.74C122.12 129.74 122.14 129.72 122.15 129.71C122.18 129.67 122.22 129.63 122.24 129.59C122.24 129.58 122.25 129.57 122.26 129.55C122.28 129.5 122.3 129.45 122.32 129.4C122.32 129.39 122.32 129.37 122.33 129.36C122.33 129.31 122.35 129.25 122.35 129.2C122.35 129.19 122.35 129.17 122.35 129.16C122.35 129.11 122.34 129.05 122.33 129C122.32 128.94 122.29 128.87 122.26 128.82C122.23 128.78 122.2 128.74 122.17 128.7C122.17 128.69 122.15 128.68 122.14 128.67C122.12 128.65 122.06 128.6 122.01 128.58C121.97 128.56 121.93 128.54 121.89 128.53C121.89 128.53 121.88 128.53 121.87 128.53C121.87 128.53 121.86 128.53 121.85 128.53C121.81 128.53 121.76 128.51 121.71 128.51C121.7 128.51 121.68 128.51 121.67 128.51C121.62 128.51 121.56 128.51 121.51 128.53C121.46 128.55 121.41 128.57 121.36 128.59C121.3 128.62 121.25 128.66 121.2 128.7C121.2 128.7 121.18 128.72 121.17 128.73C121.14 128.77 121.1 128.81 121.07 128.85C121.07 128.86 121.06 128.87 121.05 128.88C121.03 128.93 121 128.97 120.99 129.02C120.99 129.02 120.99 129.03 120.99 129.04C120.99 129.08 120.97 129.13 120.97 129.18C120.97 129.18 120.97 129.19 120.97 129.2C120.97 129.24 120.97 129.3 120.99 129.34C120.99 129.39 121.03 129.44 121.05 129.48C121.05 129.48 121.05 129.49 121.05 129.5C121.05 129.51 121.11 129.58 121.12 129.6C121.16 129.65 121.21 129.68 121.27 129.7C121.29 129.7 121.31 129.72 121.33 129.72C121.37 129.73 121.43 129.74 121.47 129.74C121.49 129.74 121.58 129.73 121.6 129.72C121.6 129.72 121.6 129.72 121.61 129.72C121.63 129.72 121.71 129.68 121.72 129.67C121.74 129.66 121.76 129.64 121.78 129.62C121.84 129.57 121.88 129.54 121.92 129.47C121.94 129.43 121.96 129.39 121.97 129.35C121.97 129.32 121.99 129.25 121.99 129.22C121.99 129.19 121.99 129.17 121.99 129.14C121.99 129.07 121.98 129.03 121.93 128.96C121.88 128.88 121.82 128.82 121.74 128.78C121.72 128.77 121.65 128.74 121.63 128.73C121.62 128.73 121.52 128.71 121.51 128.71C121.51 128.71 121.51 128.71 121.5 128.71C121.48 128.71 121.39 128.72 121.38 128.73C121.34 128.74 121.3 128.76 121.26 128.78C121.19 128.82 121.14 128.87 121.1 128.94C121.07 128.99 121.05 129.05 121.05 129.11C121.04 129.17 121.04 129.23 121.05 129.29C121.07 129.37 121.11 129.43 121.17 129.49C121.14 129.44 121.1 129.38 121.07 129.33C121.1 129.41 121.12 129.45 121.18 129.51L121.26 129.57L121.35 129.61H121.45C121.5 129.63 121.55 129.61 121.59 129.59C121.62 129.59 121.65 129.57 121.67 129.54C121.7 129.52 121.72 129.5 121.74 129.47C121.76 129.45 121.78 129.42 121.79 129.39C121.81 129.35 121.82 129.3 121.82 129.25L121.78 129.23Z" fill="#AFDFDE"/>
<mask id="mask8_12781_107735" style="mask-type:luminance" maskUnits="userSpaceOnUse" x="110" y="69" width="41" height="66">
<path d="M118.23 134.45L110.23 122.19C110.23 122.19 128.47 114.39 131.04 108.44C133.61 102.49 132 86.6001 132 86.6001L137.78 69.5801C137.78 69.5801 147.06 70.8101 149.34 83.7101C151.59 96.4001 150.79 107.96 148.06 115.83C144.84 125.11 118.23 134.45 118.23 134.45Z" fill="white"/>
</mask>
<g mask="url(#mask8_12781_107735)">
<path d="M119.14 113.48C119.81 114.95 120.62 116.37 121.39 117.8C122.16 119.23 122.94 120.69 123.72 122.14L128.34 130.77C129.2 132.38 130.01 134.03 130.94 135.6L131.32 135.1C131.06 135.03 130.81 134.98 130.55 134.93C130.27 134.87 130.04 135.29 130.34 135.42C130.61 135.53 130.87 135.65 131.14 135.75C131.44 135.85 131.65 135.5 131.52 135.25C130.8 133.8 129.97 132.4 129.19 130.98L126.82 126.67C125.25 123.81 123.68 120.95 122.11 118.09C121.23 116.49 120.39 114.85 119.42 113.31C119.31 113.14 119.07 113.29 119.15 113.47L119.14 113.48Z" fill="#AFDFDE"/>
</g>
<path d="M107.88 36.3897L101.51 34.8897C101.51 34.8897 96.64 32.2697 95.76 29.8897C94.88 27.5097 96.76 28.8897 99.26 28.7697C99.26 28.7697 95.14 26.1497 95.01 23.7697C94.88 21.3897 98.01 24.2697 100.38 23.7697C100.38 23.7697 98.63 22.0197 99.63 21.6497C100.63 21.2797 103.88 23.6497 108 22.8997C112.12 22.1497 121.74 16.4098 127.36 26.5198C127.36 26.5198 132.61 26.3997 134.1 32.2697C135.59 38.1397 129.73 48.0097 129.73 48.0097L120.74 50.5097C120.74 50.5097 112.87 43.1398 112.12 43.5198C111.37 43.8997 107.87 36.3998 107.87 36.3998L107.88 36.3897Z" fill="#231F20"/>
<path d="M107.13 68.6194C107.13 68.6194 111 73.7394 114.87 74.4894C118.74 75.2394 127.86 67.7494 127.86 67.7494C127.86 67.7494 126.86 51.0094 127.61 51.0094C128.36 51.0094 132.98 51.0094 132.73 47.5094C132.48 44.0094 129.11 44.8894 127.23 45.7594C127.23 45.7594 121.73 39.5194 123.36 32.7694C123.36 32.7694 118.74 31.5194 114.24 32.7694C109.74 34.0194 104.62 35.8894 101.5 34.8894C101.5 34.8894 99.75 45.6294 100 52.2494C100.25 58.8694 103.97 60.1694 107.74 61.1194C109.24 61.4894 107.12 68.6094 107.12 68.6094L107.13 68.6194Z" fill="#C78163"/>
<path d="M110.75 49.5495C109.79 49.4495 108.82 49.3695 107.88 49.1595C107.65 49.1095 107.41 49.0496 107.18 48.9896C107.01 48.9496 106.81 48.9096 106.66 48.8096C106.38 48.6196 106.87 48.0495 107 47.8395C107.51 46.9895 108.03 46.1395 108.54 45.2895C108.79 44.8795 109.03 44.4795 109.28 44.0695C109.53 43.6595 109.89 43.2095 110.02 42.7295C110.12 42.3495 109.66 42.0995 109.37 42.3495C109.16 42.5395 109.03 42.7995 108.89 43.0395C108.75 43.2795 108.59 43.5395 108.44 43.7795C108.14 44.2795 107.84 44.7695 107.54 45.2695C107.24 45.7695 106.94 46.2595 106.64 46.7595C106.34 47.2595 105.99 47.7195 105.79 48.2495C105.62 48.7095 105.72 49.1895 106.13 49.4795C106.51 49.7495 107.04 49.8195 107.48 49.9095C108.59 50.1395 109.7 50.2296 110.82 50.0796C111.15 50.0396 111.03 49.5595 110.75 49.5395V49.5495Z" fill="#231F20"/>
<path d="M101.91 38.2496C102.58 38.3896 103.31 38.3096 103.98 38.2996C104.65 38.2896 105.36 38.3596 106.05 38.3796C106.41 38.3896 106.72 38.0896 106.77 37.7496C106.81 37.4296 106.61 36.9996 106.25 36.9496C105.5 36.8396 104.73 36.8696 103.98 36.9496C103.23 37.0296 102.42 37.1496 101.82 37.5696C101.58 37.7396 101.57 38.1796 101.91 38.2496Z" fill="#231F20"/>
<path d="M120.31 37.3601C119.49 36.9201 118.51 36.7801 117.6 36.6701C116.69 36.5601 115.76 36.4601 114.86 36.5301C114.47 36.5601 114.13 36.8401 114.13 37.2601C114.13 37.6801 114.46 37.9801 114.86 37.9901C115.74 38.0201 116.62 37.9701 117.5 38.0101C118.38 38.0501 119.27 38.1601 120.13 38.0501C120.46 38.0101 120.68 37.5501 120.32 37.3601H120.31Z" fill="#231F20"/>
<path d="M118.01 42.4395C118.01 43.2995 117.53 43.8695 116.54 43.8695C115.75 43.8695 115.1 43.3095 115.1 42.4495C115.1 41.5895 115.79 40.9795 116.58 40.9795C117.37 40.9795 118.01 41.5795 118.01 42.4495V42.4395Z" fill="#231F20"/>
<path d="M103.04 42.2493C103.04 41.3893 103.52 40.8193 104.51 40.8193C105.3 40.8193 105.95 41.3793 105.95 42.2393C105.95 43.0993 105.26 43.7093 104.47 43.7093C103.68 43.7093 103.04 43.1093 103.04 42.2393V42.2493Z" fill="#231F20"/>
<path d="M105.88 54.5698C107.3 55.4898 109.09 55.8098 110.76 55.6998C111.61 55.6398 112.45 55.4798 113.25 55.1998C113.65 55.0598 114.03 54.8898 114.41 54.6998C114.79 54.5098 115.24 54.2798 115.54 53.9598C115.91 53.5698 115.45 53.0598 115 53.2598C114.9 53.2998 114.84 53.3598 114.75 53.4298C114.52 53.6198 114.67 53.9698 114.91 54.0498C115.02 54.0898 115.11 54.0998 115.22 54.0998L114.99 53.2698C114.64 53.4498 114.33 53.7098 113.98 53.8998C113.63 54.0898 113.28 54.2598 112.92 54.3898C112.2 54.6598 111.43 54.8398 110.66 54.9098C109.07 55.0598 107.53 54.7398 106.05 54.1498C105.8 54.0498 105.66 54.4398 105.87 54.5698H105.88Z" fill="#231F20"/>
</g>
<defs>
<clipPath id="clip0_12781_107735">
<rect width="164.22" height="231.5" fill="white"/>
</clipPath>
</defs>
</svg>
