<svg width="165" height="222" viewBox="0 0 165 222" fill="none" xmlns="http://www.w3.org/2000/svg">
<g clip-path="url(#clip0_12781_107605)">
<path d="M141.89 198.96C141.89 198.96 145.23 207.77 152.22 209.29C159.21 210.81 164.07 209.59 164.07 212.03C164.07 214.47 154.04 219.63 147.66 217.2C141.28 214.77 137.02 209.6 136.11 210.82C135.2 212.04 137.63 219.63 137.63 219.63L133.07 221.45C133.07 221.45 129.12 199.26 126.99 197.13C124.86 195 133.07 188.01 133.07 188.01L141.88 198.95L141.89 198.96Z" fill="#ED2690"/>
<path d="M25.8399 152.99C25.8399 152.99 17.4399 149.23 11.3799 153.03C5.31993 156.83 2.12993 160.24 0.429935 158.5C-1.27007 156.76 2.19993 144.99 8.46993 142.27C14.7399 139.55 21.4799 141.33 21.2799 139.83C21.0799 138.32 13.7199 133.94 13.7199 133.94L16.5499 130.22C16.5499 130.22 34.3499 143.21 37.3499 143.24C40.3499 143.27 39.7799 154.66 39.7799 154.66L25.8299 152.99H25.8399Z" fill="#ED2690"/>
<path d="M98.42 112.03C98.42 112.03 130.94 129.66 138.54 142.73C146.14 155.8 155.87 197.75 155.87 197.75C155.87 197.75 145.23 202.31 136.11 204.44L126.99 206.57C126.99 206.57 122.73 183.47 117.26 173.14C111.79 162.81 71.97 129.37 71.97 129.37L80.78 110.22L98.41 112.04L98.42 112.03Z" fill="#231F20"/>
<path d="M98.1201 113.25C98.1201 115.07 95.9901 139.09 89.6101 162.49C83.2301 185.89 69.8501 188.93 59.8201 186.5C49.7901 184.07 25.4701 164.92 20.3101 159.75C20.3101 159.75 24.5701 151.54 28.8201 146.07C33.0801 140.6 34.2901 137.86 34.2901 137.86C34.2901 137.86 54.3501 156.1 58.0001 157.92C61.6501 159.74 62.8601 131.17 62.8601 131.17C62.8601 131.17 62.2501 111.11 71.9801 101.69" fill="#231F20"/>
<path d="M80.19 62.0297C80.19 62.0297 66.86 67.7897 55.64 55.6697C44.42 43.5497 33.22 55.0597 20.79 46.2797C8.37002 37.4897 12.31 14.1597 24.12 12.3397C35.94 10.5197 41.7 18.6997 50.48 16.5797C59.27 14.4597 60.48 9.6097 69.57 11.1297C78.66 12.6497 82.3 11.4297 86.54 9.0097C90.78 6.5897 101.09 4.4597 108.36 16.2797C115.63 28.0997 103.81 33.5497 103.81 33.5497L86.84 60.2197L80.17 62.0397L80.19 62.0297Z" fill="#ED2690"/>
<path d="M47.1601 106.88L41.7901 103.55C41.7901 103.55 39.5901 102.33 49.8901 79.3004C60.1901 56.2704 58.6801 103.24 58.6801 103.24L47.1601 106.88Z" fill="#12BAAC"/>
<path d="M135.94 98.0897L130.79 88.9997C130.79 88.9997 133.82 75.6697 133.82 76.5797C133.82 77.4897 146.24 94.7597 142.61 98.6997C138.97 102.64 135.94 98.0897 135.94 98.0897Z" fill="#12BAAC"/>
<path d="M66.8101 59.4496C66.8101 59.4496 86.8701 54.2796 116.35 62.1896C139.28 68.3396 105.41 115.69 105.41 115.69C105.41 115.69 81.0901 117.21 72.5801 114.78C64.0701 112.35 66.8001 59.4596 66.8001 59.4596L66.8101 59.4496Z" fill="#12BAAC"/>
<path d="M98.29 61.4297C98.29 61.4297 95.65 55.8797 99.08 54.0297C102.51 52.1797 107.28 52.1797 107.81 45.5697C108.34 38.9597 105.17 28.3797 105.17 28.3797C105.17 28.3797 102.87 26.9597 100.2 24.0797C97.66 21.3497 94.73 22.5197 94.73 22.5197C94.73 22.5197 90.89 23.0897 86.66 26.5297C82.43 29.9697 84.34 40.9997 80.79 39.1997C78.71 38.1397 76.15 38.6297 76.46 41.2697C76.66 42.9297 77.82 44.0397 80.46 43.5197C83.1 42.9997 80.3 58.2697 80.3 58.2697C80.3 58.2697 85.85 66.7297 92.99 65.6697C100.13 64.6097 98.28 61.4397 98.28 61.4397L98.29 61.4297Z" fill="#FAB897"/>
<path d="M91.75 36.4902C91.75 37.4602 91.09 38.0202 90.17 38.0202C89.25 38.0202 88.7 37.3502 88.7 36.3802C88.7 35.4102 89.24 34.7402 90.17 34.7402C91.1 34.7402 91.75 35.5302 91.75 36.4902Z" fill="#231F20"/>
<path d="M102.04 35.3103C102.04 34.3403 102.7 33.7803 103.62 33.7803C104.54 33.7803 105.09 34.4503 105.09 35.4203C105.09 36.3903 104.55 37.0603 103.62 37.0603C102.69 37.0603 102.04 36.2703 102.04 35.3103Z" fill="#231F20"/>
<path d="M99.12 36.7197C99.07 36.8597 98.87 38.5997 99.57 39.2597C100.27 39.9197 101.79 40.5297 101.33 41.6597C100.88 42.7897 98.96 42.7397 98.96 42.7397" stroke="#231F20" stroke-linecap="round" stroke-linejoin="round"/>
<path d="M91.8799 46.01C91.8799 46.01 94.1399 48.41 97.7099 48.41C101.28 48.41 102.86 45.83 102.82 46.01" stroke="#231F20" stroke-linecap="round" stroke-linejoin="round"/>
<path d="M86.59 32.0002C87.32 31.7302 88.04 31.4602 88.8 31.3002C89.17 31.2202 89.54 31.1702 89.91 31.1402C90.1 31.1202 90.29 31.1202 90.48 31.1102C90.72 31.1102 90.96 31.1402 91.14 30.9402C91.28 30.7802 91.29 30.5502 91.14 30.3902C90.95 30.1902 90.73 30.2202 90.48 30.2502C90.27 30.2702 90.05 30.3002 89.84 30.3402C89.43 30.4102 89.02 30.5002 88.61 30.6302C87.83 30.8702 87.06 31.2102 86.42 31.7102C86.28 31.8202 86.43 32.0602 86.59 32.0002Z" fill="#231F20"/>
<path d="M105.3 31.3903C104.29 30.5203 102.91 30.1803 101.61 30.0403C101.46 30.0203 101.3 30.1403 101.23 30.2603C101.14 30.4103 101.15 30.5503 101.23 30.7103C101.3 30.8403 101.47 30.9403 101.61 30.9303C102.21 30.9103 102.81 30.9803 103.39 31.1103C103.97 31.2403 104.55 31.4703 105.13 31.6803C105.29 31.7403 105.43 31.5003 105.3 31.3903Z" fill="#231F20"/>
<path d="M62.9101 148.23C62.9101 148.23 71.4801 146.25 76.1001 144.71C80.7201 143.17 85.9901 141.85 85.9901 141.85C85.9901 141.85 67.3101 78.7802 65.1101 69.5502C62.9101 60.3202 59.6201 44.5002 57.8601 38.3402C56.1001 32.1902 54.3401 24.2802 54.3401 24.9302C54.3401 25.5802 43.1301 28.2302 39.1801 29.3302C35.2201 30.4302 30.8301 31.7502 30.8301 31.7502C30.8301 31.7502 34.5701 49.3302 38.0801 63.4002C41.6001 77.4602 53.4601 118.78 55.8801 126.47C58.3001 134.16 62.9101 148.23 62.9101 148.23Z" fill="#FAD429"/>
<mask id="mask0_12781_107605" style="mask-type:luminance" maskUnits="userSpaceOnUse" x="30" y="24" width="56" height="125">
<path d="M62.9101 148.23C62.9101 148.23 71.4801 146.25 76.1001 144.71C80.7201 143.17 85.9901 141.85 85.9901 141.85C85.9901 141.85 67.3101 78.7802 65.1101 69.5502C62.9101 60.3202 59.6201 44.5002 57.8601 38.3402C56.1001 32.1902 54.3401 24.2802 54.3401 24.9302C54.3401 25.5802 43.1301 28.2302 39.1801 29.3302C35.2201 30.4302 30.8301 31.7502 30.8301 31.7502C30.8301 31.7502 34.5701 49.3302 38.0801 63.4002C41.6001 77.4602 53.4601 118.78 55.8801 126.47C58.3001 134.16 62.9101 148.23 62.9101 148.23Z" fill="white"/>
</mask>
<g mask="url(#mask0_12781_107605)">
<path d="M27.2801 38.3105C27.4601 38.3105 27.5701 38.3705 27.7601 38.3405C27.9801 38.3005 28.2001 38.2505 28.4301 38.2005C28.8701 38.1005 29.3201 38.0005 29.7601 37.9005C30.6401 37.6905 31.5201 37.4705 32.4001 37.2505C33.2801 37.0305 34.1601 36.8105 35.0401 36.5905L36.3001 36.2705C36.7701 36.1505 37.2001 36.0605 37.6101 35.8105C37.9001 35.6305 37.7801 35.1805 37.4401 35.1705C36.9801 35.1605 36.5701 35.2805 36.1301 35.4105L34.8201 35.7805C33.9501 36.0205 33.0701 36.2705 32.2001 36.5105C31.3301 36.7505 30.4601 37.0005 29.5901 37.2605C29.1701 37.3805 28.7601 37.5105 28.3501 37.6405C28.1301 37.7105 27.9101 37.7705 27.7001 37.8505C27.6201 37.8805 27.5001 37.9205 27.4201 37.9705C27.3501 38.0205 27.3201 38.0905 27.2401 38.1405C27.1601 38.1905 27.1901 38.3205 27.2901 38.3205L27.2801 38.3105Z" fill="#231F20"/>
<path d="M30.3702 42.1603C31.3502 42.1803 32.3702 41.9103 33.3302 41.7303C33.8102 41.6403 34.2902 41.5403 34.7702 41.4403C35.0302 41.3903 35.2902 41.3403 35.5502 41.2903C35.8102 41.2403 36.0702 41.2103 36.2902 41.0603C36.5302 40.8903 36.5502 40.4303 36.2002 40.3703C35.7102 40.2803 35.1502 40.5203 34.6702 40.6403C34.1902 40.7603 33.6902 40.8903 33.2002 41.0103C32.2402 41.2603 31.2002 41.4503 30.3102 41.9003C30.1702 41.9703 30.2502 42.1703 30.3802 42.1803L30.3702 42.1603Z" fill="#231F20"/>
<path d="M31.7002 47.3901C32.4102 47.3501 33.1202 47.1501 33.8102 47.0001C34.5002 46.8501 35.2302 46.6901 35.9502 46.5301C36.6702 46.3701 37.3302 46.2201 38.0202 46.0601L39.1202 45.8101C39.4902 45.7201 39.8102 45.6601 40.1102 45.4201C40.3302 45.2501 40.2002 44.8501 39.9502 44.8001C39.5902 44.7301 39.2902 44.8101 38.9402 44.9001L37.8502 45.1701C37.1402 45.3501 36.4402 45.5201 35.7302 45.7101C35.0202 45.9001 34.3602 46.0601 33.6802 46.2401C33.0002 46.4201 32.2402 46.5801 31.5802 46.8701C31.3202 46.9801 31.4602 47.4001 31.7202 47.3901H31.7002Z" fill="#231F20"/>
<path d="M33.4801 52.3806C33.8901 52.3806 34.3101 52.2906 34.7101 52.1906C35.1101 52.0906 35.5501 52.0006 35.9701 51.9106C36.7901 51.7206 37.6201 51.5406 38.4301 51.3206C39.0101 51.1606 38.7701 50.3006 38.1801 50.4206C37.3601 50.5906 36.5401 50.8206 35.7301 51.0206C35.3301 51.1206 34.9301 51.2306 34.5301 51.3306C34.1301 51.4306 33.7001 51.5406 33.3201 51.7406C33.0201 51.9006 33.1701 52.3606 33.4901 52.3706L33.4801 52.3806Z" fill="#231F20"/>
<path d="M33.3001 57.4902C33.4801 57.4902 33.5901 57.5502 33.7801 57.5202C34.0001 57.4802 34.2201 57.4302 34.4501 57.3802C34.8901 57.2802 35.3401 57.1802 35.7801 57.0802C36.6601 56.8702 37.5401 56.6502 38.4201 56.4302C39.3001 56.2102 40.1801 55.9902 41.0601 55.7702L42.3201 55.4502C42.7901 55.3302 43.2201 55.2402 43.6301 54.9902C43.9201 54.8102 43.8001 54.3602 43.4601 54.3502C43.0001 54.3402 42.5901 54.4602 42.1501 54.5902L40.8401 54.9602C39.9701 55.2002 39.0901 55.4502 38.2201 55.6902C37.3501 55.9302 36.4801 56.1802 35.6101 56.4402C35.1901 56.5602 34.7801 56.6902 34.3701 56.8202C34.1501 56.8902 33.9301 56.9502 33.7201 57.0302C33.6401 57.0602 33.5201 57.1002 33.4401 57.1502C33.3701 57.2002 33.3401 57.2702 33.2601 57.3202C33.1801 57.3702 33.2101 57.5002 33.3101 57.5002L33.3001 57.4902Z" fill="#231F20"/>
<path d="M36.39 61.3508C37.37 61.3708 38.39 61.1008 39.35 60.9208C39.83 60.8308 40.31 60.7308 40.79 60.6308C41.05 60.5808 41.31 60.5308 41.57 60.4808C41.83 60.4308 42.09 60.4008 42.31 60.2508C42.55 60.0808 42.57 59.6208 42.22 59.5608C41.73 59.4708 41.17 59.7108 40.69 59.8308C40.21 59.9508 39.71 60.0808 39.22 60.2008C38.26 60.4508 37.22 60.6408 36.33 61.0908C36.19 61.1608 36.27 61.3608 36.4 61.3708L36.39 61.3508Z" fill="#231F20"/>
<path d="M37.7202 66.5805C38.4302 66.5405 39.1402 66.3405 39.8302 66.1905C40.5202 66.0405 41.2502 65.8805 41.9702 65.7205C42.6902 65.5605 43.3502 65.4105 44.0402 65.2505L45.1402 65.0005C45.5102 64.9105 45.8302 64.8505 46.1302 64.6105C46.3502 64.4405 46.2202 64.0405 45.9702 63.9905C45.6102 63.9205 45.3102 64.0005 44.9602 64.0905L43.8702 64.3605C43.1602 64.5405 42.4602 64.7105 41.7502 64.9005C41.0402 65.0905 40.3802 65.2505 39.7002 65.4305C39.0202 65.6105 38.2602 65.7705 37.6002 66.0605C37.3402 66.1705 37.4802 66.5905 37.7402 66.5805H37.7202Z" fill="#231F20"/>
<path d="M39.5002 71.5603C39.9102 71.5603 40.3302 71.4703 40.7302 71.3703C41.1302 71.2703 41.5702 71.1803 41.9902 71.0903C42.8102 70.9003 43.6402 70.7203 44.4502 70.5003C45.0302 70.3403 44.7902 69.4803 44.2002 69.6003C43.3802 69.7703 42.5602 70.0003 41.7502 70.2003C41.3502 70.3003 40.9502 70.4103 40.5502 70.5103C40.1502 70.6103 39.7202 70.7203 39.3402 70.9203C39.0402 71.0803 39.1902 71.5403 39.5102 71.5503L39.5002 71.5603Z" fill="#231F20"/>
<path d="M38.5702 77.7109C38.7502 77.7109 38.8602 77.7709 39.0502 77.7409C39.2702 77.7009 39.4902 77.6509 39.7202 77.6009C40.1602 77.5009 40.6102 77.4009 41.0502 77.3009C41.9302 77.0909 42.8102 76.8709 43.6902 76.6509C44.5702 76.4309 45.4502 76.2109 46.3302 75.9909L47.5902 75.6709C48.0602 75.5509 48.4902 75.4609 48.9002 75.2109C49.1902 75.0309 49.0702 74.5809 48.7302 74.5709C48.2702 74.5609 47.8602 74.6809 47.4202 74.8109L46.1102 75.1809C45.2402 75.4209 44.3602 75.6709 43.4902 75.9109C42.6202 76.1509 41.7502 76.4009 40.8802 76.6609C40.4602 76.7809 40.0502 76.9109 39.6402 77.0409C39.4202 77.1109 39.2002 77.1709 38.9902 77.2509C38.9102 77.2809 38.7902 77.3209 38.7102 77.3709C38.6402 77.4209 38.6102 77.4909 38.5302 77.5409C38.4502 77.5909 38.4802 77.7209 38.5802 77.7209L38.5702 77.7109Z" fill="#231F20"/>
<path d="M41.67 81.5607C42.65 81.5807 43.67 81.3107 44.63 81.1307C45.11 81.0407 45.59 80.9407 46.07 80.8407C46.33 80.7907 46.59 80.7407 46.85 80.6907C47.11 80.6407 47.37 80.6107 47.59 80.4607C47.83 80.2907 47.85 79.8307 47.5 79.7707C47.01 79.6807 46.45 79.9207 45.97 80.0407C45.49 80.1607 44.99 80.2907 44.5 80.4107C43.54 80.6607 42.5 80.8507 41.61 81.3007C41.47 81.3707 41.55 81.5707 41.68 81.5807L41.67 81.5607Z" fill="#231F20"/>
<path d="M43.0002 86.8003C43.7102 86.7603 44.4202 86.5603 45.1102 86.4103C45.8002 86.2603 46.5302 86.1003 47.2502 85.9403C47.9702 85.7803 48.6302 85.6303 49.3202 85.4703L50.4202 85.2203C50.7902 85.1303 51.1102 85.0703 51.4102 84.8303C51.6302 84.6603 51.5002 84.2602 51.2502 84.2102C50.8902 84.1402 50.5902 84.2202 50.2402 84.3102L49.1502 84.5803C48.4402 84.7603 47.7402 84.9303 47.0302 85.1203C46.3202 85.3103 45.6602 85.4703 44.9802 85.6503C44.3002 85.8303 43.5402 85.9902 42.8802 86.2802C42.6202 86.3902 42.7602 86.8103 43.0202 86.8003H43.0002Z" fill="#231F20"/>
<path d="M44.7802 91.78C45.1902 91.78 45.6102 91.69 46.0102 91.59C46.4102 91.49 46.8502 91.4 47.2702 91.31C48.0902 91.12 48.9202 90.94 49.7302 90.72C50.3102 90.56 50.0702 89.7 49.4802 89.82C48.6602 89.99 47.8402 90.22 47.0302 90.42C46.6302 90.52 46.2302 90.63 45.8302 90.73C45.4302 90.83 45.0002 90.94 44.6202 91.14C44.3202 91.3 44.4702 91.76 44.7902 91.77L44.7802 91.78Z" fill="#231F20"/>
<path d="M50.0001 117.49C50.1801 117.49 50.2901 117.55 50.4801 117.52C50.7001 117.48 50.9201 117.43 51.1501 117.38C51.5901 117.28 52.0401 117.18 52.4801 117.08C53.3601 116.87 54.2401 116.65 55.1201 116.43C56.0001 116.21 56.8801 115.99 57.7601 115.77L59.0201 115.45C59.4901 115.33 59.9201 115.24 60.3301 114.99C60.6201 114.81 60.5001 114.36 60.1601 114.35C59.7001 114.34 59.2901 114.46 58.8501 114.59L57.5401 114.96C56.6701 115.2 55.7901 115.45 54.9201 115.69C54.0501 115.93 53.1801 116.18 52.3101 116.44C51.8901 116.56 51.4801 116.69 51.0701 116.82C50.8501 116.89 50.6301 116.95 50.4201 117.03C50.3401 117.06 50.2201 117.1 50.1401 117.15C50.0701 117.2 50.0401 117.27 49.9601 117.32C49.8801 117.37 49.9101 117.5 50.0101 117.5L50.0001 117.49Z" fill="#231F20"/>
<path d="M53.1002 121.341C54.0802 121.361 55.1002 121.091 56.0602 120.911C56.5402 120.821 57.0202 120.721 57.5002 120.621C57.7602 120.571 58.0202 120.521 58.2802 120.471C58.5402 120.421 58.8002 120.391 59.0202 120.241C59.2602 120.071 59.2802 119.611 58.9302 119.551C58.4402 119.461 57.8802 119.701 57.4002 119.821C56.9202 119.941 56.4202 120.071 55.9302 120.191C54.9702 120.441 53.9302 120.631 53.0402 121.081C52.9002 121.151 52.9802 121.351 53.1102 121.361L53.1002 121.341Z" fill="#231F20"/>
<path d="M54.4201 126.571C55.1301 126.531 55.8401 126.331 56.5301 126.181C57.2201 126.031 57.9501 125.871 58.6701 125.711C59.3901 125.551 60.0501 125.401 60.7401 125.241L61.8401 124.991C62.2101 124.901 62.5301 124.841 62.8301 124.601C63.0501 124.431 62.9201 124.031 62.6701 123.981C62.3101 123.911 62.0101 123.991 61.6601 124.081L60.5701 124.351C59.8601 124.531 59.1601 124.701 58.4501 124.891C57.7401 125.081 57.0801 125.241 56.4001 125.421C55.7201 125.601 54.9601 125.761 54.3001 126.051C54.0401 126.161 54.1801 126.581 54.4401 126.571H54.4201Z" fill="#231F20"/>
<path d="M56.2101 131.56C56.6201 131.56 57.0401 131.47 57.4401 131.37C57.8401 131.27 58.2801 131.18 58.7001 131.09C59.5201 130.9 60.3501 130.72 61.1601 130.5C61.7401 130.34 61.5001 129.48 60.9101 129.6C60.0901 129.77 59.2701 130 58.4601 130.2C58.0601 130.3 57.6601 130.41 57.2601 130.51C56.8601 130.61 56.4301 130.72 56.0501 130.92C55.7501 131.08 55.9001 131.54 56.2201 131.55L56.2101 131.56Z" fill="#231F20"/>
<path d="M55.71 136.171C55.89 136.171 56 136.231 56.19 136.201C56.41 136.161 56.63 136.111 56.86 136.061C57.3 135.961 57.75 135.861 58.19 135.761C59.07 135.551 59.9501 135.331 60.8301 135.111C61.7101 134.891 62.59 134.671 63.47 134.451L64.7301 134.131C65.2001 134.011 65.63 133.921 66.04 133.671C66.33 133.491 66.2101 133.041 65.8701 133.031C65.4101 133.021 65 133.141 64.56 133.271L63.25 133.641C62.38 133.881 61.5 134.131 60.63 134.371C59.76 134.611 58.89 134.861 58.02 135.121C57.6 135.241 57.19 135.371 56.78 135.501C56.56 135.571 56.34 135.631 56.13 135.711C56.05 135.741 55.93 135.781 55.85 135.831C55.78 135.881 55.75 135.951 55.67 136.001C55.59 136.051 55.62 136.181 55.72 136.181L55.71 136.171Z" fill="#231F20"/>
<path d="M58.8102 140.021C59.7902 140.041 60.8102 139.771 61.7702 139.591C62.2502 139.501 62.7302 139.401 63.2102 139.301C63.4702 139.251 63.7302 139.201 63.9902 139.151C64.2502 139.101 64.5102 139.071 64.7302 138.921C64.9702 138.751 64.9902 138.291 64.6402 138.231C64.1502 138.141 63.5902 138.381 63.1102 138.501C62.6302 138.621 62.1302 138.751 61.6402 138.871C60.6802 139.121 59.6402 139.311 58.7502 139.761C58.6102 139.831 58.6902 140.031 58.8202 140.041L58.8102 140.021Z" fill="#231F20"/>
<path d="M60.1401 145.25C60.8501 145.21 61.5601 145.01 62.2501 144.86C62.9401 144.71 63.6701 144.55 64.3901 144.39C65.1101 144.23 65.7701 144.08 66.4601 143.92L67.5601 143.67C67.9301 143.58 68.2501 143.52 68.5501 143.28C68.7701 143.11 68.6401 142.71 68.3901 142.66C68.0301 142.59 67.7301 142.67 67.3801 142.76L66.2901 143.03C65.5801 143.21 64.8801 143.38 64.1701 143.57C63.4601 143.76 62.8001 143.92 62.1201 144.1C61.4401 144.28 60.6801 144.44 60.0201 144.73C59.7601 144.84 59.9001 145.26 60.1601 145.25H60.1401Z" fill="#231F20"/>
</g>
<path d="M63.96 51.2197C63.85 50.6097 62.14 41.0697 62.54 40.1297C62.94 39.1897 65.68 37.1697 66.99 35.8597C68.3 34.5497 71.44 31.5897 72.21 32.8597C72.98 34.1297 73.87 49.4897 73.87 49.4897C73.87 49.4897 72.69 53.0997 71 53.1297C69.31 53.1597 63.95 51.2297 63.95 51.2297L63.96 51.2197Z" fill="#231F20"/>
<path d="M61.1301 62.8496C61.1301 62.8496 60.6801 55.1696 59.9601 50.7396C59.2401 46.3096 61.7001 46.6796 65.1801 45.9796C69.0101 45.2096 72.6201 44.7796 75.4601 44.5596C77.7501 44.3796 77.1401 45.1896 78.4801 57.7596C79.8301 70.3196 64.6201 66.0396 64.6201 66.0396L61.1201 62.8496H61.1301Z" fill="#C1B0D6"/>
<path d="M62.92 110.819C62.92 110.819 60.61 91.8993 59.11 79.2693C57.6 66.6393 57.32 58.8893 58.5 57.8893C59.68 56.8993 63.43 56.2093 69.78 55.3793C76.13 54.5493 79.98 53.7493 81.15 55.3793C82.32 57.0093 84 72.7193 86.02 85.0093C88.05 97.2993 90.24 112.619 91.54 121.799C92.84 130.979 92.78 131.309 92.52 133.369C92.18 136.099 87.12 136.679 80.78 137.499C74.9 138.259 70.29 139.449 68.32 136.179C66.35 132.909 65.12 122.259 62.91 110.829L62.92 110.819Z" fill="#7B55A3"/>
<path d="M103.09 143.39C103.09 143.39 100.77 152.99 105.11 154.64C110.26 156.59 116.96 158.28 118.86 154.56C120.76 150.84 121.6 146.97 121.6 146.97L103.09 143.39Z" fill="#F48897"/>
<path d="M132.04 69.2198C131.58 68.7998 127.22 58.4498 127.22 58.4498C127.22 58.4498 130.65 52.2998 133.95 47.0098C137.7 40.9998 141.22 33.8498 142.24 33.0198C142.79 32.5698 143.19 45.9998 143.41 48.4398C143.63 50.8798 144.46 61.2698 144.46 61.2698C144.46 61.2698 134.84 77.0598 134.26 77.8698C133.68 78.6798 132.04 69.2098 132.04 69.2098V69.2198Z" fill="#DAC3AB"/>
<path d="M144.46 61.2695C144.46 61.2695 135.81 90.0494 133.75 99.5895C131.69 109.119 124.44 137.669 123.5 139.809C122.55 141.949 104.91 136.599 104.91 136.599C104.91 136.599 113.33 106.859 117.85 90.3195C122.37 73.7795 127.22 58.4395 127.22 58.4395C127.22 58.4395 131.51 59.1695 131.78 62.4795C131.78 62.4795 133.95 60.0295 135.81 60.2195C137.67 60.4095 138.24 64.4995 138.24 64.4995C138.24 64.4995 141.35 60.9595 144.46 61.2695Z" fill="#FAD429"/>
<mask id="mask1_12781_107605" style="mask-type:luminance" maskUnits="userSpaceOnUse" x="104" y="58" width="41" height="83">
<path d="M144.46 61.2695C144.46 61.2695 135.81 90.0494 133.75 99.5895C131.69 109.119 124.44 137.669 123.5 139.809C122.55 141.949 104.91 136.599 104.91 136.599C104.91 136.599 113.33 106.859 117.85 90.3195C122.37 73.7795 127.22 58.4395 127.22 58.4395C127.22 58.4395 131.51 59.1695 131.78 62.4795C131.78 62.4795 133.95 60.0295 135.81 60.2195C137.67 60.4095 138.24 64.4995 138.24 64.4995C138.24 64.4995 141.35 60.9595 144.46 61.2695Z" fill="white"/>
</mask>
<g mask="url(#mask1_12781_107605)">
<path d="M133.39 57.0499C131.27 63.8799 129.34 70.7799 127.37 77.6499C125.39 84.5599 123.42 91.4799 121.47 98.3999C119.53 105.29 117.61 112.18 115.69 119.07C113.77 125.96 111.87 132.86 109.97 139.76C108.07 146.66 106.17 153.63 104.29 160.57C104.06 161.42 103.9 162.29 103.74 163.16C103.69 163.42 104.05 163.52 104.14 163.27C105.34 159.88 106.16 156.36 107.11 152.9C108.06 149.44 108.98 146.03 109.92 142.6C111.82 135.66 113.73 128.73 115.64 121.8C117.55 114.87 119.46 108.01 121.38 101.12C123.3 94.2299 125.23 87.3399 127.16 80.4499C129.09 73.5599 131.04 66.5999 132.96 59.6799C133.2 58.8299 133.41 57.9799 133.64 57.1299C133.68 56.9699 133.45 56.9099 133.4 57.0599L133.39 57.0499Z" fill="#231F20"/>
<path d="M139.9 58.3898C138.7 61.6698 137.75 65.0398 136.72 68.3798C135.69 71.7198 134.69 74.9998 133.7 78.3098C131.69 84.9998 129.73 91.7098 127.8 98.4198C125.87 105.13 123.99 111.79 122.14 118.49C120.29 125.19 118.46 131.9 116.67 138.62C114.88 145.34 113.12 152.07 111.39 158.8C111.17 159.65 110.95 160.51 110.74 161.36C110.63 161.79 111.29 161.98 111.41 161.54C113.17 154.81 114.88 148.07 116.66 141.35C118.44 134.63 120.27 127.85 122.11 121.11C123.95 114.4 125.82 107.71 127.72 101.02C129.62 94.3298 131.55 87.6498 133.5 80.9798C135.45 74.3098 137.41 67.6398 139.39 60.9698C139.64 60.1198 139.86 59.2698 140.08 58.4198C140.11 58.3098 139.95 58.2698 139.91 58.3698L139.9 58.3898Z" fill="#231F20"/>
</g>
<path d="M105.25 135.46L123.71 139.48L121.49 147.65C121.49 147.65 105.48 144.39 103.15 143.36L105.25 135.46Z" fill="#57555F"/>
<mask id="mask2_12781_107605" style="mask-type:luminance" maskUnits="userSpaceOnUse" x="103" y="135" width="21" height="13">
<path d="M105.25 135.46L123.71 139.48L121.49 147.65C121.49 147.65 105.48 144.39 103.15 143.36L105.25 135.46Z" fill="white"/>
</mask>
<g mask="url(#mask2_12781_107605)">
<path d="M97.2599 134.61C99.4299 135.73 101.74 136.59 104.02 137.47C106.3 138.35 108.68 139.2 111.03 139.99C115.75 141.56 120.54 142.94 125.38 144.12C126.74 144.45 128.11 144.77 129.48 145.07C130.17 145.22 130.87 145.37 131.57 145.51C132.27 145.65 132.96 145.83 133.66 145.9C134.11 145.95 134.21 145.19 133.77 145.11C133.29 145.01 132.8 144.92 132.32 144.82C131.97 144.75 131.85 145.22 132.18 145.34C132.64 145.52 133.1 145.7 133.56 145.89L133.78 145.11C133.17 144.94 132.54 144.85 131.92 144.72C131.3 144.59 130.72 144.47 130.12 144.34C128.9 144.08 127.69 143.81 126.48 143.52C124.06 142.95 121.65 142.33 119.26 141.67C114.5 140.36 109.79 138.85 105.14 137.19C103.86 136.73 102.58 136.27 101.31 135.79C100.04 135.31 98.7199 134.78 97.3999 134.34C97.2499 134.29 97.1499 134.53 97.2899 134.6L97.2599 134.61Z" fill="#F2F1F1"/>
<path d="M96.7 138.99C99.07 139.87 101.5 140.58 103.92 141.32C106.34 142.06 108.7 142.75 111.1 143.43C115.99 144.81 120.9 146.1 125.83 147.32C127.21 147.66 128.6 147.99 129.98 148.32C131.36 148.65 132.77 149.01 134.19 149.2C134.52 149.24 134.56 148.73 134.27 148.64C133.05 148.25 131.78 148 130.54 147.71C129.3 147.42 128.08 147.14 126.86 146.84C124.39 146.25 121.93 145.64 119.48 145C114.62 143.75 109.77 142.42 104.94 141.05C102.22 140.28 99.53 139.42 96.79 138.71C96.6 138.66 96.53 138.93 96.71 139L96.7 138.99Z" fill="#F2F1F1"/>
</g>
<mask id="mask3_12781_107605" style="mask-type:luminance" maskUnits="userSpaceOnUse" x="127" y="33" width="18" height="45">
<path d="M132.04 69.2198C131.58 68.7998 127.22 58.4498 127.22 58.4498C127.22 58.4498 130.65 52.2998 133.95 47.0098C137.7 40.9998 141.22 33.8498 142.24 33.0198C142.79 32.5698 143.19 45.9998 143.41 48.4398C143.63 50.8798 144.46 61.2698 144.46 61.2698C144.46 61.2698 134.84 77.0598 134.26 77.8698C133.68 78.6798 132.04 69.2098 132.04 69.2098V69.2198Z" fill="white"/>
</mask>
<g mask="url(#mask3_12781_107605)">
<path d="M132.28 47.3999C132.64 47.9799 135.62 51.8199 135.62 51.8199L138.78 48.8199L140.17 52.5799L145.98 48.6599C145.98 48.6599 145.69 33.2199 145.07 32.3199C144.45 31.4199 140.81 30.4299 140.22 30.3799" fill="#231F20"/>
</g>
<path d="M118.74 34.7C118.74 34.7 116.98 27.41 115.77 23.9C114.55 20.39 112.66 13.23 113.07 12.83C113.48 12.43 120.63 10.94 128.33 11.88C136.03 12.82 141.84 15.66 144.4 18.36C146.96 21.06 147.24 21.33 146.29 22.14C145.34 22.95 140.48 28.22 137.51 31.19C134.54 34.16 130.76 39.83 130.76 39.83L118.74 34.7Z" fill="#F8A06F"/>
<mask id="mask4_12781_107605" style="mask-type:luminance" maskUnits="userSpaceOnUse" x="113" y="11" width="34" height="29">
<path d="M118.74 34.7C118.74 34.7 116.98 27.41 115.77 23.9C114.55 20.39 112.66 13.23 113.07 12.83C113.48 12.43 120.63 10.94 128.33 11.88C136.03 12.82 141.84 15.66 144.4 18.36C146.96 21.06 147.24 21.33 146.29 22.14C145.34 22.95 140.48 28.22 137.51 31.19C134.54 34.16 130.76 39.83 130.76 39.83L118.74 34.7Z" fill="white"/>
</mask>
<g mask="url(#mask4_12781_107605)">
<path d="M134.22 30.4495C138.03 25.8495 141.83 21.2395 145.61 16.6095L148.84 12.6495C149.12 12.2995 148.62 11.8095 148.35 12.1595C144.64 16.8595 140.9 21.5395 137.22 26.2495C136.17 27.5895 135.14 28.9595 134.09 30.2995C134.01 30.3995 134.15 30.5395 134.23 30.4395L134.22 30.4495Z" fill="#231F20"/>
<path d="M135.49 23.7102C136.92 21.5002 138.41 19.3202 139.84 17.1102L144.13 10.4802C144.94 9.23017 145.77 7.99017 146.55 6.71017C146.76 6.36017 146.23 6.05017 146 6.39017C144.54 8.58017 143.19 10.8402 141.78 13.0702C140.37 15.3002 138.98 17.5302 137.59 19.7602C136.8 21.0302 136.04 22.3102 135.25 23.5702C135.15 23.7202 135.39 23.8602 135.49 23.7102Z" fill="#231F20"/>
<path d="M121.54 28.78C120.76 22.11 119.85 15.45 118.97 8.78999C118.72 6.90999 118.51 5.01999 118.21 3.14999C118.15 2.77999 117.5 2.85999 117.54 3.23999C117.73 4.91999 118.01 6.58999 118.24 8.25999C118.47 9.92999 118.71 11.55 118.95 13.19C119.43 16.52 119.9 19.84 120.39 23.17C120.67 25.06 120.96 26.94 121.26 28.82C121.29 28.98 121.56 28.94 121.54 28.78Z" fill="#231F20"/>
<path d="M124.05 19.5803C123.64 15.2503 123.18 10.9303 122.72 6.61028L122.53 4.81028C122.47 4.22028 122.46 3.58028 122.31 3.01028C122.23 2.73028 121.83 2.80028 121.82 3.08028C121.8 3.61028 121.92 4.17028 121.98 4.69028L122.17 6.30028L122.54 9.53028C122.78 11.6603 123.02 13.7903 123.29 15.9203C123.44 17.1403 123.61 18.3603 123.76 19.5803C123.78 19.7703 124.09 19.7803 124.07 19.5803H124.05Z" fill="#231F20"/>
<path d="M127.08 23.2097C127.16 21.8397 127.29 20.4697 127.4 19.0997C127.51 17.7297 127.57 16.3597 127.65 14.9897C127.81 12.2497 127.97 9.50966 128.13 6.75966L128.26 4.51966C128.3 3.72966 128.38 2.93966 128.38 2.14966C128.38 1.73966 127.8 1.75966 127.76 2.14966C127.61 3.50966 127.61 4.89966 127.55 6.25966C127.49 7.61966 127.42 8.99966 127.35 10.3697C127.22 13.1097 127.07 15.8497 126.97 18.5997C126.91 20.1397 126.91 21.6797 126.84 23.2097C126.84 23.3697 127.07 23.3597 127.08 23.2097Z" fill="#231F20"/>
<path d="M130.07 20.1197C130.93 15.1397 131.73 10.1497 132.51 5.15973L132.84 3.05973C132.95 2.35973 133.09 1.64973 133.15 0.939728C133.18 0.619728 132.66 0.549728 132.59 0.859728C132.31 2.08973 132.2 3.37973 132.01 4.62973L131.45 8.39973C131.08 10.8897 130.7 13.3897 130.36 15.8897C130.17 17.2897 130 18.6897 129.82 20.0897C129.8 20.2297 130.04 20.2597 130.06 20.1197H130.07Z" fill="#231F20"/>
<path d="M132.06 25.6598C133.4 22.4298 134.72 19.1998 135.96 15.9198C137.2 12.6398 138.39 9.36981 139.54 6.06981C139.86 5.14981 140.17 4.22981 140.48 3.29981C140.79 2.36981 141.18 1.37981 141.4 0.399812C141.5 -0.0301875 140.92 -0.160188 140.76 0.219812C140.42 1.03981 140.19 1.91981 139.91 2.75981C139.63 3.59981 139.38 4.37981 139.11 5.18981C138.56 6.84981 138.01 8.49981 137.44 10.1498C136.3 13.4498 135.12 16.7298 133.88 19.9898C133.17 21.8498 132.5 23.7098 131.76 25.5598C131.69 25.7498 131.99 25.8298 132.06 25.6398V25.6598Z" fill="#231F20"/>
</g>
<path d="M127.27 57.1396C127.86 57.1096 110.35 131.55 107.81 138.13C104.47 146.78 103.68 147.76 101.72 146.98C99.7601 146.2 100.74 140.89 101.52 133.02C102.31 125.16 114.89 57.3396 115.67 54.3896C115.67 54.3896 123.34 57.3396 127.27 57.1396Z" fill="#7B55A3"/>
<path d="M115.5 55.0901C115.5 55.0901 122.52 57.3901 127.11 57.5201L133.32 36.3201C133.32 36.3201 124.95 34.8301 118.33 33.0801C118.33 33.0801 117.25 40.7801 116.44 46.3201C115.63 51.8601 115.49 55.1001 115.49 55.1001L115.5 55.0901Z" fill="#C1B0D6"/>
<mask id="mask5_12781_107605" style="mask-type:luminance" maskUnits="userSpaceOnUse" x="115" y="33" width="19" height="25">
<path d="M115.5 55.0901C115.5 55.0901 122.52 57.3901 127.11 57.5201L133.32 36.3201C133.32 36.3201 124.95 34.8301 118.33 33.0801C118.33 33.0801 117.25 40.7801 116.44 46.3201C115.63 51.8601 115.49 55.1001 115.49 55.1001L115.5 55.0901Z" fill="white"/>
</mask>
<g mask="url(#mask5_12781_107605)">
<path d="M113.14 50.0302C115.31 50.9202 117.55 51.6302 119.8 52.2802C122.05 52.9302 124.29 53.4702 126.57 53.9302C127.21 54.0602 127.86 54.1802 128.5 54.2902C128.81 54.3402 129.13 54.4002 129.44 54.4502C129.78 54.5002 130.11 54.5802 130.45 54.5301C130.72 54.4901 130.77 54.0601 130.53 53.9401C130.04 53.7002 129.41 53.7002 128.88 53.6102C128.31 53.5202 127.74 53.4202 127.18 53.3202C126.03 53.1102 124.88 52.8802 123.73 52.6202C121.46 52.1102 119.21 51.5301 116.99 50.8501C115.74 50.4701 114.5 50.0502 113.25 49.6402C113 49.5602 112.91 49.9302 113.14 50.0202V50.0302Z" fill="#231F20"/>
<path d="M115.02 37.92C115.59 38.17 116.21 38.32 116.81 38.48C117.44 38.64 118.07 38.8 118.71 38.96C119.98 39.27 121.25 39.56 122.52 39.84C125.07 40.39 127.63 40.88 130.21 41.31C130.91 41.43 131.62 41.54 132.32 41.65C133.02 41.76 133.8 41.92 134.54 41.92C134.92 41.92 134.99 41.37 134.63 41.26C134 41.08 133.35 41.02 132.71 40.93C132.07 40.84 131.42 40.74 130.77 40.64C129.5 40.44 128.23 40.23 126.97 40C124.42 39.54 121.88 39.04 119.34 38.5C118.62 38.35 117.9 38.19 117.19 38.03C116.48 37.87 115.8 37.69 115.1 37.64C114.96 37.63 114.89 37.86 115.03 37.92H115.02Z" fill="#231F20"/>
</g>
<path d="M115.91 98.7902C115.46 98.7002 103.88 98.2402 106.22 92.4402C106.22 92.4402 104.84 90.2002 106.72 88.5302C106.72 88.5302 105.86 85.7802 107.95 85.1602C107.95 85.1602 107.53 81.8702 110.56 81.7902C110.56 81.7902 115.92 84.8602 117.3 85.4702C117.3 85.4702 116.23 79.9502 117.61 79.9502C118.99 79.9502 118.68 79.9502 119.91 83.4802C121.14 87.0102 122.21 92.6802 122.21 92.6802L123.44 97.4302C123.44 97.4302 122.83 100.19 115.93 98.8102L115.91 98.7902Z" fill="#FAB897"/>
<mask id="mask6_12781_107605" style="mask-type:luminance" maskUnits="userSpaceOnUse" x="105" y="79" width="19" height="21">
<path d="M115.91 98.7902C115.46 98.7002 103.88 98.2402 106.22 92.4402C106.22 92.4402 104.84 90.2002 106.72 88.5302C106.72 88.5302 105.86 85.7802 107.95 85.1602C107.95 85.1602 107.53 81.8702 110.56 81.7902C110.56 81.7902 115.92 84.8602 117.3 85.4702C117.3 85.4702 116.23 79.9502 117.61 79.9502C118.99 79.9502 118.68 79.9502 119.91 83.4802C121.14 87.0102 122.21 92.6802 122.21 92.6802L123.44 97.4302C123.44 97.4302 122.83 100.19 115.93 98.8102L115.91 98.7902Z" fill="white"/>
</mask>
<g mask="url(#mask6_12781_107605)">
<path d="M111.24 87.2302C110.04 86.5602 108.86 85.8102 107.71 85.0402C107.15 84.6702 106.6 84.2702 106.06 83.8702C105.77 83.6502 105.48 83.4202 105.19 83.1802C104.95 82.9802 104.71 82.7202 104.4 82.6302C104.21 82.5702 104.07 82.7902 104.15 82.9502C104.3 83.2402 104.63 83.4402 104.88 83.6402C105.13 83.8402 105.39 84.0302 105.65 84.2302C106.22 84.6502 106.81 85.0602 107.4 85.4402C108.59 86.2102 109.83 86.8302 111.14 87.3902C111.25 87.4302 111.34 87.2902 111.23 87.2302H111.24Z" fill="#231F20"/>
<path d="M109.87 90.1407C109.36 89.7907 108.74 89.6007 108.18 89.3507C107.59 89.0907 107.02 88.7807 106.47 88.4507C105.92 88.1207 105.4 87.7507 104.9 87.3507C104.65 87.1607 104.41 86.9507 104.18 86.7407C103.95 86.5307 103.73 86.2707 103.43 86.1507C103.22 86.0607 103.04 86.2407 103.13 86.4507C103.26 86.7407 103.52 86.9507 103.76 87.1607C104.01 87.3807 104.27 87.5907 104.53 87.7907C105.06 88.2007 105.62 88.5707 106.2 88.9107C106.78 89.2507 107.36 89.5307 107.97 89.7807C108.58 90.0307 109.19 90.2907 109.84 90.2807C109.92 90.2807 109.95 90.1707 109.88 90.1307L109.87 90.1407Z" fill="#231F20"/>
<path d="M108.92 93.6204C107.96 93.2704 107.01 92.9104 106.08 92.4804C105.63 92.2704 105.18 92.0404 104.74 91.8104C104.53 91.7004 104.32 91.5904 104.12 91.4804C103.9 91.3604 103.68 91.2104 103.44 91.1404C103.23 91.0804 103.07 91.3504 103.23 91.5104C103.41 91.6904 103.65 91.8004 103.87 91.9204C104.1 92.0504 104.34 92.1704 104.58 92.2904C105.02 92.5004 105.47 92.6904 105.92 92.8804C106.87 93.2704 107.87 93.6004 108.87 93.8304C109 93.8604 109.05 93.6804 108.93 93.6304L108.92 93.6204Z" fill="#231F20"/>
</g>
<path d="M80.4001 100.46C80.8501 100.37 92.4301 99.9101 90.0901 94.1101C90.0901 94.1101 91.4701 91.8701 89.5901 90.2001C89.5901 90.2001 90.4501 87.4501 88.3601 86.8301C88.3601 86.8301 88.7801 83.5401 85.7501 83.4601C85.7501 83.4601 80.3901 86.5301 79.0101 87.1401C79.0101 87.1401 80.0801 81.6201 78.7001 81.6201C77.3201 81.6201 77.6301 81.6201 76.4001 85.1501C75.1701 88.6801 74.1001 94.3501 74.1001 94.3501L72.8701 99.1001C72.8701 99.1001 73.4801 101.86 80.3801 100.48L80.4001 100.46Z" fill="#FAB897"/>
<mask id="mask7_12781_107605" style="mask-type:luminance" maskUnits="userSpaceOnUse" x="72" y="81" width="19" height="20">
<path d="M80.4001 100.46C80.8501 100.37 92.4301 99.9101 90.0901 94.1101C90.0901 94.1101 91.4701 91.8701 89.5901 90.2001C89.5901 90.2001 90.4501 87.4501 88.3601 86.8301C88.3601 86.8301 88.7801 83.5401 85.7501 83.4601C85.7501 83.4601 80.3901 86.5301 79.0101 87.1401C79.0101 87.1401 80.0801 81.6201 78.7001 81.6201C77.3201 81.6201 77.6301 81.6201 76.4001 85.1501C75.1701 88.6801 74.1001 94.3501 74.1001 94.3501L72.8701 99.1001C72.8701 99.1001 73.4801 101.86 80.3801 100.48L80.4001 100.46Z" fill="white"/>
</mask>
<g mask="url(#mask7_12781_107605)">
<path d="M85.1502 89.0599C86.4602 88.4999 87.6902 87.8799 88.8902 87.1099C89.4702 86.7399 90.0402 86.3399 90.6002 85.9299C90.8602 85.7399 91.1202 85.5399 91.3702 85.3499C91.6202 85.1599 91.9902 84.9299 92.1502 84.6299C92.2302 84.4699 92.0902 84.2499 91.9002 84.3099C91.6102 84.3999 91.3902 84.6399 91.1602 84.8299C90.8702 85.0599 90.5802 85.2899 90.2902 85.5199C89.7402 85.9399 89.1702 86.3399 88.6002 86.7299C87.4502 87.4999 86.2702 88.2399 85.0702 88.9199C84.9602 88.9799 85.0602 89.1199 85.1602 89.0799L85.1502 89.0599Z" fill="#231F20"/>
<path d="M86.4701 91.9599C87.1001 91.9699 87.7301 91.7199 88.3101 91.4699C88.9301 91.2099 89.5301 90.9199 90.1101 90.5799C90.6901 90.2399 91.2301 89.8899 91.7501 89.4799C92.0101 89.2799 92.2601 89.0699 92.5101 88.8599C92.7601 88.6499 93.0401 88.4199 93.1801 88.1099C93.2701 87.8999 93.0901 87.7199 92.8801 87.8099C92.6001 87.9299 92.3901 88.1699 92.1701 88.3599C91.9401 88.5699 91.7001 88.7699 91.4501 88.9699C90.9401 89.3799 90.4001 89.7599 89.8401 90.0999C89.2801 90.4399 88.7501 90.7199 88.1801 90.9799C87.6101 91.2399 86.9701 91.4299 86.4501 91.7899C86.3801 91.8399 86.4101 91.9399 86.4901 91.9399L86.4701 91.9599Z" fill="#231F20"/>
<path d="M87.4301 95.4902C88.4301 95.2702 89.4301 94.9302 90.3801 94.5402C90.8301 94.3602 91.2801 94.1602 91.7201 93.9502C91.9601 93.8302 92.2001 93.7102 92.4301 93.5802C92.6501 93.4602 92.8901 93.3502 93.0701 93.1702C93.2201 93.0102 93.0701 92.7502 92.8601 92.8002C92.6201 92.8702 92.4001 93.0202 92.1801 93.1402C91.9701 93.2502 91.7701 93.3602 91.5601 93.4702C91.1201 93.7002 90.6701 93.9302 90.2201 94.1402C89.2901 94.5702 88.3401 94.9302 87.3801 95.2802C87.2601 95.3302 87.3001 95.5102 87.4401 95.4802L87.4301 95.4902Z" fill="#231F20"/>
</g>
<path d="M117.1 98.9705C117.46 98.5205 121.25 87.4805 121.81 87.6205C122.37 87.7605 137.29 90.8405 140.08 91.7705C142.57 92.6005 143.82 94.6805 143.68 98.4105C143.54 102.15 138.01 107.82 133.3 107.27C128.59 106.72 123.89 104.64 121.12 103.12C118.35 101.6 116.55 99.6605 117.11 98.9705H117.1Z" fill="#12BAAC"/>
<path d="M78.8999 101.39C78.5399 100.94 74.7499 89.9004 74.1899 90.0404C73.6299 90.1804 48.1599 95.9704 45.3799 96.9004C42.8899 97.7304 41.6399 99.8104 41.7799 103.54C41.9199 107.27 46.3199 113.3 51.0199 112.75C55.7199 112.2 63.0399 110.21 65.8099 108.69C68.5799 107.17 79.4399 102.08 78.8899 101.38L78.8999 101.39Z" fill="#12BAAC"/>
</g>
<defs>
<clipPath id="clip0_12781_107605">
<rect width="164.08" height="221.45" fill="white"/>
</clipPath>
</defs>
</svg>
