<svg width="147" height="224" viewBox="0 0 147 224" fill="none" xmlns="http://www.w3.org/2000/svg">
<g clip-path="url(#clip0_12781_107316)">
<path d="M34.57 212.62L35.25 214.31C35.25 214.31 34.23 219.06 33.56 219.39C32.89 219.72 7.97001 212.95 0.0100098 206.17C0.0100098 206.17 1.03001 201.26 1.54001 201.42C2.05001 201.58 34.59 212.6 34.59 212.6L34.57 212.62Z" fill="#231F20"/>
<path d="M91.17 220.08V223.47C91.17 223.47 110.81 223.88 112.86 223.64C117.27 223.13 127.04 209.42 126.08 208.22C125.4 207.37 123.37 205 123.37 205L116.93 203.64L94.22 218.55L91.68 219.57" fill="#231F20"/>
<path d="M109.65 183.98C109.65 183.98 115.24 194.32 117.11 197.37C118.98 200.42 123.21 203.47 123.21 205.34C123.21 207.21 116.26 215.51 114.23 217.2C112.2 218.89 109.65 219.4 107.62 219.57C105.59 219.74 92.71 220.42 91.69 219.57C90.67 218.72 89.32 215.84 95.76 214.49C102.2 213.13 101.69 212.63 102.88 211.44C104.07 210.25 105.59 206.19 105.59 204.49C105.59 202.79 94.57 189.58 92.88 186.53C91.19 183.48 105.42 177.89 105.42 177.89L109.66 183.99L109.65 183.98Z" fill="#AE5E36"/>
<path d="M44.74 192.28C44.74 192.28 39.15 202.79 37.62 206.35C36.09 209.91 36.26 213.47 34.57 214.32C32.88 215.17 26.44 213.13 19.49 210.93C12.54 208.73 2.19999 203.81 1.52999 202.12C0.859992 200.43 1.52999 199.58 6.10999 199.58C10.69 199.58 22.21 198.73 24.07 198.05C25.93 197.37 26.61 197.2 27.29 195.51C27.97 193.82 32.04 178.22 32.04 178.22L45.6 185L44.75 192.29L44.74 192.28Z" fill="#AE5E36"/>
<path d="M99.06 221.43C98.87 221.24 96.24 214.04 96.31 213.79C96.38 213.54 99.06 212.73 99.31 212.98C99.56 213.23 103.57 221.24 103.57 221.24L105.95 221.05C105.95 221.05 100.82 212.66 100.94 212.35C101.06 212.04 102.88 210.6 103.13 210.66C103.38 210.72 109.45 220.55 109.45 220.55L114.02 219.8L115.08 218.11C115.08 218.11 112.26 206.84 113.52 200.21C113.52 200.21 106.01 205.4 105.45 204.9C104.89 204.4 103.82 202.33 103.82 202.21C103.82 202.09 115.46 194.26 115.65 194.14C115.84 194.02 117.34 196.83 117.46 197.08C117.58 197.33 115.46 204.21 117.84 214.98C117.84 214.98 116.21 220.36 116.21 220.61C116.21 220.86 113.33 222.3 113.33 222.3C113.33 222.3 101.69 222.68 101.5 222.8C101.31 222.92 99.06 221.42 99.06 221.42V221.43Z" fill="#231F20"/>
<path d="M8.59999 207.64C8.46999 207.45 8.53999 198.92 8.91999 198.98C9.29999 199.04 12.1 198.79 12.36 199.04C12.62 199.29 12.17 209.42 12.17 209.42L15.03 210.12C15.03 210.12 15.09 198.72 15.48 198.72C15.87 198.72 18.22 198.34 18.6 198.53C18.98 198.72 18.47 211.45 18.47 211.45L21.08 212.53C21.08 212.53 24.65 205.08 35.85 203.68C35.85 203.68 25.41 197.82 25.35 197.25C25.29 196.68 26.81 194 27.07 194.19C27.33 194.38 40.38 200.94 40.5 201.32C40.62 201.7 38.4 206.29 38.02 206.6C37.64 206.91 25.54 211.44 25.35 214.49C25.16 217.54 14.27 211.94 13.64 211.82C13.01 211.7 8.35999 207.62 8.35999 207.62" fill="#231F20"/>
<path d="M21.72 186.69C21.72 186.69 34.37 147.8 44.87 132.99C55.36 118.18 92.09 120.03 92.09 120.03C92.09 120.03 101.35 162.62 115.86 182.99C115.86 182.99 110.92 187.93 102.59 191.32C97.8 193.27 91.79 195.64 91.79 195.64C91.79 195.64 83.46 182.06 77.28 164.47C71.11 146.88 69.87 132.37 69.87 132.37L67.4 149.04C67.4 149.04 61.54 162.62 55.98 176.82C50.42 191.02 49.81 196.88 49.81 196.88C49.81 196.88 39.62 193.48 32.83 191.32C26.04 189.16 21.72 186.69 21.72 186.69Z" fill="#ED2690"/>
<mask id="mask0_12781_107316" style="mask-type:luminance" maskUnits="userSpaceOnUse" x="21" y="119" width="95" height="78">
<path d="M21.72 186.69C21.72 186.69 34.37 147.8 44.87 132.99C55.36 118.18 92.09 120.03 92.09 120.03C92.09 120.03 101.35 162.62 115.86 182.99C115.86 182.99 110.92 187.93 102.59 191.32C97.8 193.27 91.79 195.64 91.79 195.64C91.79 195.64 83.46 182.06 77.28 164.47C71.11 146.88 69.87 132.37 69.87 132.37L67.4 149.04C67.4 149.04 61.54 162.62 55.98 176.82C50.42 191.02 49.81 196.88 49.81 196.88C49.81 196.88 39.62 193.48 32.83 191.32C26.04 189.16 21.72 186.69 21.72 186.69Z" fill="white"/>
</mask>
<g mask="url(#mask0_12781_107316)">
<path d="M77.92 188.97C83.72 186.8 89.43 184.38 95.07 181.85C100.71 179.32 106.31 176.65 111.83 173.85C113.37 173.07 114.91 172.27 116.45 171.46C117.23 171.05 118 170.64 118.77 170.23C119.54 169.82 120.33 169.43 121.06 168.95C121.44 168.7 121.11 168.18 120.71 168.36C119.3 168.99 117.95 169.81 116.59 170.53C115.23 171.25 113.84 171.97 112.46 172.68C109.74 174.09 107 175.46 104.24 176.8C98.69 179.5 93.09 182.07 87.44 184.55C84.25 185.95 81.03 187.28 77.82 188.64C77.63 188.72 77.7 189.04 77.91 188.96L77.92 188.97Z" fill="#231F20"/>
<path d="M14.76 169.741C16.3 170.691 17.99 171.421 19.62 172.191C21.25 172.961 22.85 173.681 24.47 174.411C27.7 175.861 30.97 177.241 34.25 178.581C40.87 181.281 47.59 183.761 54.37 186.021C56.28 186.661 58.2 187.281 60.12 187.881C62.04 188.481 63.96 189.111 65.91 189.611C66.3 189.711 66.45 189.141 66.07 189.011C64.36 188.451 62.63 187.951 60.92 187.421C59.21 186.891 57.49 186.341 55.78 185.771C52.4 184.661 49.04 183.491 45.7 182.281C39 179.841 32.4 177.181 25.86 174.351C24.01 173.551 22.17 172.731 20.33 171.901C19.43 171.491 18.53 171.091 17.63 170.681C16.73 170.271 15.81 169.831 14.86 169.491C14.71 169.441 14.62 169.661 14.75 169.741H14.76Z" fill="#231F20"/>
</g>
<path d="M37.79 88C38.1 86.75 41.84 67.44 50.25 62.45C58.66 57.46 77.66 57.15 77.66 57.15C77.66 57.15 98.22 56.53 105.39 74.6C112.56 92.67 57.73 95.16 56.17 95.47C54.61 95.78 37.79 87.99 37.79 87.99V88Z" fill="#FAD429"/>
<path d="M56.97 70.4404C56.55 71.1004 56.23 71.8304 55.87 72.5304C55.51 73.2304 55.16 73.9404 54.81 74.6504C54.11 76.0604 53.42 77.4804 52.73 78.9004C52.04 80.3204 51.38 81.6404 50.75 83.0204C50.2 84.2304 49.7 85.4904 49.49 86.8204C49.26 88.2404 49.34 89.7504 50.25 90.9204C50.45 91.1804 50.93 90.9004 50.8 90.6004C50.32 89.4504 50.12 88.2904 50.31 87.0504C50.5 85.8104 50.97 84.5604 51.49 83.4004C52.71 80.6704 54.02 77.9904 55.25 75.2704C55.6 74.4904 55.96 73.7204 56.3 72.9404C56.64 72.1604 57.03 71.4004 57.3 70.5904C57.37 70.3804 57.07 70.2804 56.96 70.4504L56.97 70.4404Z" fill="#231F20"/>
<path d="M60.82 49.2599C60.39 49.2599 39.56 43.3299 40.57 24.0999C41.58 4.86988 56.63 -2.65012 85.12 0.819883C113.61 4.28988 113.32 27.8599 111.29 34.5099C109.27 41.1599 100.73 57.4999 76.58 51.4299C52.43 45.3599 66.75 49.8399 66.75 49.8399L60.82 49.2599Z" fill="#231F20"/>
<path d="M87 31.1899C87 31.1899 87 17.8899 71.09 16.2999C71.09 16.2999 60.97 15.4299 56.48 23.5299C56.48 23.5299 58.06 12.0699 74.7 13.5499C89.31 14.8499 89.02 29.7499 86.99 31.1899H87Z" fill="#ED2690"/>
<path d="M63.28 59.1C63.28 59.1 65.16 53.89 63.28 51.87C61.4 49.85 55.62 50.57 53.88 43.77C52.14 36.97 54.75 29.31 54.75 29.31C54.75 29.31 58.94 21.07 67.62 21.36C76.3 21.65 82.51 25.41 82.23 36.69C82.23 36.69 85.99 35.24 86.57 37.56C87.15 39.88 86.22 40.93 82.52 41.32C79.77 41.61 81.65 58.53 81.65 58.53C81.65 58.53 79.19 68.65 71.82 68.65C64.45 68.65 63.29 59.11 63.29 59.11L63.28 59.1Z" fill="#AE5E36"/>
<path d="M65.6 35.5798C65.64 36.0298 65.67 36.4598 65.53 36.8898C65.4 37.2898 65.11 37.6698 64.77 37.9298C64.05 38.4798 63.1 38.6798 62.81 39.6598C62.52 40.6398 63.05 41.5898 63.86 42.1098C64.3 42.3898 64.82 42.5398 65.33 42.5898C65.84 42.6398 66.51 42.5898 66.92 42.2998C67.23 42.0798 67.18 41.4198 66.7 41.4798C66.22 41.5398 65.8 41.7098 65.29 41.6498C64.87 41.5998 64.44 41.4398 64.13 41.1498C63.84 40.8998 63.65 40.5398 63.66 40.1498C63.67 39.7598 63.91 39.4998 64.22 39.2998C64.91 38.8498 65.56 38.5198 65.91 37.7298C66.2 37.0598 66.33 36.1498 65.93 35.4898C65.84 35.3498 65.58 35.3998 65.6 35.5798Z" fill="#231F20"/>
<path d="M60.06 43.9098C60.92 45.6398 62.62 46.8598 64.46 47.3698C66.3 47.8798 68.43 47.5798 70.13 46.5698C71.05 46.0298 72.08 45.2398 72.44 44.1998C72.57 43.8298 72.09 43.6398 71.84 43.8498C71.18 44.4098 70.67 45.0998 69.95 45.5898C69.23 46.0798 68.4 46.4298 67.54 46.6198C65.85 46.9798 64.08 46.6198 62.64 45.6898C61.81 45.1598 61.08 44.4498 60.5 43.6498C60.31 43.3898 59.92 43.6098 60.07 43.8998L60.06 43.9098Z" fill="#231F20"/>
<path d="M77.11 35.0896C77.11 35.9396 76.36 36.6297 75.5 36.6297C74.64 36.6297 73.96 35.9897 73.96 35.1297C73.96 34.2697 74.64 33.6396 75.5 33.6396C76.36 33.6396 77.11 34.2197 77.11 35.0797V35.0896Z" fill="#231F20"/>
<path d="M59.25 33.8398C59.25 32.9898 60 32.2998 60.86 32.2998C61.72 32.2998 62.4 32.9398 62.4 33.7998C62.4 34.6598 61.72 35.2898 60.86 35.2898C60 35.2898 59.25 34.7098 59.25 33.8498V33.8398Z" fill="#231F20"/>
<path d="M58.13 30.6198C58.52 30.6198 58.91 30.4498 59.29 30.3598C59.67 30.2698 60.09 30.1898 60.49 30.1398C60.89 30.0898 61.27 30.0698 61.66 30.0598C62.08 30.0598 62.52 30.1298 62.94 30.0898C63.13 30.0698 63.34 29.9598 63.38 29.7598C63.4 29.6698 63.39 29.6098 63.38 29.5198C63.36 29.3798 63.2 29.2298 63.06 29.1998C62.62 29.1198 62.15 29.1698 61.71 29.2098C61.27 29.2498 60.83 29.3098 60.39 29.3998C59.95 29.4898 59.57 29.5998 59.17 29.7398C58.77 29.8798 58.31 30.0198 58.01 30.3098C57.9 30.4198 57.98 30.6098 58.13 30.6098V30.6198Z" fill="#231F20"/>
<path d="M79.04 31.5797C78.92 31.4497 78.82 31.3297 78.67 31.2197C78.52 31.1097 78.38 31.0197 78.23 30.9197C77.93 30.7297 77.61 30.5597 77.28 30.4197C76.5 30.0897 75.69 29.8597 74.86 29.7097C74.61 29.6697 74.36 29.6297 74.1 29.5997C73.84 29.5697 73.51 29.4897 73.3 29.6997C73.13 29.8697 73.12 30.1097 73.26 30.2897C73.44 30.5297 73.78 30.4897 74.05 30.5097C74.92 30.5597 75.78 30.6897 76.62 30.9297C77.39 31.1597 78.1 31.5197 78.83 31.8497C79 31.9297 79.18 31.7297 79.04 31.5797Z" fill="#231F20"/>
<path d="M117.15 75.89C117.15 75.89 124.86 120.05 126.09 126.39C127.32 132.73 128.51 138.66 127.65 140.52C126.79 142.38 102.25 146.46 95.88 147.27C89.51 148.08 56.41 154.14 51.27 154.45C46.13 154.76 26.3 158.9 24.99 158C23.68 157.1 22.09 144.79 20.44 138.19C18.79 131.59 14.55 94.19 14.1 91.29C13.65 88.39 14.52 89.03 16.02 88.38C17.52 87.73 54.49 81.15 60.42 79.96C66.34 78.76 91.48 74.72 95.2 73.94C98.92 73.16 114.87 70.02 115.61 70.81C116.35 71.6 116.8 71.99 117.17 75.88L117.15 75.89Z" fill="#12BAAC"/>
<mask id="mask1_12781_107316" style="mask-type:luminance" maskUnits="userSpaceOnUse" x="13" y="70" width="115" height="89">
<path d="M117.15 75.89C117.15 75.89 124.86 120.05 126.09 126.39C127.32 132.73 128.51 138.66 127.65 140.52C126.79 142.38 102.25 146.46 95.88 147.27C89.51 148.08 56.41 154.14 51.27 154.45C46.13 154.76 26.3 158.9 24.99 158C23.68 157.1 22.09 144.79 20.44 138.19C18.79 131.59 14.55 94.19 14.1 91.29C13.65 88.39 14.52 89.03 16.02 88.38C17.52 87.73 54.49 81.15 60.42 79.96C66.34 78.76 91.48 74.72 95.2 73.94C98.92 73.16 114.87 70.02 115.61 70.81C116.35 71.6 116.8 71.99 117.17 75.88L117.15 75.89Z" fill="white"/>
</mask>
<g mask="url(#mask1_12781_107316)">
<path d="M119.42 64.1203C116.55 68.7903 113.73 73.4903 110.77 78.1103C107.81 82.7303 104.72 87.3503 101.59 91.8903C98.46 96.4303 95.22 100.94 91.91 105.38C88.6 109.82 85.23 114.19 81.77 118.51C78.31 122.83 74.84 127.02 71.26 131.19C70.82 131.7 70.38 132.22 69.93 132.73L70.74 133.06C70.81 132.38 70.82 131.7 70.85 131.02C70.87 130.61 70.18 130.5 70.11 130.92C70 131.63 69.87 132.34 69.8 133.06C69.76 133.46 70.35 133.69 70.61 133.39C74.21 129.23 77.74 125 81.19 120.72C84.64 116.44 88.07 112.03 91.38 107.6C94.69 103.17 97.93 98.6803 101.08 94.1303C104.23 89.5803 107.3 84.9503 110.26 80.2703C113.22 75.5903 116.05 70.9003 118.79 66.1203C119.13 65.5303 119.45 64.9403 119.77 64.3403C119.9 64.1103 119.55 63.9103 119.42 64.1303V64.1203Z" fill="#231F20"/>
<path d="M7.2 84.5108C8.22 85.5508 9.37 86.4607 10.5 87.3807C11.63 88.3007 12.78 89.2207 13.92 90.1307C16.19 91.9407 18.48 93.7208 20.79 95.4808C25.44 99.0508 30.15 102.531 34.93 105.931C39.71 109.331 44.55 112.651 49.45 115.881C54.35 119.111 59.3 122.231 64.32 125.261C69.34 128.291 74.33 131.191 79.43 134.001C80.07 134.351 80.71 134.701 81.38 135.011C81.86 135.241 82.27 134.571 81.81 134.281C80.56 133.511 79.27 132.831 77.99 132.121C76.71 131.411 75.44 130.681 74.17 129.961C71.64 128.511 69.13 127.041 66.63 125.551C61.62 122.551 56.67 119.461 51.78 116.271C46.89 113.081 42 109.781 37.2 106.411C32.4 103.041 27.7 99.6207 23.04 96.1007C18.38 92.5807 13.8 88.9808 9.22999 85.3708C8.66999 84.9308 8.1 84.5207 7.5 84.1307C7.27 83.9807 7.03 84.3108 7.21 84.5008L7.2 84.5108Z" fill="#231F20"/>
<path d="M44.93 112.34C44.13 113.64 43.56 115.06 42.95 116.46C42.34 117.86 41.72 119.28 41.1 120.68C39.85 123.52 38.61 126.35 37.36 129.19C34.84 134.91 32.32 140.64 29.79 146.36C27.26 152.08 24.72 157.85 22.19 163.59C19.66 169.33 17.17 175 14.69 180.72C13.45 183.57 12.22 186.42 11 189.27C10.7 189.96 10.41 190.65 10.11 191.34C9.92 191.78 9.54001 192.36 9.85001 192.83C10.02 193.09 10.41 193.1 10.55 193.34C10.67 193.55 10.68 193.85 10.8 194.08C10.95 194.36 11.16 194.61 11.41 194.81C11.86 195.16 12.42 195.28 12.96 195.09C13.45 194.92 13.25 194.22 12.75 194.32C12.19 194.42 11.68 193.88 11.54 193.39C11.41 192.93 11.28 192.59 10.83 192.37C10.78 192.35 10.72 192.31 10.67 192.3C10.68 192.3 10.57 192.25 10.58 192.25C10.58 192.25 10.7 192.43 10.68 192.42V192.45C10.68 192.45 10.71 192.35 10.73 192.31C10.76 192.24 10.79 192.17 10.82 192.11C10.9 191.92 10.98 191.73 11.06 191.54C11.36 190.85 11.65 190.16 11.95 189.47C13.13 186.71 14.32 183.96 15.52 181.21C17.93 175.66 20.36 170.12 22.79 164.59C25.22 159.06 27.71 153.44 30.16 147.87C32.61 142.3 35.09 136.71 37.51 131.11C39.93 125.51 42.29 120.09 44.59 114.55C44.87 113.88 45.09 113.21 45.28 112.51C45.33 112.31 45.05 112.19 44.94 112.37L44.93 112.34Z" fill="#231F20"/>
<path d="M93.82 103.411C97.06 107.281 100.48 111.011 103.86 114.761C107.24 118.511 110.67 122.301 114.1 126.051C117.53 129.801 120.97 133.571 124.4 137.331C127.83 141.091 131.25 144.841 134.66 148.611C138.07 152.381 141.42 156.121 144.77 159.911C145.18 160.381 145.6 160.851 146.03 161.311C146.43 161.751 147.05 161.111 146.67 160.671C145.04 158.741 143.33 156.871 141.64 154.981C139.95 153.091 138.28 151.231 136.59 149.361C133.19 145.591 129.76 141.831 126.34 138.091C122.92 134.351 119.46 130.581 116.02 126.831C112.58 123.081 109.16 119.331 105.74 115.571C102.32 111.811 99 108.041 95.6 104.311C95.18 103.851 94.76 103.391 94.33 102.931C94.01 102.591 93.53 103.091 93.82 103.441V103.411Z" fill="#231F20"/>
</g>
<path d="M91.14 121.72C91.14 132.28 83.42 139.93 72.77 139.93C62.12 139.93 54.57 133.09 53.73 122.56C53.06 114.21 61.11 103.52 71.77 103.52C82.43 103.52 91.15 111.16 91.15 121.73L91.14 121.72Z" fill="#7B55A3"/>
<path d="M72.57 126.31C72.57 126.31 77.37 124.93 80.75 126.37C83.78 127.66 82.57 127.17 84.35 121.5C86.12 115.83 85.37 115.51 84.81 116.32C84.25 117.13 82.57 121.77 81.34 122.76C80.11 123.75 79.28 120.51 79.2 118.48C79.08 115.67 78.35 117.26 78.05 119C77.75 120.74 77.24 121.98 75.78 122.39C74.32 122.8 73.37 120.17 72.74 118C72.14 115.94 71.44 112.72 70.95 113.79C70.46 114.86 71.47 120.37 70.91 122.18C70.35 123.99 68.63 123.76 67.95 123.16C67.27 122.56 65.51 119.11 65.06 119.43C64.51 119.82 66.11 123.29 65.51 124.97C64.91 126.65 61.09 121.46 60.56 121.09C59.84 120.6 59.41 120.41 60.76 122.9C62.11 125.39 64 127.73 64.52 128.59C65.32 129.92 65.57 129.86 66.77 129.05C68.03 128.2 69.48 127.33 72.56 126.31H72.57Z" fill="white"/>
<path d="M71.96 110.71C72.16 111.43 71.81 112.15 71.09 112.36C70.37 112.57 69.62 112.12 69.41 111.4C69.2 110.68 69.66 110.07 70.38 109.87C71.1 109.67 71.75 110 71.95 110.72L71.96 110.71Z" fill="white"/>
<path d="M78.26 114.5C78.11 113.77 78.5 113.07 79.24 112.91C79.98 112.75 80.69 113.25 80.85 113.99C81.01 114.73 80.51 115.3 79.78 115.45C79.05 115.6 78.42 115.23 78.27 114.49L78.26 114.5Z" fill="white"/>
<path d="M87.03 113.22C86.78 112.52 86.07 112.13 85.37 112.38C84.67 112.63 84.31 113.44 84.56 114.14C84.81 114.84 85.54 115.08 86.24 114.83C86.94 114.58 87.28 113.93 87.03 113.22Z" fill="white"/>
<path d="M58.22 120.44C58.97 120.43 59.56 119.89 59.55 119.14C59.54 118.39 58.89 117.8 58.14 117.81C57.39 117.82 56.94 118.43 56.95 119.18C56.96 119.93 57.47 120.45 58.22 120.44Z" fill="white"/>
<path d="M62.82 117.57C62.62 116.85 62.97 116.13 63.69 115.92C64.41 115.71 65.16 116.17 65.37 116.89C65.58 117.61 65.12 118.22 64.4 118.42C63.68 118.62 63.03 118.29 62.83 117.57H62.82Z" fill="white"/>
<path d="M73.5 128.11C64.67 130.15 66.17 132.88 66.17 132.88C66.17 132.88 66.49 135.3 73.21 134.05C81.53 132.51 81.88 130.9 82.16 130.4C82.5 129.79 82.32 126.07 73.49 128.11H73.5ZM74.55 133.04C66.62 134.91 66.68 132.3 67.02 131.85C67.3 131.48 67.56 130.2 75.01 128.71C81.02 127.5 81.36 129.53 81.36 129.53C81.36 129.53 82.49 131.17 74.55 133.04Z" fill="white"/>
<path d="M88.54 85.6099C88.54 85.6099 93.56 99.0499 96.93 115.39C100.31 131.72 99.98 134.45 99.43 135.64C98.88 136.83 91.48 139.56 91.48 141.19C91.48 142.82 93.44 142.71 97.14 141.73C97.14 141.73 97.88 141.3 97.43 142.91C96.98 144.52 95.32 147.13 95.32 147.13C95.32 147.13 96.33 148.69 98.34 148.64C100.35 148.59 100.2 147.79 101.36 148.19C102.52 148.59 103.57 148.44 104.43 147.69C105.29 146.94 105.57 148.14 107.1 147.48C108.63 146.82 110.59 147.06 111 144.14C111.41 141.22 110.49 137.28 109.89 134.77C109.29 132.26 110.46 121.22 110.26 116.49C110.06 111.76 108.49 84.1699 105.53 79.1999C102.56 74.2199 97.05 81.4799 96.9 81.6299C96.75 81.7799 89.51 88.1099 89.51 88.1099" fill="#AE5E36"/>
<path d="M83.5 74.9303C83.5 75.1803 87 84.4203 88.91 88.6703C88.91 88.6703 96.83 85.9803 100.41 84.3103C103.99 82.6403 107.74 80.9703 107.74 80.9703C107.74 80.9703 106.15 73.3503 100.65 66.8503C96.21 61.6103 88.74 64.6003 88.74 64.6003L83.49 74.9303H83.5Z" fill="#FAD429"/>
<path d="M32.92 85.0904C32.92 85.0904 32.68 87.1504 32.96 90.4804C33.18 93.1104 32.95 94.2504 32.27 94.6904C31.59 95.1304 30.51 94.0904 29.86 92.2804C29.78 92.4404 30.05 95.4604 28.7 95.7004C27.35 95.9404 26.62 92.7004 26.62 92.7004C26.62 92.7004 27.21 94.9604 25.79 95.3504C24.63 95.6704 23.7 92.3804 23.7 92.3804C23.7 92.3804 24.04 94.1804 22.78 94.3104C21.52 94.4404 21.18 91.5204 20.95 89.4904C20.72 87.4604 20.84 85.1904 23.1 83.5204C25.36 81.8504 30.7 80.4704 32.49 81.1304C34.28 81.7904 35.61 83.2904 36.56 84.4204L32.91 85.0904H32.92Z" fill="#AE5E36"/>
<mask id="mask2_12781_107316" style="mask-type:luminance" maskUnits="userSpaceOnUse" x="20" y="80" width="17" height="16">
<path d="M32.92 85.0904C32.92 85.0904 32.68 87.1504 32.96 90.4804C33.18 93.1104 32.95 94.2504 32.27 94.6904C31.59 95.1304 30.51 94.0904 29.86 92.2804C29.78 92.4404 30.05 95.4604 28.7 95.7004C27.35 95.9404 26.62 92.7004 26.62 92.7004C26.62 92.7004 27.21 94.9604 25.79 95.3504C24.63 95.6704 23.7 92.3804 23.7 92.3804C23.7 92.3804 24.04 94.1804 22.78 94.3104C21.52 94.4404 21.18 91.5204 20.95 89.4904C20.72 87.4604 20.84 85.1904 23.1 83.5204C25.36 81.8504 30.7 80.4704 32.49 81.1304C34.28 81.7904 35.61 83.2904 36.56 84.4204L32.91 85.0904H32.92Z" fill="white"/>
</mask>
<g mask="url(#mask2_12781_107316)">
<path d="M28.53 85.2499C28.57 86.3599 28.62 87.4599 28.75 88.5599C28.88 89.6599 28.89 89.7099 29.08 90.7899C29.27 91.8699 30.08 93.9799 30.34 95.0599C30.47 95.5999 30.19 96.1499 30.34 96.6799C30.49 97.2099 30.59 97.7799 30.88 98.2299C31.05 98.4999 31.54 98.4099 31.52 98.0599C31.49 97.5199 31.25 96.9999 31.09 96.4799C30.93 95.9599 30.77 95.4199 30.62 94.8799C30.33 93.8499 29.96 92.8299 29.73 91.7799C29.27 89.6399 29.04 87.4299 28.83 85.2499C28.81 85.0599 28.53 85.0599 28.53 85.2499Z" fill="#231F20"/>
<path d="M25.1 86.3902C25.29 88.4402 25.52 90.4002 26.07 92.3902C26.8 95.0102 27.16 95.0902 26.67 95.5402C26.16 96.0202 27.35 96.8302 27.48 97.3402C27.61 97.8502 27.22 98.1102 27.46 98.5502C27.61 98.8402 28.08 98.7102 28.07 98.3802C28.05 97.8702 27.85 97.3602 27.72 96.8802C27.59 96.4002 27.46 95.9002 27.34 95.4102C27.09 94.4102 26.75 93.4602 26.53 92.4502C26.09 90.4402 25.84 88.3502 25.44 86.3302C25.4 86.1402 25.09 86.1802 25.11 86.3802L25.1 86.3902Z" fill="#231F20"/>
<path d="M22.84 87.0497C22.73 88.0397 22.9 89.6396 23.02 90.6396C23.25 92.6196 23.68 93.6496 23.86 94.6396C24.04 95.6296 23.7 95.0196 23.99 95.9896C24.13 96.4696 24.29 96.9496 24.46 97.4196C24.63 97.8896 24.8 98.3497 25.15 98.7297C25.3 98.8897 25.59 98.7697 25.58 98.5497C25.56 98.0396 25.38 97.6196 25.19 97.1496C25 96.6796 24.85 96.2396 24.7 95.7896C24.39 94.8596 24.11 94.1096 23.89 93.1496C23.67 92.1896 23.51 91.0297 23.39 90.0497C23.27 89.0697 23.25 88.0396 23.15 87.0396C23.13 86.8396 22.86 86.8396 22.84 87.0396V87.0497Z" fill="#231F20"/>
</g>
</g>
<defs>
<clipPath id="clip0_12781_107316">
<rect width="146.78" height="223.71" fill="white"/>
</clipPath>
</defs>
</svg>
