<svg width="237" height="236" viewBox="0 0 237 236" fill="none" xmlns="http://www.w3.org/2000/svg">
<g clip-path="url(#clip0_12781_108262)">
<path d="M172.67 81.6999C172.67 81.6999 183.29 33.6799 162.18 13.1899C141.07 -7.31015 113.85 9.58985 86.0899 6.40985C58.3099 3.22985 30.9199 -11.5301 9.84994 18.6399C-11.2301 48.8099 8.19994 72.9299 10.1299 114.64C12.0599 156.36 -0.840056 188.23 9.52994 205.93C19.8999 223.63 33.5799 220.52 57.3799 215.81C81.1899 211.11 85.8599 215.76 116.2 218.16C146.54 220.56 164.26 208.74 168.44 190.4C172.61 172.06 165.1 146.92 172.68 81.6899L172.67 81.6999Z" fill="#12BAAC"/>
<path d="M172.56 82.0404C172.56 82.0404 183.18 34.0204 162.07 13.5304C140.96 -6.96963 113.74 9.93037 85.9799 6.75037C58.2 3.56037 30.8099 -11.1896 9.72995 18.9804C-11.3501 49.1504 8.07995 73.2704 10.0099 114.98C11.9399 156.7 -0.960051 188.57 9.40995 206.27C19.7799 223.97 33.4599 220.86 57.2599 216.15C81.0699 211.45 85.7399 216.1 116.08 218.5C146.42 220.9 164.14 209.08 168.32 190.74C172.49 172.4 164.98 147.26 172.56 82.0304V82.0404Z" fill="#ED2690"/>
<path d="M73.73 158.85C73.73 158.85 66.24 156.25 62.35 153.56C58.46 150.87 57.66 120.51 57.66 120.51L63.05 120.81C63.05 120.81 73.74 126.9 74.13 126.7C74.52 126.5 78.62 138.58 78.62 138.58L73.73 158.85Z" fill="#AA6648"/>
<path d="M57.02 123.86L58.44 123.24C58.44 123.24 61.37 123.86 64.11 125.99C66.85 128.12 63.22 128.38 63.22 128.38L57.01 123.86H57.02Z" fill="#231F20"/>
<path d="M19.04 192.18C19.36 192.18 19.36 191.68 19.04 191.68C18.72 191.68 18.72 192.18 19.04 192.18Z" fill="#ED2690"/>
<path d="M61.1 45.6899C61.25 44.8099 54.76 19.3199 34.49 19.1099C14.22 18.8999 12.14 41.4599 17.86 58.1299C23.58 74.7999 39.54 83.9099 41.6 93.3099C43.66 102.71 35.87 108.6 31.65 102.74C27.43 96.8799 27.13 93.1999 25.91 92.9199C24.89 92.6898 23.58 93.8298 22.91 94.5899C22.5 95.0599 23.47 105.54 33.37 108.77C43.27 112 49.18 102.4 47.33 90.3899C45.74 80.0599 33.2 71.7999 28.03 54.4699C23.36 38.8099 25.91 32.9999 32.9 29.9899C39.88 26.9799 51.83 35.6099 56.95 53.9799" fill="#FAD429"/>
<path d="M125.69 65.3504C126.08 64.5604 143.94 47.6404 160.73 59.4604C177.52 71.2804 166.4 92.3004 151.94 102.28C137.48 112.26 117.05 108.67 109.85 114.98C102.65 121.3 106.28 130.5 113.17 128.3C120.06 126.1 121.74 124.23 122.9 124.73C123.87 125.15 124.99 127.02 125.1 128.03C125.16 128.65 119.06 137.22 109.03 133.95C98.9999 130.68 99.9199 117.36 108.28 108.66C116.64 99.9604 125.3 102.2 144.6 96.7604C157.34 93.1604 159.12 76.6204 154.7 70.3704C150.84 64.9204 135.97 64.4304 121.01 76.1204" fill="#FAD429"/>
<path d="M28.68 148.93C35.56 143.2 43.31 142.04 49.29 142.28C51.31 141.41 56.39 138.54 58.09 131.24C59.89 123.5 58.45 118.93 57.94 117.67C55.46 115.01 53.04 111.3 51.05 106.09C45.73 92.1804 49.27 77.0204 56.17 54.9004C63.07 32.7704 66.02 25.7304 67.08 25.0304C68.14 24.3304 94.96 33.7004 103.29 36.3004C111.62 38.9004 132.16 46.0904 133.05 46.2704C133.94 46.4504 125.07 79.7904 108.77 106.13C99.08 121.78 87.63 125.32 79.93 125.62C77.9 126.35 72.77 128.85 70.44 136.01C68.03 143.39 70.44 148.53 70.97 149.54C74.89 152.03 78.79 155.41 80.86 159.76C86.01 170.57 87.1 190.95 85.16 193C83.22 195.05 54.63 189.9 45.12 187.07C35.61 184.24 11.79 175.16 12.02 172.46C12.26 169.76 15.09 160.25 28.67 148.94L28.68 148.93Z" fill="#FAD429"/>
<mask id="mask0_12781_108262" style="mask-type:luminance" maskUnits="userSpaceOnUse" x="48" y="24" width="86" height="102">
<path d="M71.17 124.51C71.17 124.51 92.47 132.47 108.78 106.13C125.08 79.7904 133.94 46.4504 133.06 46.2704C132.18 46.0904 111.64 38.9004 103.3 36.3004C94.96 33.7004 68.15 24.3304 67.09 25.0304C66.03 25.7304 63.09 32.7704 56.18 54.9004C49.27 77.0304 45.74 92.1804 51.06 106.09C57.26 122.31 67.59 124.08 71.17 124.5V124.51Z" fill="white"/>
</mask>
<g mask="url(#mask0_12781_108262)">
<path d="M145.58 57.9207C142.58 56.9307 139.5 56.1707 136.46 55.3207C133.42 54.4707 130.43 53.6207 127.42 52.7607C121.37 51.0307 115.34 49.2407 109.33 47.3907C103.32 45.5407 97.32 43.6507 91.34 41.6807C85.36 39.7107 79.35 37.6807 73.38 35.5807C67.41 33.4807 61.53 31.3607 55.64 29.1507C54.91 28.8807 54.19 28.6107 53.46 28.3507C52.95 28.1707 52.75 28.9607 53.24 29.1607C59.09 31.4607 65.04 33.5507 70.97 35.6407C76.9 37.7307 82.86 39.7607 88.83 41.7307C94.8 43.7007 100.8 45.6107 106.82 47.4407C112.84 49.2707 118.93 51.0707 125.02 52.7707C131.11 54.4707 137.15 56.1107 143.26 57.6207C144.01 57.8107 144.77 57.9707 145.54 58.1107C145.68 58.1407 145.73 57.9407 145.6 57.9007L145.58 57.9207Z" fill="#231F20"/>
</g>
<mask id="mask1_12781_108262" style="mask-type:luminance" maskUnits="userSpaceOnUse" x="12" y="142" width="75" height="52">
<path d="M59.28 144.1C59.28 144.1 42.26 137.62 28.68 148.93C15.1 160.24 12.27 169.75 12.03 172.45C11.79 175.15 35.62 184.23 45.13 187.06C54.64 189.89 83.23 195.04 85.17 192.99C87.11 190.94 86.02 170.56 80.87 159.75C75.72 148.94 59.28 144.1 59.28 144.1Z" fill="white"/>
</mask>
<g mask="url(#mask1_12781_108262)">
<path d="M97.96 182.61C91.71 182.21 85.47 181.48 79.3 180.4C73.13 179.32 67.07 177.92 61.09 176.18C55.11 174.44 49.25 172.39 43.51 170.01C37.77 167.63 32.09 164.91 26.61 161.9C21.13 158.89 15.85 155.59 10.76 151.99C10.13 151.54 9.5 151.11 8.84 150.72C8.5 150.52 8.1 151.01 8.41 151.28C9.6 152.32 10.91 153.19 12.21 154.08C13.51 154.97 14.76 155.8 16.06 156.64C18.71 158.35 21.41 159.99 24.16 161.54C29.63 164.64 35.28 167.43 41.07 169.88C46.86 172.33 52.7 174.44 58.69 176.23C64.68 178.02 70.84 179.5 77.03 180.61C83.22 181.72 89.41 182.47 95.66 182.84C96.43 182.89 97.2 182.92 97.97 182.96C98.19 182.96 98.18 182.64 97.97 182.62L97.96 182.61Z" fill="#231F20"/>
<path d="M93.53 177.74C93.79 177.51 94.03 177.26 94.32 177.07C94.55 176.92 94.81 176.82 95.01 176.63C95.17 176.48 95.03 176.25 94.84 176.23C89.1799 175.79 83.54 175.07 77.97 173.97C72.4 172.87 66.89 171.39 61.51 169.57C56.14 167.75 50.9 165.57 45.82 163.05C40.74 160.53 35.81 157.66 31.11 154.47C28.89 152.97 26.67 151.43 24.68 149.63C22.81 147.95 21.13 145.99 20.19 143.63C19.96 143.06 19.75 142.47 19.58 141.88C19.47 141.53 18.86 141.57 18.9 141.97C19.2 144.51 20.67 146.74 22.36 148.59C24.16 150.55 26.3 152.15 28.46 153.69C33.17 157.02 38.11 160.03 43.23 162.68C48.35 165.33 53.6 167.62 59 169.56C64.4 171.5 69.99 173.09 75.64 174.28C81.29 175.47 86.95 176.28 92.67 176.6C93.39 176.64 94.1 176.68 94.82 176.7L94.65 176.3C94.44 176.5 94.31 176.76 94.12 176.98C93.91 177.23 93.65 177.43 93.42 177.65C93.3699 177.7 93.45 177.77 93.5 177.73L93.53 177.74Z" fill="#231F20"/>
</g>
<mask id="mask2_12781_108262" style="mask-type:luminance" maskUnits="userSpaceOnUse" x="12" y="24" width="122" height="170">
<path d="M28.68 148.93C35.56 143.2 43.31 142.04 49.29 142.28C51.31 141.41 56.39 138.54 58.09 131.24C59.89 123.5 58.45 118.93 57.94 117.67C55.46 115.01 53.04 111.3 51.05 106.09C45.73 92.1804 49.27 77.0204 56.17 54.9004C63.07 32.7704 66.02 25.7304 67.08 25.0304C68.14 24.3304 94.96 33.7004 103.29 36.3004C111.62 38.9004 132.16 46.0904 133.05 46.2704C133.94 46.4504 125.07 79.7904 108.77 106.13C99.08 121.78 87.63 125.32 79.93 125.62C77.9 126.35 72.77 128.85 70.44 136.01C68.03 143.39 70.44 148.53 70.97 149.54C74.89 152.03 78.79 155.41 80.86 159.76C86.01 170.57 87.1 190.95 85.16 193C83.22 195.05 54.63 189.9 45.12 187.07C35.61 184.24 11.79 175.16 12.02 172.46C12.26 169.76 15.09 160.25 28.67 148.94L28.68 148.93Z" fill="white"/>
</mask>
<g mask="url(#mask2_12781_108262)">
<path d="M85.2699 152.43C81.6799 151.81 78.0999 151.12 74.5599 150.28C71.0199 149.44 67.4199 148.45 63.9199 147.3C60.4199 146.15 56.9999 144.85 53.6399 143.37C50.2799 141.89 47.0399 140.26 43.8699 138.43C40.6999 136.6 37.6799 134.56 34.7199 132.42C34.3599 132.16 33.9999 131.91 33.6099 131.68C33.3299 131.52 33.0399 131.9 33.2699 132.12C33.9099 132.76 34.6499 133.29 35.3899 133.82C36.1299 134.35 36.8799 134.88 37.6299 135.39C39.1599 136.43 40.7099 137.42 42.2999 138.36C45.4699 140.24 48.7399 141.94 52.0899 143.46C55.4399 144.98 58.8899 146.34 62.3899 147.52C65.8899 148.7 69.4599 149.73 73.0699 150.57C76.6799 151.41 80.2199 152.11 83.8499 152.55C84.3099 152.61 84.77 152.66 85.2299 152.71C85.3999 152.73 85.4399 152.44 85.2699 152.41V152.43Z" fill="#231F20"/>
<path d="M84.99 125.52C83.69 125.47 82.39 125.57 81.09 125.54C79.79 125.51 78.51 125.41 77.23 125.26C74.76 124.96 72.31 124.42 69.93 123.72C66.2 122.61 62.49 121.11 59.18 119.02C58.9 118.84 58.62 118.66 58.35 118.47C58.24 118.39 58.13 118.31 58.02 118.23C57.88 118.13 57.85 118.1 57.73 118C56.87 117.31 56.07 116.56 55.2 115.88C53.28 114.4 51.21 113.14 49.06 112.02C47.48 111.19 45.83 110.47 44.3 109.53C43.74 109.19 43.2 108.81 42.74 108.34C42.53 108.13 42.42 108.01 42.28 107.76C42.21 107.64 42.3 107.81 42.26 107.7C42.22 107.59 42.29 107.68 42.26 107.7C42.24 107.7 42.35 107.55 42.26 107.7C42.33 107.6 42.19 107.75 42.26 107.69C42.29 107.66 42.27 107.61 42.23 107.72L42.26 107.69L42.29 107.66C42.22 107.69 42.22 107.71 42.26 107.69C42.3 107.67 42.33 107.65 42.36 107.63C42.47 107.56 42.32 107.63 42.43 107.6C42.64 107.53 42.85 107.48 43.07 107.44C43.63 107.34 44.2 107.27 44.76 107.18C45.89 106.98 47.3 106.58 47.82 105.43C47.95 105.14 48 104.85 48.04 104.53C48.08 104.21 47.59 104.22 47.55 104.53C47.39 105.74 45.88 106.12 44.89 106.3C44.26 106.41 43.72 106.47 43.09 106.56C42.65 106.62 42.16 106.69 41.79 106.95C40.64 107.73 42.13 109.05 42.79 109.57C44.1 110.59 45.64 111.3 47.12 112.03C49.15 113.04 51.15 114.11 53.04 115.39C54.2 116.18 55.32 117.03 56.38 117.96C56.89 118.4 57.39 118.83 57.94 119.22C59.25 120.13 60.67 120.9 62.1 121.59C64.06 122.54 66.09 123.35 68.16 124.02C72.99 125.59 78.11 126.47 83.2 126.07C83.83 126.02 84.44 125.91 85.04 125.73C85.15 125.7 85.13 125.53 85.01 125.53L84.99 125.52Z" fill="#231F20"/>
</g>
<path d="M82.95 22.2099C82.87 20.3599 82.87 19.6099 82.86 18.6299C82.86 17.5899 82.84 17.0599 82.86 16.0199C82.88 14.9799 82.78 14.9499 82.8 13.9399C82.82 12.8799 82.74 11.5299 82.82 10.4799C82.86 10.0099 84.29 10.4799 84.29 10.9099C84.29 11.9199 84.25 12.9399 84.23 13.9499C84.21 14.9599 84.19 16.0299 84.16 17.0599C84.13 18.0899 84.12 19.0899 84.07 20.0999C84.05 20.5999 84.03 21.0999 83.98 21.5999C83.93 22.0999 83.72 25.3199 83.54 25.7999C83.43 26.0799 83.24 25.5099 83.13 24.0599L82.95 22.2099Z" fill="white"/>
<path d="M61.13 23.1903C60.61 21.9403 59.98 20.7403 59.49 19.4703C59 18.2003 58.51 16.8703 58.03 15.5703C57.55 14.2703 57.1 13.0403 56.65 11.7703L55.98 9.86033C55.74 9.18033 55.28 8.00033 55.59 7.58033C55.84 7.24033 56.65 6.59033 56.86 6.94033C57.24 7.56033 57.5 8.56033 57.7 9.19033L58.31 11.1203C58.73 12.4403 59.13 13.7703 59.53 15.1003C59.93 16.4303 60.31 17.6803 60.68 18.9703C61.05 20.2603 61.3 21.6803 61.64 23.0303C61.73 23.3703 61.25 23.5103 61.12 23.1903H61.13Z" fill="white"/>
<path d="M101.71 28.6799C103.53 25.3099 105.28 21.9199 107.22 18.6199C108.18 16.9899 109.14 15.3499 110.11 13.7299C110.59 12.9199 111.08 12.0999 111.56 11.2899C111.97 10.5999 112.68 9.11986 113.14 9.04986C113.51 8.99986 114.61 9.12986 114.83 9.30986C115.16 9.57986 114 10.9899 113.37 12.0699C112.89 12.8899 112.26 13.6899 111.77 14.4899C110.75 16.1399 109.73 17.7799 108.7 19.4199C106.67 22.6799 104.46 25.8199 102.31 29.0099C102.07 29.3599 101.5 29.0799 101.71 28.6899V28.6799Z" fill="white"/>
<path d="M123.19 29.0898C124.99 27.6698 126.79 26.2498 128.62 24.8598C129.53 24.1698 130.46 23.4898 131.39 22.8098C131.85 22.4698 132.32 22.1398 132.79 21.7998C133.26 21.4598 133.41 21.1598 134.02 21.0798C134.52 21.0198 135.17 21.5598 134.91 21.7998C134.51 22.1598 134.05 22.5698 133.61 22.8698C133.14 23.1998 132.67 23.5298 132.2 23.8498C131.26 24.4998 130.31 25.1498 129.35 25.7798C127.43 27.0398 125.44 28.1898 123.55 29.4898C122.85 29.9698 119.35 31.8798 123.19 29.0798V29.0898Z" fill="white"/>
<path d="M129.89 128.02C132.21 128.97 134.59 129.79 136.92 130.71C139.25 131.63 141.5 132.52 143.79 133.44C146.08 134.36 148.37 135.28 150.65 136.2C151.82 136.67 152.98 137.15 154.14 137.63C155.3 138.11 156.56 138.47 157.56 139.21C158.32 139.77 157.25 141.07 157.03 141.13C155.85 141.45 154.66 140.48 153.52 139.97C152.38 139.46 151.23 138.77 150.08 138.25C147.82 137.23 145.56 136.2 143.3 135.18C141.04 134.16 138.79 133.11 136.53 132.08C134.23 131.02 131.97 129.85 129.65 128.82C129.16 128.6 129.37 127.8 129.87 128.01L129.89 128.02Z" fill="white"/>
<path d="M127.47 148.82C126.37 147.51 125.35 146.28 124.26 144.96C123.17 143.64 122.12 142.09 121.08 140.72C120.92 140.51 121.26 140.41 121.44 140.58C122.66 141.78 124 142.82 125.17 144.07C126.34 145.32 127.48 146.58 128.63 147.84C129.78 149.1 130.86 150.32 131.97 151.57L133.71 153.53C134.29 154.18 135.38 155.37 136.1 156.06C136.52 156.47 134.91 157.25 134.28 156.77C133.57 156.23 132.98 155.55 132.41 154.89L130.7 152.9" fill="white"/>
<path d="M44.1099 129.73C39.9799 131.82 35.7799 133.75 31.5899 135.71C29.5099 136.68 27.4299 137.66 25.3599 138.63C23.2599 139.62 21.0299 140.68 18.9099 141.64C18.4099 141.87 16.8199 140.38 18.1499 139.86C18.4599 139.74 19.1899 139.53 19.4899 139.38C20.2899 138.99 20.6499 139.95 20.0699 140.67C19.8599 140.93 19.6799 141.16 19.4299 141.37L18.2499 139.94C20.3199 138.96 22.4999 138.18 24.6099 137.29C26.7599 136.38 28.9199 135.48 31.0699 134.57C35.3399 132.77 39.5899 130.95 43.9099 129.28C44.1599 129.18 44.3599 129.59 44.1099 129.72V129.73Z" fill="white"/>
<path d="M135.51 39.02C139.16 38.13 142.79 37.15 146.43 36.23C148.17 35.79 149.9 35.35 151.64 34.91C152.53 34.68 153.43 34.46 154.3 34.18C155.17 33.9 156.67 33.43 157.15 33.71C158.17 34.3 158.26 35.23 157.75 35.36C156.86 35.58 155.93 35.89 155.04 36.02C154.15 36.15 153.21 36.31 152.3 36.5C150.43 36.88 148.56 37.25 146.69 37.63C143 38.37 139.3 39.06 135.62 39.84C134.99 39.97 134.91 39.19 135.51 39.04V39.02Z" fill="white"/>
<path d="M30.96 84.7304C28.33 84.1904 25.74 83.5204 23.16 82.7904C21.91 82.4404 20.66 82.0804 19.41 81.7204C18.77 81.5304 18.11 81.3804 17.47 81.1904C15.79 80.6904 15.49 80.6704 15.33 80.1504C15.08 79.3404 15.08 78.7504 15.93 79.0004C16.6 79.2004 17.19 79.3904 17.83 79.6304C18.47 79.8704 19.09 80.0804 19.73 80.2904C21 80.7104 22.27 81.1204 23.54 81.5504C26.09 82.4104 28.6 83.3004 31.08 84.3404C31.32 84.4404 31.22 84.7804 30.96 84.7204V84.7304Z" fill="white"/>
<path d="M133.48 114.71C135.49 114.97 137.49 115.22 139.48 115.57C141.47 115.92 144.13 116.2 146.11 116.59C147.01 116.77 146.27 118.56 145.27 118.34C143.24 117.89 141.23 117.35 139.21 116.88C137.19 116.41 135.28 115.86 133.32 115.31C132.98 115.21 133.12 114.66 133.47 114.71H133.48Z" fill="white"/>
<path d="M35.62 115.83C32.91 116.26 30.22 116.77 27.52 117.23C26.23 117.45 24.94 117.67 23.65 117.89C22.99 118 22.33 118.12 21.67 118.28C21.01 118.44 19.9 118.71 19.57 118.42C18.88 117.79 18.88 116.94 19.26 116.88C19.92 116.77 20.62 116.59 21.27 116.57C21.92 116.55 22.61 116.49 23.28 116.42C24.66 116.27 26.04 116.12 27.42 115.98C30.14 115.69 32.87 115.44 35.59 115.12C36.06 115.06 36.06 115.77 35.61 115.84L35.62 115.83Z" fill="white"/>
<path d="M72.34 156.05C71.75 155.16 71.64 152.56 71.64 142.15C71.64 131.74 72.23 129.07 72.23 129.07C72.23 129.07 61.2 123.93 62.25 119.8C63.3 115.67 72.52 120.15 76.69 121.63C80.86 123.11 81.75 125.2 82.93 128.47C84.11 131.74 85.9 141.85 87.69 144.23C89.48 146.61 109.4 155.23 109.4 155.23C109.4 155.23 95.72 180.51 95.72 179.32C95.72 178.13 77.19 168.14 71.54 156.25" fill="#AA6648"/>
<path d="M49.57 144.47C49.57 144.47 47.57 145.57 47.67 148.46C47.77 151.35 48.87 151.86 54.16 152.75C59.45 153.65 61.05 153.75 62.45 152.25C63.85 150.75 62.35 148.95 60.35 147.66C58.35 146.36 51.16 144.16 51.16 144.16L49.56 144.46L49.57 144.47Z" fill="#AA6648"/>
<mask id="mask3_12781_108262" style="mask-type:luminance" maskUnits="userSpaceOnUse" x="47" y="144" width="16" height="10">
<path d="M49.57 144.47C49.57 144.47 47.57 145.57 47.67 148.46C47.77 151.35 48.87 151.86 54.16 152.75C59.45 153.65 61.05 153.75 62.45 152.25C63.85 150.75 62.35 148.95 60.35 147.66C58.35 146.36 51.16 144.16 51.16 144.16L49.56 144.46L49.57 144.47Z" fill="white"/>
</mask>
<g mask="url(#mask3_12781_108262)">
<path d="M48.07 144.871C48.07 144.871 54.36 148.591 63.41 149.921C72.45 151.251 59.95 145.311 59.95 145.311L46.12 141.851L48.07 144.861V144.871Z" fill="#231F20"/>
</g>
<path d="M62.25 141.17C62.25 141.17 65.75 142.67 66.74 145.76C67.73 148.85 65.74 149.95 62.85 149.26C59.96 148.57 50.17 146.16 48.17 144.07C46.17 141.98 46.47 137.88 48.57 136.78C50.67 135.68 59.16 138.98 59.16 138.98L62.26 141.18L62.25 141.17Z" fill="#AA6648"/>
<mask id="mask4_12781_108262" style="mask-type:luminance" maskUnits="userSpaceOnUse" x="46" y="136" width="21" height="14">
<path d="M62.25 141.17C62.25 141.17 65.75 142.67 66.74 145.76C67.73 148.85 65.74 149.95 62.85 149.26C59.96 148.57 50.17 146.16 48.17 144.07C46.17 141.98 46.47 137.88 48.57 136.78C50.67 135.68 59.16 138.98 59.16 138.98L62.26 141.18L62.25 141.17Z" fill="white"/>
</mask>
<g mask="url(#mask4_12781_108262)">
<path d="M48.51 136.45C48.51 136.45 53.47 141.15 66.42 143.9C79.37 146.65 57.73 135.83 57.73 135.83C57.73 135.83 47.62 133.08 47.45 133.44C47.28 133.8 48.51 136.45 48.51 136.45Z" fill="#231F20"/>
</g>
<path d="M64.55 134.88C64.55 134.88 67.85 136.88 67.85 139.47C67.85 142.06 66.46 142.9 63.96 142.67C60.31 142.33 51.08 137.48 49.08 135.78C47.08 134.08 47.68 131.29 48.68 130.29C49.68 129.29 50.98 127.99 55.67 129.39C60.36 130.79 64.56 134.88 64.56 134.88H64.55Z" fill="#AA6648"/>
<mask id="mask5_12781_108262" style="mask-type:luminance" maskUnits="userSpaceOnUse" x="47" y="128" width="21" height="15">
<path d="M64.55 134.88C64.55 134.88 67.85 136.88 67.85 139.47C67.85 142.06 66.36 143.1 63.96 142.67C60.36 142.02 51.08 137.48 49.08 135.78C47.08 134.08 47.68 131.29 48.68 130.29C49.68 129.29 50.98 127.99 55.67 129.39C60.36 130.79 64.56 134.88 64.56 134.88H64.55Z" fill="white"/>
</mask>
<g mask="url(#mask5_12781_108262)">
<path d="M51.35 128.11C51.35 128.11 56.58 134.05 67.49 137.42C78.4 140.79 55.34 125.81 55.08 125.98C54.82 126.15 51.36 128.46 51.36 128.11H51.35Z" fill="#231F20"/>
</g>
<path d="M58.85 123.7C58.85 123.7 66 128.18 67.59 131.36C69.18 134.54 68.48 135.79 66.88 136.14C65.28 136.49 61.21 134.19 55.72 130.65C50.23 127.11 51.24 124.4 52.66 122.1C54.08 119.8 58.05 120.5 58.05 120.5L58.85 123.7Z" fill="#AA6648"/>
<path d="M72.89 158.39C72.89 158.39 67.08 155.15 68.87 141.08C70.42 128.85 75.12 124.1 75.12 124.1L78.14 129.91L76.02 153.81L72.89 158.84" fill="#AA6648"/>
<mask id="mask6_12781_108262" style="mask-type:luminance" maskUnits="userSpaceOnUse" x="62" y="118" width="48" height="62">
<path d="M72.34 156.05C71.75 155.16 71.64 152.56 71.64 142.15C71.64 131.74 72.23 129.07 72.23 129.07C72.23 129.07 61.2 123.93 62.25 119.8C63.3 115.67 72.52 120.15 76.69 121.63C80.86 123.11 81.75 125.2 82.93 128.47C84.11 131.74 85.9 141.85 87.69 144.23C89.48 146.61 109.4 155.23 109.4 155.23C109.4 155.23 95.72 180.51 95.72 179.32C95.72 178.13 77.19 168.14 71.54 156.25" fill="white"/>
</mask>
<g mask="url(#mask6_12781_108262)">
<path d="M62.2401 117.979C62.4601 118.739 63.1001 119.379 63.7301 119.829C64.3901 120.299 65.1701 120.609 65.9801 120.709C66.7401 120.799 67.6301 120.679 68.1501 120.059C68.6701 119.439 68.6301 118.529 68.2601 117.829C67.8301 117.009 66.8101 116.309 65.9101 116.149C65.6901 116.109 65.4601 116.389 65.6701 116.569C66.3501 117.149 67.3001 117.379 67.7101 118.249C67.8801 118.609 67.9501 119.059 67.7701 119.439C67.5901 119.819 67.2201 119.989 66.8301 120.059C66.0201 120.209 65.1201 119.939 64.4101 119.559C64.0301 119.359 63.6801 119.109 63.3701 118.809C63.0601 118.509 62.8001 118.159 62.5101 117.829C62.4001 117.699 62.1901 117.829 62.2301 117.989L62.2401 117.979Z" fill="#231F20"/>
</g>
<mask id="mask7_12781_108262" style="mask-type:luminance" maskUnits="userSpaceOnUse" x="51" y="120" width="18" height="17">
<path d="M58.85 123.7C58.85 123.7 66 128.18 67.59 131.36C69.18 134.54 68.48 135.79 66.88 136.14C65.28 136.49 61.21 134.19 55.72 130.65C50.23 127.11 51.24 124.4 52.66 122.1C54.08 119.8 58.05 120.5 58.05 120.5L58.85 123.7Z" fill="white"/>
</mask>
<g mask="url(#mask7_12781_108262)">
<path d="M65.6899 135.93C65.0299 135.82 64.4599 135.4 64.2599 134.74C64.0599 134.08 64.3899 133.38 64.9499 133C66.2399 132.13 67.8499 133.03 68.3099 134.39C68.4599 134.82 68.5099 135.31 68.3299 135.75C68.1699 136.13 67.8599 136.38 67.5299 136.59C67.3399 136.72 67.3899 137.07 67.6599 137.06C68.7199 136.99 69.1899 135.74 69.0799 134.83C68.9599 133.83 68.3399 132.92 67.4599 132.43C66.6399 131.97 65.6499 131.93 64.8299 132.4C64.0099 132.87 63.4999 133.73 63.6599 134.65C63.8199 135.57 64.6999 136.49 65.6899 136.28C65.8499 136.24 65.8599 135.97 65.6899 135.94V135.93Z" fill="#231F20"/>
</g>
<path d="M72.62 104.84C72.62 104.84 68.95 90.8296 59.28 80.1596L69.29 71.1496C69.29 71.1496 74.29 85.8296 74.96 94.4996C74.96 94.4996 99.98 68.8196 114.32 61.8096C114.32 61.8096 116.32 67.4796 117.99 74.1496C117.99 74.1496 95.31 81.4896 72.63 104.84H72.62Z" fill="#7B55A3"/>
<mask id="mask8_12781_108262" style="mask-type:luminance" maskUnits="userSpaceOnUse" x="47" y="128" width="21" height="15">
<path d="M64.55 134.88C64.55 134.88 67.85 136.88 67.85 139.47C67.85 142.06 66.46 142.9 63.96 142.67C60.31 142.33 51.08 137.48 49.08 135.78C47.08 134.08 47.68 131.29 48.68 130.29C49.68 129.29 50.98 127.99 55.67 129.39C60.36 130.79 64.56 134.88 64.56 134.88H64.55Z" fill="white"/>
</mask>
<g mask="url(#mask8_12781_108262)">
<path d="M68.23 142.071C68.01 142.091 67.82 142.181 67.6 142.241C67.33 142.321 67.06 142.391 66.78 142.431C66.27 142.501 65.75 142.491 65.26 142.351C64.42 142.111 63.69 141.451 63.45 140.601C63.21 139.751 63.57 138.831 64.32 138.381C65.26 137.821 66.32 138.451 67.13 138.951C67.65 139.261 68.15 139.611 68.54 140.091C68.93 140.571 69.08 141.101 69.16 141.691C69.2 142.001 69.67 142.141 69.76 141.771C70.09 140.461 68.92 139.281 67.94 138.621C66.96 137.961 65.57 137.091 64.3 137.591C63.28 137.991 62.57 139.081 62.63 140.181C62.69 141.281 63.45 142.321 64.45 142.811C65.08 143.121 65.78 143.221 66.47 143.141C67.08 143.071 67.98 142.841 68.36 142.321C68.43 142.221 68.34 142.071 68.22 142.081L68.23 142.071Z" fill="#231F20"/>
</g>
<mask id="mask9_12781_108262" style="mask-type:luminance" maskUnits="userSpaceOnUse" x="46" y="136" width="21" height="14">
<path d="M62.25 141.17C62.25 141.17 65.75 142.67 66.74 145.76C67.73 148.85 65.74 149.95 62.85 149.26C59.96 148.57 50.17 146.16 48.17 144.07C46.17 141.98 46.47 137.88 48.57 136.78C50.67 135.68 59.16 138.98 59.16 138.98L62.26 141.18L62.25 141.17Z" fill="white"/>
</mask>
<g mask="url(#mask9_12781_108262)">
<path d="M66.41 149.15C65.87 149.17 65.3 149.16 64.76 149.12C64.29 149.08 63.82 148.96 63.41 148.72C62.7 148.29 62.38 147.51 62.58 146.7C63.02 144.88 65.24 144.64 66.58 145.61C66.97 145.89 67.29 146.26 67.55 146.66C67.83 147.09 68.01 147.57 68.26 148.01C68.38 148.22 68.74 148.14 68.73 147.88C68.69 146.83 67.95 145.81 67.14 145.18C66.33 144.55 65.21 144.24 64.15 144.46C63.18 144.66 62.38 145.34 62.07 146.28C61.76 147.22 61.96 148.23 62.68 148.87C63.12 149.26 63.68 149.49 64.25 149.58C65.01 149.7 65.7 149.58 66.45 149.46C66.63 149.43 66.58 149.14 66.41 149.15Z" fill="#231F20"/>
</g>
<mask id="mask10_12781_108262" style="mask-type:luminance" maskUnits="userSpaceOnUse" x="47" y="144" width="16" height="10">
<path d="M49.57 144.47C49.57 144.47 47.57 145.57 47.67 148.46C47.77 151.35 48.87 151.86 54.16 152.75C59.45 153.65 61.05 153.75 62.45 152.25C63.85 150.75 62.35 148.95 60.35 147.66C58.35 146.36 51.16 144.16 51.16 144.16L49.56 144.46L49.57 144.47Z" fill="white"/>
</mask>
<g mask="url(#mask10_12781_108262)">
<path d="M62.7 152.34C61.84 152.6 60.81 152.96 59.96 152.47C59.64 152.29 59.36 152 59.3 151.63C59.24 151.26 59.45 150.85 59.73 150.6C60.37 150.04 61.39 150.1 62.13 150.41C62.87 150.72 63.35 151.3 63.82 151.92C63.98 152.13 64.31 152.01 64.26 151.74C64.11 150.96 63.47 150.35 62.79 149.98C62.06 149.58 61.18 149.41 60.36 149.6C59.54 149.79 58.8 150.41 58.68 151.28C58.58 152.09 59.13 152.78 59.85 153.09C60.84 153.52 61.95 153.22 62.85 152.72C63.05 152.61 62.92 152.28 62.69 152.35L62.7 152.34Z" fill="#231F20"/>
</g>
<mask id="mask11_12781_108262" style="mask-type:luminance" maskUnits="userSpaceOnUse" x="-1" y="0" width="177" height="220">
<path d="M172.56 82.0404C172.56 82.0404 183.18 34.0204 162.07 13.5304C140.96 -6.96963 113.74 9.93037 85.9799 6.75037C58.2 3.56037 30.8099 -11.1896 9.72995 18.9804C-11.3501 49.1504 8.07995 73.2704 10.0099 114.98C11.9399 156.7 -0.960051 188.57 9.40995 206.27C19.7799 223.97 33.4599 220.86 57.2599 216.15C81.0699 211.45 85.7399 216.1 116.08 218.5C146.42 220.9 164.14 209.08 168.32 190.74C172.49 172.4 164.98 147.26 172.56 82.0304V82.0404Z" fill="white"/>
</mask>
<g mask="url(#mask11_12781_108262)">
<path d="M175.89 233.231C175.32 232.771 129.43 215.571 80.6399 172.131C80.6399 172.131 85.0499 165.631 89.9299 157.261C94.8099 148.891 97.3599 146.111 99.6899 147.271C102.02 148.431 141.51 171.661 210.27 187.691C279.04 203.721 192.38 246.471 175.89 233.221V233.231Z" fill="#12BAAC"/>
<path d="M95.8399 173.771C96.1899 174.421 95.9899 175.231 95.4099 175.681C94.8299 176.131 93.9499 176.251 93.3299 175.851C92.7099 175.451 92.6199 174.581 92.9899 173.991C93.3599 173.401 94.1899 173.051 94.8699 173.171C95.2599 173.241 95.5999 173.461 95.8099 173.801C96.0399 174.181 96.0199 174.531 95.9599 174.951C95.9399 175.121 95.9899 175.281 96.1599 175.351C96.3099 175.411 96.4999 175.361 96.5799 175.211C96.8399 174.731 96.7599 174.121 96.5399 173.641C96.3199 173.161 95.9099 172.781 95.4299 172.581C94.4799 172.191 93.2599 172.551 92.5999 173.321C91.8999 174.141 91.8599 175.421 92.6399 176.211C93.4199 177.001 94.6899 176.971 95.5699 176.441C96.0799 176.131 96.4899 175.621 96.5899 175.021C96.6799 174.491 96.5299 173.861 96.0299 173.591C95.9099 173.521 95.7799 173.661 95.8399 173.781V173.771Z" fill="#AFDFDE"/>
<mask id="mask12_12781_108262" style="mask-type:luminance" maskUnits="userSpaceOnUse" x="80" y="147" width="157" height="89">
<path d="M175.89 233.231C175.32 232.771 129.43 215.571 80.6399 172.131C80.6399 172.131 85.0499 165.631 89.9299 157.261C94.8099 148.891 97.3599 146.111 99.6899 147.271C102.02 148.431 141.51 171.661 210.27 187.691C279.04 203.721 192.38 246.471 175.89 233.221V233.231Z" fill="white"/>
</mask>
<g mask="url(#mask12_12781_108262)">
<path d="M101.71 195.93C102.96 192.88 104.17 189.81 105.51 186.81C106.85 183.81 108.26 180.94 109.79 178.09C112.86 172.35 116.38 166.84 120.31 161.65C121.42 160.18 122.57 158.74 123.75 157.32C124.93 155.9 126.23 154.61 127.29 153.15C127.66 152.64 126.88 152.12 126.45 152.51C125.22 153.6 124.19 154.98 123.14 156.24C122.09 157.5 121.08 158.76 120.09 160.05C118.09 162.64 116.2 165.31 114.42 168.05C110.82 173.58 107.66 179.41 105.05 185.46C103.59 188.84 102.26 192.27 101.28 195.82C101.2 196.11 101.61 196.2 101.72 195.94L101.71 195.93Z" fill="#231F20"/>
</g>
</g>
</g>
<defs>
<clipPath id="clip0_12781_108262">
<rect width="236.44" height="235.74" fill="white"/>
</clipPath>
</defs>
</svg>
