<svg width="174" height="221" viewBox="0 0 174 221" fill="none" xmlns="http://www.w3.org/2000/svg">
<g clip-path="url(#clip0_12781_107806)">
<path d="M1.90005 78.5299C1.90005 78.5299 -7.08995 32.6499 14.05 12.7399C35.19 -7.17009 57.51 14.7999 85.28 11.6699C113.05 8.53991 142.67 -14.6401 163.7 14.5899C184.73 43.8199 166.44 74.8999 164.45 115.35C162.46 155.81 175.31 186.7 164.91 203.88C154.52 221.06 138.76 223.24 114.96 218.71C91.16 214.18 84.3501 213.06 54 215.44C23.65 217.82 9.93005 203.84 5.79005 186.06C1.65005 168.28 9.38005 141.75 1.90005 78.5099V78.5299Z" fill="#FAD429"/>
<path d="M35.66 173.92C36.17 174.05 34.43 174.69 20.24 168.25C14.26 165.54 12.73 165.07 12.73 165.07C12.73 165.07 18.04 146.85 20.87 137.41C23.7 127.97 30.94 100.58 30.94 100.58C30.94 100.58 38.18 118.52 38.49 119.47C38.8 120.42 35.66 173.92 35.66 173.92Z" fill="#231F20"/>
<path d="M29.38 190.71C29.38 190.71 39.53 188.17 50.52 190.71C61.51 193.25 66.17 187.33 66.17 187.33C66.17 187.33 71.67 192.83 83.51 189.44C95.35 186.06 100.85 186.9 106.35 189.02C111.85 191.13 118.61 189.87 121.15 185.64C121.15 185.64 126.65 192.83 137.64 187.33C148.64 181.83 152.86 185.22 152.86 185.22C152.86 185.22 147.79 179.3 150.32 170.84C152.86 162.38 150.74 153.92 144.4 152.66C144.4 152.66 155.4 149.28 154.55 134.05C153.7 118.83 150.74 115.02 152.86 95.1398C154.97 75.2598 153.71 67.6498 148.21 64.6898C148.21 64.6898 154.55 63.4198 153.28 48.6198C152.01 33.8198 154.13 32.5498 154.13 32.5498C154.13 32.5498 145.25 35.9298 137.21 32.5498C129.17 29.1698 118.6 31.6998 117.33 35.9298C117.33 35.9298 114.37 28.7398 102.53 32.5498C90.69 36.3598 86.04 36.3598 76.73 33.8198C67.42 31.2798 61.51 33.8198 59.81 38.4698C59.81 38.4698 56.43 31.2798 45.01 34.2398C33.59 37.1998 31.9 36.7798 27.25 35.0898C27.25 35.0898 30.63 40.1598 28.1 50.3098C25.57 60.4598 34.02 65.9598 34.02 65.9598C34.02 65.9598 22.18 76.5298 26.83 97.6798C31.48 118.82 29.79 128.97 28.52 134.9C27.25 140.83 27.67 153.51 34.44 158.58C34.44 158.58 28.76 160.05 28.53 172.31C28.43 177.64 31.99 184.59 29.37 190.72L29.38 190.71Z" fill="#7B55A3"/>
<path d="M51.3699 171.25C51.3699 171.25 77.59 169.98 91.97 169.98C106.35 169.98 135.53 167.44 135.53 167.44C135.53 167.44 137.64 126.84 138.07 111.19C138.5 95.5396 138.07 48.5996 138.07 48.5996C138.07 48.5996 113.12 49.8696 95.7799 49.8696C78.4399 49.8696 45.45 51.9796 45.45 51.9796C45.45 51.9796 46.72 98.0796 46.72 114.57C46.72 131.06 51.3699 171.24 51.3699 171.24V171.25Z" fill="#F2F1F1"/>
<path d="M40.9999 56.7603C40.5499 56.9103 33.2399 59.7503 32.6399 55.5703C32.0399 51.3903 39.3599 50.6403 39.3599 50.6403C39.3599 50.6403 32.3399 44.6703 35.4799 41.9803C38.6099 39.2903 43.99 47.0603 43.99 47.0603C43.99 47.0603 43.8399 38.7003 48.7699 39.1503C53.6999 39.6003 52.3499 47.6603 52.3499 47.6603" stroke="#C1B0D6" stroke-miterlimit="10"/>
<path d="M62.35 45.8597C62.35 45.8597 66.23 41.5297 72.95 41.5297C79.67 41.5297 80.56 46.7497 86.98 46.6097C93.4 46.4597 92.06 41.0897 90.26 40.0397C88.46 38.9897 85.04 40.4897 86.38 42.8797" stroke="#C1B0D6" stroke-miterlimit="10"/>
<path d="M126.09 45.26C126.09 45.26 122.66 41.23 116.54 43.17C110.42 45.11 101.46 48.84 97.58 45.71C93.7 42.58 97.73 37.95 100.57 39.44C103.41 40.93 101.02 43.17 101.02 43.17" stroke="#C1B0D6" stroke-miterlimit="10"/>
<path d="M130.72 45.4102C130.72 44.9602 128.33 38.9902 131.32 37.9502C134.31 36.9102 136.69 39.7402 137.44 43.0302C137.44 43.0302 143.71 36.1602 147.44 39.0002C151.17 41.8402 144.01 49.1502 144.01 49.1502C144.01 49.1502 151.18 50.1902 149.98 54.6702C148.78 59.1502 142.96 57.0602 142.96 57.0602" stroke="#C1B0D6" stroke-miterlimit="10"/>
<path d="M143.28 71.9697C143.28 72.3397 147.88 78.0697 145.89 87.6497C143.9 97.2297 139.79 98.9697 141.53 104.45C143.27 109.93 149.74 106.94 148 102.71C148 102.71 146.88 99.9697 144.02 101.34" stroke="#C1B0D6" stroke-miterlimit="10"/>
<path d="M127.48 174.3C127.48 174.3 126.29 183.79 130.25 183.53C134.21 183.27 134.73 175.09 134.73 175.09C134.73 175.09 139.74 181.95 143.83 179.44C147.92 176.93 140.53 170.21 140.53 170.21C140.53 170.21 148.57 169.55 147.39 165.46C146.2 161.37 140.14 163.75 140.14 163.75" stroke="#C1B0D6" stroke-miterlimit="10"/>
<path d="M142.27 148.54C142.27 148.54 147.91 143.13 146.78 133.43C145.65 123.73 140.24 121.93 140.92 117.42C141.6 112.91 145.66 112.46 147.46 114.49C149.26 116.52 147.46 120.13 145.43 119.23" stroke="#C1B0D6" stroke-miterlimit="10"/>
<path d="M56.36 174.92C56.36 174.92 59.74 183.26 56.13 184.84C52.52 186.42 49.82 178.75 49.82 178.75C49.82 178.75 43.51 185.51 39.67 182.36C35.83 179.21 43.73 173.34 43.73 173.34C43.73 173.34 34.49 171.09 35.61 167.48C36.73 163.87 45.53 166.8 45.53 166.8" stroke="#C1B0D6" stroke-miterlimit="10"/>
<path d="M63.35 175.37C63.35 175.37 67.18 179.88 73.72 178.53C80.26 177.18 82.29 173.34 87.25 174.7C92.21 176.06 91.76 181.24 87.93 181.92C84.1 182.6 85 178.99 85 178.99" stroke="#C1B0D6" stroke-miterlimit="10"/>
<path d="M121.98 174.92C121.98 174.92 119.95 180.78 112.28 179.88C104.61 178.98 103.04 174.47 97.62 175.6C92.21 176.73 94.46 183.49 98.07 182.14C101.68 180.79 99.2 178.76 99.2 178.76" stroke="#C1B0D6" stroke-miterlimit="10"/>
<path d="M43.06 153.05C43.06 153.05 36.75 145.38 37.87 137.04C39 128.7 44.41 127.8 42.61 121.03C40.81 114.26 34.49 116.75 34.94 121.26C35.39 125.77 38.55 124.64 38.55 124.64" stroke="#C1B0D6" stroke-miterlimit="10"/>
<path d="M39.9 72.3301C39.9 72.3301 34.94 78.6401 35.62 86.0801C36.3 93.5201 43.74 96.2301 43.74 104.57C43.74 112.91 37.2 111.79 35.62 108.63C34.04 105.47 36.52 102.99 38.55 103.44" stroke="#C1B0D6" stroke-miterlimit="10"/>
<mask id="mask0_12781_107806" style="mask-type:luminance" maskUnits="userSpaceOnUse" x="45" y="48" width="94" height="124">
<path d="M51.3699 171.25C51.3699 171.25 77.59 169.98 91.97 169.98C106.35 169.98 135.53 167.44 135.53 167.44C135.53 167.44 137.64 126.84 138.07 111.19C138.5 95.5396 138.07 48.5996 138.07 48.5996C138.07 48.5996 113.12 49.8696 95.7799 49.8696C78.4399 49.8696 45.45 51.9796 45.45 51.9796C45.45 51.9796 46.72 98.0796 46.72 114.57C46.72 131.06 51.3699 171.24 51.3699 171.24V171.25Z" fill="white"/>
</mask>
<g mask="url(#mask0_12781_107806)">
<path d="M93.04 120.8C93.04 120.8 85.57 119.56 84.33 110.84C83.09 102.12 88.81 103.87 88.06 94.9101C87.31 85.9501 88.06 81.7201 91.79 76.4901C95.52 71.2601 91.54 68.5201 98.01 62.8001C104.48 57.0801 109.21 61.3101 109.21 61.3101C109.21 61.3101 110.95 57.3301 117.18 57.3301C123.41 57.3301 125.64 60.3201 126.39 62.3101C127.14 64.3001 128.13 65.7901 132.86 66.2901C137.59 66.7901 145.56 72.2601 144.06 83.9601C144.06 83.9601 151.03 85.7001 150.28 97.1501C149.53 108.6 159.24 118.56 143.31 126.77C127.38 134.98 93.03 120.8 93.03 120.8H93.04Z" fill="#AFDFDE"/>
<path d="M78.8899 138.97C79.2199 138.48 83.6399 120.32 90.9999 118.35C98.3599 116.38 108.83 116.22 111.78 110.5C114.73 104.77 119.47 112.3 119.47 112.3L122.74 115.25C122.74 115.25 124.87 116.56 132.07 118.03C139.27 119.5 143.85 120.48 149.25 133.57C154.65 146.66 146.8 170.55 146.8 170.55C146.8 170.55 92.6399 171.86 91.9899 171.86C91.3399 171.86 76.9399 163.68 76.9399 162.53V161.38L78.8999 138.96L78.8899 138.97Z" fill="#231F20"/>
<path d="M104.6 115.7C104.42 114.89 107.63 114.51 108.03 110.95C108.43 107.39 109.08 105.02 107.77 104.49C106.46 103.96 103.16 103.7 101.18 101.06C99.2 98.42 99.73 80.1 99.73 80.1C99.73 80.1 107.51 76.01 109.09 71.13C109.09 71.13 110.94 70.08 112.78 72.58C114.62 75.08 115.68 76.93 117.92 76.93C120.16 76.93 123.46 77.46 124.51 79.7C125.56 81.94 126.36 85.63 128.73 86.03C128.73 86.03 132.16 83.79 133.21 87.35C133.89 89.66 131.23 90.78 129.39 90.65C129.39 90.65 129.65 95 128.73 97.9C127.81 100.8 125.43 102.12 124.38 102.91C123.33 103.7 123.06 105.28 123.06 107.79C123.06 110.3 122.93 114.65 126.09 116.62C126.09 116.62 122.66 126.9 114.62 126.77C114.62 126.77 106.97 126.64 104.6 115.7Z" fill="#E2A86A"/>
<path d="M108.15 99.0701C108.15 99.0701 108.73 97.0001 111.92 96.9701C115.11 96.9401 116.6 98.7401 116.6 98.7401C116.6 98.7401 116.33 102.44 112.93 102.61C109.53 102.78 108.31 100.84 108.14 99.0801L108.15 99.0701Z" fill="#ED2690"/>
<path d="M111.09 87.1201C111.17 87.7901 111.15 88.4501 110.87 89.0801C110.61 89.6601 110.18 90.1901 109.63 90.5001C109.08 90.8101 108.42 91.0301 108 91.5401C107.49 92.1401 107.51 92.98 107.94 93.63C108.14 93.93 108.41 94.1701 108.72 94.3701C109.03 94.5701 109.43 94.8001 109.8 94.8601C110.17 94.9201 110.52 94.57 110.31 94.2C110.21 94.03 109.99 93.96 109.82 93.88C109.62 93.79 109.42 93.7 109.24 93.59C108.74 93.28 108.27 92.6101 108.76 92.0801C108.96 91.8601 109.25 91.73 109.51 91.59C109.83 91.42 110.13 91.25 110.4 91.02C111.48 90.11 112.04 88.3601 111.4 87.0501C111.33 86.9001 111.06 86.9701 111.08 87.1401L111.09 87.1201Z" fill="#231F20"/>
<path d="M105.43 97.6005C106.93 99.0405 108.91 99.9106 110.97 100.161C113.03 100.411 115.11 99.9505 116.91 98.9505C117.4 98.6805 117.86 98.3605 118.3 98.0105C118.74 97.6605 119.26 97.2605 119.53 96.7505C119.66 96.5005 119.38 96.1605 119.12 96.3405C118.73 96.6105 118.43 96.9805 118.07 97.2905C117.71 97.6005 117.34 97.8705 116.95 98.1105C116.15 98.6105 115.28 98.9905 114.37 99.2405C112.48 99.7505 110.48 99.6505 108.64 98.9905C107.58 98.6205 106.58 98.0405 105.7 97.3405C105.52 97.2005 105.27 97.4305 105.44 97.6005H105.43Z" fill="#231F20"/>
<path d="M101.21 85.8505C101.57 86.1505 102.06 86.3205 102.51 86.4505C102.99 86.5905 103.48 86.6805 103.98 86.7005C104.48 86.7205 104.95 86.7005 105.43 86.6105C105.91 86.5205 106.48 86.4005 106.89 86.1305C107.15 85.9705 106.99 85.5305 106.68 85.6305C106.25 85.7605 105.85 85.9505 105.41 86.0505C104.97 86.1505 104.49 86.2005 104.02 86.1905C103.55 86.1805 103.11 86.1305 102.67 86.0205C102.23 85.9105 101.81 85.7105 101.37 85.5805C101.22 85.5305 101.07 85.7505 101.21 85.8605V85.8505Z" fill="#231F20"/>
<path d="M118.63 86.3198C119.05 86.5798 119.6 86.6598 120.08 86.7298C120.59 86.7998 121.1 86.8398 121.62 86.8298C122.14 86.8198 122.65 86.7698 123.16 86.6798C123.67 86.5898 124.2 86.4998 124.64 86.2698C124.92 86.1198 124.71 85.7298 124.44 85.7798C123.96 85.8698 123.49 86.0498 123.01 86.1398C122.53 86.2298 122.05 86.2798 121.57 86.2898C121.09 86.2998 120.62 86.2898 120.15 86.2298C119.68 86.1698 119.19 86.0298 118.71 86.0198C118.55 86.0198 118.5 86.2298 118.63 86.3098V86.3198Z" fill="#231F20"/>
<path d="M109.13 84.5501C109.23 85.6601 109.08 86.6501 108.47 87.6001C107.83 88.6001 106.79 89.1801 105.65 89.4601C104.45 89.7601 103.13 89.7601 101.9 89.5901C100.82 89.4401 99.66 89.1101 98.9 88.2801C98.08 87.4001 97.95 86.1101 97.94 84.9601C97.93 83.7101 97.94 82.2501 98.68 81.1801C100.21 78.9901 103.7 79.4701 105.89 80.1301C107.21 80.5301 108.23 81.3401 108.66 82.6801C108.89 83.3801 108.96 84.1101 108.94 84.8401C108.92 85.7601 108.72 86.6601 108.79 87.5801C108.84 88.2901 109.75 88.3901 110 87.7401C110.35 86.8501 110.43 85.8801 110.46 84.9301C110.48 84.0901 110.41 83.2301 110.17 82.4201C109.73 80.9201 108.74 79.6801 107.31 79.0401C105.88 78.4001 104.02 78.0801 102.39 78.0801C100.76 78.0801 99.2 78.5201 98.03 79.6201C96.86 80.7201 96.51 82.4501 96.44 84.0501C96.38 85.5701 96.44 87.2301 97.25 88.5701C98.84 91.2101 102.68 91.4801 105.41 91.0201C107.08 90.7401 108.67 89.9301 109.62 88.4901C110.41 87.2901 110.71 85.4301 109.64 84.3101C109.47 84.1301 109.1 84.2601 109.13 84.5201V84.5501Z" fill="#231F20"/>
<path d="M115.93 85.34C115.83 84.23 115.98 83.24 116.59 82.29C117.23 81.29 118.27 80.71 119.41 80.43C120.61 80.13 121.93 80.13 123.16 80.3C124.24 80.45 125.4 80.78 126.16 81.61C126.98 82.49 127.11 83.78 127.12 84.93C127.13 86.18 127.12 87.64 126.38 88.71C124.85 90.9 121.36 90.42 119.17 89.76C117.85 89.36 116.83 88.55 116.4 87.21C116.17 86.51 116.1 85.78 116.12 85.05C116.14 84.13 116.34 83.23 116.27 82.31C116.22 81.6 115.31 81.5 115.06 82.15C114.71 83.04 114.63 84.01 114.6 84.96C114.58 85.8 114.65 86.66 114.89 87.47C115.33 88.97 116.32 90.21 117.75 90.85C119.18 91.49 121.04 91.81 122.67 91.81C124.3 91.81 125.86 91.37 127.03 90.27C128.2 89.17 128.55 87.44 128.62 85.84C128.68 84.32 128.62 82.66 127.81 81.32C126.22 78.68 122.38 78.41 119.65 78.87C117.98 79.15 116.39 79.96 115.44 81.4C114.65 82.6 114.35 84.46 115.42 85.58C115.59 85.76 115.96 85.63 115.93 85.37V85.34Z" fill="#231F20"/>
<path d="M109.79 85.86C110.21 85.94 110.61 85.79 111.02 85.71C111.38 85.64 111.69 85.59 112.05 85.57C112.84 85.51 113.55 85.57 114.29 85.76C114.51 85.82 114.73 85.91 114.95 85.91C115.31 85.91 115.63 85.64 115.68 85.29C115.78 84.61 115.08 84.4 114.56 84.28C113.77 84.1 112.95 84.04 112.14 84.14C111.67 84.2 111.21 84.29 110.76 84.44C110.31 84.59 109.78 84.8 109.52 85.22C109.38 85.45 109.5 85.82 109.78 85.87L109.79 85.86Z" fill="#231F20"/>
<path d="M105.79 85.0503C105.79 86.0303 105.13 86.6003 104.19 86.6003C103.25 86.6003 102.7 85.9203 102.7 84.9403C102.7 83.9603 103.25 83.2803 104.19 83.2803C105.13 83.2803 105.79 84.0803 105.79 85.0603V85.0503Z" fill="#231F20"/>
<path d="M120.06 85.01C120.06 84.03 120.72 83.46 121.66 83.46C122.6 83.46 123.15 84.14 123.15 85.12C123.15 86.1 122.6 86.78 121.66 86.78C120.72 86.78 120.06 85.98 120.06 85V85.01Z" fill="#231F20"/>
<path d="M59.58 86.7203C59.58 86.7203 52.3 90.7303 46.28 84.4603C40.26 78.1903 42.6 70.0103 47.03 65.1403C52.05 59.6203 64.6 56.3603 70.37 65.3903C76.14 74.4203 68.86 78.9403 59.58 86.7203Z" fill="#231F20"/>
<path d="M59.58 86.7203C59.58 86.7203 52.3 90.7303 46.28 84.4603C40.26 78.1903 42.6 70.0103 47.03 65.1403C52.05 59.6203 64.6 56.3603 70.37 65.3903C76.14 74.4203 68.86 78.9403 59.58 86.7203Z" fill="#231F20"/>
<path d="M52.54 90.5406C52.54 90.5406 51.16 74.6406 73.24 74.8906C95.32 75.1406 64.09 97.5006 64.09 97.5006L52.54 90.5306V90.5406Z" fill="#57555F"/>
<path d="M53.8099 101.27C53.8099 101.27 47.7899 82.9503 62.5899 77.4303C77.3999 71.9103 91.4499 76.9303 89.9399 90.2303C88.4299 103.53 79.6499 109.55 78.8999 108.05C78.1499 106.55 53.8099 101.27 53.8099 101.27Z" fill="#231F20"/>
<path d="M31.4499 195.491C31.4499 194.741 26.6599 134.681 46.0299 131.631C53.8099 130.411 57.8199 131.631 61.0899 127.871C64.3599 124.111 61.7899 117.641 61.7899 117.641C61.7899 117.641 54.0699 115.071 54.0599 104.531C54.0599 104.531 50.3599 105.571 50.5399 101.271C50.6799 97.9307 54.8299 99.4307 54.8299 99.4307C54.8299 99.4307 56.3199 93.7307 61.8399 90.9707C67.3599 88.2107 73.8799 85.7007 75.6399 81.4307C75.6399 81.4307 80.1599 87.9507 89.9399 90.2107C89.9399 90.2107 91.4499 99.2407 89.9399 106.521C88.4299 113.801 86.9299 115.551 80.3999 117.061C77.4599 117.741 78.6399 123.841 78.8899 126.341C79.1399 128.851 83.3899 129.441 94.9499 131.111C114.51 133.941 113.55 189.961 113.55 189.961L110.76 194.031L32.2199 198.581L31.4399 195.471L31.4499 195.491Z" fill="#EE7A3D"/>
<path d="M65.69 96.6499C65.69 97.6299 65.03 98.1999 64.09 98.1999C63.15 98.1999 62.6 97.5199 62.6 96.5399C62.6 95.5599 63.15 94.8799 64.09 94.8799C65.03 94.8799 65.69 95.6799 65.69 96.6599V96.6499Z" fill="#231F20"/>
<path d="M81.7899 95.3898C81.7899 94.4098 82.4499 93.8398 83.3899 93.8398C84.3299 93.8398 84.8799 94.5198 84.8799 95.4998C84.8799 96.4798 84.3299 97.1599 83.3899 97.1599C82.4499 97.1599 81.7899 96.3598 81.7899 95.3798V95.3898Z" fill="#231F20"/>
<path d="M76.4599 97.4004C76.3999 97.5704 76.1699 99.6904 76.9799 100.49C77.7899 101.29 79.4999 102.04 78.9799 103.41C78.4599 104.78 76.2899 104.73 76.2899 104.73" stroke="#231F20" stroke-linecap="round" stroke-linejoin="round"/>
<path d="M70.22 110.461C70.22 110.461 72.03 108.501 74.55 108.671C77.07 108.841 78.1 110.671 78.1 110.671C78.1 110.671 78.92 113.601 74.5 114.001C70.08 114.401 70.22 110.461 70.22 110.461Z" fill="#ED2690"/>
<path d="M67.5199 108.97C67.5199 108.97 70.2099 111.38 74.4499 111.38C78.6899 111.38 80.5799 108.8 80.5199 108.97" stroke="#231F20" stroke-linecap="round" stroke-linejoin="round"/>
<path d="M53.1399 104.67C53.1399 105.52 52.4699 106.15 51.6899 106.15C50.9099 106.15 50.3199 105.52 50.3199 104.67C50.3199 103.82 50.9299 103.25 51.7099 103.25C52.4899 103.25 53.1399 103.82 53.1399 104.67Z" fill="#AFDFDE"/>
<path d="M59.0099 129.471C59.0099 129.471 72.2199 137.911 82.8299 129.111L82.6499 128.931C82.6499 128.931 73.5999 136.591 59.1899 129.291" fill="#AFDFDE"/>
<path d="M73.18 132.971C73.18 132.971 74.75 133.871 74.57 135.861C74.39 137.851 70.17 136.821 73.18 132.971Z" fill="white"/>
<mask id="mask1_12781_107806" style="mask-type:luminance" maskUnits="userSpaceOnUse" x="30" y="81" width="84" height="118">
<path d="M31.4499 195.491C31.4499 194.741 26.6599 134.681 46.0299 131.631C53.8099 130.411 57.8199 131.631 61.0899 127.871C64.3599 124.111 61.7899 117.641 61.7899 117.641C61.7899 117.641 54.0699 115.071 54.0599 104.531C54.0599 104.531 50.3599 105.571 50.5399 101.271C50.6799 97.9307 54.8299 99.4307 54.8299 99.4307C54.8299 99.4307 56.3199 93.7307 61.8399 90.9707C67.3599 88.2107 73.8799 85.7007 75.6399 81.4307C75.6399 81.4307 80.1599 87.9507 89.9399 90.2107C89.9399 90.2107 91.4499 99.2407 89.9399 106.521C88.4299 113.801 86.9299 115.551 80.3999 117.061C77.4599 117.741 78.6399 123.841 78.8899 126.341C79.1399 128.851 83.3899 129.441 94.9499 131.111C114.51 133.941 113.55 189.961 113.55 189.961L110.76 194.031L32.2199 198.581L31.4399 195.471L31.4499 195.491Z" fill="white"/>
</mask>
<g mask="url(#mask1_12781_107806)">
<path d="M45.27 130.441C45.27 130.441 58.44 142.341 75.65 140.321C92.86 138.301 96.67 126.141 96.67 126.141L111.36 130.701C111.36 130.701 127.31 200.591 126.55 200.081C125.79 199.571 32.36 203.621 31.09 203.881C29.82 204.141 21.47 162.101 21.47 162.101L37.68 122.851L45.28 130.451L45.27 130.441Z" fill="#ED2690"/>
</g>
</g>
</g>
<defs>
<clipPath id="clip0_12781_107806">
<rect width="173.72" height="220.77" fill="white"/>
</clipPath>
</defs>
</svg>
