<svg width="189" height="219" viewBox="0 0 189 219" fill="none" xmlns="http://www.w3.org/2000/svg">
<g clip-path="url(#clip0_12781_107606)">
<path d="M171.4 141.11C171.4 141.11 181.75 180.86 160.71 200.01C139.68 219.16 113.59 201.76 86 204.8C58.41 207.85 33.42 222.67 12.58 194.64C-8.25996 166.61 7.95004 144.86 10 106.02C12.05 67.1803 -4.15996 35.3903 6.19004 18.8803C16.55 2.37033 35.7 2.40033 59.33 6.71033C82.96 11.0203 89.72 12.0803 119.87 9.75033C150.02 7.42033 163.63 20.8103 167.71 37.8803C171.8 54.9403 164.07 80.4203 171.4 141.12V141.11Z" fill="#7B55A3"/>
<path d="M12.31 119.76C12.16 119.24 2.77004 85.3304 0.650038 75.4804C-1.46996 65.6304 1.70004 62.9104 8.36004 60.7304C15.02 58.5504 33.91 53.4204 39.69 52.7804C45.47 52.1404 47.97 53.1304 50.69 62.4404C53.41 71.7504 60.48 100.53 63.3 110.92C66.12 121.32 70.03 135.7 69.16 140.03C68.29 144.36 60.19 146.75 50.71 149.51C41.23 152.27 29.24 156.09 24.98 154.08C20.71 152.08 20.36 147.34 12.31 119.76Z" fill="#12BAAC"/>
<path d="M15.1501 117.511C15.1501 117.511 6.14008 85.7307 4.39008 76.5507C2.64008 67.3807 4.00008 66.2807 9.21008 64.3207C14.4201 62.3607 34.7101 56.6607 40.2801 56.0607C45.8501 55.4607 47.0901 59.3107 49.3001 67.4507C51.5101 75.5907 62.0601 117.151 63.7801 124.151C65.5001 131.151 66.8701 138.241 63.6201 140.581C60.3701 142.921 42.4801 147.231 36.7401 148.611C31.0101 149.991 26.4301 150.861 24.7001 147.881C22.9701 144.901 16.7901 122.171 15.1601 117.521L15.1501 117.511Z" fill="#F2F1F1"/>
<path d="M8.52001 64.1004C8.58001 64.3404 9.58001 64.0104 9.58001 64.0104C9.58001 64.0104 10.48 65.3104 11.57 67.0704C12.66 68.8304 13.03 70.0104 15.41 69.1704C17.79 68.3304 31.64 65.1304 33.68 64.3004C35.72 63.4704 36.1 62.9504 36.18 59.5504C36.27 56.1504 36.23 55.6504 36.23 55.6504C36.23 55.6504 9.50001 61.9904 9.28001 62.1304C9.06001 62.2704 8.51001 64.0904 8.51001 64.0904L8.52001 64.1004Z" fill="#12BAAC"/>
<path d="M26.3901 60.7706C26.7501 62.1006 26.1901 63.1906 24.8701 63.5506C23.5501 63.9106 21.9601 63.2906 21.6001 61.9606C21.2401 60.6306 22.1501 59.5506 23.4601 59.2006C24.7701 58.8506 26.0201 59.4406 26.3901 60.7706Z" fill="#F2F1F1"/>
<path d="M38.1701 122.34C38.1701 122.34 19.7801 117.95 14.7101 100.27C11.0001 87.3304 25.0601 84.0304 32.6701 92.7504C32.6701 92.7504 33.4301 93.7004 33.7801 92.4804C34.2801 90.7404 37.0201 81.9904 44.2701 83.3304C51.5201 84.6704 55.5301 95.4804 49.1801 109.32C42.7901 123.23 39.5101 122.72 38.1801 122.34H38.1701Z" fill="#ED2690"/>
<path d="M151.37 5.48041C151.37 5.48041 156.38 50.0304 157.22 56.4304C158.06 62.8304 158.89 68.8204 157.92 70.6304C156.95 72.4404 142.33 73.8304 135.92 74.2504C129.52 74.6704 96.1 78.7104 90.95 78.7104C85.8 78.7104 65.75 81.6304 64.5 80.6604C63.25 79.6904 62.41 67.2904 61.16 60.6104C59.91 53.9304 57.96 16.3404 57.68 13.4104C57.4 10.4804 58.24 11.1804 59.77 10.6304C61.3 10.0804 98.61 5.76042 104.6 4.92041C110.59 4.08041 135.92 1.58042 139.68 1.02041C143.44 0.460415 149.43 -0.509585 150.12 0.320415C150.81 1.15041 151.23 1.57041 151.37 5.47041V5.48041Z" fill="#AFDFDE"/>
<path d="M73.7 179.52C73.7 179.52 68.44 178.73 68.35 178.2C68.26 177.67 68.88 175.83 69.31 175.92C69.74 176.01 74.57 176.62 74.75 176.97C74.93 177.32 74.31 179.86 73.7 179.51V179.52Z" fill="#F48897"/>
<path d="M73.89 152.43C74.19 151.52 78.75 108.05 83.62 97.1104C88.48 86.1704 101.55 89.2104 115.84 91.0304C130.13 92.8504 153.83 98.0204 159.91 104.4C165.99 110.78 164.17 125.37 159.3 144.52C154.44 163.67 152.61 168.84 152.31 170.96C152.01 173.09 151.7 198.32 149.57 206.83C147.44 215.34 145.01 220.51 128.9 216.86C112.79 213.21 86.65 208.65 70.54 204.09C54.43 199.53 55.95 194.06 56.56 188.89C57.17 183.72 64.16 170.65 67.5 165.18C70.84 159.71 73.28 154.24 73.88 152.41L73.89 152.43Z" fill="#ED2690"/>
<path d="M81.48 138.141C81.48 138.141 84.22 115.341 86.04 105.621C87.86 95.8906 90.6 94.9806 99.41 93.7706C108.22 92.5606 138.32 100.761 145.31 102.891C152.3 105.021 159.9 108.061 158.68 119.611C157.46 131.161 153.51 146.971 152.9 151.221C152.29 155.481 149.86 161.861 145.61 162.161C141.36 162.461 123.42 158.511 111.57 156.081C99.72 153.651 96.68 152.431 90.6 151.221C84.52 150.011 80.27 149.701 81.48 138.151V138.141Z" fill="#C1B0D6"/>
<path d="M116.36 192.68C116.22 191.06 116.22 190.92 112.98 190.11C109.73 189.3 98.09 187.47 97.69 187.4C94.26 186.86 94 187.69 93.33 189.72C92.65 191.75 89.84 197.96 89.84 200.4C89.84 202.84 91.06 202.57 96.61 203.78C102.16 205 110.96 206.89 112.85 207.03C114.74 207.17 115.02 205.54 115.29 204.32C115.56 203.1 116.51 194.3 116.37 192.68H116.36ZM113.46 202.48C113.22 203.43 112.99 204.69 111.34 204.58C109.69 204.47 102.28 203.2 97.46 202.26C92.64 201.31 91.48 201.56 91.48 199.67C91.48 197.78 93.62 192.45 94.2 190.88C94.79 189.3 95.28 187.94 98.22 188.78C98.56 188.88 108.7 190.6 111.52 191.24C114.34 191.87 114.27 192.19 114.39 193.45C114.51 194.71 113.68 201.54 113.45 202.49L113.46 202.48Z" fill="#F48897"/>
<mask id="mask0_12781_107606" style="mask-type:luminance" maskUnits="userSpaceOnUse" x="56" y="89" width="108" height="130">
<path d="M73.89 152.43C74.19 151.52 78.75 108.05 83.62 97.1104C88.48 86.1704 101.55 89.2104 115.84 91.0304C130.13 92.8504 153.83 98.0204 159.91 104.4C165.99 110.78 164.17 125.37 159.3 144.52C154.44 163.67 152.61 168.84 152.31 170.96C152.01 173.09 151.7 198.32 149.57 206.83C147.44 215.34 145.01 220.51 128.9 216.86C112.79 213.21 86.65 208.65 70.54 204.09C54.43 199.53 55.95 194.06 56.56 188.89C57.17 183.72 64.16 170.65 67.5 165.18C70.84 159.71 73.28 154.24 73.88 152.41L73.89 152.43Z" fill="white"/>
</mask>
<g mask="url(#mask0_12781_107606)">
<path d="M57.5599 149.311C66.0799 151.401 74.6299 153.351 83.1799 155.331C91.7299 157.311 100.28 159.261 108.83 161.221C117.38 163.181 125.75 165.141 134.23 167.011C142.71 168.881 151.12 170.621 159.65 171.981C168.18 173.341 176.55 174.311 185.08 174.661C186.14 174.701 187.2 174.731 188.26 174.741C188.84 174.741 188.84 173.861 188.26 173.841C179.68 173.501 171.16 172.771 162.67 171.511C154.18 170.251 145.74 168.581 137.34 166.771C128.94 164.961 120.51 163.011 112.1 161.101C103.69 159.191 95.0699 157.221 86.5599 155.301C78.0499 153.381 69.4399 151.441 60.8599 149.561C59.7999 149.331 58.7299 149.111 57.6699 148.881C57.3899 148.821 57.2799 149.241 57.5499 149.311H57.5599Z" fill="#F48897"/>
</g>
<path d="M82.8199 162.77C82.8199 162.77 77.6499 162.07 77.2099 161.45C76.7699 160.83 77.8199 159 78.2599 159C78.6999 159 83.9599 159.61 84.1299 160.05C84.2999 160.49 83.0799 162.59 82.8099 162.77H82.8199Z" fill="#F48897"/>
<path d="M85.71 163.38C85.71 163.38 86.32 160.57 86.85 160.66C87.38 160.75 91.67 161.27 91.93 161.71C92.19 162.15 91.49 164.34 90.88 164.6C90.27 164.86 86.23 163.55 85.71 163.37V163.38Z" fill="#F48897"/>
<path d="M93.25 164.961C93.25 164.961 94.04 162.421 94.48 162.331C94.92 162.241 99.74 163.121 100 163.561C100.26 164.001 99.91 165.751 99.56 165.931C99.21 166.111 93.69 165.321 93.25 164.971V164.961Z" fill="#F48897"/>
<path d="M102.02 166.281C102.02 166.281 102.28 164.181 102.63 164.181C102.98 164.181 108.24 164.971 108.42 165.321C108.6 165.671 108.33 167.771 107.81 167.861C107.29 167.951 102.2 166.721 102.02 166.281Z" fill="#F48897"/>
<path d="M110.08 168.211C110.08 168.211 110.34 165.841 110.78 165.841C111.22 165.841 116.3 166.541 116.48 166.891C116.66 167.241 116.39 169.171 116.04 169.261C115.69 169.351 110.34 168.561 110.08 168.211Z" fill="#F48897"/>
<path d="M87.64 181.711C87.64 181.711 88.34 179.261 88.69 179.341C89.04 179.421 120.6 184.691 120.87 185.211C121.14 185.731 120.43 188.281 119.99 188.371C119.55 188.461 87.9 182.151 87.64 181.711Z" fill="#F48897"/>
<path d="M118.5 169.781C118.5 169.781 118.68 167.76 119.03 167.68C119.38 167.6 124.47 168.561 124.55 168.911C124.63 169.261 124.55 170.931 124.2 171.191C123.85 171.451 118.59 170.23 118.5 169.79V169.781Z" fill="#F48897"/>
<path d="M126.21 171.541C126.21 171.541 126.3 169.351 126.65 169.351C127 169.351 131.65 170.051 131.73 170.311C131.81 170.571 131.82 172.591 131.38 172.761C130.94 172.931 126.38 171.881 126.21 171.531V171.541Z" fill="#F48897"/>
<path d="M134.02 173.55C133.85 173.33 134.02 170.74 134.37 170.92C134.72 171.1 138.05 171.27 138.14 171.71C138.23 172.15 138.05 174.08 137.7 174.25C137.35 174.42 134.28 173.9 134.02 173.55Z" fill="#F48897"/>
<path d="M140.15 174.781C139.95 174.581 140.33 172.151 140.68 172.241C141.03 172.331 144.45 172.941 144.63 173.201C144.81 173.461 144.63 175.831 144.19 175.921C143.75 176.011 140.42 175.041 140.16 174.781H140.15Z" fill="#F48897"/>
<path d="M133.23 176.62C133.23 176.62 144.45 178.81 144.71 179.07C144.97 179.33 145.15 181.26 144.53 181.52C143.91 181.78 132.78 179.42 132.61 178.98C132.44 178.54 133.14 176.7 133.22 176.61L133.23 176.62Z" fill="#F48897"/>
<path d="M131.82 184.86C131.82 184.86 131.91 182.49 132.35 182.41C132.79 182.33 144.45 184.6 144.8 184.78C145.15 184.96 145.24 186.97 144.71 187.32C144.18 187.67 136.99 186.18 134.98 185.74C132.97 185.3 132.09 185.39 131.82 184.86Z" fill="#F48897"/>
<path d="M85.27 181.62C85.27 181.62 76.59 180.48 76.33 180.04C76.07 179.6 76.86 177.5 77.21 177.5C77.56 177.5 85.89 178.38 86.15 178.99C86.41 179.6 85.8 181.62 85.27 181.62Z" fill="#F48897"/>
<path d="M122.53 188.55C122.53 188.55 122.88 185.48 123.23 185.66C123.58 185.84 129.37 186.71 129.45 186.98C129.53 187.25 129.36 190.05 128.92 190.05C128.48 190.05 122.78 188.82 122.52 188.56L122.53 188.55Z" fill="#F48897"/>
<path d="M131.47 190.041C131.58 189.711 131.38 187.411 131.82 187.501C132.26 187.591 136.38 188.031 136.47 188.461C136.56 188.891 136.56 190.911 136.03 191.091C135.5 191.271 131.38 190.301 131.47 190.041Z" fill="#F48897"/>
<path d="M138.4 191.35C138.4 191.09 138.4 188.98 138.84 188.98C139.28 188.98 144.19 189.59 144.28 189.94C144.37 190.29 144.28 191.96 143.93 192.13C143.58 192.3 138.41 191.78 138.41 191.34L138.4 191.35Z" fill="#F48897"/>
<path d="M78.1699 173.47C78.1699 173.47 72.0299 172.86 71.7699 172.33C71.5099 171.8 72.3799 169.7 72.7299 169.79C73.0799 169.88 78.7799 170.4 78.9499 170.84C79.1199 171.28 78.5999 173.56 78.1599 173.47H78.1699Z" fill="#F48897"/>
<path d="M80.98 173.821C80.98 173.821 81.42 171.281 81.77 171.371C82.12 171.461 87.91 172.161 87.99 172.771C88.07 173.381 87.81 174.701 87.29 175.141C86.77 175.581 81.5 174.091 80.98 173.821Z" fill="#F48897"/>
<path d="M89.83 175.48C89.83 175.48 90.18 173.11 90.53 173.29C90.88 173.47 97.02 174.25 97.02 174.69C97.02 175.13 96.93 176.88 96.41 177.06C95.89 177.24 90.1 176.01 89.83 175.48Z" fill="#F48897"/>
<path d="M98.6799 177.24C98.6799 177.24 99.2099 174.96 99.4699 175.05C99.7299 175.14 105.87 175.93 105.78 176.37C105.69 176.81 105.78 178.91 105.08 179C104.38 179.09 99.1199 177.77 98.6799 177.25V177.24Z" fill="#F48897"/>
<path d="M107.36 179.251C107.22 179.021 107.54 176.971 107.97 176.971C108.4 176.971 114.46 177.761 114.37 178.201C114.28 178.641 114.28 180.651 113.76 180.651C113.24 180.651 107.62 179.691 107.36 179.251Z" fill="#F48897"/>
<path d="M116.13 180.741C116.13 180.741 116.13 178.721 116.57 178.811C117.01 178.901 122.27 179.511 122.27 179.951C122.27 180.391 122.45 182.231 121.66 182.231C120.87 182.231 115.96 181.791 116.14 180.741H116.13Z" fill="#F48897"/>
<path d="M123.93 182.5C123.93 182.5 124.02 180.31 124.46 180.4C124.9 180.49 130.33 181.45 130.25 181.98C130.17 182.51 130.6 184.17 129.81 184.17C129.02 184.17 123.85 183.47 123.94 182.5H123.93Z" fill="#F48897"/>
<path d="M125.41 174.58C125.41 174.58 130.58 175.28 131.02 175.9C131.46 176.52 130.86 178.29 130.42 178.29C129.98 178.29 124.9 177.76 124.72 177.33C124.54 176.9 125.14 174.76 125.41 174.59V174.58Z" fill="#F48897"/>
<path d="M123.06 174.08C123.06 174.08 122.88 176.8 122.36 176.71C121.84 176.62 117.1 175.92 116.84 175.48C116.58 175.04 116.93 173.2 117.54 172.94C118.15 172.68 122.54 173.9 123.06 174.08Z" fill="#F48897"/>
<path d="M114.98 172.391C114.98 172.391 114.82 174.961 114.38 175.041C113.94 175.121 108.51 174.251 108.24 173.811C107.97 173.371 108.59 171.441 108.94 171.271C109.29 171.101 114.54 172.031 114.97 172.391H114.98Z" fill="#F48897"/>
<path d="M106.58 170.75C106.58 170.75 106.4 173.29 106.05 173.29C105.7 173.29 100.09 172.41 99.91 172.06C99.73 171.71 100.26 169.61 100.79 169.52C101.32 169.43 106.4 170.31 106.58 170.75Z" fill="#F48897"/>
<path d="M98.33 169.171C98.33 169.171 97.88 171.511 97.44 171.511C97 171.511 91.92 170.811 91.74 170.461C91.56 170.111 91.83 168.181 92.18 168.091C92.53 168.001 98.07 168.821 98.33 169.171Z" fill="#F48897"/>
<path d="M89.73 167.57C89.73 167.57 89.55 169.59 89.2 169.67C88.85 169.75 83.76 168.79 83.68 168.44C83.6 168.09 83.68 166.42 84.03 166.16C84.38 165.9 89.64 167.12 89.73 167.56V167.57Z" fill="#F48897"/>
<path d="M81.05 165.64C81.05 165.64 80.96 167.83 80.61 167.83C80.26 167.83 74.66 167.07 74.58 166.8C74.5 166.53 75.02 164.61 75.46 164.43C75.9 164.25 80.88 165.28 81.06 165.63L81.05 165.64Z" fill="#F48897"/>
<path d="M140.43 127.56C140.43 138.43 130.75 146.46 119.49 146.46C108.23 146.46 99.1 137.65 99.1 126.77C99.1 115.89 108.07 108.33 119.33 108.33C130.59 108.33 140.42 116.68 140.42 127.55L140.43 127.56Z" fill="#FAD429"/>
<path d="M139.79 110.41C140.46 109.95 141.07 109.39 141.64 108.81L142.43 108C142.81 107.61 143.35 107.21 143.34 106.62C143.34 106.16 142.95 105.73 142.47 105.75C142.06 105.77 141.81 105.96 141.54 106.24L141.14 106.67L140.35 107.53C139.8 108.13 139.26 108.77 138.83 109.46C138.67 109.71 138.72 110.1 138.94 110.3C139.16 110.5 139.52 110.59 139.78 110.41H139.79Z" fill="#FAD429"/>
<path d="M145.68 122.91C146.84 122.99 147.95 122.89 149.1 122.75C149.7 122.67 150.3 122.58 150.89 122.49C151.48 122.4 152.18 122.39 152.72 122.11C153.07 121.93 153.24 121.46 153.13 121.09C153.02 120.69 152.66 120.45 152.26 120.43C152.13 120.43 152 120.43 151.87 120.47C151.44 120.59 151.28 121 151.34 121.41C151.36 121.54 151.42 121.66 151.48 121.79L152.5 120.46C151.87 120.37 151.22 120.57 150.59 120.68C150.01 120.79 149.43 120.89 148.86 121.01C147.71 121.25 146.63 121.53 145.54 121.98C145.06 122.18 145.11 122.86 145.66 122.9L145.68 122.91Z" fill="#FAD429"/>
<path d="M144.73 138.26C145 138.67 145.41 139.02 145.79 139.34C146.22 139.7 146.66 140.04 147.11 140.38C147.52 140.69 147.94 140.99 148.36 141.28L148.99 141.72C149.12 141.81 149.24 141.9 149.38 141.96C149.62 142.06 149.87 142.05 150.12 142C150.57 141.9 150.77 141.42 150.69 141C150.56 140.36 149.83 140.07 149.32 139.75C148.88 139.48 148.44 139.22 148 138.97C147.56 138.72 147.1 138.48 146.64 138.25C146.18 138.02 145.68 137.76 145.19 137.68C144.88 137.63 144.54 137.94 144.74 138.26H144.73Z" fill="#FAD429"/>
<path d="M135.35 148.32C135.43 148.82 135.5 149.31 135.66 149.79C135.82 150.27 136 150.73 136.18 151.2C136.57 152.18 136.99 153.15 137.4 154.11L138.68 152.83C138.53 152.72 138.37 152.64 138.19 152.61C137.41 152.49 136.89 153.16 137.21 153.88C137.29 154.05 137.41 154.18 137.55 154.3C137.92 154.6 138.39 154.68 138.78 154.37C139.17 154.06 139.22 153.59 139.02 153.16C138.59 152.25 138.16 151.34 137.7 150.44C137.47 149.99 137.24 149.54 136.98 149.11C136.72 148.68 136.39 148.29 136.06 147.9C135.94 147.76 135.7 147.74 135.54 147.83C135.36 147.93 135.32 148.12 135.34 148.31L135.35 148.32Z" fill="#FAD429"/>
<path d="M125.09 150.27C124.88 150.32 124.73 150.54 124.73 150.75V150.81C124.81 150.67 124.9 150.52 124.98 150.38C124.84 150.47 124.77 150.57 124.71 150.72C124.71 150.74 124.64 150.93 124.67 150.83C124.72 150.69 124.6 151.02 124.59 151.06C124.56 151.18 124.55 151.3 124.54 151.42C124.51 151.68 124.52 151.93 124.53 152.19C124.54 152.45 124.55 152.7 124.57 152.96C124.59 153.27 124.62 153.6 124.86 153.83C125.08 154.04 125.33 154.18 125.64 154.14C125.95 154.1 126.16 153.9 126.31 153.64C126.49 153.34 126.42 153.03 126.37 152.71C126.33 152.46 126.29 152.2 126.24 151.95C126.19 151.7 126.14 151.45 126.05 151.21C126.01 151.1 125.96 150.99 125.91 150.88C125.87 150.79 125.81 150.73 125.76 150.65C125.86 150.8 125.74 150.61 125.72 150.58C125.62 150.44 125.53 150.38 125.37 150.32L125.72 150.67V150.62C125.66 150.41 125.44 150.25 125.23 150.26C125.19 150.26 125.15 150.26 125.11 150.28L125.09 150.27Z" fill="#FAD429"/>
<path d="M127.49 106.06C127.77 105.63 128.03 105.2 128.24 104.73C128.37 104.45 128.49 104.16 128.6 103.87C128.69 103.63 128.83 103.38 128.88 103.13C128.96 102.67 128.79 102.23 128.35 102.04C127.93 101.86 127.43 102.02 127.2 102.42C127.05 102.69 126.97 103.01 126.87 103.3C126.78 103.55 126.7 103.8 126.63 104.05C126.49 104.55 126.41 105.06 126.34 105.57C126.3 105.88 126.39 106.18 126.7 106.31C126.99 106.43 127.32 106.31 127.49 106.05V106.06Z" fill="#FAD429"/>
<path d="M115.17 106.06C115.26 105.61 115.19 105.16 115.14 104.71C115.09 104.22 115 103.73 114.92 103.24C114.85 102.81 114.77 102.37 114.69 101.94C114.61 101.51 114.55 101.03 114.41 100.6C114.29 100.21 113.94 99.9299 113.52 99.9199C113.34 99.9199 113.21 99.9699 113.05 100.05C112.79 100.18 112.56 100.55 112.59 100.85C112.69 101.78 112.97 102.71 113.2 103.61C113.31 104.03 113.41 104.46 113.54 104.88C113.67 105.3 113.8 105.83 114.06 106.21C114.2 106.41 114.4 106.53 114.66 106.5C114.88 106.47 115.11 106.31 115.16 106.07L115.17 106.06Z" fill="#FAD429"/>
<path d="M105.87 108.87C105.99 108.38 105.77 107.89 105.53 107.47C105.32 107.11 105.1 106.75 104.87 106.4C104.64 106.05 104.43 105.72 104.21 105.38L103.88 104.89C103.67 104.57 103.47 104.23 103.06 104.14C102.65 104.05 102.04 104.27 101.96 104.76C101.92 105.03 101.91 105.28 102.05 105.53C102.1 105.63 102.18 105.71 102.24 105.8L102.57 106.29C102.81 106.64 103.05 106.98 103.29 107.32C103.56 107.69 103.82 108.06 104.11 108.42C104.4 108.78 104.74 109.17 105.2 109.24C105.48 109.28 105.79 109.17 105.86 108.86L105.87 108.87Z" fill="#FAD429"/>
<path d="M113.49 148.55C113.48 148.61 113.47 148.68 113.45 148.74C113.45 148.77 113.43 148.8 113.42 148.82C113.42 148.84 113.37 148.94 113.42 148.84C113.47 148.74 113.42 148.84 113.4 148.87C113.37 148.94 113.34 149.01 113.31 149.09C113.29 149.15 113.27 149.22 113.24 149.28C113.15 149.53 113.07 149.78 112.97 150.02L113.06 149.81C113 149.95 112.94 150.09 112.88 150.23L112.97 150.01C112.91 150.15 112.84 150.3 112.76 150.43C112.68 150.56 112.59 150.7 112.52 150.84L113.96 150.65C113.69 150.33 113.18 150.1 112.79 150.33C112.37 150.57 112.35 151.12 112.44 151.54C112.58 152.2 113.53 152.44 113.97 151.94C114.22 151.65 114.36 151.33 114.51 150.98C114.61 150.75 114.68 150.52 114.72 150.27C114.78 149.97 114.82 149.68 114.79 149.38C114.76 149.08 114.67 148.81 114.61 148.53C114.56 148.29 114.29 148.09 114.05 148.1C113.81 148.11 113.53 148.27 113.49 148.53V148.55Z" fill="#FAD429"/>
<path d="M102.79 143.81C102.33 143.95 101.88 144.11 101.48 144.4C101.05 144.71 100.66 145.06 100.27 145.41C99.92 145.72 99.57 146.03 99.23 146.35C99.05 146.51 98.88 146.68 98.7 146.84C98.61 146.92 98.52 147 98.44 147.09C98.28 147.27 98.17 147.46 98.08 147.68C97.83 148.3 98.57 148.96 99.16 148.76C99.71 148.58 100.12 148.08 100.52 147.69C100.87 147.36 101.21 147.02 101.55 146.68C101.89 146.34 102.27 146 102.56 145.62C102.72 145.42 102.87 145.22 102.99 144.99C103.11 144.76 103.19 144.53 103.28 144.29C103.39 144.01 103.06 143.72 102.79 143.8V143.81Z" fill="#FAD429"/>
<path d="M96.67 135.51C95.49 135.76 94.29 135.97 93.12 136.28C92.55 136.43 91.97 136.59 91.41 136.76C90.8 136.94 90.14 137.08 89.56 137.36C89.16 137.56 89.02 138.11 89.19 138.5C89.38 138.93 89.81 139.12 90.26 139.03C90.83 138.92 91.4 138.62 91.94 138.42C92.52 138.2 93.09 137.96 93.66 137.73C94.78 137.26 95.86 136.71 96.95 136.19C97.34 136 97.05 135.45 96.67 135.53V135.51Z" fill="#FAD429"/>
<path d="M97.34 116.71C96.41 116.24 95.5 115.77 94.5 115.45C94.02 115.29 93.53 115.15 93.04 115.02C92.51 114.88 91.96 114.73 91.41 114.69C90.96 114.66 90.57 115.06 90.51 115.48C90.45 115.92 90.72 116.37 91.17 116.49C91.66 116.62 92.18 116.66 92.68 116.74C93.15 116.82 93.61 116.91 94.07 117.01C95.03 117.22 96 117.37 96.95 117.63C97.48 117.77 97.85 116.98 97.34 116.72V116.71Z" fill="#FAD429"/>
<path d="M93.96 126.75C93.1 126.73 92.23 126.78 91.37 126.75C90.94 126.73 90.52 126.69 90.1 126.64C89.99 126.63 89.99 126.63 90.09 126.64C90.03 126.64 89.98 126.62 89.92 126.62C89.71 126.59 89.55 126.56 89.35 126.62C88.96 126.73 88.64 127.08 88.64 127.5C88.64 128.08 89.15 128.4 89.67 128.44C89.87 128.45 90.07 128.45 90.26 128.44C90.73 128.43 91.2 128.38 91.66 128.31C92.51 128.17 93.41 127.91 94.14 127.44C94.44 127.24 94.32 126.77 93.96 126.76V126.75Z" fill="#FAD429"/>
<path d="M112.69 130.2C112.41 130.87 112.64 131.67 112.75 132.37C112.87 133.12 113.13 133.85 113.44 134.54C114.04 135.86 115.02 137.02 116.25 137.8C117.45 138.56 118.92 138.96 120.33 138.79C121.76 138.62 123.03 137.91 124.01 136.85C125.07 135.7 125.99 134.15 126.45 132.65C126.7 131.82 125.3 131.26 124.93 132.09C124.3 133.48 123.76 134.89 122.64 135.98C121.61 136.99 120.22 137.45 118.8 137.14C117.31 136.82 116.05 135.88 115.24 134.6C114.82 133.93 114.5 133.21 114.27 132.45C114.04 131.69 114.19 130.8 113.78 130.09C113.59 129.76 112.92 129.86 112.8 130.16L112.7 130.19L112.69 130.2Z" fill="#231F20"/>
<path d="M133.34 125.759C133.34 127.159 132.15 128.109 130.72 128.109C129.29 128.109 128.1 127.189 128.1 125.789C128.1 124.389 129.26 123.229 130.69 123.229C132.12 123.229 133.33 124.349 133.33 125.759H133.34Z" fill="#231F20"/>
<path d="M108.03 121.789C108.03 120.389 109.22 119.439 110.65 119.439C112.08 119.439 113.27 120.359 113.27 121.759C113.27 123.159 112.11 124.319 110.68 124.319C109.25 124.319 108.04 123.199 108.04 121.789H108.03Z" fill="#231F20"/>
<path d="M95.4 49.1202C97.92 49.0502 100.44 48.7502 102.95 48.5002C105.46 48.2502 107.99 47.9702 110.5 47.6902C115.54 47.1402 120.57 46.5702 125.61 46.0102C128.46 45.6902 131.32 45.4302 134.16 45.0502C134.69 44.9802 134.56 44.1102 134.04 44.1302C133.76 44.1302 133.51 44.1802 133.23 44.2402C132.87 44.3202 132.88 44.8802 133.23 44.9602C133.5 45.0202 133.76 45.0602 134.04 45.0702V44.1302C131.52 44.3602 129 44.7002 126.49 44.9802L118.94 45.8302C113.9 46.4002 108.87 46.9802 103.83 47.5802C101.01 47.9202 98.15 48.2202 95.36 48.7802C95.17 48.8202 95.21 49.1202 95.41 49.1202H95.4Z" fill="#231F20"/>
<path d="M134.89 52.5298C132.22 52.8998 129.54 53.1998 126.87 53.5298C124.2 53.8598 121.51 54.1898 118.83 54.5098C113.5 55.1398 108.17 55.6998 102.83 56.1998C101.33 56.3398 99.83 56.4698 98.33 56.5998C97.59 56.6598 96.85 56.7298 96.11 56.7898C95.37 56.8498 94.52 56.8298 93.79 57.0798C93.48 57.1898 93.4 57.7298 93.79 57.7998C94.46 57.9098 95.12 57.8198 95.8 57.7598C96.48 57.6998 97.16 57.6498 97.84 57.5898C99.18 57.4698 100.51 57.3498 101.85 57.2298C104.54 56.9798 107.23 56.7098 109.92 56.4098C115.29 55.8298 120.66 55.1798 126.01 54.4298C129.03 54.0098 132.03 53.4898 135.04 53.0098C135.36 52.9598 135.22 52.4898 134.91 52.5298H134.89Z" fill="#231F20"/>
<path d="M98.05 65.1402C99.12 65.1802 100.22 65.0702 101.29 65.0102C102.36 64.9502 103.45 64.8802 104.53 64.8102C106.67 64.6702 108.81 64.5102 110.94 64.3502C115.26 64.0202 119.57 63.6902 123.89 63.3502L127.5 63.0702L129.31 62.9302C129.92 62.8802 130.55 62.9102 131.1 62.6202C131.37 62.4702 131.28 62.1002 131.02 62.0102C130.5 61.8302 129.97 61.9402 129.44 61.9802L127.82 62.1102L124.58 62.3702L118.17 62.8902C113.85 63.2402 109.54 63.6002 105.22 64.0002C104.02 64.1102 102.81 64.2202 101.61 64.3502C100.41 64.4802 99.19 64.5402 98.01 64.7802C97.79 64.8202 97.8499 65.1402 98.0599 65.1502L98.05 65.1402Z" fill="#231F20"/>
<path d="M62.98 16.4502C64.92 16.3602 66.86 16.0602 68.79 15.8002C69.74 15.6702 70.69 15.5502 71.64 15.4102L73.1299 15.2002C73.5799 15.1402 74.19 15.1602 74.57 14.9102C74.86 14.7202 74.82 14.2702 74.47 14.1602C74.02 14.0302 73.45 14.2102 73 14.2802L71.58 14.4902C70.61 14.6302 69.65 14.7802 68.68 14.9302C66.76 15.2202 64.81 15.4802 62.92 15.9502C62.65 16.0202 62.7 16.4502 62.99 16.4402L62.98 16.4502Z" fill="#231F20"/>
<path d="M62.96 20.8204C63.21 20.8404 63.45 20.9004 63.71 20.9204C63.97 20.9404 64.21 20.9404 64.46 20.9504C64.94 20.9604 65.41 20.9704 65.89 20.9704C66.86 20.9704 67.84 20.9604 68.81 20.9404C69.78 20.9204 70.72 20.9104 71.67 20.8904L73.16 20.8604C73.64 20.8504 74.18 20.9104 74.63 20.7304C74.98 20.5904 75.01 20.1204 74.63 19.9904C74.17 19.8304 73.64 19.9104 73.16 19.9204L71.67 19.9604C70.7 19.9804 69.72 20.0104 68.75 20.0404C67.78 20.0704 66.8 20.1004 65.83 20.1504C65.33 20.1704 64.84 20.2004 64.34 20.2404C64.11 20.2604 63.88 20.2804 63.66 20.3004C63.41 20.3304 63.17 20.4004 62.92 20.4304C62.67 20.4604 62.76 20.8104 62.97 20.8304L62.96 20.8204Z" fill="#231F20"/>
<path d="M124.37 24.9701C124.37 29.5901 119.79 32.7901 115.51 32.8301C107.95 33.1801 104.97 23.4801 110.27 18.6801C115.68 13.4901 124.39 17.6401 124.38 24.9601L124.37 24.9701ZM123.24 24.9701C123.24 18.6301 115.71 14.9301 110.98 19.4501C106.35 23.5701 108.78 32.3001 115.48 31.8401C119.21 31.7801 123.29 28.9401 123.24 24.9701Z" fill="#231F20"/>
<path d="M111.76 26.6999C108.95 21.5599 116.83 16.4599 119.84 22.0599C122.49 27.5699 115.2 31.7399 111.76 26.6999ZM112.64 26.1599C115.16 30.0799 120.78 26.7899 118.69 22.6999C116.42 18.6299 110.81 22.4799 112.64 26.1599Z" fill="#231F20"/>
<path d="M91.03 32.31C91.55 31.07 92.95 30.21 94.28 30.18C95.86 30.14 96.83 31.43 98.15 32.05C98.83 32.37 99.59 32.5 100.32 32.25C100.97 32.03 101.51 31.6 102.02 31.15C102.5 30.73 102.96 30.27 103.54 29.99C104.22 29.66 104.89 29.86 105.52 30.2C106.32 30.63 107.03 31.13 107.96 31.21C108.74 31.28 109.59 31 109.95 30.25C110.21 29.71 109.4 29.23 109.14 29.77C108.88 30.31 108.19 30.33 107.66 30.2C106.86 30 106.21 29.43 105.46 29.11C104.71 28.79 103.94 28.78 103.21 29.11C102.6 29.38 102.09 29.84 101.6 30.28C101.15 30.68 100.67 31.14 100.09 31.34C99.3899 31.58 98.74 31.34 98.15 30.96C97.48 30.55 96.89 30.02 96.18 29.67C95.52 29.34 94.7899 29.2 94.0599 29.28C92.4299 29.46 90.96 30.54 90.57 32.17C90.49 32.49 90.9299 32.59 91.0599 32.3L91.03 32.31Z" fill="#231F20"/>
<path d="M89.39 28.3298C89.91 28.0198 90.25 27.4698 90.76 27.1298C91.27 26.7898 91.8 26.5498 92.38 26.4198C92.96 26.2898 93.59 26.2698 94.18 26.4098C94.88 26.5698 95.46 26.9398 96.05 27.3298C97.32 28.1798 99.01 29.0198 100.39 27.8798C100.91 27.4498 101.24 26.7798 101.85 26.4398C102.46 26.0998 103.17 26.1998 103.8 26.3998C104.63 26.6598 105.32 27.1898 106.14 27.4698C106.84 27.7198 108.13 27.5698 108.13 26.5898C108.13 26.3298 107.81 26.1098 107.57 26.2698C107.33 26.4298 107.14 26.6298 106.85 26.6398C106.45 26.6598 106.07 26.4098 105.74 26.2298C105.09 25.8698 104.4 25.5398 103.67 25.3798C102.94 25.2198 102.15 25.2298 101.46 25.5798C100.84 25.8998 100.46 26.4798 99.99 26.9698C98.75 28.2598 97.14 26.8698 95.99 26.1698C94.84 25.4698 93.49 25.2098 92.15 25.5298C91.46 25.6998 90.81 26.0098 90.25 26.4498C89.74 26.8498 89.1 27.4698 89.12 28.1598C89.12 28.2998 89.28 28.3998 89.41 28.3298H89.39Z" fill="#231F20"/>
<path d="M89.3 24.4804C89.84 24.0704 90.34 23.6604 90.97 23.3804C91.6 23.1004 92.25 22.9904 92.92 23.0104C93.59 23.0304 94.26 23.2304 94.88 23.5404C95.56 23.8904 96.23 24.3104 96.98 24.5104C97.73 24.7104 98.47 24.6204 99.14 24.2404C99.77 23.8804 100.25 23.3304 100.84 22.9304C102.07 22.0804 103.65 22.1704 104.85 23.0204C105.53 23.5004 106.21 24.0904 107.1 24.0604C107.83 24.0404 108.67 23.6404 108.54 22.8004C108.5 22.5404 108.16 22.5104 108 22.6604C107.6 23.0404 107.17 23.2604 106.61 23.0504C105.91 22.7904 105.39 22.1804 104.73 21.8504C103.39 21.1904 101.71 21.2504 100.45 22.0704C99.85 22.4604 99.37 23.0104 98.75 23.3904C98.13 23.7704 97.52 23.7404 96.87 23.4904C96.15 23.2204 95.5 22.7804 94.79 22.4804C94.17 22.2204 93.51 22.1004 92.84 22.1204C92.08 22.1504 91.35 22.3404 90.67 22.6804C89.99 23.0204 89.34 23.5404 89.04 24.2104C88.97 24.3704 89.13 24.6104 89.31 24.4804H89.3Z" fill="#231F20"/>
<path d="M145.43 26.0101C145.38 25.2801 145.98 24.7801 146.78 24.4201C146.71 23.7201 146.64 22.9701 146.55 22.1901C145.84 22.1201 145.27 21.8901 145.16 21.3301C145.05 20.7601 145.58 20.3201 146.31 19.9801C146.23 19.2401 146.14 18.5001 146.06 17.7601C145.16 17.6601 144.43 17.3901 144.36 16.8101C144.26 16.0301 144.87 15.5501 145.77 15.2601C145.69 14.6201 145.62 14.0001 145.55 13.4201C144.69 13.3201 143.98 13.0401 143.91 12.3701C143.83 11.6001 144.39 11.1301 145.24 10.8401C145.1 9.7101 145.01 8.9801 145 8.8901C144.99 8.7701 143.98 8.8101 142.47 8.9401C142.43 9.9901 142.12 10.9901 141.14 11.0701C140.25 11.1401 139.73 10.2701 139.43 9.2401C138.79 9.3101 138.13 9.3801 137.45 9.4601C137.45 10.5501 137.23 11.6201 136.46 11.7801C135.7 11.9301 135.21 10.9001 134.9 9.7601C134.32 9.8301 133.75 9.8901 133.2 9.9601C133.16 11.0701 132.93 12.1201 132.21 12.2201C131.24 12.3501 130.74 11.4801 130.48 10.2701C129.26 10.4101 128.42 10.4901 128.25 10.4801C128.14 10.4801 128.18 11.5101 128.3 13.1101C129.24 13.2301 130.19 13.6101 130.26 14.6601C130.31 15.5301 129.53 16.0001 128.58 16.2501C128.64 16.8901 128.71 17.5601 128.78 18.2501C129.75 18.3301 130.67 18.6001 130.81 19.3301C130.95 20.0601 130.06 20.4901 129.04 20.7501C129.1 21.3201 129.16 21.8901 129.22 22.4601C130.26 22.5501 131.21 22.8201 131.29 23.5101C131.41 24.4601 130.63 24.9101 129.51 25.1401C129.57 25.7101 129.64 26.2601 129.7 26.7801C130.75 26.8301 131.75 27.0901 131.84 27.9101C131.94 28.8601 131.13 29.3301 130.02 29.5601C130.16 30.7501 130.25 31.5001 130.26 31.5501C130.27 31.6201 131.29 31.5001 132.81 31.2901C132.77 30.2801 132.99 29.1901 134.11 29.1001C134.99 29.0301 135.55 29.8601 135.91 30.8401C136.55 30.7401 137.21 30.6401 137.88 30.5401C137.83 29.5501 137.99 28.6001 138.73 28.4501C139.44 28.3101 139.97 29.1601 140.35 30.1601C141.01 30.0601 141.66 29.9601 142.27 29.8601C142.31 28.7201 142.54 27.6801 143.23 27.5801C144.14 27.4501 144.65 28.2901 144.94 29.4501C146.09 29.2701 146.87 29.1601 146.98 29.1601C147.08 29.1601 147.08 28.4501 147 27.2901C146.18 27.2001 145.46 26.8701 145.41 26.0101H145.43Z" fill="#ED2690"/>
<path d="M133.48 27.5899C133.48 27.5899 131.9 13.7299 132.12 13.7299C132.34 13.7299 141.9 12.5299 142.17 12.8099C142.44 13.0899 143.75 25.5199 143.64 25.8499C143.53 26.1799 133.7 27.8099 133.48 27.5899Z" fill="#F48897"/>
<path d="M137.44 14.2004C137.44 14.2004 139.48 17.9804 139.92 19.1604C140.35 20.3404 142.34 24.7404 142.46 25.0504C142.46 25.0504 142.15 25.0504 140.66 24.2404C139.17 23.4304 138.8 23.2504 138.43 23.1204C138.43 23.1204 136.76 24.7304 136.32 25.1004C135.88 25.4704 134.77 26.5904 134.77 26.5904C134.77 26.5904 135.64 22.8104 135.95 20.7004C136.26 18.5904 137.44 14.1904 137.44 14.1904V14.2004Z" fill="#F2F1F1"/>
<path d="M136.65 22.5798C136.46 22.5798 133.69 19.0798 133.03 18.3398C133.03 18.3398 136.42 18.4898 137.23 18.2998C138.04 18.1098 141.04 17.2198 142.27 16.8398C142.27 16.8398 140.54 20.1398 140.29 21.0098C140.04 21.8798 136.65 22.5798 136.65 22.5798Z" fill="#F2F1F1"/>
</g>
<defs>
<clipPath id="clip0_12781_107606">
<rect width="188.7" height="218.05" fill="white"/>
</clipPath>
</defs>
</svg>
