<svg width="160" height="184" viewBox="0 0 160 184" fill="none" xmlns="http://www.w3.org/2000/svg">
<path d="M29.17 29.1502C28.03 27.8202 27.25 26.3102 26.86 24.6002C26.47 22.8902 26.49 21.1602 26.93 19.5202C27.37 17.8802 28.24 16.4002 29.5 15.2702C30.76 14.1402 32.25 13.4302 33.86 13.1102C35.47 12.7902 37.13 12.9002 38.65 13.4802C40.17 14.0602 41.44 15.1302 42.38 16.4102C44.34 19.1102 45 22.7602 43.58 25.8502C42.89 27.3302 41.84 28.6502 40.42 29.4902C39 30.3302 37.47 30.5802 35.92 30.3602C35.49 30.3002 35.07 30.2002 34.66 30.0702C34.07 29.8902 33.82 30.8102 34.41 30.9902C36.14 31.5102 38.02 31.5302 39.71 30.8802C41.4 30.2302 42.74 29.0602 43.71 27.5802C44.74 26.0102 45.31 24.1702 45.3 22.3002C45.29 20.4302 44.79 18.6502 43.91 17.0602C43.03 15.4702 41.79 14.1102 40.23 13.2002C38.67 12.2902 36.83 11.9002 35.03 12.0202C31.34 12.2702 27.92 14.5102 26.49 17.9602C25.06 21.4102 25.63 25.5602 27.95 28.4902C28.23 28.8402 28.53 29.1702 28.87 29.4602C29.08 29.6402 29.35 29.3702 29.17 29.1602V29.1502Z" fill="#231F20"/>
<path d="M6.76999 32.8901C4.48999 30.2601 3.70999 26.4001 4.37999 23.0201C4.70999 21.3501 5.42999 19.7701 6.65999 18.5801C7.88999 17.3901 9.49999 16.6501 11.18 16.3501C14.59 15.7301 18.18 17.0001 20.23 19.8301C22.16 22.4901 22.9 26.1901 21.77 29.3301C21.18 30.9801 20.05 32.4201 18.52 33.2901C16.99 34.1601 15.28 34.3901 13.61 34.1201C13.15 34.0501 12.7 33.9401 12.26 33.8101C11.67 33.6301 11.42 34.5501 12.01 34.7301C13.86 35.2901 15.89 35.3501 17.73 34.7001C19.57 34.0501 21.03 32.7901 21.98 31.1301C23.85 27.8901 23.53 23.7101 21.77 20.5001C20.87 18.8701 19.55 17.4401 17.92 16.5301C16.29 15.6201 14.34 15.2001 12.46 15.2801C10.58 15.3601 8.68999 15.9201 7.12999 17.0001C5.56999 18.0801 4.43999 19.6301 3.83999 21.4301C2.65999 24.9801 3.25999 29.2901 5.57999 32.2601C5.84999 32.6001 6.13999 32.9201 6.46999 33.2101C6.67999 33.3901 6.94999 33.1201 6.76999 32.9101V32.8901Z" fill="#231F20"/>
<path d="M51.12 25.4005C49.97 24.0705 49.25 22.4905 48.83 20.7905C48.41 19.0905 48.28 17.1605 48.56 15.3905C48.83 13.7405 49.44 12.1205 50.62 10.9005C51.8 9.68049 53.44 8.91049 55.12 8.58049C58.51 7.91049 62.32 8.95049 64.38 11.8405C66.32 14.5605 66.86 18.3505 65.83 21.5205C65.29 23.1705 64.28 24.7205 62.81 25.6805C61.34 26.6405 59.65 26.9005 57.99 26.6405C57.52 26.5705 57.06 26.4605 56.61 26.3205C56.02 26.1405 55.77 27.0605 56.36 27.2405C58.2 27.7905 60.22 27.8705 62.03 27.1505C63.84 26.4305 65.21 25.0705 66.09 23.3705C67.82 20.0305 67.64 15.7805 65.9 12.4805C65.03 10.8405 63.7 9.42049 62.04 8.58049C60.38 7.74049 58.36 7.35049 56.45 7.47049C54.54 7.59049 52.62 8.16049 51.06 9.30049C49.5 10.4405 48.49 11.9805 47.97 13.8005C46.94 17.4205 47.62 21.7705 49.95 24.7705C50.21 25.1105 50.5 25.4205 50.83 25.7005C51.04 25.8805 51.31 25.6105 51.13 25.4005H51.12Z" fill="#231F20"/>
<path d="M74.5999 21.33C72.3699 18.75 71.0899 15.16 71.8799 11.75C72.6699 8.34002 75.5399 5.90002 78.8699 5.32002C82.1999 4.74002 86.0899 6.10002 88.0699 8.96002C89.9199 11.63 90.3699 15.18 88.9499 18.14C88.2499 19.6 87.1899 20.88 85.7799 21.7C84.4499 22.47 82.8699 22.75 81.3499 22.53C80.9199 22.47 80.4999 22.37 80.0899 22.24C79.4999 22.06 79.2499 22.98 79.8399 23.16C81.5399 23.67 83.3899 23.7 85.0699 23.08C86.7499 22.46 88.0899 21.31 89.0699 19.86C91.1499 16.79 91.2299 12.83 89.5299 9.57002C88.7299 8.02002 87.5099 6.66002 86.0099 5.77002C84.2799 4.75002 82.1499 4.21002 80.1399 4.26002C76.3899 4.35002 72.8299 6.67002 71.4099 10.17C69.9899 13.67 70.9999 17.78 73.3499 20.63C73.6399 20.99 73.9599 21.31 74.3099 21.62C74.5199 21.8 74.7899 21.53 74.6099 21.32L74.5999 21.33Z" fill="#231F20"/>
<path d="M97.9199 18.1201C95.6399 15.4901 94.9799 11.6301 95.6699 8.27012C96.0099 6.61012 96.7199 5.05012 97.9099 3.83012C99.0999 2.61012 100.69 1.74012 102.36 1.30012C104.03 0.860121 105.76 0.840121 107.39 1.36012C109.09 1.91012 110.68 3.13012 111.78 4.53012C113.84 7.19012 113.95 10.7101 112.84 13.7801C112.23 15.4701 111.13 17.0401 109.64 18.0601C108.15 19.0801 106.48 19.5101 104.74 19.3101C104.3 19.2601 103.86 19.1601 103.43 19.0301C102.84 18.8501 102.59 19.7701 103.18 19.9501C105.08 20.5201 107.09 20.4001 108.89 19.5801C110.69 18.7601 112.11 17.3101 113.05 15.6101C114.78 12.4701 115.09 8.37012 113.34 5.18012C112.37 3.41012 110.79 1.98012 109.02 1.03012C107.39 0.150121 105.47 -0.119879 103.64 0.100121C101.81 0.320121 99.8999 1.03012 98.3799 2.19012C96.8599 3.35012 95.7699 4.86012 95.1599 6.66012C93.9799 10.1801 94.4599 14.5001 96.7599 17.4801C97.0199 17.8201 97.3099 18.1301 97.6399 18.4201C97.8499 18.6001 98.1199 18.3301 97.9399 18.1201H97.9199Z" fill="#231F20"/>
<path d="M27.35 136.52L13.85 139C13.85 139 11.36 112.1 8.52 94.7596C5.68 77.4196 0 27.8696 0 27.8696L10.3 26.8096L27.35 136.52Z" fill="#12BAAC"/>
<path d="M1.04004 26.4604C1.04004 26.4604 31.86 21.6104 43.97 19.1904C56.08 16.7704 91.75 10.8804 101.1 9.15043C110.45 7.42043 120.14 5.69043 120.14 5.69043C120.14 5.69043 128.45 44.1204 131.57 61.7804C134.69 79.4404 142.65 114.76 142.65 114.76C142.65 114.76 108.72 122.38 86.9 126.88C65.09 131.38 26.31 139.69 21.11 141.77C21.11 141.77 16.26 111.99 13.15 99.5304C10.04 87.0704 4.15004 41.3504 1.04004 26.4604Z" fill="#AFDFDE"/>
<path d="M15.3299 90.1999C22.6599 88.5399 29.9399 86.6299 37.24 84.8399C44.54 83.0499 51.9199 81.2699 59.2799 79.5499C66.5999 77.8399 73.9199 76.1399 81.2599 74.4999C88.5999 72.8599 95.9399 71.2499 103.29 69.6999C110.64 68.1499 118.08 66.6199 125.49 65.1399C126.4 64.9599 127.3 64.7499 128.2 64.5599C128.69 64.4499 128.48 63.7299 127.99 63.8099C120.59 65.0999 113.23 66.7199 105.88 68.2599C98.4899 69.8099 91.1 71.4099 83.7299 73.0499C76.3899 74.6799 69.07 76.3699 61.75 78.0999C54.4399 79.8299 47.1399 81.6499 39.8499 83.4899C32.5299 85.3399 25.1899 87.1799 17.9399 89.2699C17.0499 89.5299 16.1699 89.7999 15.2799 90.0699C15.1899 90.0999 15.2199 90.2399 15.3199 90.2199L15.3299 90.1999Z" fill="white"/>
<path d="M20.51 109.34C27.75 108.54 34.95 107.33 42.14 106.18C49.33 105.03 56.68 103.8 63.93 102.54C71.18 101.28 78.36 99.9798 85.56 98.6298C92.76 97.2798 99.96 95.8798 107.14 94.4398C114.36 92.9898 121.57 91.4798 128.77 89.9198C129.66 89.7298 130.54 89.4898 131.41 89.2298C131.81 89.1098 131.63 88.5598 131.24 88.6198C127.63 89.1098 124.07 90.0298 120.5 90.7598C116.93 91.4898 113.29 92.2498 109.68 92.9798C102.5 94.4298 95.31 95.8398 88.11 97.2098C80.91 98.5798 73.7 99.8998 66.49 101.17C59.28 102.44 52.05 103.67 44.82 104.87C37.59 106.06 30.36 107.19 23.13 108.38C22.23 108.53 21.34 108.7 20.45 108.87C20.18 108.92 20.24 109.39 20.52 109.36L20.51 109.34Z" fill="white"/>
<path d="M10.06 67.0399C13.65 66.3499 17.21 65.3699 20.76 64.5099C24.31 63.6499 27.95 62.7599 31.55 61.8899C38.68 60.1799 45.81 58.4799 52.95 56.8299C60.09 55.1799 67.31 53.5399 74.5 51.9499C81.69 50.3599 88.82 48.8199 95.99 47.3199C103.16 45.8199 110.41 44.3299 117.64 42.8899C118.53 42.7099 119.41 42.5299 120.3 42.3199C120.8 42.1999 120.58 41.4799 120.09 41.5599C116.47 42.1199 112.88 42.9399 109.3 43.6699C105.72 44.3999 102.05 45.1499 98.43 45.9099C91.26 47.4099 84.09 48.9399 76.93 50.5199C69.77 52.0999 62.55 53.7199 55.38 55.3899C48.21 57.0599 41.11 58.7499 33.99 60.4899C26.87 62.2299 19.69 64.0199 12.58 65.9399C11.7 66.1799 10.83 66.4199 9.96995 66.6999C9.74995 66.7699 9.83995 67.0899 10.07 67.0499L10.06 67.0399Z" fill="white"/>
<path d="M18.3999 47.3097C19.1399 52.6697 20.0799 58.0097 20.9399 63.3597L23.5199 79.3997C25.2399 90.0897 26.9499 100.79 28.6999 111.47C29.6799 117.46 30.5799 123.46 31.6499 129.44C31.7499 129.99 32.5699 129.75 32.4899 129.21C31.6899 123.86 30.7399 118.53 29.8599 113.19C28.9799 107.85 28.0799 102.51 27.1899 97.1797C25.4099 86.5097 23.6099 75.8297 21.8199 65.1597C20.8199 59.1797 19.8999 53.1797 18.7599 47.2197C18.7099 46.9797 18.3699 47.0897 18.3999 47.3197V47.3097Z" fill="white"/>
<path d="M37.35 44.8403C38.29 50.1103 39.43 55.3603 40.51 60.6003C41.59 65.8403 42.67 71.0903 43.75 76.3403C45.91 86.7803 48.07 97.2203 50.24 107.65C50.85 110.59 51.46 113.52 52.07 116.46L52.99 120.86C53.3 122.33 53.56 123.81 53.96 125.25C54.11 125.79 54.85 125.55 54.77 125.03C54.58 123.7 54.27 122.4 54 121.09L53.18 117.16C52.63 114.54 52.08 111.92 51.53 109.3C50.42 104.06 49.32 98.8203 48.21 93.5803C46 83.1503 43.8 72.7303 41.58 62.3103C40.95 59.3803 40.32 56.4503 39.69 53.5203C39.06 50.5903 38.46 47.6503 37.75 44.7403C37.69 44.4803 37.31 44.5903 37.35 44.8503V44.8403Z" fill="white"/>
<path d="M57.38 40.65C57.7 43.32 58.28 45.97 58.76 48.62C59.24 51.27 59.74 54 60.24 56.69C61.22 62.01 62.19 67.34 63.17 72.66C65.15 83.36 67.13 94.05 69.13 104.75C70.25 110.77 71.37 116.79 72.5 122.8C72.6 123.35 73.45 123.12 73.34 122.57C71.34 111.88 69.32 101.19 67.29 90.51C65.26 79.83 63.25 69.25 61.21 58.62C60.63 55.61 60.06 52.61 59.48 49.6C58.9 46.59 58.43 43.56 57.67 40.61C57.63 40.45 57.35 40.48 57.37 40.65H57.38Z" fill="white"/>
<path d="M75.41 37.8599C77.14 48.5799 79.12 59.2599 81.01 69.9499C82.88 80.5899 84.77 91.2199 86.66 101.86C87.18 104.81 87.7 107.77 88.23 110.72C88.5 112.22 88.77 113.73 89.04 115.23C89.31 116.73 89.53 118.25 89.91 119.72C90.01 120.12 90.7 120.05 90.65 119.62C90.51 118.28 90.24 116.96 90 115.64L89.27 111.61C88.79 108.93 88.3 106.24 87.81 103.56L84.91 87.6299C82.98 77.0099 81.04 66.3899 79.1 55.7699C78 49.7599 76.94 43.7499 75.76 37.7599C75.72 37.5299 75.38 37.6299 75.42 37.8499L75.41 37.8599Z" fill="white"/>
<path d="M91.48 34.8004C91.8 37.2304 92.31 39.6504 92.76 42.0604C93.21 44.4704 93.6699 46.9604 94.1299 49.4104C95.0499 54.3104 95.98 59.2004 96.9 64.0904C98.74 73.8304 100.59 83.5704 102.44 93.3004C103.48 98.7804 104.5 104.26 105.58 109.74C105.69 110.28 106.51 110.05 106.41 109.51C104.59 99.7704 102.66 90.0504 100.77 80.3204C98.8799 70.5904 96.9999 60.8704 95.0899 51.1404C94.5499 48.4104 94.01 45.6704 93.47 42.9404C92.93 40.2104 92.46 37.4504 91.78 34.7604C91.74 34.6004 91.45 34.6304 91.48 34.8004Z" fill="white"/>
<path d="M110.17 31.6703C110.39 34.3303 110.81 36.9803 111.16 39.6303C111.51 42.2803 111.86 44.7803 112.21 47.3503C112.93 52.6103 113.65 57.8603 114.37 63.1103C115.81 73.5603 117.25 84.0203 118.7 94.4703L119.91 103.23C120.32 106.2 120.68 109.18 121.16 112.14C121.24 112.6 122.04 112.5 121.98 112.03C121.67 109.39 121.26 106.75 120.88 104.12L119.78 96.3303C119.04 91.0803 118.3 85.8303 117.55 80.5803C116.07 70.1403 114.59 59.6903 113.1 49.2503C112.68 46.3403 112.26 43.4203 111.85 40.5103C111.44 37.6003 111.06 34.5703 110.49 31.6303C110.45 31.4503 110.15 31.4903 110.16 31.6703H110.17Z" fill="white"/>
<path d="M78.79 81.6398C74.92 80.1598 70.97 78.9198 67.29 76.9898C63.61 75.0598 60.67 72.8098 58 69.8298C55.48 67.0198 53.5 63.7098 53.17 60.0698C53.13 59.6198 53.11 59.1598 53.12 58.7098C53.12 58.4398 53.13 58.1698 53.17 57.8998C53.14 58.0498 53.1 58.2498 53.23 57.7498C53.41 57.0598 53.62 56.6998 54.16 56.1598C55.03 55.2898 56.56 54.8398 57.91 54.8098C59.82 54.7698 61.68 55.5298 63.47 56.7898C65.57 58.2598 67.3 60.2598 69 62.1598C70.44 63.7598 73.25 62.9098 73.76 60.8998C74.55 57.7998 75.31 54.2298 77.69 51.9198C79.5 50.1598 82.26 49.3398 84.03 51.2398C86.27 53.6298 85.54 57.5198 84.76 60.4498C83.87 63.7898 82.5 66.9598 80.69 69.9098C78.64 73.2598 76.01 75.9198 73.26 78.6998C72.31 79.6598 72.2 81.2398 73.05 82.2998C73.83 83.2798 75.46 83.8198 76.59 83.0098C80.22 80.3998 83.17 76.7398 85.51 72.9598C87.85 69.1798 89.52 65.1698 90.51 60.9598C91.62 56.2398 91.61 50.9398 88.06 47.2198C84.78 43.7798 79.52 43.7698 75.69 46.2898C71.18 49.2598 69.53 54.4298 68.26 59.3998L73.02 58.1398C69.37 54.0798 65.22 49.8898 59.52 49.2198C54.68 48.6498 49.29 51.0298 47.8 55.9598C46.44 60.4798 48.32 66.3398 50.97 70.0498C53.91 74.1698 57.55 77.6798 61.85 80.3598C66.57 83.2998 72 85.4098 77.51 86.1998C80.5 86.6298 81.66 82.7398 78.77 81.6298L78.79 81.6398Z" fill="#231F20"/>
<path d="M94.34 99.8697C93.97 99.3197 88.27 90.6797 88.27 89.5797C88.27 88.4797 90.11 85.3497 90.84 83.5097C91.57 81.6697 93.41 77.4397 94.7 78.3597C95.99 79.2797 103.34 93.9797 103.34 93.9797C103.34 93.9797 103.71 98.0197 102.05 98.7597C100.39 99.4997 94.33 99.8597 94.33 99.8597L94.34 99.8697Z" fill="#231F20"/>
<path d="M97.84 113.28C97.84 113.28 94.16 105.93 91.59 101.88C89.02 97.8399 91.04 96.3699 93.98 93.9799C96.92 91.5899 100.96 89.0199 103.35 88.4699C105.74 87.9199 106.11 89.2099 112.72 100.97C119.33 112.73 102.61 114.94 102.61 114.94L97.83 113.29L97.84 113.28Z" fill="#C1B0D6"/>
<path d="M119.52 159.23C119.52 159.23 109.28 141.63 102.48 129.87C95.68 118.11 92.14 110.62 92.87 109.15C93.6 107.68 98.1 103.63 103.98 100.14C109.86 96.6502 111.75 95.7302 113.59 96.8402C115.43 97.9502 124.14 112.96 131.31 124.17C138.48 135.38 147.09 149.49 152.23 157.95C157.38 166.4 158.11 166.4 158.11 169.35C158.11 172.3 154.62 175.97 148.92 178.72C143.22 181.48 138.81 184.23 135.5 181.84C132.19 179.45 126.49 169.53 119.51 159.23H119.52Z" fill="#7B55A3"/>
<mask id="mask0_12781_108163" style="mask-type:luminance" maskUnits="userSpaceOnUse" x="92" y="96" width="67" height="87">
<path d="M119.52 159.23C119.52 159.23 109.28 141.63 102.48 129.87C95.68 118.11 92.14 110.62 92.87 109.15C93.6 107.68 98.1 103.63 103.98 100.14C109.86 96.6502 111.75 95.7302 113.59 96.8402C115.43 97.9502 124.14 112.96 131.31 124.17C138.48 135.38 147.09 149.49 152.23 157.95C157.38 166.4 158.11 166.4 158.11 169.35C158.11 172.3 154.62 175.97 148.92 178.72C143.22 181.48 138.81 184.23 135.5 181.84C132.19 179.45 126.49 169.53 119.51 159.23H119.52Z" fill="white"/>
</mask>
<g mask="url(#mask0_12781_108163)">
<path d="M136.21 182.761C135.34 182.561 134.87 181.771 134.71 180.941C134.53 179.971 135.02 179.031 135.64 178.311C136.41 177.411 137.37 176.691 138.3 175.961C139.3 175.171 140.33 174.421 141.38 173.701C143.49 172.231 145.67 170.861 147.86 169.531C148.95 168.861 150.05 168.191 151.15 167.541C152.19 166.931 153.28 166.371 154.47 166.131C155.66 165.891 156.78 166.071 157.69 166.821C158.5 167.491 158.96 168.471 158.76 169.521C158.69 169.901 159.21 170.181 159.42 169.801C160.58 167.661 158.14 165.411 156.15 165.131C153.4 164.741 150.85 166.611 148.63 167.961C146.18 169.441 143.75 170.951 141.4 172.581C140.23 173.391 139.08 174.241 137.95 175.121C136.93 175.921 135.84 176.731 135.01 177.741C134.18 178.751 133.66 179.911 133.93 181.201C134.15 182.271 135.01 183.251 136.15 183.251C136.43 183.251 136.5 182.821 136.22 182.761H136.21Z" fill="#231F20"/>
</g>
<path d="M108.11 19.28C108.11 20.75 107.36 21.68 105.71 21.98C104.06 22.28 102.84 20.97 102.84 19.5C102.84 18.03 103.55 16.75 105.41 16.75C107.15 16.75 108.11 17.8 108.11 19.27V19.28Z" stroke="#231F20" stroke-miterlimit="10"/>
<path d="M82.2699 25.1001C80.8099 25.0801 79.9099 24.3301 79.6299 22.6901C79.3499 21.0501 80.66 19.8601 82.12 19.8801C83.58 19.9001 84.83 20.6201 84.8 22.4601C84.78 24.1801 83.7299 25.1201 82.2699 25.1001Z" stroke="#231F20" stroke-miterlimit="10"/>
<path d="M55.75 26.7302C55.75 28.2002 56.5 29.1302 58.15 29.4302C59.8 29.7302 61.02 28.4202 61.02 26.9502C61.02 25.4802 60.31 24.2002 58.45 24.2002C56.71 24.2002 55.75 25.2502 55.75 26.7202V26.7302Z" stroke="#231F20" stroke-miterlimit="10"/>
<path d="M36.89 33.03C38.35 32.88 39.2 32.05 39.34 30.37C39.48 28.69 38.05 27.61 36.59 27.76C35.13 27.91 33.93 28.74 34.11 30.59C34.28 32.32 35.42 33.18 36.89 33.03Z" stroke="#231F20" stroke-miterlimit="10"/>
<path d="M14.51 37.65C13.03 38.03 11.92 37.55 11.19 36.01C10.46 34.47 11.47 32.94 12.95 32.56C14.43 32.18 15.89 32.54 16.36 34.35C16.8 36.05 15.99 37.26 14.52 37.65H14.51Z" stroke="#231F20" stroke-miterlimit="10"/>
<path d="M27.8701 16.7703C28.6801 15.7803 29.5801 14.9403 30.6901 14.2903C31.8001 13.6403 32.9601 13.2403 34.1901 13.0403C36.5901 12.6503 39.1001 13.2603 40.9501 14.8603C42.8001 16.4603 44.0401 18.8403 44.3001 21.2803C44.5601 23.7203 43.7601 26.3803 42.0001 28.2303C41.1101 29.1703 39.9901 29.8603 38.7401 30.2003C37.3901 30.5603 35.9901 30.4703 34.6601 30.0803C34.0701 29.9003 33.8201 30.8203 34.4101 31.0003C37.0301 31.7903 39.8201 31.3303 41.9501 29.5803C44.0801 27.8303 45.3201 25.0303 45.3101 22.3003C45.3001 19.5703 44.1701 16.8203 42.2901 14.8403C40.4101 12.8603 37.7901 11.8403 35.0801 12.0303C32.1001 12.2303 28.9901 13.8203 27.5401 16.5303C27.4301 16.7303 27.7101 16.9803 27.8701 16.7903V16.7703Z" fill="#231F20"/>
<path d="M5.42003 19.67C6.25003 18.65 7.20003 17.83 8.38003 17.23C9.48003 16.67 10.74 16.33 11.97 16.22C14.5 16 17.12 16.72 19.02 18.45C22.61 21.74 23.69 28.23 20.19 31.97C18.15 34.16 15.06 34.63 12.28 33.8C11.69 33.62 11.44 34.54 12.03 34.72C14.78 35.55 17.81 35.2 20.09 33.37C22.37 31.54 23.31 28.79 23.27 26.05C23.23 23.31 22.22 20.54 20.39 18.48C18.56 16.42 15.79 15.25 12.99 15.25C9.95003 15.25 6.61003 16.61 5.11003 19.4C5.00003 19.6 5.28003 19.85 5.44003 19.66L5.42003 19.67Z" fill="#231F20"/>
<path d="M49.6101 11.76C50.4401 10.74 51.4001 9.95003 52.5901 9.37003C53.7801 8.79003 54.9901 8.51003 56.2401 8.41003C58.7501 8.22003 61.4601 8.86003 63.3301 10.62C65.2001 12.38 66.1201 14.83 66.3101 17.3C66.5001 19.77 65.9501 22.41 64.3201 24.34C63.4401 25.38 62.2901 26.15 60.9701 26.5C59.5301 26.88 58.0301 26.75 56.6101 26.32C56.0201 26.14 55.7701 27.06 56.3601 27.24C59.0801 28.06 62.0601 27.72 64.2301 25.79C66.4001 23.86 67.2701 21.04 67.2901 18.3C67.3101 15.56 66.4401 12.75 64.6501 10.65C62.8601 8.55003 60.0101 7.47003 57.2401 7.46003C54.4701 7.45003 51.6101 8.46003 49.8401 10.68C49.6301 10.94 49.4501 11.21 49.2901 11.51C49.1801 11.71 49.4601 11.96 49.6201 11.77L49.6101 11.76Z" fill="#231F20"/>
<path d="M72.7201 9.08985C73.5501 8.07985 74.44 7.19985 75.56 6.51985C76.68 5.83985 77.88 5.42985 79.13 5.26985C80.48 5.09985 81.8601 5.22985 83.1601 5.59985C84.4601 5.96985 85.6501 6.51985 86.6501 7.39985C88.4401 8.96985 89.56 11.2898 89.75 13.6498C89.9401 16.0098 89.09 18.6599 87.35 20.4499C86.45 21.3799 85.33 22.0598 84.07 22.3798C82.75 22.7198 81.37 22.6298 80.07 22.2398C79.48 22.0598 79.23 22.9798 79.82 23.1598C82.41 23.9398 85.1701 23.4999 87.2901 21.7899C89.41 20.0799 90.6601 17.3498 90.7201 14.6598C90.7801 11.9698 89.77 9.30985 87.96 7.36985C86 5.25985 82.9301 4.17985 80.0801 4.26985C76.9701 4.37985 73.88 6.03985 72.38 8.82985C72.27 9.02985 72.55 9.27985 72.71 9.08985H72.7201Z" fill="#231F20"/>
<path d="M96.7501 4.85985C97.5801 3.83985 98.5201 3.00985 99.6601 2.35985C100.8 1.70985 102 1.29985 103.25 1.08985C104.5 0.879852 105.78 0.919852 107 1.23985C108.29 1.57985 109.47 2.29985 110.47 3.16985C112.37 4.80985 113.48 7.10985 113.54 9.61985C113.6 12.1299 112.8 14.7399 111.18 16.6399C110.25 17.7299 109.06 18.5899 107.7 19.0299C106.34 19.4699 104.82 19.4599 103.41 19.0299C102.82 18.8499 102.57 19.7699 103.16 19.9499C105.99 20.7999 108.98 20.0599 111.14 18.0499C113.3 16.0399 114.29 13.3099 114.47 10.5399C114.65 7.76985 113.75 5.20985 111.9 3.23985C110.87 2.13985 109.56 1.19985 108.16 0.629852C106.92 0.129852 105.54 -0.0501482 104.2 0.0398518C102.61 0.149852 101.06 0.599852 99.6801 1.39985C98.3701 2.14985 97.1301 3.24985 96.4101 4.58985C96.3001 4.78985 96.5801 5.03985 96.7401 4.84985L96.7501 4.85985Z" fill="#231F20"/>
</svg>
