<svg width="172" height="208" viewBox="0 0 172 208" fill="none" xmlns="http://www.w3.org/2000/svg">
<g clip-path="url(#clip0_12781_107921)">
<path d="M169.33 136.83C169.33 136.83 179.68 176.58 158.64 195.73C137.61 214.88 111.52 197.48 83.93 200.52C56.34 203.57 31.35 218.39 10.51 190.36C-10.33 162.33 5.87997 140.58 7.92997 101.74C9.97997 62.9001 -6.23003 31.1201 4.11997 14.6001C14.48 -1.90994 33.63 -1.87994 57.26 2.43006C80.89 6.74006 90.15 4.29006 120.3 1.96006C150.45 -0.369943 164.21 18.3101 168.3 35.3701C172.39 52.4301 162.01 76.1401 169.34 136.84L169.33 136.83Z" fill="#12BAAC"/>
<path d="M128.75 128.31C128.98 127.38 142.86 66.3804 145.81 48.7304C148.76 31.0804 142.91 26.5004 130.9 23.1804C118.89 19.8604 84.93 12.2904 74.61 11.6304C64.29 10.9704 59.93 12.9404 55.88 29.6904C51.82 46.4404 41.63 98.1304 37.47 116.82C33.31 135.51 27.55 161.37 29.46 168.99C31.36 176.61 45.93 180.18 63 184.3C80.07 188.43 101.67 194.21 109.08 190.3C116.49 186.39 116.73 177.94 128.76 128.3L128.75 128.31Z" fill="#231F20"/>
<path d="M123.51 125.55C123.51 125.55 136.89 68.3701 139.24 51.9301C141.6 35.4901 139.08 33.6501 129.67 30.6001C120.27 27.5501 83.7601 19.1001 73.8101 18.4901C63.8601 17.8801 61.9901 24.8201 58.7301 39.4501C55.4701 54.0901 40.1501 128.76 37.6801 141.33C35.2101 153.9 33.3601 166.61 39.3201 170.5C45.2901 174.39 77.4101 180.58 87.7101 182.55C98.0101 184.52 106.2 185.71 109.04 180.26C111.88 174.81 120.97 133.96 123.49 125.56L123.51 125.55Z" fill="#F2F1F1"/>
<path d="M130.9 29.1502C130.82 29.5802 129.01 29.0802 129.01 29.0802C129.01 29.0802 127.52 31.4602 125.72 34.6802C123.92 37.9002 123.36 40.0102 119.08 38.7302C114.79 37.4502 89.9301 32.9002 86.2301 31.5802C82.5301 30.2602 81.8301 29.3802 81.3901 23.3602C80.9601 17.3302 80.9801 16.4502 80.9801 16.4502C80.9801 16.4502 128.97 25.5102 129.36 25.7402C129.75 25.9702 130.89 29.1602 130.89 29.1602L130.9 29.1502Z" fill="#231F20"/>
<path d="M98.8899 25.7102C98.3599 28.1102 99.4499 30.0002 101.81 30.5202C104.17 31.0402 106.96 29.8202 107.49 27.4202C108.02 25.0202 106.32 23.1902 103.96 22.6702C101.6 22.1502 99.4299 23.3102 98.8899 25.7102Z" fill="#F2F1F1"/>
<path d="M83.0399 136.01C83.0399 136.01 115.34 126.71 122.88 94.9003C128.4 71.6103 103.17 66.9103 90.3699 83.0203C90.3699 83.0203 89.0999 84.7703 88.3899 82.6403C87.3699 79.5903 81.7699 64.2803 69.0099 67.2503C56.2499 70.2203 50.0099 89.7503 62.4299 113.8C74.9099 137.98 80.7099 136.81 83.0399 136.02V136.01Z" fill="#ED2690"/>
</g>
<defs>
<clipPath id="clip0_12781_107921">
<rect width="171.88" height="207.16" fill="white"/>
</clipPath>
</defs>
</svg>
