<svg width="182" height="240" viewBox="0 0 182 240" fill="none" xmlns="http://www.w3.org/2000/svg">
<g clip-path="url(#clip0_12781_108013)">
<path d="M4.87001 90.9199C4.87001 90.9199 -8.85999 40.5399 12.31 20.9799C33.48 1.4099 57.13 14.5499 84.93 11.4499C112.72 8.3499 141.29 -10.9801 162.31 17.6999C183.33 46.3799 165.8 89.9899 163.77 129.72C161.74 169.45 180.47 201.42 170.05 218.3C159.63 235.18 137.96 235.68 114.15 231.26C90.34 226.84 79.29 224.87 48.92 227.23C18.55 229.59 4.83001 217.9 0.700008 200.44C-3.42999 182.99 12.29 153 4.87001 90.9199Z" fill="#FAD429"/>
<path d="M138.27 95.0596C143.65 97.9096 149.59 101.17 151.77 107.25C152.74 109.95 152.74 112.95 151.36 115.51C150.09 117.85 147.87 119.65 145.27 120.28C142.15 121.03 138.91 120.03 136.48 118.01C136.1 117.7 135.59 118.19 135.93 118.56C137.98 120.76 141.23 121.74 144.18 121.42C147.13 121.1 149.77 119.48 151.5 117.07C153.23 114.66 153.77 111.5 153.11 108.55C152.4 105.41 150.52 102.63 148.15 100.48C145.35 97.9396 141.94 96.1996 138.53 94.6296C138.24 94.4996 137.99 94.9096 138.28 95.0596H138.27Z" fill="#231F20"/>
<path d="M26.19 81.6996C26.19 81.6996 32.58 79.2396 40.28 77.3896C47.97 75.5396 58.74 71.8496 58.74 71.8496C58.74 71.8496 114.74 82.9296 121.51 83.8496C128.28 84.7696 141.21 88.7596 141.21 88.7596C141.21 88.7596 136.9 114.62 136.59 115.54C136.28 116.46 110.44 138.62 109.21 136.77L107.98 134.92L36.58 100.16L26.19 81.6996Z" fill="#231F20"/>
<path d="M71.25 43.1504C71.25 43.1504 81.28 26.2104 88.21 22.8304C95.15 19.4504 107.13 22.1604 114.26 20.4804C121.39 18.8004 140.44 4.90039 140.44 4.90039C140.44 4.90039 145.13 12.7804 145.13 13.5304C145.13 14.2804 143.25 25.3404 143.25 25.3404C143.25 25.3404 93.18 50.2804 92.43 50.6504C91.68 51.0204 78.93 47.4604 78.93 47.4604L71.24 43.1504H71.25Z" fill="#A95B39"/>
<path d="M107.08 29.5697C105.62 30.0797 104.23 30.7497 102.88 31.4897C101.66 32.1497 100.48 32.8997 99.38 33.7397C98.28 34.5797 97.17 35.5897 96.17 36.6297C95.17 37.6697 94.28 38.8097 93.27 39.8297C91.23 41.8997 88.94 43.7297 86.58 45.4297C84.22 47.1297 81.61 48.7997 79.01 50.2897C76.73 51.5997 74.37 52.7297 72.01 53.8897C71.68 54.0597 71.91 54.5797 72.26 54.4797C74.46 53.8897 76.53 52.7297 78.51 51.6197C81.1 50.1797 83.6 48.5897 86.02 46.8797C88.44 45.1697 90.8 43.3197 92.93 41.2397C93.91 40.2797 94.79 39.2397 95.69 38.1997C96.67 37.0497 97.71 35.9697 98.85 34.9797C99.99 33.9897 101.29 33.0497 102.63 32.2497C104.11 31.3597 105.68 30.6297 107.18 29.7797C107.3 29.7097 107.22 29.5097 107.09 29.5597L107.08 29.5697Z" fill="#231F20"/>
<path d="M44.8 92.3502C44.8 92.3502 50.33 73.6902 53.56 62.1602C56.79 50.6302 62.09 35.2002 63.01 35.2002C63.93 35.2002 92.27 43.2602 99.42 45.3402C106.57 47.4202 124.31 52.4802 125 53.6402C125.69 54.8002 119.7 75.0702 116.7 84.0602C113.7 93.0502 107.94 114.94 107.94 114.94C107.94 114.94 47.8 99.7302 47.11 98.5802C46.42 97.4302 44.81 92.3602 44.81 92.3602L44.8 92.3502Z" fill="#12BAAC"/>
<mask id="mask0_12781_108013" style="mask-type:luminance" maskUnits="userSpaceOnUse" x="44" y="35" width="82" height="80">
<path d="M44.8 92.3502C44.8 92.3502 50.33 73.6902 53.56 62.1602C56.79 50.6302 62.09 35.2002 63.01 35.2002C63.93 35.2002 92.27 43.2602 99.42 45.3402C106.57 47.4202 124.31 52.4802 125 53.6402C125.69 54.8002 119.7 75.0702 116.7 84.0602C113.7 93.0502 107.94 114.94 107.94 114.94C107.94 114.94 47.8 99.7302 47.11 98.5802C46.42 97.4302 44.81 92.3602 44.81 92.3602L44.8 92.3502Z" fill="white"/>
</mask>
<g mask="url(#mask0_12781_108013)">
<path d="M60.7 30.1807C62.81 35.2807 64.7 40.6407 66.78 45.7507C68.86 50.8607 70.85 55.9707 72.78 61.1307C74.71 66.3107 76.55 71.5307 78.31 76.7707C80.06 81.9907 81.72 87.2407 83.3 92.5107C84.88 97.7807 86.37 103.141 87.76 108.491C87.93 109.151 88.11 109.811 88.31 110.461C88.48 111.031 89.32 110.791 89.2 110.211C88.62 107.501 87.83 104.821 87.09 102.151C86.35 99.4807 85.61 96.8507 84.83 94.2107C83.27 88.9007 81.62 83.6207 79.88 78.3807C78.14 73.1407 76.3 67.9107 74.38 62.7307C72.45 57.5407 70.43 52.3907 68.31 47.2907C66.19 42.1907 64.06 37.1107 61.66 32.1607C61.36 31.5507 61.06 30.9407 60.75 30.3307C60.65 30.1307 60.29 30.2707 60.38 30.4907L60.71 30.1807H60.7Z" fill="#231F20"/>
<path d="M81.13 84.761C83.45 83.371 86.36 81.141 88.62 79.661C91.1 78.031 93.55 76.371 96 74.691C98.58 72.921 101.15 71.151 103.71 69.361C106.27 67.571 108.84 65.761 111.39 63.951C113.94 62.141 116.53 60.041 119 58.271C121.29 56.631 124.18 53.951 126.46 52.301C128.44 50.871 129.64 50.851 131.62 49.411C133.22 48.251 134.82 47.081 136.42 45.921C137.52 45.111 138.63 44.311 139.73 43.501C140.25 43.121 140.78 42.761 141.29 42.371C141.44 42.251 141.28 42.381 141.12 42.391L140.87 42.321C140.79 42.181 140.71 42.031 140.62 41.891C140.64 41.811 140.67 41.721 140.69 41.641C140.77 41.471 140.79 41.541 140.73 41.581C140.69 41.601 140.65 41.641 140.61 41.671C140.55 41.721 140.74 41.571 140.66 41.631C140.65 41.641 140.63 41.651 140.62 41.661C140.58 41.691 140.55 41.721 140.51 41.741C140.42 41.811 140.32 41.881 140.23 41.951C139.56 42.461 138.88 42.961 138.22 43.471C138.09 43.571 137.96 43.681 137.82 43.781C137.75 43.841 137.8 43.791 137.82 43.781C137.75 43.831 137.69 43.881 137.62 43.931C137.55 43.981 137.49 44.031 137.42 44.091C137.15 44.311 136.91 44.581 136.6 44.811C136.2 45.111 136.6 45.811 137 45.501C137.22 45.331 137.48 45.211 137.71 45.051C137.92 44.901 138.13 44.751 138.33 44.601C138.68 44.351 139.03 44.091 139.37 43.831C139.84 43.471 140.31 43.121 140.78 42.761C141 42.601 141.24 42.441 141.44 42.251C141.86 41.851 141.36 41.181 140.85 41.461C140.8 41.491 140.75 41.531 140.71 41.561C139.93 42.111 139.16 42.681 138.39 43.251C136.81 44.401 135.24 45.561 133.66 46.711C131.45 48.321 129.24 49.931 127.03 51.531C124.35 53.471 121.67 55.411 118.99 57.351C116.04 59.481 113.08 61.611 110.11 63.721C107.14 65.831 103.96 68.091 100.87 70.261C97.78 72.431 94.81 74.501 91.76 76.611C88.98 78.531 86.18 80.421 83.42 82.361C82.8 82.801 82.17 83.241 81.55 83.681C81.36 83.811 81.53 84.121 81.73 83.991L81.1 84.761H81.13Z" fill="#231F20"/>
</g>
<path d="M138.48 35.5303C138.48 35.5303 126.89 38.3603 123.47 41.7803C120.05 45.2003 120.36 47.5104 114.47 49.7504C109.38 51.6903 103.81 50.3604 98.54 52.3004C92.57 54.5103 93.34 57.8904 85.88 58.3204C81.98 58.5504 77.94 53.9403 81.18 50.0504C84.41 46.1504 87.09 47.2704 92.04 42.1404C96.99 37.0103 104.66 30.0804 114.16 27.5204C123.66 24.9604 135.27 18.1104 135.27 18.1104L142.2 28.2104L138.49 35.5303H138.48Z" fill="#A95B39"/>
<path d="M85 56.2296C84.72 56.1196 84.43 56.0496 84.16 55.9296C83.89 55.8096 83.64 55.6696 83.39 55.5096C82.91 55.2096 82.42 54.8996 82.07 54.4596C81.74 54.0496 81.49 53.4996 81.52 52.9596C81.55 52.4596 81.86 52.0196 82.22 51.6796C82.99 50.9696 84.09 50.6396 85.09 51.0296C86.18 51.4596 86.74 52.5096 86.66 53.6496C86.61 54.2596 86.45 54.9596 86.1 55.4596C85.75 55.9596 85.07 56.3296 84.46 56.0096C84.26 55.9096 84.03 56.1696 84.21 56.3396C84.71 56.7996 85.47 56.6296 85.97 56.2596C86.47 55.8896 86.76 55.2996 86.94 54.6896C87.33 53.3596 87.17 51.9196 86.02 51.0196C84.97 50.1996 83.57 50.2096 82.47 50.8996C81.94 51.2296 81.46 51.6996 81.22 52.2796C80.98 52.8596 81.04 53.4396 81.27 53.9896C81.57 54.6796 82.1 55.1996 82.73 55.5896C83.36 55.9796 84.18 56.5196 84.97 56.4796C85.13 56.4796 85.15 56.2696 85.01 56.2096L85 56.2296Z" fill="#231F20"/>
<mask id="mask1_12781_108013" style="mask-type:luminance" maskUnits="userSpaceOnUse" x="0" y="2" width="174" height="232">
<path d="M4.89001 90.9099C4.89001 90.9099 -8.83999 40.5399 12.33 20.9699C33.5 1.4099 57.15 14.5399 84.95 11.4499C112.74 8.3499 141.31 -10.9801 162.33 17.6999C183.35 46.3799 165.82 89.9899 163.79 129.72C161.76 169.45 180.49 201.42 170.07 218.3C159.65 235.18 137.98 235.68 114.17 231.26C90.36 226.84 79.31 224.87 48.94 227.23C18.57 229.59 4.86001 217.9 0.730006 200.44C-3.39999 182.99 12.32 153 4.90001 90.9199L4.89001 90.9099Z" fill="white"/>
</mask>
<g mask="url(#mask1_12781_108013)">
<path d="M141.57 1.52033C141.01 1.52033 129.57 7.71033 125.82 9.21033C122.07 10.7103 121.13 14.2703 127.51 16.1503C133.89 18.0303 124.32 25.5303 132.95 26.6503C141.58 27.7703 131.64 38.8403 138.39 39.4003C145.14 39.9603 147.95 34.7103 159.95 32.8403C171.95 30.9603 181.89 23.8403 181.89 23.8403C181.89 23.8403 167.64 5.09033 167.08 4.90033C166.52 4.71033 144.75 -0.359667 144 0.0203325C143.25 0.400333 141.56 1.52033 141.56 1.52033H141.57Z" fill="#ED2690"/>
</g>
<path d="M91.77 196.72C92.44 198.74 111.61 220.6 111.61 220.6C111.61 220.6 132.12 210.85 141.88 207.15C151.63 203.45 155 201.77 155 201.77C155 201.77 150.96 173.86 148.27 153.68C145.58 133.5 141.21 88.7695 141.21 88.7695C141.21 88.7695 137.85 90.4495 129.44 93.1395C122.53 95.3495 119.01 97.1795 119.01 97.1795L96.14 122.74C96.14 122.74 89.41 166.12 89.08 167.47C88.75 168.82 91.77 196.73 91.77 196.73V196.72Z" fill="#7B55A3"/>
<mask id="mask2_12781_108013" style="mask-type:luminance" maskUnits="userSpaceOnUse" x="89" y="88" width="66" height="133">
<path d="M91.77 196.72C92.44 198.74 111.61 220.6 111.61 220.6C111.61 220.6 132.12 210.85 141.88 207.15C151.63 203.45 155 201.77 155 201.77C155 201.77 150.96 173.86 148.27 153.68C145.58 133.5 141.21 88.7695 141.21 88.7695C141.21 88.7695 137.85 90.4495 129.44 93.1395C122.53 95.3495 119.01 97.1795 119.01 97.1795L96.14 122.74C96.14 122.74 89.41 166.12 89.08 167.47C88.75 168.82 91.77 196.73 91.77 196.73V196.72Z" fill="white"/>
</mask>
<g mask="url(#mask2_12781_108013)">
<path d="M168.97 213.38C163.89 208.88 158.71 204.49 153.51 200.14C148.35 195.82 143.16 191.53 138.02 187.18C135.18 184.77 132.36 182.24 129.51 179.84C129.26 166.21 129.58 152.58 129.99 138.95C130.4 125.27 130.9 111.6 131.08 97.9096C131.18 90.2796 131.34 82.5996 130.9 74.9696C130.9 74.8096 130.65 74.8096 130.65 74.9696C130.5 81.7896 130.59 88.6196 130.46 95.4396C130.33 102.31 130.12 109.17 129.87 116.04C129.38 129.72 128.81 143.39 128.56 157.08C128.42 164.65 128.54 172.43 128.68 180C127.98 181.6 127.35 183.23 126.69 184.85C125.88 186.82 125.06 188.78 124.22 190.74C122.56 194.62 120.83 198.48 119.08 202.32C117.35 206.12 115.6 209.92 113.87 213.72C112.12 217.56 110.4 221.41 108.74 225.29C107.06 229.22 105.43 233.18 103.92 237.18C103.72 237.7 103.58 238.19 103.5 238.74C103.44 239.11 103.92 239.36 104.14 239.01C104.71 238.09 105.03 237.06 105.42 236.06C105.81 235.04 106.21 234.03 106.61 233.02C107.39 231.05 108.2 229.09 109.02 227.14C110.66 223.25 112.37 219.39 114.09 215.53C115.8 211.72 117.53 207.91 119.24 204.1C120.97 200.25 122.67 196.4 124.31 192.51C125.97 188.58 127.84 184.56 129.24 180.53C129.24 180.51 129.24 180.5 129.25 180.48C134.09 185.01 139.17 189.14 144.22 193.43C149.34 197.79 154.5 202.11 159.6 206.49C162.36 208.86 165.1 211.26 167.82 213.68C167.73 213.78 167.65 213.89 167.58 214C167.45 214.2 167.33 214.41 167.19 214.61C167.14 214.68 167.08 214.75 167.03 214.82C167.03 214.82 167.01 214.84 167 214.86C166.64 214.89 166.52 215.46 166.92 215.55C167.37 215.65 167.71 215.31 167.98 214.99C168.13 214.82 168.28 214.64 168.43 214.47C168.5 214.39 168.57 214.3 168.65 214.23C169.03 214.18 169.32 213.71 168.97 213.4V213.38ZM168.66 214.19C168.66 214.19 168.66 214.19 168.68 214.19H168.66Z" fill="#231F20"/>
</g>
<path d="M16.43 203.11C16.43 203.11 18.78 169.48 19.79 152.66C20.8 135.84 23.83 108.6 24.83 98.8502C25.83 89.1002 26.18 81.7002 26.18 81.7002C26.18 81.7002 31.56 82.3702 55.1 86.4102C74.18 89.6802 109.24 95.8302 119 97.1702C119 97.1702 116.31 120.71 114.96 145.6C113.61 170.49 111.6 220.6 111.6 220.6C111.6 220.6 86.38 217.24 63.17 212.87C39.97 208.5 22.81 204.46 16.42 203.12L16.43 203.11Z" fill="#C1B0D6"/>
<path d="M42.65 96.0195C40.75 100.85 41.64 106.44 44.04 110.94C46.44 115.44 50.64 118.98 55.29 121.19C60.18 123.51 65.7 124.6 71.11 124.33C76.52 124.06 81.86 122.37 86.18 119.08C90.06 116.12 93.12 112.02 94.49 107.31C94.66 106.74 94.79 106.16 94.9 105.58C95.01 105 94.13 104.74 94 105.33C93.04 109.98 90.5 114.11 86.95 117.23C83.1 120.62 78.19 122.61 73.11 123.21C68.03 123.81 62.41 123.08 57.48 121.13C52.88 119.31 48.62 116.29 45.83 112.15C44.44 110.08 43.43 107.77 42.88 105.34C42.33 102.91 42.3 100.41 42.73 97.9495C42.84 97.3495 42.96 96.7496 43.13 96.1596C43.22 95.8396 42.76 95.7296 42.65 96.0296V96.0195Z" fill="#231F20"/>
<path d="M96.84 103.69C96.89 104.88 96.38 105.72 94.88 105.93C93.77 106.08 92.78 105.06 92.78 103.9C92.78 102.74 93.66 101.8 94.78 101.8C95.9 101.8 96.79 102.53 96.85 103.69H96.84Z" fill="#231F20"/>
<path d="M41.79 98.3701C40.73 97.8201 40.26 96.9501 40.84 95.5501C41.26 94.5201 42.65 94.1701 43.65 94.7501C44.65 95.3301 45.03 96.5701 44.46 97.5301C43.89 98.4901 42.82 98.9101 41.78 98.3701H41.79Z" fill="#231F20"/>
<path d="M62.29 165.21C62.29 165.21 72.63 165.17 78.54 169.93C83.85 174.2 81.72 172.55 88.44 162.25C95.16 151.95 93.85 150.9 92.28 152.19C90.71 153.48 84.75 161.77 81.74 163.06C78.73 164.35 78.91 157.43 79.88 153.33C81.22 147.66 78.88 150.43 77.31 153.72C75.74 157.01 74.02 159.19 70.87 159.19C67.72 159.19 67.33 153.41 67.29 148.75C67.26 144.31 67.67 137.5 66.09 139.36C64.51 141.22 63.42 152.75 61.28 156.04C59.14 159.33 55.84 157.9 54.84 156.33C53.84 154.76 52.27 146.89 51.2 147.27C49.87 147.74 51.12 155.55 48.97 158.56C46.82 161.57 42.16 149.08 41.29 148.04C40.14 146.66 39.39 146.03 40.68 151.75C41.97 157.47 44.42 163.19 44.97 165.2C45.82 168.31 46.34 168.33 49.2 167.39C52.2 166.4 55.56 165.49 62.28 165.2L62.29 165.21Z" fill="white"/>
<path d="M69.86 133.81C69.86 135.36 68.76 136.6 67.21 136.6C65.66 136.6 64.41 135.28 64.41 133.73C64.41 132.18 65.66 131.22 67.21 131.22C68.76 131.22 69.86 132.25 69.86 133.8V133.81Z" fill="white"/>
<path d="M80.27 144.9C80.38 143.36 81.56 142.19 83.11 142.29C84.66 142.39 85.81 143.8 85.71 145.34C85.61 146.88 84.29 147.76 82.75 147.65C81.21 147.54 80.17 146.44 80.28 144.9H80.27Z" fill="white"/>
<path d="M98.45 147.28C98.34 145.74 97.16 144.57 95.61 144.67C94.06 144.77 92.91 146.18 93.01 147.72C93.11 149.26 94.43 150.14 95.97 150.03C97.51 149.92 98.55 148.82 98.44 147.28H98.45Z" fill="white"/>
<path d="M37.03 145.44C38.53 145.84 40.01 145.09 40.41 143.6C40.81 142.11 39.86 140.56 38.36 140.16C36.86 139.76 35.62 140.72 35.22 142.22C34.82 143.72 35.53 145.05 37.03 145.45V145.44Z" fill="white"/>
<path d="M47.79 142.31C47.79 140.76 48.9 139.52 50.45 139.52C52 139.52 53.24 140.85 53.24 142.39C53.24 143.93 51.99 144.89 50.44 144.89C48.89 144.89 47.79 143.85 47.79 142.3V142.31Z" fill="white"/>
<path d="M63.12 169.3C44.39 168.38 45.85 174.67 45.85 174.67C45.85 174.67 45.14 179.66 59.21 180.97C76.64 182.58 78.25 179.59 79.1 178.74C80.12 177.72 81.86 170.22 63.13 169.3H63.12ZM62.44 179.71C45.59 178.96 47.19 173.8 48.12 173.1C48.88 172.52 50.12 170.13 65.8 171.35C78.46 172.33 77.97 176.57 77.97 176.57C77.97 176.57 79.29 180.46 62.44 179.71Z" fill="white"/>
<path d="M141.71 31.6498C143.3 30.1698 144.92 28.7298 146.63 27.3798C147.49 26.7098 148.36 26.0598 149.25 25.4298C150.14 24.7998 151.09 24.2798 151.9 23.5698C152.13 23.3698 151.84 23.0698 151.6 23.1798C150.62 23.6198 149.73 24.3498 148.86 24.9798C147.99 25.6098 147.13 26.2798 146.29 26.9598C144.59 28.3398 142.96 29.7998 141.44 31.3698C141.27 31.5498 141.53 31.8198 141.72 31.6498H141.71Z" fill="#231F20"/>
<path d="M135.29 21.6697C137.21 20.7497 139.22 19.9597 141.23 19.2597C142.22 18.9197 143.22 18.5997 144.23 18.3097C145.24 18.0197 146.32 17.8197 147.32 17.4497C147.63 17.3297 147.62 16.7597 147.23 16.8097C146.17 16.9497 145.13 17.3297 144.11 17.6597C143.09 17.9897 142.05 18.3597 141.03 18.7497C139.01 19.5297 137.07 20.4397 135.14 21.4197C134.97 21.5097 135.12 21.7497 135.29 21.6697Z" fill="#231F20"/>
<path d="M129.55 12.2398C131.56 12.2398 133.62 11.8798 135.58 11.4398C136.57 11.2198 137.55 10.9598 138.52 10.6598C139 10.5098 139.48 10.3498 139.96 10.1798C140.44 10.0098 140.94 9.84976 141.39 9.57976C141.72 9.37976 141.5 8.86976 141.13 8.95976C140.64 9.07976 140.18 9.28976 139.7 9.46976C139.22 9.64976 138.75 9.80976 138.27 9.96976C137.33 10.2798 136.37 10.5598 135.41 10.7998C133.46 11.2898 131.49 11.5498 129.51 11.8698C129.3 11.8998 129.36 12.2298 129.56 12.2298L129.55 12.2398Z" fill="#231F20"/>
</g>
<defs>
<clipPath id="clip0_12781_108013">
<rect width="181.88" height="239.17" fill="white"/>
</clipPath>
</defs>
</svg>
