<svg width="175" height="218" viewBox="0 0 175 218" fill="none" xmlns="http://www.w3.org/2000/svg">
<g clip-path="url(#clip0_12781_107971)">
<path d="M133.36 213.63C133.68 213.63 133.68 213.13 133.36 213.13C133.04 213.13 133.04 213.63 133.36 213.63Z" fill="#ED2690"/>
<path d="M67.58 215.8C67.58 215.8 90 210.35 115.46 214.28C140.92 218.21 164.19 215.42 170.31 182.76C176.67 148.82 168.65 150.31 168.49 113.37C168.4 92.4201 171.27 76.5701 174.3 49.6001C177.33 22.6301 161.52 6.70009 145.46 1.55009C129.4 -3.59992 109.1 5.49008 96.07 7.31008C83.04 9.13008 56.37 -2.06992 29.7 7.93008C13.79 13.8901 -0.299995 31.5601 5.38584e-06 68.5301C0.300005 105.5 13.03 105.8 16.67 143.08C20.31 180.35 18.06 199.26 30.77 210.56C33.8 213.25 46.37 221.87 67.58 215.81V215.8Z" fill="#12BAAC"/>
<path d="M121.26 59.8704C121.28 58.9804 131.35 35.2404 151.26 39.0504C171.17 42.8504 169.47 66.6404 160.57 81.8504C151.67 97.0604 134.23 102.84 130.35 111.65C126.47 120.46 132.95 127.77 138.24 122.86C143.53 117.95 144.55 114.4 145.8 114.37C146.85 114.34 147.91 115.72 148.41 116.6C148.72 117.14 145.7 127.23 135.35 128.43C125 129.63 121.11 119.06 125.29 107.66C128.89 97.8504 142.81 92.2304 151.3 76.2604C158.97 61.8404 157.62 55.6304 151.36 51.3004C145.1 46.9704 130.94 53.1104 122.3 70.1204" fill="#FAD429"/>
<path d="M53.62 67.9298C53.4 67.0798 39.23 46.9598 20.43 55.2398C1.64 63.5198 8.38 86.3098 20.58 98.9498C32.78 111.59 53.52 112.11 59.33 119.72C65.14 127.33 59.76 135.64 53.44 132.12C47.12 128.6 45.85 126.44 44.61 126.7C43.57 126.92 42.1 128.53 41.81 129.5C41.62 130.1 45.92 139.7 56.39 138.48C66.87 137.26 68.6 124.01 62.12 113.84C55.64 103.66 46.71 104.15 28.87 94.9998C17.09 88.9598 18.61 72.3898 24.18 67.1398C29.04 62.5598 43.72 65.0198 56.07 79.4398" fill="#FAD429"/>
<path d="M132.4 169.32C126.79 162.35 119.42 159.67 113.51 158.73C111.7 157.47 107.29 153.67 107.07 146.17C106.84 138.23 109.15 134.04 109.89 132.9C112.85 130.78 115.95 127.62 118.93 122.91C126.89 110.33 126.41 94.7699 124.02 71.7099C121.63 48.6499 120.13 41.1699 119.23 40.2699C118.33 39.3699 90.19 43.2599 81.51 44.1599C72.83 45.0599 51.27 48.0499 50.37 48.0499C49.47 48.0499 51.57 82.4799 62.35 111.52C68.75 128.77 79.28 134.51 86.77 136.32C88.62 137.44 93.15 140.9 94.03 148.38C94.94 156.09 91.56 160.66 90.84 161.54C86.5 163.21 82.01 165.75 79.12 169.61C71.93 179.19 66.84 198.95 68.34 201.35C69.84 203.75 98.88 204.34 108.76 203.45C118.64 202.56 143.79 198.36 144.09 195.67C144.39 192.98 143.49 183.1 132.41 169.32H132.4Z" fill="#FAD429"/>
<mask id="mask0_12781_107971" style="mask-type:luminance" maskUnits="userSpaceOnUse" x="50" y="40" width="76" height="98">
<path d="M95.57 136.98C95.57 136.98 73.11 140.57 62.34 111.53C51.56 82.4897 49.47 48.0597 50.36 48.0597C51.25 48.0597 72.82 45.0697 81.5 44.1697C90.18 43.2697 118.33 39.3797 119.22 40.2797C120.11 41.1797 121.62 48.6597 124.01 71.7197C126.4 94.7797 126.88 110.33 118.92 122.92C109.64 137.59 99.16 137.29 95.57 136.99V136.98Z" fill="white"/>
</mask>
<g mask="url(#mask0_12781_107971)">
<path d="M35.79 57.2198C38.95 57.2498 42.12 56.9998 45.28 56.8198C48.44 56.6398 51.6 56.4298 54.76 56.1998C61.02 55.7498 67.27 55.2198 73.51 54.6298C86.04 53.4398 98.54 51.9698 111.01 50.2398C118.04 49.2698 125.08 48.2898 132.06 47.0598C132.6 46.9598 132.36 46.1698 131.84 46.2498C125.57 47.1798 119.32 48.2098 113.04 49.0998C106.76 49.9898 100.56 50.7998 94.3 51.5598C81.84 53.0698 69.35 54.3198 56.84 55.3598C53.36 55.6498 49.89 55.9198 46.41 56.1798C42.93 56.4398 39.31 56.5898 35.78 57.0098C35.64 57.0298 35.64 57.2298 35.78 57.2298L35.79 57.2198Z" fill="#231F20"/>
</g>
<mask id="mask1_12781_107971" style="mask-type:luminance" maskUnits="userSpaceOnUse" x="68" y="158" width="77" height="46">
<path d="M103.36 158.54C103.36 158.54 121.32 155.55 132.4 169.32C143.48 183.09 144.38 192.97 144.08 195.67C143.78 198.37 118.63 202.56 108.75 203.45C98.87 204.34 69.83 203.75 68.33 201.35C66.83 198.95 71.92 179.19 79.11 169.61C86.3 160.03 103.36 158.53 103.36 158.53V158.54Z" fill="white"/>
</mask>
<g mask="url(#mask1_12781_107971)">
<path d="M57.75 188.97C63.94 189.93 70.17 190.52 76.42 190.74C82.67 190.96 88.95 190.83 95.2 190.34C101.45 189.85 107.68 189.02 113.84 187.84C120 186.66 126.08 185.14 132.06 183.27C138.04 181.4 143.93 179.19 149.67 176.66C150.39 176.34 151.09 176.01 151.78 175.62C152.12 175.42 151.9 174.82 151.5 174.96C150.04 175.48 148.64 176.16 147.21 176.76C145.78 177.36 144.32 177.96 142.87 178.53C139.97 179.67 137.03 180.72 134.07 181.7C128.17 183.64 122.17 185.25 116.09 186.53C110.01 187.81 103.77 188.78 97.54 189.39C91.31 190 85.09 190.26 78.85 190.18C72.61 190.1 66.44 189.68 60.28 188.94C59.46 188.84 58.64 188.74 57.82 188.62C57.61 188.59 57.52 188.91 57.73 188.94L57.75 188.97Z" fill="#231F20"/>
<path d="M63.23 184.69C63.05 184.45 62.85 184.21 62.7 183.95C62.55 183.69 62.48 183.38 62.3 183.13L62.04 183.47C67.8 184.41 73.63 184.85 79.46 184.89C85.31 184.93 91.17 184.55 96.97 183.77C102.77 182.99 108.45 181.85 114.06 180.3C119.67 178.75 125.22 176.81 130.58 174.49C132.95 173.47 135.33 172.41 137.51 171.01C139.5 169.74 141.42 168.13 142.63 166.07C142.93 165.56 143.16 165.02 143.34 164.45C143.46 164.08 142.89 163.84 142.71 164.18C141.58 166.31 140.07 168.09 138.12 169.51C136.17 170.93 133.95 172.03 131.74 173.03C126.48 175.4 121.05 177.39 115.52 179C109.99 180.61 104.36 181.85 98.67 182.7C92.98 183.55 87.2 184.02 81.43 184.1C75.66 184.18 69.97 183.86 64.27 183.25C63.55 183.17 62.82 183.09 62.1 183C61.93 182.98 61.8 183.22 61.9 183.35C62.07 183.57 62.29 183.72 62.49 183.91C62.74 184.15 62.94 184.45 63.15 184.73C63.19 184.79 63.29 184.73 63.24 184.67L63.23 184.69Z" fill="#231F20"/>
</g>
<mask id="mask2_12781_107971" style="mask-type:luminance" maskUnits="userSpaceOnUse" x="50" y="40" width="95" height="164">
<path d="M132.4 169.32C126.79 162.35 119.42 159.67 113.51 158.73C111.7 157.47 107.29 153.67 107.07 146.17C106.84 138.23 109.15 134.04 109.89 132.9C112.85 130.78 115.95 127.62 118.93 122.91C126.89 110.33 126.41 94.7699 124.02 71.7099C121.63 48.6499 120.13 41.1699 119.23 40.2699C118.33 39.3699 90.19 43.2599 81.51 44.1599C72.83 45.0599 51.27 48.0499 50.37 48.0499C49.47 48.0499 51.57 82.4799 62.35 111.52C68.75 128.77 79.28 134.51 86.77 136.32C88.62 137.44 93.15 140.9 94.03 148.38C94.94 156.09 91.56 160.66 90.84 161.54C86.5 163.21 82.01 165.75 79.12 169.61C71.93 179.19 66.84 198.95 68.34 201.35C69.84 203.75 98.88 204.34 108.76 203.45C118.64 202.56 143.79 198.36 144.09 195.67C144.39 192.98 143.49 183.1 132.41 169.32H132.4Z" fill="white"/>
</mask>
<g mask="url(#mask2_12781_107971)">
<path d="M76.25 161.87C83.58 162.51 91 162.29 98.31 161.45C105.62 160.6 112.86 159.07 119.84 156.73C121.79 156.07 123.73 155.36 125.64 154.57C126.59 154.18 127.53 153.78 128.47 153.35C129.41 152.92 130.36 152.52 131.22 151.95C131.47 151.78 131.32 151.32 131 151.43C130.14 151.73 129.33 152.14 128.5 152.52C127.67 152.9 126.81 153.28 125.96 153.63C124.3 154.33 122.61 154.97 120.91 155.57C117.46 156.78 113.94 157.8 110.38 158.63C103.21 160.3 95.9 161.21 88.55 161.53C84.45 161.71 80.35 161.68 76.25 161.57C76.05 161.57 76.06 161.85 76.25 161.87Z" fill="#231F20"/>
<path d="M81.75 135.43C82.93 136.04 84.24 136.36 85.54 136.64C86.84 136.92 88.1 137.11 89.39 137.23C91.93 137.47 94.49 137.46 97.03 137.25C101.02 136.92 105.08 136.17 108.83 134.72C110.54 134.06 112.06 133.06 113.71 132.27C115.91 131.23 118.21 130.45 120.55 129.79C122.25 129.31 124 128.93 125.64 128.26C126.3 127.99 126.93 127.67 127.49 127.23C127.86 126.94 128.25 126.5 128.12 125.99C128.01 125.57 127.6 125.33 127.24 125.16C126.73 124.92 126.18 124.76 125.65 124.57C124.64 124.22 123.38 123.82 122.87 122.79C122.75 122.55 122.69 122.27 122.7 122C122.72 121.68 122.23 121.69 122.21 122C122.17 122.6 122.25 123.16 122.61 123.66C122.97 124.16 123.49 124.51 124.02 124.79C124.55 125.07 125.15 125.29 125.74 125.5C126 125.59 126.26 125.68 126.51 125.78C126.56 125.8 126.61 125.82 126.66 125.84C126.78 125.89 126.61 125.82 126.68 125.84C126.7 125.84 126.73 125.86 126.75 125.87C126.85 125.92 126.95 125.96 127.04 126.01C127.08 126.03 127.12 126.06 127.16 126.08C127.26 126.14 127.16 126.08 127.19 126.1C127.22 126.12 127.24 126.15 127.27 126.18C127.32 126.23 127.24 126.1 127.28 126.2C127.25 126.09 127.31 126.29 127.28 126.2C127.3 126.26 127.26 126.08 127.28 126.18C127.28 126.24 127.3 126.13 127.28 126.14L127.27 126.19C127.27 126.19 127.2 126.33 127.29 126.15C127.28 126.17 127.27 126.2 127.25 126.22C127.23 126.25 127.17 126.32 127.23 126.25C127.19 126.3 127.15 126.34 127.11 126.38C127.01 126.48 126.93 126.54 126.85 126.6C126.59 126.79 126.3 126.96 126.02 127.11C124.59 127.84 122.97 128.2 121.43 128.62C119.26 129.21 117.11 129.86 115.03 130.73C113.76 131.26 112.53 131.85 111.33 132.52C110.69 132.88 110.07 133.26 109.4 133.56C108.02 134.18 106.5 134.64 105.01 135.03C102.96 135.57 100.88 135.97 98.78 136.23C93.8 136.86 88.64 136.78 83.74 135.6C83.11 135.45 82.49 135.32 81.85 135.21C81.74 135.19 81.66 135.34 81.77 135.4L81.75 135.43Z" fill="#231F20"/>
</g>
<path d="M70.79 92.6993C70.79 92.6993 60.74 74.7993 60.81 74.1293C60.88 73.4593 62.15 73.0293 62.27 73.2793C62.39 73.5293 65.19 78.5193 66.59 81.3793C67.99 84.2393 71.16 90.1493 71.34 90.2093C71.52 90.2693 73.47 79.3093 73.65 77.9093C73.83 76.5093 74.93 71.0893 75.17 70.9693C75.41 70.8493 76.45 71.0893 76.63 71.5193C76.81 71.9493 75.53 76.7593 74.93 80.3493C74.33 83.9393 72.68 92.3993 72.62 92.8893C72.56 93.3793 74.14 104.699 74.57 107.679C75 110.659 75.54 112.919 75.42 113.339C75.3 113.759 73.96 114.189 73.78 113.769C73.6 113.349 72.01 101.899 71.71 99.5193C71.41 97.1393 70.98 93.1293 70.8 92.6993H70.79Z" fill="#231F20"/>
<path d="M84.37 99.8192C84.37 99.8192 83.82 106.269 83.64 109.619C83.46 112.969 83.49 113.169 83.29 113.589C83.09 114.009 81.64 113.889 81.57 113.519C81.5 113.149 82.06 106.519 82.06 103.719C82.06 100.919 83.95 76.7492 84.13 74.7392C84.31 72.7292 84.31 72.1792 84.5 72.0592C84.69 71.9392 85.78 71.7592 85.96 71.9992C86.14 72.2392 86.45 73.2192 86.26 75.2292C86.07 77.2392 85.16 85.8792 84.86 90.3292C84.56 94.7792 84.37 99.0392 84.37 99.0392V99.8292V99.8192Z" fill="#231F20"/>
<path d="M83.7 98.1793C83.7 98.1793 85.71 97.6893 87.66 97.3293C89.61 96.9693 90.95 96.4193 91.25 96.5393C91.55 96.6593 91.8 98.5493 91.8 98.5493C91.8 98.5493 88.88 99.3393 86.5 99.7093C84.12 100.079 83.03 100.259 83.03 100.259L83.7 98.1893V98.1793Z" fill="#231F20"/>
<path d="M85.4 76.1998C85.4 76.1998 87.29 84.3598 88.32 88.4398C89.35 92.5198 91.55 100.19 92.22 102.63C92.89 105.07 94.35 111.15 94.78 111.27C95.21 111.39 96.48 111.15 96.55 110.78C96.62 110.41 96.92 110.72 95.09 104.69C93.26 98.6598 89.73 84.7198 88.82 81.9198C87.91 79.1198 86.57 71.8698 85.96 71.9998C85.35 72.1298 84.86 74.0698 84.86 74.0698L85.41 76.1998H85.4Z" fill="#231F20"/>
<path d="M102.69 91.4191C102.69 91.4191 94.78 76.8692 93.74 74.7992C92.7 72.7292 91.91 71.1492 92.04 70.7192C92.17 70.2892 93.26 69.9291 93.5 70.1691C93.74 70.4091 97.64 77.3492 98.55 79.2992C99.46 81.2492 102.87 88.1292 103.12 88.1892C103.37 88.2492 104.4 81.2491 104.4 80.0891C104.4 78.9291 105.98 67.6692 106.23 67.4292C106.48 67.1892 107.81 67.3692 108 67.5492C108.19 67.7292 107.82 69.4992 107.57 71.0792C107.32 72.6592 105.32 87.3991 105.07 88.9191C104.82 90.4391 104.64 90.9292 104.7 91.2292C104.76 91.5292 106.16 103.159 106.47 105.289C106.78 107.419 107.2 109.189 106.96 109.549C106.72 109.909 105.68 110.099 105.32 109.729C104.96 109.359 104.53 104.249 104.16 101.329C103.79 98.4092 102.82 92.1992 102.7 91.4092L102.69 91.4191Z" fill="#231F20"/>
<path d="M115.52 99.2695C115.52 99.2695 114.76 99.3295 114.62 98.9495C114.48 98.5695 113.51 85.5195 113.16 82.5395C112.81 79.5595 111.76 67.4695 112.02 67.2095C112.1 67.1295 113.41 66.7195 114.27 66.8895C114.7 66.9695 115.45 81.7795 115.73 86.1495C116.01 90.5195 116.08 95.7195 116.08 97.0495C116.08 98.3795 116.43 98.7595 115.53 99.2695H115.52Z" fill="#231F20"/>
<path d="M117.26 104.529C117.26 105.559 116.89 106.139 115.8 106.389C114.9 106.589 113.91 105.559 113.91 104.529C113.91 103.499 114.69 102.789 115.61 102.789C116.53 102.789 117.25 103.499 117.25 104.529H117.26Z" fill="#231F20"/>
<path d="M100.52 29.1101C101.14 26.6201 101.35 25.6001 101.63 24.2701C101.93 22.8601 102.09 22.1401 102.37 20.7301C102.65 19.3201 102.76 19.3001 103.03 17.9201C103.31 16.4701 103.78 14.6701 103.98 13.2101C104.07 12.5601 102.17 12.7601 102.05 13.3401C101.76 14.7101 101.53 16.1101 101.27 17.4801C101.01 18.8501 100.74 20.3101 100.49 21.7301C100.24 23.1501 99.98 24.5001 99.75 25.8801C99.64 26.5701 99.52 27.2601 99.44 27.9501C99.36 28.6401 98.72 33.0801 98.8 33.8001C98.85 34.2201 99.25 33.5001 99.79 31.5701L100.53 29.1101H100.52Z" fill="white"/>
<path d="M120.66 33.0902C121.48 31.9302 122.41 30.8602 123.2 29.6702C123.99 28.4802 124.8 27.2502 125.59 26.0302C126.38 24.8102 127.13 23.6602 127.88 22.4702L129.01 20.6802C129.41 20.0402 130.15 18.9502 129.94 18.4502C129.76 18.0402 129.09 17.1902 128.8 17.5002C128.27 18.0502 127.77 19.0102 127.42 19.6002L126.35 21.4202C125.62 22.6702 124.9 23.9302 124.18 25.1902C123.46 26.4502 122.79 27.6402 122.1 28.8802C121.41 30.1202 120.84 31.5102 120.17 32.8002C120 33.1302 120.45 33.3802 120.66 33.0902Z" fill="white"/>
<path d="M79.37 36.5397C78.87 32.3997 78.44 28.2697 77.78 24.1497C77.45 22.1097 77.13 20.0797 76.8 18.0397C76.63 17.0197 76.46 16.0097 76.3 14.9897C76.16 14.1197 76.03 12.3397 75.58 12.0897C75.22 11.8797 74.04 11.5697 73.74 11.6697C73.29 11.8097 73.91 13.6997 74.12 15.0497C74.28 16.0697 74.6 17.1297 74.79 18.1397C75.17 20.2097 75.56 22.2897 75.94 24.3597C76.71 28.4797 77.7 32.5397 78.62 36.6197C78.72 37.0697 79.42 37.0197 79.36 36.5397H79.37Z" fill="white"/>
<path d="M58.16 33.6896C56.15 31.0196 54.14 28.3596 52.07 25.7296C51.04 24.4196 49.99 23.1196 48.93 21.8296C48.4 21.1896 47.87 20.5396 47.34 19.8996C46.81 19.2596 46.7 18.7596 45.88 18.4396C45.21 18.1796 44.17 18.7596 44.45 19.1896C44.88 19.8496 45.39 20.5996 45.88 21.1796C46.42 21.8096 46.96 22.4496 47.5 23.0796C48.58 24.3396 49.68 25.5996 50.79 26.8396C53.01 29.3196 55.38 31.6496 57.55 34.1696C58.36 35.1096 62.54 39.0396 58.16 33.6996V33.6896Z" fill="white"/>
<path d="M67.21 153.53C65.53 155.55 63.74 157.48 62.04 159.48C60.34 161.48 58.7 163.41 57.04 165.39L52.06 171.32C51.21 172.33 50.37 173.34 49.54 174.36C48.71 175.38 47.72 176.33 47.15 177.5C46.72 178.39 48.35 179.07 48.59 179.01C49.84 178.73 50.46 177.24 51.27 176.21C52.08 175.18 52.79 173.97 53.6 172.93C55.18 170.87 56.77 168.81 58.35 166.76C59.93 164.71 61.5 162.63 63.08 160.56C64.66 158.49 66.2 156.26 67.83 154.17C68.17 153.73 67.59 153.09 67.22 153.53H67.21Z" fill="white"/>
<path d="M48.94 143.06C47.37 143.92 45.72 144.58 44.18 145.5C42.64 146.42 41.13 147.37 39.62 148.31C38.11 149.25 36.67 150.17 35.19 151.11L32.87 152.58C32.1 153.07 30.66 153.95 29.74 154.44C29.2 154.73 30.59 155.98 31.37 155.68C32.23 155.34 33.02 154.83 33.79 154.32L36.08 152.8C37.57 151.81 39.02 150.63 40.5 149.63C41.98 148.63 43.36 147.68 44.84 146.66C46.32 145.64 47.82 144.39 49.25 143.3C49.47 143.14 49.16 142.93 48.92 143.06H48.94Z" fill="white"/>
<path d="M123.49 147.94C127.22 151.03 131.06 153.98 134.88 156.96L140.56 161.39C142.48 162.89 144.51 164.49 146.44 165.96C146.9 166.31 148.87 165.16 147.62 164.32C147.33 164.13 146.63 163.74 146.36 163.52C145.63 162.93 145.05 163.83 145.46 164.7C145.61 165.01 145.75 165.29 145.95 165.57L147.48 164.39C145.6 162.91 143.55 161.61 141.61 160.21L135.65 155.93C131.71 153.1 127.8 150.25 123.78 147.54C123.54 147.38 123.25 147.75 123.47 147.94H123.49Z" fill="white"/>
<path d="M45.27 41.9399C42.74 40.5999 40.24 39.1799 37.72 37.7999L34.12 35.8299C33.5 35.4899 32.89 35.1599 32.3 34.7699C31.71 34.3799 30.69 33.7399 30.27 33.9199C29.37 34.3099 29.08 35.1499 29.44 35.3399C30.05 35.6699 30.68 36.0899 31.32 36.3299C31.96 36.5699 32.62 36.8599 33.26 37.1599L37.21 39.0099C39.81 40.2199 42.42 41.3899 45.01 42.6399C45.46 42.8499 45.7 42.1499 45.28 41.9299L45.27 41.9399Z" fill="white"/>
<path d="M146.33 106.8C149.14 106.87 151.94 106.77 154.75 106.64C156.11 106.57 157.47 106.49 158.82 106.42C159.52 106.38 160.22 106.38 160.92 106.33C162.75 106.21 163.06 106.26 163.35 105.77C163.79 105 163.93 104.4 163 104.46C162.27 104.5 161.62 104.56 160.91 104.66C160.2 104.76 159.52 104.83 158.82 104.89C157.43 105.02 156.03 105.15 154.64 105.29C151.84 105.58 149.07 105.9 146.3 106.39C146.03 106.44 146.06 106.8 146.33 106.81V106.8Z" fill="white"/>
<path d="M36.3 119.31C34.19 119.53 32.09 119.73 29.99 120.04C27.89 120.35 25.11 120.58 23.02 120.93C22.07 121.09 22.8 122.99 23.85 122.79C25.98 122.38 28.1 121.86 30.23 121.43C32.36 121 34.37 120.47 36.44 119.95C36.8 119.86 36.66 119.28 36.3 119.31Z" fill="white"/>
<path d="M135.39 135.72C138.05 136.79 140.68 137.93 143.33 139.03L147.12 140.6C147.77 140.87 148.42 141.14 149.05 141.46C149.68 141.78 150.76 142.32 151.16 142.09C152.02 141.6 152.21 140.74 151.84 140.59C151.19 140.32 150.52 139.98 149.86 139.8C149.2 139.62 148.51 139.41 147.84 139.18L143.71 137.76C141 136.83 138.27 135.94 135.57 134.98C135.1 134.81 134.94 135.54 135.38 135.71L135.39 135.72Z" fill="white"/>
</g>
<defs>
<clipPath id="clip0_12781_107971">
<rect width="174.67" height="217.92" fill="white"/>
</clipPath>
</defs>
</svg>
