<svg width="171" height="186" viewBox="0 0 171 186" fill="none" xmlns="http://www.w3.org/2000/svg">
<g clip-path="url(#clip0_12781_107405)">
<path d="M150.03 104.08C150.03 104.08 155.97 107.92 155.27 130.97C154.57 154.02 159.46 176.72 146.89 182.31C134.32 187.9 117.9 184.75 96.25 185.1C74.6 185.45 52.94 185.8 45.61 180.91C38.28 176.02 38.62 163.1 39.67 147.03C40.72 130.96 39.32 112.8 41.07 106.51C42.82 100.22 51.2 97.08 57.14 97.08C63.08 97.08 92.42 97.78 107.44 97.43C122.46 97.08 141.67 94.99 150.05 104.07L150.03 104.08Z" fill="#ED2690"/>
<path d="M170.79 180.68C170.79 180.68 152.63 185.92 141.1 176.14C129.57 166.36 150.18 161.12 150.18 162.52C150.18 163.92 156.12 174.4 170.79 180.68Z" fill="#ED2690"/>
<path d="M125 144.071C123.41 157.961 110.62 167.74 95.77 166.04C80.92 164.34 71.32 152.361 72.91 138.471C74.5 124.581 87.29 114.801 102.14 116.501C116.99 118.201 126.59 130.181 125 144.071Z" fill="#FAD429"/>
<path d="M94.49 143.58C94.49 143.58 99.52 147.07 104.54 144.86C104.54 144.86 106.45 143.63 106.54 145.88C106.65 148.41 103.58 152.82 97.44 151.33C91.25 149.83 91.08 140.93 94.48 143.57L94.49 143.58Z" fill="#231F20"/>
<path d="M130.55 136.17C131.73 135.84 132.87 135.45 134.02 135.04C135.17 134.63 136.41 134.21 137.53 133.67C137.82 133.53 137.98 133.18 137.99 132.87C137.99 132.63 137.91 132.37 137.72 132.22C137.36 131.93 137.02 131.89 136.6 132.08C135.5 132.55 134.45 133.19 133.41 133.77C132.37 134.35 131.33 134.96 130.32 135.62C130.04 135.81 130.21 136.28 130.56 136.18L130.55 136.17Z" fill="white"/>
<path d="M129.87 146.93C130.17 147.16 130.55 147.17 130.91 147.23C131.24 147.28 131.56 147.34 131.89 147.39C132.61 147.49 133.34 147.58 134.07 147.66C135.52 147.81 136.97 147.96 138.42 148.08C138.86 148.12 139.24 147.68 139.24 147.26C139.24 146.79 138.86 146.47 138.42 146.44C136.97 146.34 135.52 146.26 134.07 146.19C133.35 146.15 132.62 146.13 131.89 146.12C131.27 146.12 130.42 145.99 129.86 146.3C129.59 146.45 129.65 146.78 129.86 146.93H129.87Z" fill="white"/>
<path d="M126.83 156.12C127.33 157.03 128.04 157.81 128.7 158.59C129.36 159.37 130.06 160.18 130.74 160.98C130.88 161.15 130.99 161.29 131.1 161.48C131.34 161.9 131.81 162.15 132.3 162C132.79 161.85 132.94 161.39 132.86 160.95C132.81 160.68 132.65 160.45 132.42 160.31C132.32 160.25 132.25 160.22 132.17 160.16C131.36 159.51 130.61 158.77 129.83 158.07C128.97 157.29 128.11 156.45 127.1 155.86C126.93 155.76 126.74 155.96 126.83 156.13V156.12Z" fill="white"/>
<path d="M71.28 126.49C71.15 125.99 70.75 125.53 70.48 125.1C70.19 124.65 69.89 124.21 69.58 123.77C69.27 123.33 68.96 122.89 68.66 122.45C68.36 122.01 68.08 121.5 67.79 121.03C67.45 120.49 67.08 119.68 66.31 119.88C65.97 119.97 65.74 120.31 65.74 120.66C65.74 121.09 66.05 121.36 66.31 121.65C66.67 122.05 67.04 122.43 67.4 122.82C67.76 123.21 68.12 123.66 68.48 124.09C68.86 124.55 69.23 125.02 69.63 125.46C69.84 125.69 70.06 125.93 70.27 126.16C70.47 126.38 70.66 126.63 70.92 126.78C71.11 126.89 71.35 126.71 71.29 126.49H71.28Z" fill="white"/>
<path d="M67.71 132.6C67.37 132.49 67.06 132.31 66.72 132.18C66.43 132.07 66.14 132 65.84 131.92C65.2 131.75 64.56 131.57 63.93 131.39C62.67 131.03 61.4 130.58 60.11 130.32C59.66 130.23 59.19 130.45 59.06 130.91C58.94 131.34 59.21 131.85 59.65 131.96C60.96 132.27 62.34 132.4 63.67 132.61C64.33 132.71 64.98 132.82 65.64 132.94C65.96 133 66.28 133.05 66.6 133.08C66.95 133.11 67.29 133.08 67.65 133.11C67.95 133.15 67.98 132.69 67.72 132.6H67.71Z" fill="white"/>
<path d="M66.91 143.52C65.73 144.07 64.53 144.57 63.33 145.1C62.75 145.35 62.18 145.61 61.6 145.86C60.97 146.14 60.17 146.35 59.76 146.94C59.42 147.43 59.87 148.15 60.44 148.13C61.14 148.11 61.79 147.52 62.35 147.15C62.87 146.81 63.39 146.46 63.92 146.12C65 145.41 66.07 144.67 67.17 143.98C67.46 143.8 67.21 143.39 66.91 143.53V143.52Z" fill="white"/>
<path d="M109.07 137.57C109.07 137.57 109.8 134.43 112.69 135.03C115.58 135.63 114.66 139.48 115.34 139.56C116.02 139.64 116.25 138 115.44 136.17C114.75 134.63 112.84 133.79 111.12 134.06C109.4 134.33 108.42 136.23 108.31 137.43C108.22 138.41 108.48 138.58 108.71 138.58C108.9 138.58 108.98 138.56 109.09 137.57H109.07Z" fill="#231F20"/>
<path d="M91.59 135.84C91.59 135.84 91.59 132.62 88.64 132.55C85.69 132.48 85.72 136.37 85.04 136.36C84.19 136.36 84.42 134.96 85.66 133.07C86.69 131.51 88.79 131.3 90.4 131.96C92.01 132.62 92.62 134.7 92.38 135.88C92.14 137.06 92.03 136.84 91.86 136.85C91.67 136.87 91.48 136.83 91.6 135.84H91.59Z" fill="#231F20"/>
<path d="M23.05 81.6003C23.05 81.6003 17.11 77.7603 17.81 54.7103C18.51 31.6603 13.62 8.95031 26.2 3.36031C38.78 -2.22969 55.19 0.920307 76.84 0.570307C98.49 0.220307 120.15 -0.129693 127.48 4.76031C134.81 9.65031 134.47 22.5703 133.42 38.6403C132.37 54.7103 133.77 72.8703 132.02 79.1603C130.27 85.4503 121.89 88.5903 115.95 88.5903C110.01 88.5903 80.67 87.8903 65.65 88.2403C50.63 88.5903 31.42 90.6803 23.04 81.6003H23.05Z" fill="#12BAAC"/>
<path d="M0 85.0905C0 85.0905 15.37 93.8205 30.74 83.3405C46.11 72.8605 21.66 70.7705 21.66 70.7705C21.66 70.7705 21.31 79.5005 0.01 85.0905H0Z" fill="#12BAAC"/>
<path d="M94.36 58.93C94.36 58.93 92.5 60.35 93.46 54.01C93.84 51.51 95.96 21.62 97 21.12C98.04 20.62 99.33 20.62 99.46 21.37C99.59 22.12 96.22 50.24 95.83 53.61C95.44 56.98 95.14 58.77 94.35 58.94L94.36 58.93Z" fill="#231F20"/>
<path d="M95.3701 67.1602C95.3701 68.5202 94.7601 69.2702 93.5001 69.2702C92.2401 69.2702 90.8101 68.2902 90.8101 66.9302C90.8101 65.5702 91.8901 64.7002 93.1501 64.7002C94.4101 64.7002 95.3801 65.8002 95.3801 67.1602H95.3701Z" fill="#231F20"/>
<path d="M75.7399 55.9607C75.7399 55.9607 73.7999 57.4407 74.0699 51.6307C74.1899 49.1007 72.6499 19.2707 73.6199 18.6607C74.5899 18.0507 76.3399 17.9207 76.5599 18.6607C76.7799 19.4007 76.4299 47.7107 76.5099 51.1007C76.6099 55.5107 76.2499 55.7807 75.7499 55.9607H75.7399Z" fill="#231F20"/>
<path d="M73.88 65.4707C72.99 64.4507 72.96 63.4807 73.91 62.6507C74.86 61.8207 76.59 61.6207 77.48 62.6507C78.37 63.6807 78.13 65.0407 77.18 65.8707C76.23 66.7007 74.78 66.5007 73.89 65.4807L73.88 65.4707Z" fill="#231F20"/>
<path d="M59.7801 58.6399C59.7801 58.6399 58.1801 60.0499 58.1101 54.8899C58.0701 52.3599 54.0201 22.3199 54.9301 21.6299C55.8401 20.9399 57.2401 20.6299 57.5101 21.3399C57.7801 22.0499 59.7801 50.3499 60.1201 53.7299C60.5701 58.1099 60.7201 58.4099 59.7801 58.6399Z" fill="#231F20"/>
<path d="M58.97 65.47C58.71 66.8 59.55 67.78 60.79 68.03C62.03 68.28 63.23 67.46 63.5 66.13C63.76 64.8 62.87 63.74 61.64 63.49C60.41 63.24 59.24 64.14 58.98 65.47H58.97Z" fill="#231F20"/>
</g>
<defs>
<clipPath id="clip0_12781_107405">
<rect width="170.79" height="185.68" fill="white"/>
</clipPath>
</defs>
</svg>
