<svg width="175" height="208" viewBox="0 0 175 208" fill="none" xmlns="http://www.w3.org/2000/svg">
<g clip-path="url(#clip0_12781_107646)">
<path d="M173 136.99C173 136.99 179.68 177.03 158.65 196.18C137.62 215.33 111.53 197.93 83.94 200.97C56.35 204.02 31.36 218.84 10.52 190.81C-10.32 162.78 5.89001 141.03 7.94001 102.19C9.98001 63.3499 -6.22999 31.5599 4.12001 15.0499C14.48 -1.46008 33.3 -1.04008 57.24 0.989922C84.98 3.33992 90.15 4.72992 120.3 2.39992C150.45 0.0699222 166.13 18.8599 170.65 35.8099C176.3 56.9899 165.68 76.2899 173 136.99Z" fill="#ED2690"/>
<path d="M107.7 158.51C107.7 156.88 104.44 140.99 122.37 129.98C140.3 118.98 146.01 101.86 144.38 83.1103C142.75 64.3603 126.45 41.5403 90.58 41.1303C54.72 40.7203 35.97 69.6603 37.6 89.2203C39.23 108.78 45.34 119.79 55.53 127.53C65.72 135.27 75.5 139.76 72.24 156.47C68.98 173.18 104.44 171.14 104.84 169.92C105.24 168.7 107.69 158.51 107.69 158.51H107.7Z" fill="#FAD429"/>
<path d="M102.28 164.16C102.36 156.39 102.53 148.59 103.16 140.84C103.79 133.09 104.78 125.83 106.58 118.49C107.47 114.85 108.49 111.18 109.83 107.68C110.33 106.37 110.93 105.09 111.6 103.85C112.27 102.61 113.04 101.34 114.04 100.31C114.93 99.3999 116.26 98.6199 117.55 98.5399C118.97 98.4499 119.88 99.4999 120.12 100.82C120.38 102.23 119.84 103.72 119.2 104.95C118.47 106.33 117.51 107.59 116.4 108.69C115.29 109.79 113.98 110.78 112.5 111.33C111.13 111.84 109.67 112 108.22 112.16C105.23 112.49 102.01 111.47 100.59 108.63C100.11 107.68 99.89 106.57 99.79 105.52C99.68 104.36 99.69 103.15 99.97 102.01C100.17 101.2 100.53 100.21 101.36 99.8499C102.04 99.5499 102.63 99.8799 102.87 100.49C103.21 101.35 103.07 102.41 102.92 103.29C102.72 104.48 102.37 105.64 101.97 106.78C101.62 107.76 101.23 108.73 100.75 109.64C100.04 110.99 98.94 112.11 97.6 112.83C96.26 113.55 94.74 113.77 93.31 113.28C91.88 112.79 90.88 111.71 90.13 110.5C89.38 109.29 88.83 107.8 88.44 106.37C87.92 104.46 87.48 102.53 87.17 100.58C86.59 96.9199 86.55 93.1999 87.08 89.5299C87.22 88.5399 87.4 87.5599 87.61 86.5899C87.77 85.8299 87.93 85.0699 88.26 84.3599C88.65 83.5499 89.71 82.0099 90.55 83.2499C91.29 84.3399 91.36 85.8699 91.48 87.1399C91.66 88.9999 91.76 90.8799 91.75 92.7499C91.73 96.3299 91.27 99.8799 90.4 103.35C89.95 105.17 89.39 106.97 88.77 108.74C88.57 109.32 89.48 109.56 89.68 108.99C91 105.22 91.99 101.34 92.43 97.3599C92.87 93.3799 92.79 89.4999 92.25 85.6499C92.08 84.4599 91.81 82.8499 90.73 82.1099C89.44 81.2299 88.17 82.4999 87.58 83.5899C87.2 84.2899 86.98 85.0299 86.8 85.7999C86.56 86.8599 86.36 87.9199 86.2 88.9899C85.9 90.9799 85.73 92.9799 85.75 94.9999C85.78 99.0599 86.5 103.13 87.63 107.02C88.48 109.95 90.02 113.24 93.16 114.25C96.3 115.26 99.85 113.18 101.42 110.41C101.99 109.41 102.42 108.31 102.82 107.23C103.26 106.01 103.64 104.76 103.85 103.48C104.02 102.44 104.15 101.27 103.79 100.26C103.47 99.3799 102.66 98.6899 101.68 98.8199C99.22 99.1199 98.77 102.36 98.78 104.32C98.78 107.04 99.53 109.8 101.78 111.52C104.5 113.6 108.02 113.37 111.19 112.7C114.36 112.03 117.16 109.72 119.06 107C120 105.66 120.81 104.13 121.05 102.5C121.27 101.05 121 99.3899 119.86 98.3699C118.72 97.3499 117.19 97.4599 115.88 97.9999C114.47 98.5799 113.39 99.4999 112.47 100.71C110.55 103.24 109.28 106.26 108.28 109.25C105.65 117.06 103.95 125.14 102.98 133.32C102.01 141.5 101.76 149.68 101.76 157.88C101.76 159.98 101.79 162.07 101.8 164.17C101.8 164.47 102.27 164.47 102.27 164.17L102.28 164.16Z" fill="#231F20"/>
<path d="M78.09 164.71C78.15 158.44 78.23 152.16 77.97 145.89C77.71 139.62 77.22 133.74 76.3 127.72C75.38 121.7 73.97 115.52 72.03 109.63C71.63 108.43 71.23 107.23 70.66 106.1C70.09 104.97 69.48 103.97 68.78 102.98C67.46 101.12 65.83 99.1597 63.55 98.4897C62.52 98.1897 61.36 98.2397 60.47 98.8797C59.58 99.5197 59 100.59 58.83 101.67C58.48 103.9 59.37 106.22 60.55 108.08C61.14 109.01 61.86 109.9 62.7 110.61C63.63 111.4 64.75 111.93 65.87 112.4C66.99 112.87 68.15 113.16 69.34 113.36C70.63 113.58 71.98 113.8 73.3 113.74C75.75 113.63 78.15 112.56 79.6 110.54C80.71 109 81.07 106.99 81.11 105.13C81.15 103.48 80.96 101.44 79.77 100.17C79.26 99.6197 78.48 99.2597 77.72 99.3797C77.01 99.4897 76.42 99.9397 76.05 100.55C75.17 102.02 75.36 104.03 75.6 105.65C75.86 107.4 76.35 109.18 77.21 110.74C78.31 112.72 79.98 114.63 82.35 114.92C84.54 115.19 86.67 114.1 87.9 112.31C88.56 111.34 88.98 110.2 89.29 109.07C89.45 108.48 88.54 108.23 88.38 108.82C87.85 110.75 86.93 112.76 84.99 113.59C84.07 113.98 83.01 114.14 82.03 113.91C81.05 113.68 80.22 113.11 79.54 112.39C78.27 111.06 77.49 109.38 77 107.63C76.54 106 76.23 104.23 76.43 102.53C76.47 102.2 76.54 101.87 76.65 101.55C76.73 101.32 76.89 100.99 77.02 100.83C77.37 100.41 77.85 100.21 78.36 100.36C78.87 100.51 79.29 100.98 79.56 101.53C79.9 102.21 80.05 102.99 80.12 103.75C80.28 105.43 80.12 107.22 79.49 108.8C78.71 110.78 76.83 112.12 74.79 112.6C73.63 112.87 72.47 112.83 71.3 112.7C70.13 112.57 68.92 112.39 67.76 112.06C66.6 111.73 65.53 111.27 64.49 110.7C63.61 110.22 62.87 109.56 62.23 108.8C60.92 107.24 59.87 105.18 59.71 103.13C59.64 102.19 59.78 101.26 60.29 100.45C60.8 99.6397 61.64 99.2097 62.6 99.2897C64.69 99.4697 66.34 101.33 67.52 102.89C68.88 104.69 70 106.66 70.73 108.8C72.62 114.33 74.03 120.03 75.02 125.79C76.01 131.55 76.55 137.13 76.9 142.84C77.25 148.55 77.39 154.53 77.51 160.38C77.54 161.83 77.59 163.28 77.6 164.73C77.6 165.03 78.07 165.03 78.07 164.73L78.09 164.71Z" fill="#231F20"/>
<path d="M75.99 125.42C78.58 132 92.99 130.5 98.76 129.68C100.62 129.27 102.78 128.8 103.7 127.06C104.55 125.27 103.16 123.44 101.55 122.64C97.88 120.73 93.56 120.63 89.46 120.52C86.04 120.62 75.14 120.19 75.98 125.41L75.99 125.42ZM74.91 125.6C73.97 119.03 85.22 119.47 89.47 119.32C94.36 119.5 100.13 119.43 103.97 123C105.08 124.19 105.53 126.06 104.79 127.57C103.72 129.74 101.09 130.41 98.99 130.85C92.93 131.77 77.2 132.89 74.91 125.61V125.6Z" fill="#231F20"/>
<path d="M76.51 181.19C76.51 181.19 77.41 193.54 89.46 193.24C101.51 192.94 104.22 183.9 103.62 180.59C103.02 177.28 76.51 181.19 76.51 181.19Z" fill="#F2F1F1"/>
<mask id="mask0_12781_107646" style="mask-type:luminance" maskUnits="userSpaceOnUse" x="76" y="179" width="28" height="15">
<path d="M76.51 181.19C76.51 181.19 77.41 193.54 89.46 193.24C101.51 192.94 104.22 183.9 103.62 180.59C103.02 177.28 76.51 181.19 76.51 181.19Z" fill="white"/>
</mask>
<g mask="url(#mask0_12781_107646)">
<path d="M68.37 184.41C68.37 184.41 112.04 183.21 114.45 183.51C116.86 183.81 121.98 176.58 121.08 175.68C120.18 174.78 56.62 173.57 55.72 173.87C54.82 174.17 68.37 184.41 68.37 184.41Z" fill="#231F20"/>
</g>
<path d="M85.94 33.4998C86.28 29.7298 86.45 25.9598 86.51 22.1798C86.54 20.3398 86.55 18.5098 86.55 16.6698C86.55 15.6998 86.55 14.7298 86.54 13.7498C86.53 12.7698 86.84 11.4098 85.83 11.1898C85.4 11.0998 84.98 11.0598 84.42 11.2298C83.67 11.4498 83.99 12.9198 84.01 13.8198C84.03 14.7898 84.04 15.7698 84.06 16.7398C84.11 18.6298 84.15 20.5298 84.22 22.4198C84.37 26.1498 84.61 29.8798 85.02 33.5898C85.08 34.1398 85.9 33.9998 85.94 33.4998Z" fill="#FAD429"/>
<path d="M117.89 38.7498C119.26 36.7798 120.57 34.8198 121.79 32.7498C123.01 30.6798 123.93 28.4498 125.41 26.5898C126.13 25.6798 123.66 24.6598 123.23 25.2898C123 25.6398 122.89 26.0498 122.73 26.4398C122.28 27.4998 123.78 28.0898 124.49 27.4798C124.74 27.2698 124.98 27.0698 125.22 26.8398L123.24 25.2898C122.11 27.4398 121.06 29.6398 119.97 31.8098C118.88 33.9798 117.96 36.1598 117.05 38.3898C116.84 38.8998 117.61 39.1598 117.89 38.7498Z" fill="#FAD429"/>
<path d="M141.49 58.9505C144.82 58.0205 148.02 56.6905 151.16 55.2405C152.73 54.5205 154.28 53.7705 155.82 53.0005C157.36 52.2305 159.24 51.4505 160.57 50.3405C161.47 49.5905 159.94 48.2305 159.33 48.3005C157.65 48.5005 156.05 49.7505 154.58 50.6005C153.11 51.4505 151.57 52.2905 150.05 53.1105C147.02 54.7305 144.17 56.4805 141.19 58.1805C140.79 58.4105 141.02 59.0805 141.49 58.9505Z" fill="#FAD429"/>
<path d="M136.92 128.31C140.73 130.94 144.44 133.71 148.17 136.45C149.99 137.79 151.84 139.1 153.69 140.39L156.62 142.42C157.48 143.02 158.15 143.91 158.84 143.14C159.16 142.78 159.23 142.59 159.39 142.25C159.91 141.18 158.83 140.88 157.97 140.33L155.11 138.5C153.16 137.26 151.19 136.04 149.21 134.85C145.25 132.47 141.26 130.12 137.37 127.63C136.98 127.38 136.53 128.06 136.92 128.32V128.31Z" fill="#FAD429"/>
<path d="M149.65 97.1305C150.81 97.1305 151.97 97.3105 153.13 97.3305C154.18 97.3405 155.23 97.3105 156.28 97.2905C157.33 97.2705 158.39 97.2505 159.45 97.2105C160.51 97.1705 163.99 97.4205 163.83 96.2705C163.74 95.6405 163.72 95.6705 163.5 94.9605C163.3 94.3005 161.46 94.7105 160.82 94.7605C160.26 94.8105 159.69 94.8705 159.13 94.9305C158.09 95.0405 157.05 95.1805 156 95.3205C154.95 95.4605 153.92 95.5805 152.88 95.7605C151.76 95.9405 149.82 96.4305 148.72 96.6905C147.88 96.8905 148.2 97.1405 149.65 97.1305Z" fill="#FAD429"/>
<path d="M38.95 124.93C35.06 127.61 31.1 130.18 27.2 132.84C23.3 135.5 19.35 138.1 15.48 140.78C14.5 141.46 16.25 143.11 17.03 142.61C20.99 140.08 24.57 136.98 28.32 134.15C32.07 131.32 35.76 128.41 39.53 125.6C39.99 125.26 39.42 124.61 38.96 124.93H38.95Z" fill="#FAD429"/>
<path d="M31.82 97.4697C28.84 97.3997 25.87 97.5297 22.9 97.6697C21.44 97.7397 19.98 97.8197 18.52 97.8797C17.06 97.9397 14.54 97.9897 14.37 98.5997C14.2 99.2097 14.21 100.31 14.59 100.31C15.41 100.31 15.86 100.24 16.62 100.15C17.38 100.06 18.13 99.9597 18.88 99.8697L23.25 99.3797C26.15 99.0497 29.04 98.6997 31.92 98.1697C32.34 98.0897 32.19 97.4697 31.81 97.4597L31.82 97.4697Z" fill="#FAD429"/>
<path d="M35.66 63.1205C31.82 61.5605 27.92 60.1605 24 58.8005L18.26 56.8105C17.25 56.4605 16.25 56.1205 15.24 55.7605C14.23 55.4005 12.71 54.6005 12.24 55.2405C11.61 56.1005 11.2 56.9805 11.69 57.1505C12.73 57.5005 13.49 57.7605 14.48 58.0405C15.47 58.3205 16.42 58.6105 17.4 58.8905L23.39 60.6305C27.38 61.7905 31.38 62.9105 35.42 63.8605C35.85 63.9605 36.09 63.2905 35.67 63.1105L35.66 63.1205Z" fill="#FAD429"/>
<path d="M51.93 42.9703C50.29 40.7403 48.68 38.4803 47.02 36.2603C46.21 35.1903 45.41 34.1103 44.6 33.0403C43.74 31.9103 43.05 30.6103 42.04 29.6103C41.47 29.0403 39.38 30.3703 40.31 31.2303C40.7 31.6003 41.1 32.0103 41.56 32.2903C42.19 32.6803 43.23 32.0903 42.95 31.2903C42.77 30.7703 42.53 30.3003 42.22 29.8503L40.31 31.2303C41.15 32.3103 42.13 33.3103 43.02 34.3503C43.91 35.3903 44.81 36.4403 45.71 37.4903C47.51 39.5803 49.35 41.6203 51.17 43.6903C51.63 44.2103 52.33 43.5003 51.94 42.9703H51.93Z" fill="#FAD429"/>
<path d="M56.38 144.85C55.28 146.98 54.23 149.1 53.3 151.31C52.37 153.52 51.74 155.85 50.52 157.9C49.93 158.89 52.51 159.59 52.85 158.9C53.04 158.53 53.09 158.1 53.2 157.7C53.5 156.59 51.95 156.2 51.32 156.9C51.1 157.14 50.88 157.37 50.68 157.63L52.85 158.91C53.68 156.63 54.45 154.32 55.23 152.02C56.01 149.72 56.65 147.45 57.26 145.12C57.4 144.59 56.6 144.43 56.38 144.87V144.85Z" fill="#FAD429"/>
<path d="M117.19 145.23C118.49 147.29 119.76 149.38 121.07 151.43C121.7 152.42 122.34 153.41 122.98 154.4C123.65 155.45 124.21 156.66 125 157.57C125.44 158.09 126.97 156.75 126.26 155.97C125.95 155.64 125.64 155.26 125.29 155C124.8 154.65 124.04 155.25 124.27 155.99C124.42 156.47 124.61 156.92 124.86 157.33L126.26 155.96C125.6 154.97 124.84 154.05 124.14 153.09C123.44 152.13 122.74 151.17 122.03 150.21C120.62 148.29 119.18 146.42 117.76 144.51C117.4 144.03 116.89 144.73 117.2 145.22L117.19 145.23Z" fill="#FAD429"/>
<path d="M73.42 152.5C73.42 152.5 108.35 151.64 108.7 152.67C109.05 153.7 109.57 152.84 109.22 165.37C108.87 177.9 108.7 180.47 107.48 181.85C106.26 183.23 92.19 182.71 83.15 183.05C74.11 183.39 73.07 183.22 72.2 182.02C71.33 180.82 71.68 159.71 71.68 156.62C71.68 153.53 71.85 152.67 73.42 152.5Z" fill="#F2F1F1"/>
<mask id="mask1_12781_107646" style="mask-type:luminance" maskUnits="userSpaceOnUse" x="71" y="152" width="39" height="32">
<path d="M73.42 152.5C73.42 152.5 108.35 151.64 108.7 152.67C109.05 153.7 109.57 152.84 109.22 165.37C108.87 177.9 108.7 180.47 107.48 181.85C106.26 183.23 92.19 182.71 83.15 183.05C74.11 183.39 73.07 183.22 72.2 182.02C71.33 180.82 71.68 159.71 71.68 156.62C71.68 153.53 71.85 152.67 73.42 152.5Z" fill="white"/>
</mask>
<g mask="url(#mask1_12781_107646)">
<path d="M58.17 163.761C63.94 162.871 69.71 161.901 75.48 160.991C80.84 160.141 86.21 159.291 91.56 158.411C96.91 157.531 101.73 156.691 106.8 155.721C111.87 154.751 116.66 153.751 121.56 152.581C126.46 151.411 131.37 150.131 136.19 148.611C136.8 148.421 137.4 148.211 138.01 147.991C138.37 147.861 138.23 147.301 137.85 147.411C135.38 148.081 132.93 148.841 130.47 149.531C128.01 150.221 125.63 150.841 123.2 151.441C118.32 152.641 113.41 153.711 108.49 154.681C103.57 155.651 98.4 156.581 93.34 157.441C88.03 158.341 82.72 159.221 77.4 160.101C71.71 161.041 65.99 161.941 60.33 163.051C59.59 163.201 58.85 163.341 58.12 163.491C57.94 163.531 58.02 163.781 58.19 163.761H58.17Z" fill="#231F20"/>
<path d="M53.62 170.91C56.42 170.54 59.19 170.01 61.97 169.54C64.75 169.07 67.55 168.59 70.34 168.11C75.84 167.17 81.35 166.23 86.84 165.25C92.33 164.27 97.69 163.27 103.09 162.17C108.49 161.07 113.83 159.91 119.16 158.61C121.83 157.96 124.49 157.28 127.14 156.56C129.79 155.84 132.47 155.13 135.09 154.26C135.74 154.05 136.38 153.82 137.01 153.57C137.36 153.44 137.23 152.91 136.85 153C134.16 153.65 131.53 154.48 128.87 155.22C126.21 155.96 123.56 156.66 120.9 157.32C115.6 158.65 110.28 159.85 104.94 160.97C99.6 162.09 94.14 163.13 88.72 164.14C83.3 165.15 77.81 166.11 72.35 167.09C66.89 168.07 61.18 169.02 55.63 170.17C54.94 170.31 54.26 170.46 53.57 170.62C53.41 170.66 53.44 170.94 53.61 170.92L53.62 170.91Z" fill="#231F20"/>
<path d="M51.77 176.971C54.75 176.721 57.72 176.291 60.68 175.891C63.64 175.491 66.68 175.071 69.68 174.621C75.7 173.731 81.71 172.781 87.7 171.761C93.69 170.741 99.62 169.671 105.56 168.531C111.5 167.391 117.43 166.191 123.34 164.931C126.3 164.301 129.25 163.661 132.2 163.001C134.34 162.521 136.88 162.111 138.46 160.431C138.8 160.071 139.02 159.651 139.19 159.181C139.31 158.831 138.8 158.641 138.61 158.941C137.42 160.821 135.16 161.451 133.12 161.921C130.24 162.581 127.35 163.211 124.46 163.831C118.63 165.091 112.79 166.291 106.94 167.431C101.06 168.581 95.17 169.671 89.27 170.711C83.37 171.751 77.51 172.721 71.62 173.651C65.73 174.581 59.82 175.411 53.93 176.311C53.2 176.421 52.47 176.541 51.74 176.671C51.57 176.701 51.61 176.991 51.78 176.981L51.77 176.971Z" fill="#231F20"/>
<path d="M50.46 181.95C56.57 181.67 62.67 181.08 68.76 180.48C74.85 179.87 80.93 179.16 87 178.36C93.04 177.56 99.08 176.68 105.09 175.72C111.1 174.76 117.21 173.69 123.25 172.54C126.25 171.97 129.25 171.38 132.24 170.76C135.23 170.14 138.23 169.56 141.2 168.83C141.94 168.65 142.66 168.46 143.38 168.21C143.65 168.12 143.63 167.63 143.31 167.67C141.84 167.83 140.39 168.16 138.94 168.46C137.49 168.76 135.92 169.1 134.41 169.42C131.42 170.04 128.42 170.65 125.42 171.23C119.42 172.4 113.4 173.48 107.37 174.48C101.34 175.48 95.35 176.39 89.31 177.21C83.27 178.03 77.12 178.8 71.01 179.47C64.92 180.14 58.82 180.72 52.72 181.3C51.96 181.37 51.21 181.45 50.45 181.53C50.18 181.56 50.17 181.97 50.45 181.96L50.46 181.95Z" fill="#231F20"/>
</g>
</g>
<defs>
<clipPath id="clip0_12781_107646">
<rect width="174.01" height="207.61" fill="white"/>
</clipPath>
</defs>
</svg>
