<svg width="166" height="157" viewBox="0 0 166 157" fill="none" xmlns="http://www.w3.org/2000/svg">
<g clip-path="url(#clip0_12781_107742)">
<path d="M7.84997 108.98C7.84997 108.98 39.38 42.1496 61.02 12.9796C82.66 -16.1904 97.73 8.73959 118.9 39.3296C140.08 69.9196 163.61 112.74 165.02 131.09C166.43 149.44 142.43 153.68 107.61 156.03C72.79 158.38 14.33 155.16 5.56997 149.45C-3.19003 143.74 -1.57003 133.91 7.83997 108.97L7.84997 108.98Z" fill="#12BAAC"/>
<path d="M28.07 105.69C28.07 105.69 52.36 54.5498 66.81 34.0798C81.27 13.6098 84.03 21.2798 104.34 47.3198C120.14 67.5898 144.01 109.06 144.96 121.93C145.9 134.81 121.42 137.94 98.16 139.59C74.9 141.24 32.45 138.29 25.75 135.62C19.13 132.97 17.73 125.14 28.07 105.69Z" fill="#F2F1F1"/>
<path d="M81.7 107.58C81.7 107.58 78.68 107.58 78.14 102.64C77.6 97.7004 75.8 66.6304 74.03 52.7304C72.38 39.8404 79.24 40.9404 81.16 40.9404C83.08 40.9404 86.92 40.6704 86.92 49.4404C86.92 56.8504 85 93.5904 85 99.6204C85 105.65 85.55 107.3 81.71 107.57L81.7 107.58Z" fill="#231F20"/>
<path d="M88.83 121.1C88.83 124.58 86.58 127.29 82.25 127.41C78.47 127.52 75.67 124.59 75.67 121.1C75.67 117.61 77.67 114.54 82.21 114.46C86.75 114.38 88.83 117.61 88.83 121.1Z" fill="#231F20"/>
</g>
<defs>
<clipPath id="clip0_12781_107742">
<rect width="165.08" height="156.81" fill="white"/>
</clipPath>
</defs>
</svg>
